<svg id="Layer_1" data-name="Layer 1" xmlns="http://www.w3.org/2000/svg" xmlns:xlink="http://www.w3.org/1999/xlink" viewBox="0 0 320 120"><defs><style>.cls-1,.cls-2{fill:none;}.cls-1{clip-rule:evenodd;}.cls-3{fill:#fff;}.cls-4{clip-path:url(#clip-path);}.cls-5{clip-path:url(#clip-path-2);}.cls-6{clip-path:url(#clip-path-3);}.cls-7{clip-path:url(#clip-path-5);}.cls-8{clip-path:url(#clip-path-7);}.cls-9{clip-path:url(#clip-path-9);}.cls-10{clip-path:url(#clip-path-11);}</style><clipPath id="clip-path"><path class="cls-1" d="M131.91,86v2.5h5.82a5.33,5.33,0,0,1-1.32,3.15,5.92,5.92,0,0,1-4.5,1.83,6.66,6.66,0,0,1,0-13.3A6.15,6.15,0,0,1,136.3,82L138,80.24a8.33,8.33,0,0,0-6.1-2.54,9.15,9.15,0,0,0,0,18.3,8.07,8.07,0,0,0,6.22-2.57,8.4,8.4,0,0,0,2.11-5.84,8,8,0,0,0-.13-1.56Z"/></clipPath><clipPath id="clip-path-2"><rect class="cls-2" x="-1139.34" y="-2360.72" width="1756.1" height="4127.75"/></clipPath><clipPath id="clip-path-3"><path class="cls-1" d="M148,84.11a5.95,5.95,0,1,0,6,5.94,5.84,5.84,0,0,0-6-5.94m0,9.54a3.61,3.61,0,1,1,3.35-3.6,3.43,3.43,0,0,1-3.35,3.6"/></clipPath><clipPath id="clip-path-5"><path class="cls-1" d="M177.15,85.45h-.09A3.94,3.94,0,0,0,174,84.11a5.75,5.75,0,0,0-5.42,6c0,3.37,2.53,6,5.42,6a3.89,3.89,0,0,0,3.05-1.37h.09v.84c0,2.29-1.18,3.53-3.09,3.53A3.23,3.23,0,0,1,171.14,97l-2.22,1a5.54,5.54,0,0,0,5.14,3.54c3,0,5.51-1.82,5.51-6.25V84.42h-2.42Zm-2.92,8.31c-1.76,0-3.09-1.56-3.09-3.64s1.33-3.65,3.09-3.65,3.09,1.56,3.09,3.67S176,93.76,174.23,93.76Z"/></clipPath><clipPath id="clip-path-7"><path class="cls-1" d="M161.73,84.11a5.95,5.95,0,1,0,6,5.94,5.84,5.84,0,0,0-6-5.94m0,9.54a3.61,3.61,0,1,1,3.35-3.6,3.43,3.43,0,0,1-3.35,3.6"/></clipPath><clipPath id="clip-path-9"><rect class="cls-2" x="182.31" y="78.62" width="2.74" height="18.29"/></clipPath><clipPath id="clip-path-11"><path class="cls-1" d="M192.79,93.65a3,3,0,0,1-2.89-1.8l8-3.28-.26-.68a5.54,5.54,0,0,0-5.1-3.78,5.65,5.65,0,0,0-5.61,5.94,5.82,5.82,0,0,0,5.9,6,6,6,0,0,0,5-2.63l-2-1.35a3.41,3.41,0,0,1-2.93,1.63m-.18-7.31a2.35,2.35,0,0,1,2.25,1.31l-5.38,2.22a3.23,3.23,0,0,1,3.13-3.53"/></clipPath></defs><title>slow-websites-cover</title><path class="cls-3" d="M.72,60.51H3.66V37.07H.72V34.54H12.85v2.53H9.75v23.2H18.2V54.88h4.5v8.17H.72Z"/><path class="cls-3" d="M26.08,52.39c0-7,4.17-11.15,10.42-11.15S46.91,45.4,46.91,52.39,42.75,63.54,36.5,63.54,26.08,59.37,26.08,52.39Zm14.71,3.39V49c0-3.15-1.47-5-4.29-5s-4.29,1.84-4.29,5v6.78c0,3.14,1.47,5,4.29,5S40.79,58.92,40.79,55.78Z"/><path class="cls-3" d="M54.39,61h-.17v2H50.47V56.68h3.75v.93c0,2,1.31,3.15,4.37,3.15,2.78,0,4.09-.82,4.09-2.7,0-1.47-.94-2.32-3-2.81l-2.08-.49c-4.7-1.11-6.9-3.27-6.9-6.95,0-4.2,3.06-6.57,7.72-6.57,2.86,0,4.49,1.18,4.9,2.53h.16v-2h3.76V48.1H63.45v-.94c0-2.08-1.3-3.15-4.29-3.15-2.2,0-3.43.86-3.43,2.46s.86,2.45,3.11,3l2,.45c4.57,1.14,6.94,2.85,6.94,6.9,0,4.25-3.27,6.74-8.25,6.74C56.55,63.54,54.84,62.31,54.39,61Z"/><path class="cls-3" d="M71.21,52.35c0-6.82,4.13-11.11,10.17-11.11s9.88,3.88,9.88,9.88v1.31H77.34v1.51c0,3.8,2.2,5.88,5.55,5.88a5.89,5.89,0,0,0,5.8-3.47l2.08,1.26a9.16,9.16,0,0,1-9.06,5.93C75,63.54,71.21,58.88,71.21,52.35ZM77.34,50h8v-.57c0-3.84-1.47-5.56-4-5.56s-4,1.72-4,5.56Z"/><path class="cls-3" d="M104.45,48.83c0-9.59,5.68-14.78,12.38-14.78,3.55,0,5.59,1.47,6.29,2.9h.2V34.54h4.5v8.94h-4.5V41.56c0-2.69-2.08-4.57-5.67-4.57-4.17,0-6.46,2.78-6.46,7.64v7.63c0,5.23,2.9,7.76,7.19,7.76a7.8,7.8,0,0,0,7.43-5.14L128,56.1a11.15,11.15,0,0,1-10.74,7.44C109.19,63.54,104.45,57.25,104.45,48.83Z"/><path class="cls-3" d="M133.57,55.61v-10L131,45V42.87l8.37-1.63V55.37c0,3.06,1.06,4.45,3.72,4.45,2,0,4.12-1,4.12-3.39V45.57L144.56,45V42.87l8.37-1.63v18l2.61.53V61.9l-8.25,1.64v-4h-.2c-.73,2-2.7,4-6.21,4C135.53,63.54,133.57,60.88,133.57,55.61Z"/><path class="cls-3" d="M162.61,61h-.17v2h-3.75V56.68h3.75v.93c0,2,1.31,3.15,4.37,3.15,2.78,0,4.09-.82,4.09-2.7,0-1.47-.94-2.32-3-2.81l-2.09-.49c-4.69-1.11-6.9-3.27-6.9-6.95,0-4.2,3.06-6.57,7.72-6.57,2.86,0,4.49,1.18,4.9,2.53h.16v-2h3.76V48.1h-3.76v-.94c0-2.08-1.3-3.15-4.28-3.15-2.21,0-3.43.86-3.43,2.46s.85,2.45,3.1,3l2,.45C173.59,51,176,52.75,176,56.8c0,4.25-3.26,6.74-8.25,6.74C164.77,63.54,163.06,62.31,162.61,61Z"/><path class="cls-3" d="M181.47,59.17V44.42h-2.85V41.73h.93c1.72,0,2.5-.66,3.19-2.25l1.59-3.59h2.9v5.84h5v2.69h-5v16h5V62.6a18.7,18.7,0,0,1-6.05.81C182.86,63.41,181.47,62,181.47,59.17Z"/><path class="cls-3" d="M194.63,52.39c0-7,4.16-11.15,10.41-11.15s10.41,4.16,10.41,11.15S211.29,63.54,205,63.54,194.63,59.37,194.63,52.39Zm14.7,3.39V49c0-3.15-1.47-5-4.29-5s-4.29,1.84-4.29,5v6.78c0,3.14,1.47,5,4.29,5S209.33,58.92,209.33,55.78Z"/><path class="cls-3" d="M218.76,60.51h2.61V45.57L218.76,45V42.87L227,41.24v4h.2a6,6,0,0,1,6-4c3.67,0,5.76,1.35,6.58,4H240a6.68,6.68,0,0,1,6.49-4c5.19,0,7.11,2.61,7.11,7.88V60.51h2.61v2.54H245.47V60.51h2.37V49.36c0-3.06-1.06-4.41-3.47-4.41-2,0-4,1.11-4,3.39V60.51h2.36v2.54H232.24V60.51h2.37V49.36c0-3.06-1.07-4.41-3.52-4.41-2,0-4,1.11-4,3.39V60.51h2.37v2.54H218.76Z"/><path class="cls-3" d="M259,52.35c0-6.82,4.12-11.11,10.17-11.11s9.88,3.88,9.88,9.88v1.31H265.15v1.51c0,3.8,2.21,5.88,5.56,5.88a5.9,5.9,0,0,0,5.8-3.47l2.08,1.26a9.17,9.17,0,0,1-9.07,5.93C262.83,63.54,259,58.88,259,52.35ZM265.15,50h8v-.57c0-3.84-1.47-5.56-4-5.56s-4,1.72-4,5.56Z"/><path class="cls-3" d="M282.35,60.51H285V45.57L282.35,45V42.87l8.25-1.63v4h.2a5.48,5.48,0,0,1,5.23-4c2.65,0,4.33,1.47,4.33,3.92,0,2.08-1.15,3.31-3.11,3.31s-3-1.15-3-2.58a1.65,1.65,0,0,1,.82-1.55l0-.16a1.91,1.91,0,0,0-.53-.08c-1.84,0-3.8,2.28-3.8,4.16V60.51h3.43v2.54h-11.8Z"/><path class="cls-3" d="M306.65,61h-.17v2h-3.76V56.68h3.76v.93c0,2,1.31,3.15,4.37,3.15,2.78,0,4.09-.82,4.09-2.7,0-1.47-.94-2.32-3-2.81l-2.08-.49c-4.7-1.11-6.9-3.27-6.9-6.95,0-4.2,3.06-6.57,7.72-6.57,2.86,0,4.49,1.18,4.9,2.53h.16v-2h3.76V48.1h-3.76v-.94c0-2.08-1.3-3.15-4.29-3.15-2.2,0-3.43.86-3.43,2.46s.86,2.45,3.11,3l2,.45C317.63,51,320,52.75,320,56.8c0,4.25-3.27,6.74-8.25,6.74C308.81,63.54,307.09,62.31,306.65,61Z"/><path class="cls-3" d="M84.29,4.89h2.22L81.24,20.46H79L75,7.6,70.9,20.46H68.7L63.45,4.89h2.29l4.11,13.28L73.94,4.89h2.14l4.11,13.28Z"/><path class="cls-3" d="M98.54,9.84a4.56,4.56,0,0,1,1.18,3.34v7.28H97.65V13.74a3.15,3.15,0,0,0-.83-2.32,3.11,3.11,0,0,0-2.3-.84,3.51,3.51,0,0,0-2.72,1.16,4.28,4.28,0,0,0-1,2.93v5.79H88.73V4H90.8v7.28a4.56,4.56,0,0,1,4.49-2.61A4.31,4.31,0,0,1,98.54,9.84Z"/><path class="cls-3" d="M106.05,24.17a3.54,3.54,0,0,1-2.17.69,4,4,0,0,1-1.38-.22,4.05,4.05,0,0,1-1.2-.69l.89-1.63a2.7,2.7,0,0,0,1.58.56,2.15,2.15,0,0,0,2-1.51l.44-1.05L101.34,8.69h2.18l3.74,9.43,3.54-9.43h2.11l-5.38,13.43A4.72,4.72,0,0,1,106.05,24.17Z"/><path class="cls-3" d="M125.48,10.58a5.65,5.65,0,0,0-1.67-.27,2.88,2.88,0,0,0-1.51.35,1.25,1.25,0,0,0,.07,2.13,8.68,8.68,0,0,0,1.92.75,15,15,0,0,1,2,.71,3.54,3.54,0,0,1,1.32,1.05,2.86,2.86,0,0,1,.54,1.82,2.86,2.86,0,0,1-1.25,2.53,5.37,5.37,0,0,1-3.13.87,7.82,7.82,0,0,1-2.54-.42,5.66,5.66,0,0,1-2.08-1.2l.78-1.51a5.34,5.34,0,0,0,1.81,1.06,6,6,0,0,0,2.1.4,3.2,3.2,0,0,0,1.65-.37,1.28,1.28,0,0,0,.62-1.16,1.32,1.32,0,0,0-.66-1.2,8.51,8.51,0,0,0-2-.8,12.91,12.91,0,0,1-1.92-.68,3.45,3.45,0,0,1-1.27-1,2.73,2.73,0,0,1-.52-1.74A2.81,2.81,0,0,1,121,9.42a5.25,5.25,0,0,1,3-.82,7.51,7.51,0,0,1,2.1.3,6.28,6.28,0,0,1,1.79.81l-.75,1.58A7.43,7.43,0,0,0,125.48,10.58Z"/><path class="cls-3" d="M131,4h2.07V20.46H131Z"/><path class="cls-3" d="M145.26,9.38a5.44,5.44,0,0,1,2.13,2.1,6.15,6.15,0,0,1,.77,3.08,6.16,6.16,0,0,1-.77,3.09,5.43,5.43,0,0,1-2.13,2.12,6.95,6.95,0,0,1-6.28,0,5.47,5.47,0,0,1-2.13-2.11,6.14,6.14,0,0,1-.77-3.1,6.15,6.15,0,0,1,.77-3.08A5.44,5.44,0,0,1,139,9.38a6.87,6.87,0,0,1,6.28,0ZM140.07,11a3.76,3.76,0,0,0-1.4,1.48,4.53,4.53,0,0,0-.5,2.14,4.64,4.64,0,0,0,.5,2.18,3.64,3.64,0,0,0,1.4,1.48,4,4,0,0,0,2.06.53,4,4,0,0,0,2-.53,3.64,3.64,0,0,0,1.4-1.48,4.64,4.64,0,0,0,.5-2.18,4.53,4.53,0,0,0-.5-2.14,3.76,3.76,0,0,0-1.4-1.48,3.88,3.88,0,0,0-2-.53A3.93,3.93,0,0,0,140.07,11Z"/><path class="cls-3" d="M149.09,8.69h2.16l3.29,9.72,3.25-9.72h2.15l3.27,9.72,3.25-9.72h2.14l-4.34,11.77H162.1l-3.25-9.26-3.24,9.26h-2.16Z"/><path class="cls-3" d="M174.4,8.69h2.16l3.29,9.72,3.25-9.72h2.15l3.27,9.72,3.25-9.72h2.13l-4.33,11.77h-2.16l-3.25-9.26-3.24,9.26h-2.16Z"/><path class="cls-3" d="M204.69,10.24a6.61,6.61,0,0,1,1.4,4.48c0,.29,0,.52,0,.67h-9.3a4,4,0,0,0,1.33,2.51,3.9,3.9,0,0,0,2.65.93,4.85,4.85,0,0,0,1.95-.38,4.69,4.69,0,0,0,1.57-1.06l1.13,1.18A5.92,5.92,0,0,1,203.31,20a7,7,0,0,1-2.71.51,6.29,6.29,0,0,1-3.08-.74,5.22,5.22,0,0,1-2.09-2.1,6.32,6.32,0,0,1-.75-3.1,6.24,6.24,0,0,1,.75-3.08,5.41,5.41,0,0,1,2.08-2.11,6,6,0,0,1,3-.77A5.16,5.16,0,0,1,204.69,10.24Zm-.47,3.54a3.59,3.59,0,0,0-1.06-2.52,3.62,3.62,0,0,0-2.59-.92,3.74,3.74,0,0,0-2.59.93,3.89,3.89,0,0,0-1.23,2.51Z"/><path class="cls-3" d="M218.39,9.38a5.15,5.15,0,0,1,2,2.11,6.58,6.58,0,0,1,.71,3.12,6.56,6.56,0,0,1-.7,3.08,5.05,5.05,0,0,1-2,2.09,5.73,5.73,0,0,1-2.92.74,5.35,5.35,0,0,1-2.63-.62,4.55,4.55,0,0,1-1.78-1.78v2.34H209V4h2.06V11a4.46,4.46,0,0,1,1.77-1.78,5.23,5.23,0,0,1,2.59-.63A5.75,5.75,0,0,1,218.39,9.38Zm-1.3,8.81a3.66,3.66,0,0,0,1.4-1.49,4.65,4.65,0,0,0,.5-2.16,4.41,4.41,0,0,0-.51-2.13,3.82,3.82,0,0,0-1.4-1.5,4.15,4.15,0,0,0-4.06,0,3.78,3.78,0,0,0-1.41,1.5,4.42,4.42,0,0,0-.52,2.13,4.49,4.49,0,0,0,.52,2.17A3.79,3.79,0,0,0,213,18.19a4.17,4.17,0,0,0,4.07,0Z"/><path class="cls-3" d="M228.81,10.58a5.76,5.76,0,0,0-1.68-.27,2.87,2.87,0,0,0-1.5.35,1.24,1.24,0,0,0,.07,2.13,8.68,8.68,0,0,0,1.92.75,15.35,15.35,0,0,1,2,.71,3.54,3.54,0,0,1,1.32,1.05,2.8,2.8,0,0,1,.55,1.82,2.87,2.87,0,0,1-1.26,2.53,5.36,5.36,0,0,1-3.12.87,7.84,7.84,0,0,1-2.55-.42,5.75,5.75,0,0,1-2.08-1.2l.78-1.51a5.44,5.44,0,0,0,1.81,1.06,6,6,0,0,0,2.1.4,3.18,3.18,0,0,0,1.65-.37,1.28,1.28,0,0,0,.62-1.16,1.33,1.33,0,0,0-.65-1.2,8.51,8.51,0,0,0-2-.8,13.08,13.08,0,0,1-1.93-.68,3.45,3.45,0,0,1-1.27-1,2.79,2.79,0,0,1-.52-1.74,2.81,2.81,0,0,1,1.2-2.47,5.25,5.25,0,0,1,3-.82,7.52,7.52,0,0,1,2.11.3,6.41,6.41,0,0,1,1.79.81l-.76,1.58A7.56,7.56,0,0,0,228.81,10.58Z"/><path class="cls-3" d="M236.17,4.38a1.33,1.33,0,0,1,.37,1,1.34,1.34,0,0,1-.37,1,1.32,1.32,0,0,1-1.85,0,1.33,1.33,0,0,1-.36-1,1.32,1.32,0,0,1,.36-1,1.32,1.32,0,0,1,1.85,0Zm-1.95,4.31h2.07V20.46h-2.07Z"/><path class="cls-3" d="M246.63,19.68a5,5,0,0,1-2.76.86,3.09,3.09,0,0,1-2.26-.83,3.34,3.34,0,0,1-.87-2.52V10.67h-1.67V9.09h1.67V5.93h2.09V9.09h3.6v1.58h-3.6v6.14a2.16,2.16,0,0,0,.36,1.4,1.3,1.3,0,0,0,1.06.42,3.75,3.75,0,0,0,1.83-.55Z"/><path class="cls-3" d="M258,10.24a6.61,6.61,0,0,1,1.4,4.48c0,.29,0,.52,0,.67h-9.3a3.86,3.86,0,0,0,4,3.44,4.85,4.85,0,0,0,1.95-.38,4.69,4.69,0,0,0,1.57-1.06l1.13,1.18A6,6,0,0,1,256.62,20a7,7,0,0,1-2.71.51,6.29,6.29,0,0,1-3.08-.74,5.3,5.3,0,0,1-2.1-2.1,6.43,6.43,0,0,1-.74-3.1,6.35,6.35,0,0,1,.74-3.08,5.48,5.48,0,0,1,2.08-2.11,6,6,0,0,1,3.05-.77A5.19,5.19,0,0,1,258,10.24Zm-.47,3.54a3.41,3.41,0,0,0-3.65-3.44,3.72,3.72,0,0,0-2.59.93,3.89,3.89,0,0,0-1.23,2.51Z"/><path class="cls-3" d="M267,10.58a5.76,5.76,0,0,0-1.68-.27,2.87,2.87,0,0,0-1.5.35,1.15,1.15,0,0,0-.57,1.06,1.16,1.16,0,0,0,.63,1.07,9,9,0,0,0,1.93.75,15.35,15.35,0,0,1,2,.71,3.54,3.54,0,0,1,1.32,1.05,2.8,2.8,0,0,1,.55,1.82,2.87,2.87,0,0,1-1.26,2.53,5.36,5.36,0,0,1-3.12.87,7.84,7.84,0,0,1-2.55-.42,5.75,5.75,0,0,1-2.08-1.2l.78-1.51a5.44,5.44,0,0,0,1.81,1.06,6,6,0,0,0,2.1.4,3.18,3.18,0,0,0,1.65-.37,1.28,1.28,0,0,0,.62-1.16,1.33,1.33,0,0,0-.65-1.2,8.7,8.7,0,0,0-2-.8,13.08,13.08,0,0,1-1.93-.68,3.45,3.45,0,0,1-1.27-1,2.73,2.73,0,0,1-.52-1.74,2.81,2.81,0,0,1,1.2-2.47,5.25,5.25,0,0,1,3-.82,7.52,7.52,0,0,1,2.11.3,6.41,6.41,0,0,1,1.79.81l-.76,1.58A7.56,7.56,0,0,0,267,10.58Z"/><g class="cls-4"><g class="cls-5"><rect class="cls-3" x="118.29" y="73.13" width="26.52" height="27.44"/></g></g><g class="cls-6"><g class="cls-5"><rect class="cls-3" x="137.5" y="79.53" width="21.04" height="21.04"/></g></g><g class="cls-7"><g class="cls-5"><rect class="cls-3" x="164.02" y="79.53" width="20.12" height="26.52"/></g></g><g class="cls-8"><g class="cls-5"><rect class="cls-3" x="151.22" y="79.53" width="21.04" height="21.04"/></g></g><g class="cls-9"><g class="cls-5"><rect class="cls-3" x="177.74" y="74.04" width="11.89" height="27.44"/></g></g><g class="cls-10"><g class="cls-5"><rect class="cls-3" x="182.31" y="79.53" width="20.12" height="21.04"/></g></g><path class="cls-3" d="M101.88,105.53a2.92,2.92,0,0,1,1,2.35,3.08,3.08,0,0,1-1,2.44,4,4,0,0,1-2.75.87h-2.6v3.1h-.94V104.7h3.54A4.12,4.12,0,0,1,101.88,105.53Zm-.67,4.18a2.22,2.22,0,0,0,.74-1.8,2.12,2.12,0,0,0-.74-1.76,3.28,3.28,0,0,0-2.12-.6H96.53v4.79h2.56A3.21,3.21,0,0,0,101.21,109.71Z"/><path class="cls-3" d="M109.1,114.29v-1.21A2.72,2.72,0,0,1,108,114a3.78,3.78,0,0,1-1.58.31,2.81,2.81,0,0,1-1.29-.28,2.07,2.07,0,0,1-.85-.78,2.1,2.1,0,0,1-.3-1.11,1.74,1.74,0,0,1,.72-1.47,3.3,3.3,0,0,1,2-.53h2.41v-.55a1.73,1.73,0,0,0-.5-1.32,2.14,2.14,0,0,0-1.49-.46,3.84,3.84,0,0,0-2.31.86l-.42-.63a6.18,6.18,0,0,1,1.39-.75,4.39,4.39,0,0,1,1.51-.24,2.92,2.92,0,0,1,2,.65,2.4,2.4,0,0,1,.72,1.81l0,4.76Zm-.91-1.18a2.19,2.19,0,0,0,.9-1.25v-1h-2.32a2.7,2.7,0,0,0-1.44.32,1,1,0,0,0-.5.94,1.28,1.28,0,0,0,.48,1,1.89,1.89,0,0,0,1.25.39A2.86,2.86,0,0,0,108.19,113.11Z"/><path class="cls-3" d="M118.68,107.1v6.43a3.7,3.7,0,0,1-.44,1.83,2.92,2.92,0,0,1-1.26,1.2,4,4,0,0,1-1.88.42,4.6,4.6,0,0,1-2.95-1.1l.44-.66a4.2,4.2,0,0,0,1.15.73,3.53,3.53,0,0,0,1.32.25,2.72,2.72,0,0,0,2-.72,2.61,2.61,0,0,0,.74-1.93v-1.17a2.85,2.85,0,0,1-1.1,1.18,3.41,3.41,0,0,1-3.35,0,3.15,3.15,0,0,1-1.17-1.23,3.78,3.78,0,0,1-.42-1.79,3.73,3.73,0,0,1,.42-1.79,3.05,3.05,0,0,1,1.17-1.22,3.41,3.41,0,0,1,1.72-.44,3.12,3.12,0,0,1,1.63.42,2.88,2.88,0,0,1,1.1,1.19V107.1Zm-2.17,5.8a2.52,2.52,0,0,0,.92-1,3.11,3.11,0,0,0,0-2.79,2.43,2.43,0,0,0-.92-1,2.7,2.7,0,0,0-2.66,0,2.45,2.45,0,0,0-.93,1,2.92,2.92,0,0,0-.33,1.4,2.86,2.86,0,0,0,.33,1.39,2.63,2.63,0,0,0,3.59,1Z"/><path class="cls-3" d="M126.52,108.13a4.08,4.08,0,0,1,.81,2.87h-6a2.75,2.75,0,0,0,.85,1.85,2.57,2.57,0,0,0,1.86.71,3.18,3.18,0,0,0,1.28-.25,2.86,2.86,0,0,0,1-.7l.52.53a3.74,3.74,0,0,1-1.26.87,4.2,4.2,0,0,1-1.61.31,3.73,3.73,0,0,1-1.85-.46,3.35,3.35,0,0,1-1.27-1.29,4.05,4.05,0,0,1,0-3.75,3.35,3.35,0,0,1,1.27-1.29,3.59,3.59,0,0,1,1.82-.46A3.13,3.13,0,0,1,126.52,108.13Zm0,2.15a2.63,2.63,0,0,0-.75-1.79,2.42,2.42,0,0,0-1.77-.66,2.53,2.53,0,0,0-1.81.67,2.66,2.66,0,0,0-.84,1.78Z"/><path class="cls-3" d="M133.45,105.69a4.85,4.85,0,0,0-1.31-.2,2.8,2.8,0,0,0-1.59.4A1.2,1.2,0,0,0,130,107a1.4,1.4,0,0,0,.33,1,2.27,2.27,0,0,0,.81.58q.48.21,1.32.48a12.29,12.29,0,0,1,1.57.56,2.79,2.79,0,0,1,1,.82,2.29,2.29,0,0,1,.41,1.41,2.21,2.21,0,0,1-.43,1.36,2.69,2.69,0,0,1-1.21.91,4.59,4.59,0,0,1-1.8.33A5.08,5.08,0,0,1,130,114a5.21,5.21,0,0,1-1.64-1.06l.44-.78a4.62,4.62,0,0,0,1.49,1,4.3,4.3,0,0,0,1.67.36,3,3,0,0,0,1.75-.45,1.39,1.39,0,0,0,.64-1.2,1.48,1.48,0,0,0-.33-1,2.18,2.18,0,0,0-.81-.59c-.32-.14-.77-.3-1.34-.48a13.83,13.83,0,0,1-1.57-.57,2.72,2.72,0,0,1-1-.79,2.24,2.24,0,0,1-.41-1.38,2.1,2.1,0,0,1,.41-1.28,2.54,2.54,0,0,1,1.16-.84,4.5,4.5,0,0,1,1.71-.3,5.95,5.95,0,0,1,3,.85l-.41.81A5.38,5.38,0,0,0,133.45,105.69Z"/><path class="cls-3" d="M143.24,107.53a3.18,3.18,0,0,1,1.23,1.29,4,4,0,0,1,.44,1.89,3.93,3.93,0,0,1-.44,1.86,3.23,3.23,0,0,1-1.22,1.29,3.53,3.53,0,0,1-1.79.46,3.24,3.24,0,0,1-1.72-.45,3.08,3.08,0,0,1-1.16-1.24V117h-.92V107.1h.92v1.66a3,3,0,0,1,1.15-1.24,3.27,3.27,0,0,1,1.72-.45A3.43,3.43,0,0,1,143.24,107.53Zm-.57,5.63a2.59,2.59,0,0,0,1-1,3.07,3.07,0,0,0,.35-1.47,3,3,0,0,0-.35-1.45,2.53,2.53,0,0,0-1-1,2.69,2.69,0,0,0-1.38-.37,2.73,2.73,0,0,0-1.4.37,2.67,2.67,0,0,0-1,1,3,3,0,0,0-.35,1.45,3.07,3.07,0,0,0,.35,1.47,2.59,2.59,0,0,0,1,1,2.73,2.73,0,0,0,1.4.36A2.68,2.68,0,0,0,142.67,113.16Z"/><path class="cls-3" d="M152.21,108.13A4.18,4.18,0,0,1,153,111h-6a2.75,2.75,0,0,0,.85,1.85,2.6,2.6,0,0,0,1.87.71,3.16,3.16,0,0,0,1.27-.25,2.78,2.78,0,0,0,1-.7l.52.53a3.74,3.74,0,0,1-1.26.87,4.16,4.16,0,0,1-1.61.31,3.76,3.76,0,0,1-1.85-.46,3.35,3.35,0,0,1-1.27-1.29,4.05,4.05,0,0,1,0-3.75,3.35,3.35,0,0,1,1.27-1.29,3.59,3.59,0,0,1,1.82-.46A3.16,3.16,0,0,1,152.21,108.13Zm0,2.15a2.62,2.62,0,0,0-.74-1.79,2.46,2.46,0,0,0-1.78-.66,2.55,2.55,0,0,0-1.81.67,2.66,2.66,0,0,0-.84,1.78Z"/><path class="cls-3" d="M160.29,108.13a4.18,4.18,0,0,1,.81,2.87h-6a2.79,2.79,0,0,0,.85,1.85,2.61,2.61,0,0,0,1.87.71,3.13,3.13,0,0,0,1.27-.25,2.7,2.7,0,0,0,1-.7l.52.53a3.8,3.8,0,0,1-1.25.87,4.25,4.25,0,0,1-1.62.31,3.76,3.76,0,0,1-1.85-.46,3.35,3.35,0,0,1-1.27-1.29,4.05,4.05,0,0,1,0-3.75,3.35,3.35,0,0,1,1.27-1.29,3.61,3.61,0,0,1,1.83-.46A3.15,3.15,0,0,1,160.29,108.13Zm0,2.15a2.62,2.62,0,0,0-.74-1.79,2.46,2.46,0,0,0-1.78-.66,2.55,2.55,0,0,0-1.81.67,2.66,2.66,0,0,0-.84,1.78Z"/><path class="cls-3" d="M169.56,104.11v10.18h-.92v-1.65a3.05,3.05,0,0,1-1.15,1.26,3.34,3.34,0,0,1-1.73.44,3.51,3.51,0,0,1-1.81-.46,3.17,3.17,0,0,1-1.23-1.31,3.91,3.91,0,0,1-.44-1.89,3.87,3.87,0,0,1,.44-1.88,3.28,3.28,0,0,1,1.24-1.29,3.44,3.44,0,0,1,1.79-.47,3.2,3.2,0,0,1,1.73.46,3,3,0,0,1,1.16,1.26v-4.65Zm-2.23,9.07a2.5,2.5,0,0,0,1-1,3,3,0,0,0,.35-1.47,3,3,0,0,0-.35-1.48,2.62,2.62,0,0,0-1-1,2.66,2.66,0,0,0-1.4-.37,2.62,2.62,0,0,0-1.4.37,2.74,2.74,0,0,0-1,1,3,3,0,0,0-.35,1.48,3,3,0,0,0,.35,1.47,2.46,2.46,0,0,0,1,1,2.85,2.85,0,0,0,2.81,0Z"/><path class="cls-3" d="M176.26,104.7h.94v9.59h-.94Z"/><path class="cls-3" d="M185.84,107.82a2.79,2.79,0,0,1,.73,2.05v4.42h-.93v-4.2a2.19,2.19,0,0,0-.56-1.59,2.08,2.08,0,0,0-1.57-.58,2.41,2.41,0,0,0-1.77.69,2.76,2.76,0,0,0-.76,1.81v3.87h-.92V107.1H181v1.67a2.6,2.6,0,0,1,1.09-1.26,3.51,3.51,0,0,1,1.75-.44A2.69,2.69,0,0,1,185.84,107.82Z"/><path class="cls-3" d="M191.83,108a3.5,3.5,0,0,0-1-.14,2.12,2.12,0,0,0-1.11.26.9.9,0,0,0-.42.81.85.85,0,0,0,.23.6,1.73,1.73,0,0,0,.56.38c.23.09.54.2.94.32a10,10,0,0,1,1.21.43,2.08,2.08,0,0,1,.79.62,1.62,1.62,0,0,1,.33,1.06,1.68,1.68,0,0,1-.74,1.49,3.18,3.18,0,0,1-1.85.52,4.33,4.33,0,0,1-1.51-.27,3.33,3.33,0,0,1-1.22-.74l.37-.65a3.65,3.65,0,0,0,2.4.91,2.14,2.14,0,0,0,1.19-.3,1,1,0,0,0,.46-.88,1,1,0,0,0-.23-.65,1.52,1.52,0,0,0-.59-.39c-.23-.1-.55-.21-1-.34a9.35,9.35,0,0,1-1.18-.43,1.94,1.94,0,0,1-.77-.59,1.58,1.58,0,0,1-.32-1,1.61,1.61,0,0,1,.71-1.43,3.06,3.06,0,0,1,1.76-.48,4.27,4.27,0,0,1,1.19.16,3.59,3.59,0,0,1,1,.46l-.35.69A3.82,3.82,0,0,0,191.83,108Z"/><path class="cls-3" d="M196.11,104.57a.62.62,0,0,1,.18.46.6.6,0,0,1-.19.46.59.59,0,0,1-.44.2.6.6,0,0,1-.46-.2A.6.6,0,0,1,195,105a.65.65,0,0,1,.65-.65A.58.58,0,0,1,196.11,104.57Zm-.92,2.53h.92v7.19h-.92Z"/><path class="cls-3" d="M205,107.1v6.43a3.7,3.7,0,0,1-.44,1.83,2.92,2.92,0,0,1-1.26,1.2,4,4,0,0,1-1.88.42,4.6,4.6,0,0,1-2.95-1.1l.44-.66a4.2,4.2,0,0,0,1.15.73,3.53,3.53,0,0,0,1.32.25,2.7,2.7,0,0,0,2-.72,2.61,2.61,0,0,0,.74-1.93v-1.17a2.85,2.85,0,0,1-1.1,1.18,3.16,3.16,0,0,1-1.64.43,3.23,3.23,0,0,1-1.71-.45,3.15,3.15,0,0,1-1.17-1.23,3.78,3.78,0,0,1-.42-1.79,3.73,3.73,0,0,1,.42-1.79,3.05,3.05,0,0,1,1.17-1.22,3.41,3.41,0,0,1,1.72-.44,3.12,3.12,0,0,1,1.63.42,2.88,2.88,0,0,1,1.1,1.19V107.1Zm-2.17,5.8a2.52,2.52,0,0,0,.92-1,3.11,3.11,0,0,0,0-2.79,2.43,2.43,0,0,0-.92-1,2.7,2.7,0,0,0-2.66,0,2.52,2.52,0,0,0-.93,1,2.92,2.92,0,0,0-.33,1.4,2.86,2.86,0,0,0,.33,1.39,2.63,2.63,0,0,0,3.59,1Z"/><path class="cls-3" d="M213.36,107.82a2.79,2.79,0,0,1,.73,2.05v4.42h-.93v-4.2a2.19,2.19,0,0,0-.56-1.59,2.08,2.08,0,0,0-1.57-.58,2.39,2.39,0,0,0-1.87.79,3,3,0,0,0-.68,2.05v3.53h-.92V104.11h.92v4.69a2.87,2.87,0,0,1,2.86-1.73A2.69,2.69,0,0,1,213.36,107.82Z"/><path class="cls-3" d="M220.17,113.79a2.92,2.92,0,0,1-1.59.54,1.69,1.69,0,0,1-1.3-.51,2.13,2.13,0,0,1-.48-1.52V108h-1l0-.72h1.05v-1.85h.92v1.85h2.33V108h-2.33v4.13c0,.88.33,1.33,1,1.33a2.35,2.35,0,0,0,1.2-.39Z"/><path class="cls-3" d="M224.63,108a3.5,3.5,0,0,0-1-.14,2.12,2.12,0,0,0-1.11.26.91.91,0,0,0-.41.81.84.84,0,0,0,.22.6,1.67,1.67,0,0,0,.57.38,9.81,9.81,0,0,0,.94.32,10.46,10.46,0,0,1,1.2.43,2.19,2.19,0,0,1,.8.62,1.62,1.62,0,0,1,.33,1.06,1.71,1.71,0,0,1-.74,1.49,3.21,3.21,0,0,1-1.86.52,4.24,4.24,0,0,1-1.5-.27,3.29,3.29,0,0,1-1.23-.74l.38-.65a3.56,3.56,0,0,0,1.1.67,3.65,3.65,0,0,0,1.3.24,2.11,2.11,0,0,0,1.18-.3,1,1,0,0,0,.46-.88,1,1,0,0,0-.23-.65,1.56,1.56,0,0,0-.58-.39c-.24-.1-.56-.21-1-.34a9.35,9.35,0,0,1-1.18-.43,2,2,0,0,1-.77-.59,1.57,1.57,0,0,1-.31-1,1.6,1.6,0,0,1,.7-1.43,3.06,3.06,0,0,1,1.76-.48,4.34,4.34,0,0,1,1.2.16,3.85,3.85,0,0,1,1,.46l-.36.69A3.66,3.66,0,0,0,224.63,108Z"/></svg>