<?xml version="1.0" encoding="UTF-8"?>
<svg width="359px" height="132px" viewBox="0 0 359 132" version="1.1" xmlns="http://www.w3.org/2000/svg" xmlns:xlink="http://www.w3.org/1999/xlink">
    <!-- Generator: Sketch 46.2 (44496) - http://www.bohemiancoding.com/sketch -->
    <title>Group 12</title>
    <desc>Created with Sketch.</desc>
    <defs></defs>
    <g id="Page-1" stroke="none" stroke-width="1" fill="none" fill-rule="evenodd">
        <g id="Blog" transform="translate(-377.000000, -1484.000000)" fill="#FFFFFF">
            <g id="Group-12" transform="translate(377.000000, 1484.000000)">
                <text id="PageSpeed-Insights" font-family="Montserrat-Light, Montserrat" font-size="15" font-weight="300">
                    <tspan x="108.055" y="129">PageSpeed Insights</tspan>
                </text>
                <path d="M6.975,24 L11.955,24 L16.095,9.09 L16.215,9.09 L20.355,24 L25.335,24 L30.045,5.1 L31.575,5.1 L31.575,3.06 L24.945,3.06 L24.945,5.1 L27.345,5.1 L24.105,19.68 L23.985,19.68 L19.575,3.06 L15.315,3.06 L11.085,19.68 L10.965,19.68 L7.545,5.1 L9.945,5.1 L9.945,3.06 L0.735,3.06 L0.735,5.1 L2.265,5.1 L6.975,24 Z M32.805,24 L41.115,24 L41.115,21.96 L39.465,21.96 L39.465,13.32 C39.465,11.7 40.905,11.04 42.255,11.04 C43.965,11.04 44.595,11.85 44.595,13.86 L44.595,21.96 L42.945,21.96 L42.945,24 L51.285,24 L51.285,21.96 L49.455,21.96 L49.455,13.71 C49.455,9.84 48.015,7.89 44.115,7.89 C41.685,7.89 40.245,9.15 39.675,10.77 L39.465,10.77 L39.465,0.9 L32.805,2.22 L32.805,4.02 L34.605,4.41 L34.605,21.96 L32.805,21.96 L32.805,24 Z M55.995,30.36 C59.385,30.36 60.735,27.72 61.665,25.53 L68.115,10.29 L69.555,10.29 L69.555,8.25 L63.915,8.25 L63.915,10.29 L65.595,10.29 L62.355,19.17 L62.175,19.17 L58.995,10.29 L60.675,10.29 L60.675,8.25 L52.305,8.25 L52.305,10.29 L53.745,10.29 L59.835,24.66 L59.535,25.44 C58.725,27.51 57.855,28.74 56.775,28.74 C56.655,28.74 56.595,28.74 56.505,28.71 L56.415,28.53 C56.625,28.23 56.775,27.72 56.775,27.24 C56.775,26.04 55.935,24.96 54.465,24.96 C52.965,24.96 52.035,25.83 52.035,27.3 C52.035,28.95 53.505,30.36 55.995,30.36 Z M84.915,24.36 C88.635,24.36 91.185,22.59 91.185,19.23 C91.185,16.14 89.385,14.94 85.905,14.04 L84.615,13.71 C82.935,13.29 82.455,12.75 82.455,11.73 C82.455,10.74 83.205,10.14 84.675,10.14 C86.805,10.14 87.735,10.92 87.735,12.45 L87.735,12.93 L90.825,12.93 L90.825,8.25 L87.735,8.25 L87.735,9.87 L87.615,9.87 C87.345,8.88 86.205,7.89 84.015,7.89 C80.535,7.89 78.195,9.69 78.195,12.9 C78.195,15.66 79.845,17.25 83.445,18.15 L84.855,18.51 C86.355,18.9 86.955,19.38 86.955,20.34 C86.955,21.51 86.145,22.11 84.195,22.11 C82.005,22.11 81.075,21.33 81.075,19.8 L81.075,19.32 L77.985,19.32 L77.985,24 L81.075,24 L81.075,22.38 L81.195,22.38 C81.465,23.37 82.605,24.36 84.915,24.36 Z M93.225,24 L101.535,24 L101.535,21.96 L99.885,21.96 L99.885,13.32 C99.885,11.7 101.325,11.04 102.675,11.04 C104.385,11.04 105.015,11.85 105.015,13.86 L105.015,21.96 L103.365,21.96 L103.365,24 L111.705,24 L111.705,21.96 L109.875,21.96 L109.875,13.71 C109.875,9.84 108.435,7.89 104.535,7.89 C102.105,7.89 100.665,9.15 100.095,10.77 L99.885,10.77 L99.885,0.9 L93.225,2.22 L93.225,4.02 L95.025,4.41 L95.025,21.96 L93.225,21.96 L93.225,24 Z M121.425,22.14 C123.135,22.14 124.095,21.09 124.095,18.99 L124.095,13.26 C124.095,11.16 123.135,10.11 121.425,10.11 C119.715,10.11 118.755,11.16 118.755,13.26 L118.755,18.99 C118.755,21.09 119.715,22.14 121.425,22.14 Z M121.425,24.36 C116.745,24.36 113.625,21.36 113.625,16.14 C113.625,10.89 116.745,7.89 121.425,7.89 C126.105,7.89 129.225,10.89 129.225,16.11 C129.225,21.36 126.105,24.36 121.425,24.36 Z M138.165,24.36 C140.775,24.36 142.155,22.98 142.725,21.36 L142.905,21.36 L142.905,24.36 L149.475,23.04 L149.475,21.24 L147.675,20.85 L147.675,7.89 L141.015,9.21 L141.015,11.01 L142.815,11.4 L142.815,18.93 C142.815,20.55 141.405,21.21 140.025,21.21 C138.345,21.21 137.685,20.4 137.685,18.39 L137.685,7.89 L131.025,9.21 L131.025,11.01 L132.825,11.4 L132.825,18.54 C132.825,22.41 134.265,24.36 138.165,24.36 Z M151.095,24 L159.555,24 L159.555,21.96 L157.755,21.96 L157.755,0.9 L151.095,2.22 L151.095,4.02 L152.895,4.41 L152.895,21.96 L151.095,21.96 L151.095,24 Z M167.985,24.36 C164.055,24.36 161.625,21.03 161.625,16.14 C161.625,11.22 164.055,7.89 167.985,7.89 C170.265,7.89 171.645,9.15 172.185,10.53 L172.365,10.53 L172.365,4.41 L170.565,4.02 L170.565,2.22 L177.225,0.9 L177.225,20.82 L179.055,21.21 L179.055,23.01 L172.365,24.36 L172.365,21.66 L172.185,21.66 C171.645,23.07 170.145,24.36 167.985,24.36 Z M169.635,21.51 C171.225,21.51 172.365,20.4 172.365,18.78 L172.365,13.44 C172.365,11.82 171.225,10.71 169.635,10.71 C168.045,10.71 166.755,11.85 166.755,13.98 L166.755,18.24 C166.755,20.37 168.045,21.51 169.635,21.51 Z M187.905,24 L196.095,24 L196.095,21.96 L194.565,21.96 L194.565,13.32 C194.565,11.76 195.855,11.04 197.235,11.04 C198.795,11.04 199.425,11.85 199.425,13.86 L199.425,21.96 L197.895,21.96 L197.895,24 L205.815,24 L205.815,21.96 L204.285,21.96 L204.285,13.32 C204.285,11.76 205.575,11.04 206.955,11.04 C208.515,11.04 209.145,11.85 209.145,13.86 L209.145,21.96 L207.615,21.96 L207.615,24 L215.805,24 L215.805,21.96 L214.005,21.96 L214.005,13.68 C214.005,9.81 212.595,7.89 208.815,7.89 C206.235,7.89 204.705,9.27 204.045,10.86 L203.925,10.86 C203.325,8.91 201.795,7.89 199.095,7.89 C196.515,7.89 195.225,9.27 194.655,10.89 L194.475,10.89 L194.475,7.89 L187.905,9.21 L187.905,11.01 L189.705,11.4 L189.705,21.96 L187.905,21.96 L187.905,24 Z M220.515,30.36 C223.905,30.36 225.255,27.72 226.185,25.53 L232.635,10.29 L234.075,10.29 L234.075,8.25 L228.435,8.25 L228.435,10.29 L230.115,10.29 L226.875,19.17 L226.695,19.17 L223.515,10.29 L225.195,10.29 L225.195,8.25 L216.825,8.25 L216.825,10.29 L218.265,10.29 L224.355,24.66 L224.055,25.44 C223.245,27.51 222.375,28.74 221.295,28.74 C221.175,28.74 221.115,28.74 221.025,28.71 L220.935,28.53 C221.145,28.23 221.295,27.72 221.295,27.24 C221.295,26.04 220.455,24.96 218.985,24.96 C217.485,24.96 216.555,25.83 216.555,27.3 C216.555,28.95 218.025,30.36 220.515,30.36 Z M247.515,24 L250.995,24 L254.595,13.14 L254.775,13.14 L258.375,24 L261.855,24 L266.025,10.29 L267.465,10.29 L267.465,8.25 L261.585,8.25 L261.585,10.29 L263.565,10.29 L261.435,19.26 L261.255,19.26 L257.625,8.25 L253.815,8.25 L250.665,19.23 L250.485,19.23 L248.265,10.29 L249.945,10.29 L249.945,8.25 L241.905,8.25 L241.905,10.29 L243.345,10.29 L247.515,24 Z M277.155,24.36 C272.085,24.36 269.235,20.88 269.235,16.11 C269.235,10.98 272.265,7.89 276.885,7.89 C281.475,7.89 284.355,10.68 284.355,15.15 L284.355,16.2 L274.365,16.2 L274.365,17.46 C274.365,20.04 275.895,21.36 278.205,21.36 C280.365,21.36 281.715,20.22 282.255,18.87 L283.995,19.89 C283.305,21.84 281.265,24.36 277.155,24.36 Z M274.365,13.83 L274.365,14.25 L279.375,14.25 L279.375,13.83 C279.375,10.98 278.415,10.02 276.915,10.02 C275.415,10.02 274.365,10.95 274.365,13.83 Z M297.135,24.36 C294.765,24.36 293.085,23.01 292.515,21.54 L292.335,21.54 L290.145,24 L287.895,24 L287.895,4.41 L286.095,4.02 L286.095,2.22 L292.755,0.9 L292.755,10.53 L292.935,10.53 C293.475,9.15 294.855,7.89 297.135,7.89 C301.065,7.89 303.495,11.22 303.495,16.14 C303.495,21.03 301.065,24.36 297.135,24.36 Z M295.485,21.51 C297.075,21.51 298.365,20.37 298.365,18.24 L298.365,13.98 C298.365,11.85 297.075,10.71 295.485,10.71 C293.895,10.71 292.755,11.82 292.755,13.44 L292.755,18.78 C292.755,20.4 293.895,21.51 295.485,21.51 Z M312.915,24.36 C316.635,24.36 319.185,22.59 319.185,19.23 C319.185,16.14 317.385,14.94 313.905,14.04 L312.615,13.71 C310.935,13.29 310.455,12.75 310.455,11.73 C310.455,10.74 311.205,10.14 312.675,10.14 C314.805,10.14 315.735,10.92 315.735,12.45 L315.735,12.93 L318.825,12.93 L318.825,8.25 L315.735,8.25 L315.735,9.87 L315.615,9.87 C315.345,8.88 314.205,7.89 312.015,7.89 C308.535,7.89 306.195,9.69 306.195,12.9 C306.195,15.66 307.845,17.25 311.445,18.15 L312.855,18.51 C314.355,18.9 314.955,19.38 314.955,20.34 C314.955,21.51 314.145,22.11 312.195,22.11 C310.005,22.11 309.075,21.33 309.075,19.8 L309.075,19.32 L305.985,19.32 L305.985,24 L309.075,24 L309.075,22.38 L309.195,22.38 C309.465,23.37 310.605,24.36 312.915,24.36 Z M325.725,6.33 C327.495,6.33 328.575,5.31 328.575,3.69 L328.575,3.54 C328.575,1.92 327.495,0.9 325.725,0.9 C323.985,0.9 322.905,1.92 322.905,3.54 L322.905,3.69 C322.905,5.31 323.985,6.33 325.725,6.33 Z M321.525,24 L329.985,24 L329.985,21.96 L328.185,21.96 L328.185,7.89 L321.525,9.21 L321.525,11.01 L323.325,11.4 L323.325,21.96 L321.525,21.96 L321.525,24 Z M337.125,24.3 C339.315,24.3 341.175,24 341.835,23.76 L341.835,21.9 L338.355,21.9 L338.355,10.41 L341.835,10.41 L341.835,8.25 L338.355,8.25 L338.355,3.87 L335.955,3.87 L334.635,6.48 C334.065,7.65 333.525,8.25 332.235,8.25 L331.365,8.25 L331.365,10.41 L333.495,10.41 L333.495,21.15 C333.495,23.22 334.665,24.3 337.125,24.3 Z M351.375,24.36 C346.305,24.36 343.455,20.88 343.455,16.11 C343.455,10.98 346.485,7.89 351.105,7.89 C355.695,7.89 358.575,10.68 358.575,15.15 L358.575,16.2 L348.585,16.2 L348.585,17.46 C348.585,20.04 350.115,21.36 352.425,21.36 C354.585,21.36 355.935,20.22 356.475,18.87 L358.215,19.89 C357.525,21.84 355.485,24.36 351.375,24.36 Z M348.585,13.83 L348.585,14.25 L353.595,14.25 L353.595,13.83 C353.595,10.98 352.635,10.02 351.135,10.02 C349.635,10.02 348.585,10.95 348.585,13.83 Z M14.235,63 L22.695,63 L22.695,60.96 L20.895,60.96 L20.895,39.9 L14.235,41.22 L14.235,43.02 L16.035,43.41 L16.035,60.96 L14.235,60.96 L14.235,63 Z M32.445,61.14 C34.155,61.14 35.115,60.09 35.115,57.99 L35.115,52.26 C35.115,50.16 34.155,49.11 32.445,49.11 C30.735,49.11 29.775,50.16 29.775,52.26 L29.775,57.99 C29.775,60.09 30.735,61.14 32.445,61.14 Z M32.445,63.36 C27.765,63.36 24.645,60.36 24.645,55.14 C24.645,49.89 27.765,46.89 32.445,46.89 C37.125,46.89 40.245,49.89 40.245,55.11 C40.245,60.36 37.125,63.36 32.445,63.36 Z M47.355,63.36 C43.845,63.36 42.375,61.68 42.375,58.83 C42.375,55.77 44.835,54.18 49.395,54.18 L51.525,54.18 L51.525,52.5 C51.525,50.07 50.685,48.84 48.405,48.84 C47.565,48.84 47.025,48.96 46.575,49.14 L46.575,49.32 C46.965,49.5 47.445,50.01 47.445,50.88 C47.445,52.11 46.635,53.07 45.075,53.07 C43.815,53.07 42.885,52.11 42.885,50.79 C42.885,48.84 45.225,46.89 49.725,46.89 C54.285,46.89 56.385,48.9 56.385,52.29 L56.385,60.96 L58.185,60.96 L58.185,62.73 C57.465,63.12 56.205,63.36 55.005,63.36 C52.725,63.36 51.915,62.16 51.915,60.66 L51.915,60.63 L51.795,60.63 C51.195,61.92 50.175,63.36 47.355,63.36 Z M49.185,60.57 C50.625,60.57 51.525,60 51.525,58.35 L51.525,56.01 L49.905,56.01 C48.105,56.01 47.145,56.85 47.145,58.29 L47.145,58.74 C47.145,60 47.985,60.57 49.185,60.57 Z M66.615,63.36 C62.685,63.36 60.255,60.03 60.255,55.14 C60.255,50.22 62.685,46.89 66.615,46.89 C68.895,46.89 70.275,48.15 70.815,49.53 L70.995,49.53 L70.995,43.41 L69.195,43.02 L69.195,41.22 L75.855,39.9 L75.855,59.82 L77.685,60.21 L77.685,62.01 L70.995,63.36 L70.995,60.66 L70.815,60.66 C70.275,62.07 68.775,63.36 66.615,63.36 Z M68.265,60.51 C69.855,60.51 70.995,59.4 70.995,57.78 L70.995,52.44 C70.995,50.82 69.855,49.71 68.265,49.71 C66.675,49.71 65.385,50.85 65.385,52.98 L65.385,57.24 C65.385,59.37 66.675,60.51 68.265,60.51 Z M86.535,63 L86.535,60.96 L88.335,60.96 L88.335,49.41 L86.535,49.41 L86.535,47.25 L88.335,47.25 L88.335,45.84 C88.335,42.06 90.885,39.9 95.265,39.9 C98.175,39.9 99.495,41.43 99.495,42.96 C99.495,44.25 98.715,45.15 97.365,45.15 C95.985,45.15 95.265,44.31 95.265,43.26 C95.265,42.48 95.685,42.03 96.045,41.88 L96.045,41.7 C95.895,41.67 95.565,41.64 95.355,41.64 C93.795,41.64 93.195,42.6 93.195,45 L93.195,47.25 L96.165,47.25 L96.165,49.41 L93.195,49.41 L93.195,60.96 L95.595,60.96 L95.595,63 L86.535,63 Z M103.395,63.36 C99.885,63.36 98.415,61.68 98.415,58.83 C98.415,55.77 100.875,54.18 105.435,54.18 L107.565,54.18 L107.565,52.5 C107.565,50.07 106.725,48.84 104.445,48.84 C103.605,48.84 103.065,48.96 102.615,49.14 L102.615,49.32 C103.005,49.5 103.485,50.01 103.485,50.88 C103.485,52.11 102.675,53.07 101.115,53.07 C99.855,53.07 98.925,52.11 98.925,50.79 C98.925,48.84 101.265,46.89 105.765,46.89 C110.325,46.89 112.425,48.9 112.425,52.29 L112.425,60.96 L114.225,60.96 L114.225,62.73 C113.505,63.12 112.245,63.36 111.045,63.36 C108.765,63.36 107.955,62.16 107.955,60.66 L107.955,60.63 L107.835,60.63 C107.235,61.92 106.215,63.36 103.395,63.36 Z M105.225,60.57 C106.665,60.57 107.565,60 107.565,58.35 L107.565,56.01 L105.945,56.01 C104.145,56.01 103.185,56.85 103.185,58.29 L103.185,58.74 C103.185,60 104.025,60.57 105.225,60.57 Z M123.195,63.36 C126.915,63.36 129.465,61.59 129.465,58.23 C129.465,55.14 127.665,53.94 124.185,53.04 L122.895,52.71 C121.215,52.29 120.735,51.75 120.735,50.73 C120.735,49.74 121.485,49.14 122.955,49.14 C125.085,49.14 126.015,49.92 126.015,51.45 L126.015,51.93 L129.105,51.93 L129.105,47.25 L126.015,47.25 L126.015,48.87 L125.895,48.87 C125.625,47.88 124.485,46.89 122.295,46.89 C118.815,46.89 116.475,48.69 116.475,51.9 C116.475,54.66 118.125,56.25 121.725,57.15 L123.135,57.51 C124.635,57.9 125.235,58.38 125.235,59.34 C125.235,60.51 124.425,61.11 122.475,61.11 C120.285,61.11 119.355,60.33 119.355,58.8 L119.355,58.32 L116.265,58.32 L116.265,63 L119.355,63 L119.355,61.38 L119.475,61.38 C119.745,62.37 120.885,63.36 123.195,63.36 Z M137.055,63.3 C139.245,63.3 141.105,63 141.765,62.76 L141.765,60.9 L138.285,60.9 L138.285,49.41 L141.765,49.41 L141.765,47.25 L138.285,47.25 L138.285,42.87 L135.885,42.87 L134.565,45.48 C133.995,46.65 133.455,47.25 132.165,47.25 L131.295,47.25 L131.295,49.41 L133.425,49.41 L133.425,60.15 C133.425,62.22 134.595,63.3 137.055,63.3 Z M151.305,63.36 C146.235,63.36 143.385,59.88 143.385,55.11 C143.385,49.98 146.415,46.89 151.035,46.89 C155.625,46.89 158.505,49.68 158.505,54.15 L158.505,55.2 L148.515,55.2 L148.515,56.46 C148.515,59.04 150.045,60.36 152.355,60.36 C154.515,60.36 155.865,59.22 156.405,57.87 L158.145,58.89 C157.455,60.84 155.415,63.36 151.305,63.36 Z M148.515,52.83 L148.515,53.25 L153.525,53.25 L153.525,52.83 C153.525,49.98 152.565,49.02 151.065,49.02 C149.565,49.02 148.515,49.95 148.515,52.83 Z M160.755,63 L169.815,63 L169.815,60.96 L167.415,60.96 L167.415,52.17 C167.415,50.91 168.705,49.32 169.935,49.32 C170.025,49.32 170.085,49.32 170.145,49.35 L170.205,49.53 C169.935,49.65 169.695,50.1 169.695,50.52 C169.695,51.63 170.505,52.53 172.005,52.53 C173.625,52.53 174.525,51.54 174.525,49.89 C174.525,48.06 173.325,46.89 171.315,46.89 C169.305,46.89 168.015,48.18 167.445,49.83 L167.325,49.83 L167.325,46.89 L160.755,48.21 L160.755,50.01 L162.555,50.4 L162.555,60.96 L160.755,60.96 L160.755,63 Z M179.625,55.98 L182.085,55.98 L182.085,53.73 C186.525,53.31 189.795,51.42 189.795,47.43 C189.795,43.89 187.545,41.7 182.115,41.7 C177.915,41.7 175.605,43.5 175.605,45.75 C175.605,47.34 176.685,48.36 178.155,48.36 C179.805,48.36 180.645,47.25 180.645,45.9 C180.645,45.06 180.195,44.31 179.505,43.92 L179.505,43.8 C179.955,43.65 180.435,43.59 181.035,43.59 C182.865,43.59 184.185,44.79 184.185,47.07 L184.185,47.58 C184.185,50.22 182.625,51.12 179.625,51.27 L179.625,55.98 Z M180.885,63.36 C182.685,63.36 183.705,62.16 183.705,60.66 L183.705,60.57 C183.705,59.07 182.685,57.87 180.885,57.87 C179.085,57.87 178.065,59.07 178.065,60.57 L178.065,60.66 C178.065,62.16 179.055,63.36 180.885,63.36 Z M198.105,63 L198.105,60.96 L199.635,60.96 L206.265,42.06 L210.615,42.06 L217.245,60.96 L218.775,60.96 L218.775,63 L209.625,63 L209.625,60.96 L212.025,60.96 L210.585,56.64 L203.745,56.64 L202.305,60.96 L204.705,60.96 L204.705,63 L198.105,63 Z M207.105,45.84 L204.375,54.54 L210.015,54.54 L207.225,45.84 L207.105,45.84 Z M220.275,63 L228.585,63 L228.585,60.96 L226.935,60.96 L226.935,52.32 C226.935,50.7 228.345,50.04 229.725,50.04 C231.405,50.04 232.065,50.85 232.065,52.86 L232.065,60.96 L230.415,60.96 L230.415,63 L238.725,63 L238.725,60.96 L236.925,60.96 L236.925,52.71 C236.925,48.84 235.485,46.89 231.585,46.89 C228.975,46.89 227.595,48.27 227.025,49.89 L226.845,49.89 L226.845,46.89 L220.275,48.21 L220.275,50.01 L222.075,50.4 L222.075,60.96 L220.275,60.96 L220.275,63 Z M247.155,63.36 C243.225,63.36 240.795,60.03 240.795,55.14 C240.795,50.22 243.225,46.89 247.155,46.89 C249.435,46.89 250.815,48.15 251.355,49.53 L251.535,49.53 L251.535,43.41 L249.735,43.02 L249.735,41.22 L256.395,39.9 L256.395,59.82 L258.225,60.21 L258.225,62.01 L251.535,63.36 L251.535,60.66 L251.355,60.66 C250.815,62.07 249.315,63.36 247.155,63.36 Z M248.805,60.51 C250.395,60.51 251.535,59.4 251.535,57.78 L251.535,52.44 C251.535,50.82 250.395,49.71 248.805,49.71 C247.215,49.71 245.925,50.85 245.925,52.98 L245.925,57.24 C245.925,59.37 247.215,60.51 248.805,60.51 Z M266.775,63 L275.085,63 L275.085,60.96 L273.435,60.96 L273.435,52.32 C273.435,50.7 274.875,50.04 276.225,50.04 C277.935,50.04 278.565,50.85 278.565,52.86 L278.565,60.96 L276.915,60.96 L276.915,63 L285.255,63 L285.255,60.96 L283.425,60.96 L283.425,52.71 C283.425,48.84 281.985,46.89 278.085,46.89 C275.655,46.89 274.215,48.15 273.645,49.77 L273.435,49.77 L273.435,39.9 L266.775,41.22 L266.775,43.02 L268.575,43.41 L268.575,60.96 L266.775,60.96 L266.775,63 Z M294.975,61.14 C296.685,61.14 297.645,60.09 297.645,57.99 L297.645,52.26 C297.645,50.16 296.685,49.11 294.975,49.11 C293.265,49.11 292.305,50.16 292.305,52.26 L292.305,57.99 C292.305,60.09 293.265,61.14 294.975,61.14 Z M294.975,63.36 C290.295,63.36 287.175,60.36 287.175,55.14 C287.175,49.89 290.295,46.89 294.975,46.89 C299.655,46.89 302.775,49.89 302.775,55.11 C302.775,60.36 299.655,63.36 294.975,63.36 Z M310.155,63 L313.635,63 L317.235,52.14 L317.415,52.14 L321.015,63 L324.495,63 L328.665,49.29 L330.105,49.29 L330.105,47.25 L324.225,47.25 L324.225,49.29 L326.205,49.29 L324.075,58.26 L323.895,58.26 L320.265,47.25 L316.455,47.25 L313.305,58.23 L313.125,58.23 L310.905,49.29 L312.585,49.29 L312.585,47.25 L304.545,47.25 L304.545,49.29 L305.985,49.29 L310.155,63 Z M335.475,55.98 L337.935,55.98 L337.935,53.73 C342.375,53.31 345.645,51.42 345.645,47.43 C345.645,43.89 343.395,41.7 337.965,41.7 C333.765,41.7 331.455,43.5 331.455,45.75 C331.455,47.34 332.535,48.36 334.005,48.36 C335.655,48.36 336.495,47.25 336.495,45.9 C336.495,45.06 336.045,44.31 335.355,43.92 L335.355,43.8 C335.805,43.65 336.285,43.59 336.885,43.59 C338.715,43.59 340.035,44.79 340.035,47.07 L340.035,47.58 C340.035,50.22 338.475,51.12 335.475,51.27 L335.475,55.98 Z M336.735,63.36 C338.535,63.36 339.555,62.16 339.555,60.66 L339.555,60.57 C339.555,59.07 338.535,57.87 336.735,57.87 C334.935,57.87 333.915,59.07 333.915,60.57 L333.915,60.66 C333.915,62.16 334.905,63.36 336.735,63.36 Z" id="Why-should-my-websit"></path>
                <g id="Page-1" transform="translate(140.000000, 89.000000)">
                    <path d="M9.88991785,9.09999523 L9.88991785,11.8332723 L16.2592484,11.8332723 C16.064367,13.3665431 15.5659921,14.4888832 14.8078789,15.2776407 C13.8762964,16.2331896 12.4246166,17.2775452 9.88991785,17.2775452 C5.9683963,17.2775452 2.90304931,14.0333901 2.90304931,10.0109815 C2.90304931,5.98889119 5.9683963,2.74441774 9.88991785,2.74441774 C12.0022702,2.74441774 13.5510804,3.6000191 14.6887158,4.70007798 L16.5624316,2.77783967 C14.9810378,1.20000637 12.8578242,0 9.88991785,0 C4.5170268,0 0,4.48904238 0,10.0001592 C0,15.5112759 4.5170268,20 9.88991785,20 C12.7929672,20 14.9810378,19.0221699 16.6924559,17.199879 C18.4476293,15.3998695 19,12.855665 19,10.8108796 C19,10.1777728 18.9565551,9.58891029 18.8591144,9.09999523 L9.88991785,9.09999523 Z" id="Fill-1"></path>
                    <path d="M27.5,17.4379468 C25.5376394,17.4379468 23.8429316,15.8155909 23.8429316,13.5 C23.8429316,11.1616538 25.5376394,9.56173266 27.5,9.56173266 C29.4623606,9.56173266 31.1567491,11.1616538 31.1567491,13.5 C31.1567491,15.8155909 29.4623606,17.4379468 27.5,17.4379468 M27.5,7 C23.9208638,7 21,9.72967309 21,13.5 C21,17.2366747 23.9208638,20 27.5,20 C31.0788168,20 34,17.2475716 34,13.5 C34,9.72967309 31.0788168,7 27.5,7" id="Fill-4"></path>
                    <path d="M56.163446,17.5518476 C54.243346,17.5518476 52.7820199,15.8554133 52.7820199,13.5709292 C52.7820199,11.2524257 54.243346,9.58968675 56.163446,9.58968675 C58.0616699,9.58968675 59.5451846,11.2864451 59.5451846,13.5932848 C59.5561227,15.8891087 58.0616699,17.5518476 56.163446,17.5518476 L56.163446,17.5518476 Z M59.360175,8.47028631 L59.2617324,8.47028631 C58.6401375,7.70112375 57.440075,7 55.9234335,7 C52.7598312,7 50,9.861194 50,13.5709292 C50,17.2579848 52.7598312,20.1418584 55.9234335,20.1418584 C57.440075,20.1418584 58.6401375,19.4404106 59.2617324,18.6488925 L59.360175,18.6488925 L59.360175,19.5651484 C59.360175,22.0757806 58.0616699,23.4216531 55.9781239,23.4216531 C54.2764727,23.4216531 53.2179801,22.1548352 52.7820199,21.08047 L50.3600188,22.1211398 C51.0581801,23.8629333 52.9017136,26 55.9781239,26 C59.2401688,26 62,24.0097028 62,19.1578876 L62,7.33922207 L59.360175,7.33922207 L59.360175,8.47028631 Z" id="Fill-6"></path>
                    <path d="M42.5,17.4379468 C40.5376394,17.4379468 38.8432509,15.8155909 38.8432509,13.5 C38.8432509,11.1616538 40.5376394,9.56173266 42.5,9.56173266 C44.4623606,9.56173266 46.1570684,11.1616538 46.1570684,13.5 C46.1570684,15.8155909 44.4623606,17.4379468 42.5,17.4379468 M42.5,7 C38.9211832,7 36,9.72967309 36,13.5 C36,17.2366747 38.9211832,20 42.5,20 C46.0788168,20 49,17.2475716 49,13.5 C49,9.72967309 46.0788168,7 42.5,7" id="Fill-8"></path>
                    <polygon id="Fill-10" points="65 21 68 21 68 1 65 1"></polygon>
                    <path d="M76.252287,9.43892217 C77.4065158,9.43892217 78.3922324,10.031827 78.7173808,10.8708675 L72.8351789,13.2982521 C72.8351789,10.5686463 74.7735516,9.43892217 76.252287,9.43892217 M76.4538597,17.4376895 C74.9972717,17.4376895 73.9666185,16.7778024 73.2941743,15.4689249 L82,11.8778443 L81.708875,11.1394374 C81.1709196,9.68505781 79.5127588,7 76.1399454,7 C72.7902423,7 70,9.62897222 70,13.4998398 C70,17.1470059 72.7562189,20 76.4538597,20 C79.4341197,20 81.1596854,18.1760964 81.8767453,17.1245717 L79.6581608,15.6480783 C78.9189536,16.7217168 77.9104478,17.4376895 76.4538597,17.4376895" id="Fill-12"></path>
                </g>
            </g>
        </g>
    </g>
</svg>