<?xml version="1.0" encoding="UTF-8"?>
<svg width="211px" height="210px" viewBox="0 0 211 210" version="1.1" xmlns="http://www.w3.org/2000/svg" xmlns:xlink="http://www.w3.org/1999/xlink">
    <!-- Generator: Sketch 46.2 (44496) - http://www.bohemiancoding.com/sketch -->
    <title>Group 17</title>
    <desc>Created with Sketch.</desc>
    <defs>
        <polygon id="path-1" points="8.85604572 0.119732143 0.220023445 0.119732143 0.220023445 14.687824 8.85604572 14.687824 8.85604572 0.119732143"></polygon>
        <polygon id="path-3" points="0 0.371623308 0 66.4962406 89.4646071 66.4962406 89.4646071 0.371623308"></polygon>
    </defs>
    <g id="Page-1" stroke="none" stroke-width="1" fill="none" fill-rule="evenodd">
        <g id="Imagery-Service" transform="translate(-1200.000000, -3438.000000)">
            <g id="Group-17" transform="translate(1200.000000, 3438.000000)">
                <g id="Group-13" fill="#F3F3F3">
                    <rect id="Rectangle-18-Copy-26" x="0.5" y="0" width="210" height="210"></rect>
                </g>
                <g id="Page-1" transform="translate(23.000000, 145.000000)">
                    <path d="M18.9391049,13.1762946 L18.9391049,6.39415179 C18.1145898,6.15254464 17.3251145,6.1115625 16.5202756,6.2803125 C15.5318817,6.48763393 14.7820284,7.0284375 14.3513075,7.92683036 C13.7197812,9.2446875 13.7445786,10.5904018 14.3952421,11.8978125 C14.7734032,12.6579911 15.4321528,13.1138839 16.2577461,13.3083482 C17.1512628,13.5188839 18.0375021,13.4505804 18.9391049,13.1762946 M18.9851959,4.92200893 L18.9851959,2.62272321 L18.9851959,0.322366071 L20.7471624,0.322366071 C20.8034957,2.54558036 20.7638737,4.7971875 20.7711512,7.04772321 C20.7784287,9.28727679 20.7727684,11.5268304 20.7727684,13.8478125 C19.9107876,14.3704018 18.9334447,14.7277232 17.8636504,14.8099554 C17.4059758,14.8450446 16.9431799,14.8431696 16.483888,14.8284375 C14.2979391,14.7582589 12.7782868,13.5644196 12.2734431,11.4590625 C11.8909694,9.8634375 12.025199,8.3109375 12.9912214,6.92504464 C13.8833904,5.64441964 15.1728577,5.00183036 16.7062565,4.81299107 C17.4388593,4.72272321 18.1701145,4.75325893 18.9851959,4.92200893" id="Fill-1" fill="#090909"></path>
                    <g id="Group-5" transform="translate(33.153110, 0.148152)">
                        <mask id="mask-2" fill="white">
                            <use xlink:href="#path-1"></use>
                        </mask>
                        <g id="Clip-4"></g>
                        <path d="M1.97390383,13.1186518 C4.37386555,13.8338304 6.76843652,12.5684732 7.02800112,9.83284821 C7.06304099,9.46427679 7.0465992,9.10347321 6.99889107,8.74025893 C6.67895008,6.3054375 4.0153807,5.18659821 1.97390383,6.64320536 L1.97390383,13.1186518 Z M0.220023445,14.1817768 L0.220023445,0.181955357 C0.767993142,0.0732053571 1.31245885,0.140973214 1.84048278,0.136419643 C1.87147959,0.168294643 1.88792137,0.184098214 1.90274593,0.201241071 C1.91784003,0.218116071 1.94344609,0.2360625 1.94344609,0.253741071 C1.94533285,1.85258036 1.94506332,3.4516875 1.94506332,5.04945536 C2.23939825,5.13891964 2.43023078,4.97258036 2.63507927,4.90749107 C3.45959442,4.64525893 4.29866459,4.54641964 5.15498517,4.66347321 C6.62881611,4.86490179 7.72232967,5.6041875 8.36975869,6.95686607 C9.32499952,8.95320536 8.83632807,11.6636518 7.22503301,13.1711518 C6.21615423,14.1153482 5.01239984,14.6355268 3.61727384,14.6767768 C2.62564545,14.7059732 1.63671244,14.6957946 0.672576874,14.4107946 C0.518670973,14.3652589 0.357757097,14.3408839 0.220023445,14.1817768 L0.220023445,14.1817768 Z" id="Fill-3" fill="#090909" mask="url(#mask-2)"></path>
                    </g>
                    <path d="M167.110488,6.42216964 C166.03719,6.08386607 165.024538,6.07234821 164.025362,6.4674375 C163.314592,6.7486875 162.789803,7.25091964 162.448568,7.93315179 C161.977956,8.87386607 161.949924,9.85877679 162.124584,10.8766339 C162.506788,13.1011875 164.865511,14.0161875 167.110488,13.0679732 L167.110488,6.42216964 Z M167.133399,4.91038393 L167.133399,0.298151786 L168.883236,0.298151786 L168.883236,13.8452946 C168.486747,14.1142232 168.000501,14.3119018 167.502935,14.4825268 C166.230718,14.9194018 164.921305,14.9780625 163.621056,14.7029732 C162.061512,14.3727054 161.014629,13.4159196 160.507359,11.8977054 C160.157769,10.8511875 160.116799,9.77922321 160.334316,8.7136875 C160.771506,6.57538393 162.543445,5.05395536 164.776563,4.81074107 C165.536389,4.72797321 166.285704,4.77779464 167.133399,4.91038393 L167.133399,4.91038393 Z" id="Fill-6" fill="#090909"></path>
                    <path d="M5.76718565,2.96175 C5.14886667,5.03255357 4.41437703,6.93407143 3.76074864,8.89773214 L7.8423547,8.89773214 C7.15099107,6.92014286 6.47768644,4.99425 5.76718565,2.96175 M6.86689856,1.39853571 C8.48843604,5.83023214 10.0902973,10.2075536 11.7086003,14.6301429 C11.0808475,14.7378214 10.494873,14.6837143 9.85526061,14.663625 C9.33074067,13.2506786 8.80783796,11.8414821 8.27577097,10.4076429 L3.33946156,10.4076429 C2.83461786,11.7938036 2.3127933,13.2255 1.78800383,14.6660357 C1.1837008,14.6834464 0.617402552,14.7338036 0.000161722488,14.629875 C0.287488676,13.8471964 0.561877831,13.10175 0.835188836,12.3563036 C2.01603254,9.13478571 3.19310271,5.91166071 4.38338022,2.69335714 C4.52731324,2.30389286 4.61113939,1.90880357 4.64806603,1.46683929 C5.37015694,1.35139286 6.07850144,1.44782143 6.86689856,1.39853571" id="Fill-8" fill="#090909"></path>
                    <path d="M134.389609,1.74605357 C134.483947,2.22632143 134.399312,2.72453571 134.438125,3.21310714 C134.178022,3.33525 134.011448,3.15846429 133.828701,3.10194643 C132.568883,2.71167857 131.30017,2.62489286 130.019867,2.97739286 C128.606682,3.36658929 127.568424,4.21516071 126.966816,5.54989286 C126.263323,7.11016071 126.246073,8.72453571 126.824231,10.3043571 C127.456566,12.0328393 128.807487,12.9545357 130.61258,13.2044464 C131.864042,13.37775 133.093403,13.25025 134.268047,12.7504286 C134.350256,12.7153393 134.427344,12.652125 134.570199,12.7356964 C134.649982,13.1736429 134.5985,13.6442679 134.594188,14.1159643 C134.361577,14.3345357 134.090692,14.4542679 133.801478,14.5330179 C132.283712,14.9457857 130.740071,15.0055179 129.222036,14.6310536 C127.212904,14.1355179 125.781121,12.9103393 125.089757,10.9418571 C124.456344,9.13810714 124.403245,7.30891071 125.088948,5.49980357 C125.936374,3.264 127.584326,1.92498214 129.902618,1.40051786 C131.10772,1.12783929 132.329534,1.179 133.539218,1.41685714 C133.827623,1.47364286 134.128966,1.529625 134.389609,1.74605357" id="Fill-10" fill="#090909"></path>
                    <path d="M67.424019,1.75808036 L67.424019,3.2184375 C67.1989552,3.3290625 67.0507096,3.17129464 66.8900652,3.1171875 C65.7286282,2.72424107 64.5415852,2.62540179 63.34996,2.89459821 C61.3060573,3.35665179 60.0731928,4.65549107 59.6017718,6.6684375 C59.3686219,7.66486607 59.4082439,8.6709375 59.6381593,9.6646875 C60.0904432,11.6192411 61.6149472,12.9703125 63.6407909,13.2119196 C64.8475102,13.3557589 66.028893,13.2475446 67.1706537,12.8055804 C67.2919456,12.7584375 67.4083858,12.6601339 67.5878978,12.7225446 L67.5878978,14.1480804 C67.269574,14.4229018 66.8698499,14.5420982 66.4682391,14.6323661 C65.2183938,14.9138839 63.9459073,14.9529911 62.6941753,14.7320089 C59.8850557,14.2356696 57.9945198,12.1340625 57.697759,9.26558036 C57.5522088,7.85799107 57.6319919,6.47049107 58.229826,5.16334821 C59.2936904,2.83647321 61.157003,1.58424107 63.6798738,1.28209821 C64.6200206,1.16959821 65.5655581,1.21111607 66.4978882,1.4053125 C66.8113603,1.47040179 67.1283364,1.53147321 67.424019,1.75808036" id="Fill-12" fill="#090909"></path>
                    <path d="M29.9939691,9.85735714 C29.9548861,9.10066071 29.8726772,8.35601786 29.5344077,7.65771429 C29.030103,6.61601786 28.1762083,6.12878571 27.045229,6.12235714 C25.963036,6.11619643 25.139599,6.598875 24.635564,7.56021429 C24.1986437,8.39351786 24.0641445,9.29298214 24.1436581,10.2229821 C24.2067298,10.9595893 24.376808,11.6694107 24.7889308,12.298875 C25.930422,14.0428929 28.5597601,13.8990536 29.5176963,12.0503036 C29.8767203,11.3573571 29.954347,10.6135179 29.9939691,9.85735714 M27.0673311,14.8405714 C24.319127,14.9680714 22.6760265,12.9821786 22.4024459,10.7404821 C22.2345241,9.36583929 22.3644411,8.03432143 23.1358574,6.842625 C24.2242498,5.16048214 26.0571046,4.49191071 28.1376644,4.86101786 C29.9807617,5.18807143 31.3028431,6.59833929 31.6669882,8.54030357 C31.8200855,9.35753571 31.8195464,10.1710179 31.6812737,10.9954821 C31.3233279,13.1311071 29.6438399,14.9745 27.0673311,14.8405714" id="Fill-14" fill="#090909"></path>
                    <path d="M89.4355278,9.76098214 C88.3220684,9.74330357 87.2878531,9.72214286 86.3008069,10.1215179 C85.579255,10.4134821 85.2183443,10.9580357 85.2256219,11.7225 C85.2323603,12.4615179 85.6072869,13.0004464 86.2884081,13.2658929 C87.3369089,13.6746429 88.3918786,13.5717857 89.4355278,13.254375 L89.4355278,9.76098214 Z M84.4461195,6.97580357 C84.4035325,6.8475 84.3649887,6.78428571 84.3644496,6.72080357 C84.3582502,6.35705357 84.3614847,5.99330357 84.3614847,5.5875 C85.8110573,4.82866071 87.312381,4.51660714 88.8932183,4.95107143 C90.1376729,5.293125 90.8390094,6.19178571 91.1015389,7.43169643 C91.1867128,7.83482143 91.2088148,8.24571429 91.2077367,8.65901786 C91.202885,10.395 91.2055804,12.1309821 91.2055804,13.9213393 C90.4554576,14.3716071 89.6123443,14.6541964 88.7212534,14.7741964 C87.9223443,14.8821429 87.1123842,14.8834821 86.3107797,14.7921429 C84.3493555,14.5690179 83.1981609,13.0465179 83.526188,11.1294643 C83.6798244,10.2302679 84.1973364,9.60107143 85.0008276,9.18214286 C85.8571482,8.73535714 86.7897478,8.60839286 87.7320509,8.54705357 C88.2786729,8.51142857 88.829877,8.540625 89.3681434,8.540625 C89.5918595,7.36660714 89.0021115,6.48321429 87.8937734,6.30107143 C87.0113077,6.15589286 86.1525612,6.28446429 85.3223858,6.60401786 C85.0469185,6.71008929 84.7784592,6.83410714 84.4461195,6.97580357 L84.4461195,6.97580357 Z" id="Fill-16" fill="#090909"></path>
                    <path d="M147.33924,9.80140179 C147.3511,9.06854464 147.21714,8.30702679 146.860003,7.59774107 C146.369984,6.62461607 145.554094,6.15291964 144.471901,6.1231875 C143.442537,6.09479464 142.595381,6.48800893 142.104283,7.3850625 C141.242303,8.9600625 141.239068,10.5897054 142.088111,12.1740804 C142.63096,13.1879196 143.569759,13.5797946 144.69373,13.5039911 C145.780505,13.4305982 146.532515,12.8563125 146.964583,11.8660446 C147.244094,11.2253304 147.345979,10.5516696 147.33924,9.80140179 M144.392926,14.8408661 C141.667902,14.9506875 140.232885,13.0328304 139.846098,11.2470268 C139.58276,10.0298839 139.622921,8.82988393 140.073319,7.67059821 C140.762795,5.89604464 142.389185,4.67300893 144.633893,4.77024107 C147.126036,4.87845536 148.70903,6.38140179 149.065089,8.84140179 C149.182068,9.64738393 149.152419,10.4397054 148.990696,11.2277411 C148.565366,13.3004196 146.878601,14.9737232 144.392926,14.8408661" id="Fill-18" fill="#090909"></path>
                    <path d="M81.0664429,8.76854464 C81.1243935,7.75470536 80.8440745,6.9613125 80.0419309,6.4494375 C79.2007045,5.91265179 78.2942499,5.91399107 77.4390075,6.43658036 C76.5737922,6.96533036 76.2697539,7.81041964 76.1535833,8.81595536 C77.8341494,8.78649107 79.4308895,8.85399107 81.0664429,8.76854464 M82.6780075,9.92515179 C80.4928671,10.1206875 78.3581303,9.9556875 76.2419915,10.0347054 C76.0681399,10.1608661 76.1166566,10.3312232 76.1277077,10.4822946 C76.24873,12.1368482 77.3222978,13.2280982 78.9861526,13.3703304 C79.8675402,13.4453304 80.7311383,13.3400625 81.5648177,13.0314911 C81.6909612,12.9843482 81.8020107,12.8887232 81.9497172,12.9085446 C81.9720888,12.9114911 81.9931128,12.9238125 82.0505242,12.9452411 C82.1365067,13.3513125 82.0925721,13.7753304 82.0777475,14.2073839 C81.5241175,14.6164018 80.8925912,14.7366696 80.2529788,14.7955982 C79.7502914,14.8419375 79.2416742,14.8218482 78.7360219,14.8379196 C76.9937316,14.8936339 75.0762419,13.9009554 74.5075179,11.5089911 C74.1075242,9.82658036 74.2369022,8.19238393 75.159529,6.68140179 C76.5816088,4.35265179 80.1378863,4.19515179 81.6995864,5.90916964 C82.7240984,7.03390179 82.9343376,8.35899107 82.6780075,9.92515179" id="Fill-20" fill="#090909"></path>
                    <path d="M49.7666726,8.75678571 C49.9947013,7.67839286 49.3987539,6.60428571 48.4235673,6.23517857 C47.0004094,5.69678571 45.0934317,6.43098214 44.9885817,8.75678571 L49.7666726,8.75678571 Z M50.8189469,12.8879464 C50.8898352,13.3275 50.8623424,13.7748214 50.8367364,14.2382143 C50.251301,14.6185714 49.6041415,14.761875 48.935419,14.8058036 C48.4076646,14.8400893 47.8761367,14.8446429 47.3473041,14.8288393 C45.4131032,14.77125 43.9646088,13.7038393 43.3918416,11.8684821 C42.9198815,10.3561607 42.9549214,8.83794643 43.577553,7.36982143 C44.6484254,4.845 47.299596,4.33901786 49.1537443,5.03919643 C50.6432085,5.60196429 51.348588,6.78508929 51.539151,8.29553571 C51.60384,8.80741071 51.6356455,9.34071429 51.40573,9.89116071 C50.3459086,10.1121429 49.2645242,9.99723214 48.1917651,10.0146429 C47.1146933,10.0320536 46.0370825,10.0183929 44.9675577,10.0183929 C44.7521973,11.69625 45.8166008,13.0896429 47.4761431,13.3328571 C48.4726231,13.4788393 49.4502356,13.3674107 50.395234,13.00875 C50.5208384,12.9608036 50.6291925,12.8582143 50.8189469,12.8879464 L50.8189469,12.8879464 Z" id="Fill-22" fill="#090909"></path>
                    <path d="M117.845668,8.764875 C118.011703,7.25389286 117.082607,6.1455 115.680473,6.07585714 C114.199634,6.00246429 113.107199,7.09478571 113.003696,8.80425 C114.624695,8.79139286 116.242459,8.8605 117.845668,8.764875 M118.883926,14.2090714 C117.455108,15.0769286 114.647605,15.0750536 113.261913,14.2460357 C112.416644,13.7403214 111.8242,13.0219286 111.511537,12.1082679 C110.941465,10.4421964 110.949012,8.776125 111.714768,7.16335714 C112.960031,4.54023214 115.99098,4.31871429 117.652948,5.25005357 C118.899829,5.948625 119.487151,7.07576786 119.590923,8.46166071 C119.624615,8.91219643 119.649682,9.37746429 119.479604,9.80523214 C119.231629,10.0149643 118.94565,9.98898214 118.675304,9.99139286 C117.017379,10.0053214 115.359184,10.0104107 113.701259,10.0181786 C113.47377,10.01925 113.246819,10.0184464 113.029302,10.0184464 C112.75707,11.3151429 113.550049,12.69675 114.8255,13.1502321 C115.957827,13.5528214 117.091771,13.4312143 118.214664,13.0821964 C118.389055,13.0280893 118.559133,12.9608571 118.732446,12.9021964 C118.751583,12.8957679 118.777189,12.9083571 118.848078,12.9201429 C118.931634,13.3508571 118.87584,13.7944286 118.883926,14.2090714" id="Fill-24" fill="#090909"></path>
                    <path d="M150.752933,4.96805357 C151.318153,4.92305357 151.841864,4.93135714 152.348325,4.961625 C152.515169,5.13332143 152.456409,5.32510714 152.456679,5.501625 C152.460183,7.30805357 152.46207,9.11448214 152.457218,10.9211786 C152.45614,11.3599286 152.500883,11.7893036 152.652633,12.2020714 C152.904381,12.8877857 153.389548,13.2914464 154.129429,13.3667143 C154.963647,13.4518929 155.720778,13.264125 156.406481,12.7661786 C156.73343,12.5285893 156.867121,12.2615357 156.862539,11.8474286 C156.840706,9.78948214 156.850679,7.73153571 156.855531,5.67358929 C156.85607,5.45019643 156.793807,5.21635714 156.935853,4.97796429 C157.467381,4.909125 158.012655,4.93885714 158.535288,4.95894643 C158.737441,5.15073214 158.661432,5.36903571 158.661971,5.56510714 C158.666822,7.66885714 158.664936,9.77260714 158.664936,11.876625 C158.664936,12.7862679 158.642564,13.6967143 158.77922,14.6655536 C158.220199,14.69475 157.703496,14.7102857 157.201617,14.65725 C156.985717,14.4126964 157.093802,14.1113571 157.004046,13.867875 C156.936392,13.867875 156.877363,13.8493929 156.852296,13.8705536 C155.901098,14.6738571 154.791952,14.9138571 153.570677,14.8377857 C152.178786,14.751 151.198478,13.9736786 150.858322,12.6244821 C150.745925,12.1785 150.70172,11.7242143 150.700912,11.2659107 C150.696869,9.25376786 150.694982,7.24135714 150.694712,5.22921429 C150.694712,5.164125 150.723014,5.09930357 150.752933,4.96805357" id="Fill-26" fill="#090909"></path>
                    <path d="M109.143084,4.95289286 C109.748196,4.95289286 110.271368,4.89289286 110.865968,4.99923214 C109.635529,8.24485714 108.42288,11.443875 107.205918,14.6549464 C106.509703,14.7103929 105.849336,14.6959286 105.141261,14.6624464 C103.948558,11.4521786 102.757741,8.24753571 101.548596,4.99467857 C102.227291,4.90414286 102.815961,4.93333929 103.455304,4.96816071 C104.377392,7.67057143 105.297323,10.367625 106.261189,13.1916429 C107.246079,10.3759286 108.187304,7.68476786 109.143084,4.95289286" id="Fill-28" fill="#090909"></path>
                    <path d="M91.9590185,4.93275 L93.4325799,4.93275 C93.51991,4.02123214 93.4778622,3.12926786 93.6864842,2.22069643 C94.2010313,2.10819643 94.7101876,1.99703571 95.3196118,1.86364286 C95.3107171,2.91042857 95.1665145,3.89828571 95.2638175,4.94185714 L97.503674,4.94185714 L97.503674,6.26346429 C96.7823917,6.38533929 96.0484411,6.26453571 95.3233853,6.36391071 C95.1632801,6.47507143 95.2179962,6.64891071 95.2177266,6.79944643 C95.2136836,8.53891071 95.2131445,10.2786429 95.2163789,12.0181071 C95.2166485,12.2232857 95.2196134,12.4335536 95.2622003,12.6328393 C95.367859,13.1273036 95.7177187,13.4203393 96.2287617,13.4648036 C96.6435799,13.5012321 97.0481557,13.4326607 97.4834587,13.2617679 C97.6368255,13.709625 97.528741,14.1076607 97.5675544,14.5209643 C96.600993,14.94525 95.6392833,14.9715 94.7015624,14.6848929 C93.9155911,14.4448929 93.5980759,13.7565 93.4886437,12.9917679 C93.4304236,12.5859643 93.4174858,12.1710536 93.4153295,11.7604286 C93.4075129,10.2039107 93.4145209,8.64766071 93.4104778,7.09114286 C93.4096692,6.86507143 93.4549515,6.633375 93.3514491,6.39042857 C92.9425608,6.25141071 92.4975544,6.36792857 92.0479659,6.28355357 C91.8706102,5.87025 92.0034922,5.44623214 91.9590185,4.93275" id="Fill-30" fill="#090909"></path>
                    <path d="M139.033066,13.4883482 L139.033066,14.6867411 C138.334155,14.8929911 137.634436,14.9371875 136.948732,14.7079018 C136.447932,14.5404911 136.237153,14.0880804 136.10481,13.6083482 C136.024758,13.3187946 136.024488,13.0206696 136.024488,12.7236161 C136.023949,8.72316964 136.02368,4.72299107 136.025836,0.7228125 C136.026105,0.5915625 135.980015,0.447455357 136.123139,0.303883929 L137.650608,0.303883929 C137.837128,0.5409375 137.750606,0.801026786 137.750876,1.04236607 C137.757075,4.72272321 137.755458,8.4028125 137.757614,12.0831696 C137.757614,12.3111161 137.75977,12.5409375 137.784568,12.7672768 C137.850874,13.3798661 137.991573,13.4947768 138.627142,13.4883482 C138.740617,13.4875446 138.854093,13.4883482 139.033066,13.4883482" id="Fill-32" fill="#090909"></path>
                    <path d="M74.0503014,6.36163393 C73.551118,6.42377679 73.0686459,6.43100893 72.6128581,6.5968125 C72.2435917,6.73074107 71.8934625,6.8949375 71.5635486,7.10708036 C71.0309426,7.44966964 70.7503541,7.86190179 70.7735343,8.5636875 C70.8341802,10.4124375 70.7937496,12.2641339 70.7913238,14.1147589 C70.7913238,14.2722589 70.8287895,14.4343125 70.7312169,14.6287768 C70.1975327,14.7458304 69.6368947,14.6839554 69.0172281,14.6638661 C68.9433748,11.4388661 69.0811085,8.24788393 68.9239681,5.02234821 C69.3994322,4.83940179 69.9005024,4.98458036 70.3668022,4.94574107 C70.800488,5.22538393 70.5153174,5.76216964 70.854126,6.09109821 C71.7559984,5.29074107 72.7354976,4.66395536 74.0503014,4.79172321 L74.0503014,6.36163393 Z" id="Fill-34" fill="#090909"></path>
                    <path d="M100.446296,14.6668929 L98.8358091,14.6668929 C98.7067006,14.1852857 98.6705826,5.91680357 98.7932222,4.987875 C99.0444311,4.89760714 99.320707,4.95010714 99.5894359,4.94153571 C99.8627469,4.93296429 100.136327,4.93966071 100.398318,4.93966071 C100.532008,5.45930357 100.570552,13.699125 100.446296,14.6668929" id="Fill-36" fill="#090909"></path>
                    <path d="M100.633193,2.26425 C100.632115,2.86532143 100.199237,3.26067857 99.5582774,3.24594643 C98.9952136,3.23282143 98.5946809,2.84469643 98.5825517,2.30067857 C98.5693443,1.70148214 98.9925182,1.29648214 99.6394081,1.28925 C100.253954,1.28228571 100.634271,1.65567857 100.633193,2.26425" id="Fill-38" fill="#090909"></path>
                    <path d="M53.4134608,5.24729464 C53.7352885,4.87095536 53.6886585,4.29024107 53.317775,3.96158036 C52.9698021,3.65354464 52.4665756,3.64791964 52.1264193,3.94872321 C51.7582311,4.27363393 51.7299297,4.88890179 52.0633475,5.31238393 C52.3097048,5.62524107 52.8727686,5.69300893 53.2358356,5.4444375 C53.2358356,5.4444375 53.3121147,5.40988393 53.4134608,5.24729464 M52.7509376,3.45854464 C53.4247813,3.46899107 53.9447191,4.02533036 53.9212694,4.7113125 C53.8988978,5.37479464 53.3875852,5.86899107 52.7299137,5.86283036 C52.0342375,5.85640179 51.5167255,5.34024107 51.5213077,4.6569375 C51.5256203,3.99640179 52.088145,3.44836607 52.7509376,3.45854464" id="Fill-40" fill="#090909"></path>
                    <path d="M52.7682959,4.61702679 C52.8227424,4.61702679 52.8658684,4.60577679 52.8976738,4.58354464 C52.9294793,4.5613125 52.945382,4.52113393 52.945382,4.46300893 C52.945382,4.40059821 52.9230104,4.35800893 52.8788062,4.33524107 C52.8548174,4.3231875 52.8232815,4.31729464 52.78339,4.31729464 L52.499567,4.31729464 L52.499567,4.61702679 L52.7682959,4.61702679 Z M52.3801619,4.21524107 L52.7809641,4.21524107 C52.8470008,4.21524107 52.9017169,4.22515179 52.9445734,4.2444375 C53.0259737,4.2819375 53.0666738,4.35104464 53.0666738,4.45175893 C53.0666738,4.50425893 53.0556228,4.54711607 53.0337903,4.58059821 C53.0119577,4.61408036 52.9815,4.64086607 52.9424171,4.66122321 C52.9766483,4.67515179 53.0027935,4.69336607 53.0200439,4.71613393 C53.0375638,4.73890179 53.0472671,4.77559821 53.0491539,4.82649107 L53.0534665,4.94408036 C53.0545447,4.9775625 53.0575096,5.00247321 53.0618222,5.0188125 C53.0690997,5.04666964 53.0817679,5.06461607 53.1000965,5.07265179 L53.1000965,5.09220536 L52.9537376,5.09220536 C52.9496946,5.08470536 52.9464601,5.07479464 52.9440343,5.06300893 C52.9416085,5.05122321 52.9397217,5.02791964 52.9381045,4.99363393 L52.930827,4.84738393 C52.9281316,4.7900625 52.9073772,4.75175893 52.8685638,4.73220536 C52.8461922,4.72149107 52.8114219,4.71613393 52.7639833,4.71613393 L52.499567,4.71613393 L52.499567,5.09220536 L52.3801619,5.09220536 L52.3801619,4.21524107 Z" id="Fill-42" fill="#000000"></path>
                </g>
                <g id="Group-3" transform="translate(63.000000, 60.132489)">
                    <mask id="mask-4" fill="white">
                        <use xlink:href="#path-3"></use>
                    </mask>
                    <g id="Clip-2"></g>
                    <path d="M37.1562235,60.1890218 C37.1632626,60.0917962 37.1099665,60.0580444 37.0677318,60.0192549 C35.1038212,58.1880895 33.158514,56.3367737 31.2227598,54.4748789 C30.876838,54.1413902 30.4675642,54.0119241 29.9853855,54.0315707 C28.3146034,54.1005857 26.6433184,54.0759015 24.995162,53.7660895 C22.0618659,53.2144729 19.4815307,51.9177962 17.3446592,49.8342474 C13.6425922,46.225315 11.9828715,41.8234654 12.4565028,36.6493526 C12.6204134,34.8594955 13.129743,33.1577962 13.9246592,31.5503 C15.5260559,28.3116308 17.9791844,25.920285 21.2035978,24.3173226 C22.9960559,23.4261722 24.8971173,22.909315 26.8891844,22.7551647 C28.5287933,22.6287211 30.1482905,22.7823677 31.7501899,23.1687511 C34.5014749,23.8322023 36.9194078,25.0996609 38.9341006,27.1016008 C40.2463911,28.4058338 41.5340447,29.7347511 42.8382905,31.0470444 C44.5040447,32.7235556 46.1813631,34.3884805 47.843095,36.0690218 C48.5771732,36.8110594 49.4253855,37.1505932 50.4666704,36.9314579 C51.3395196,36.7475857 52.0891844,36.3712774 52.549743,35.5627436 C53.1500782,34.5098865 53.2425922,33.0867662 52.1304134,31.9714429 C51.666838,31.5064729 51.2072849,31.0374729 50.7492402,30.5669617 C48.2267263,27.9756233 45.7218101,25.3661496 43.0841564,22.8896684 C40.7994637,20.7446609 38.2578436,19.0026609 35.3034302,17.9089992 C33.3897989,17.2007135 31.4128156,16.7987135 29.3729832,16.7145857 C27.152648,16.6234053 24.9735419,16.8848564 22.820581,17.425894 C17.4165587,18.7840293 13.1418101,21.7647737 10.0441006,26.4008714 C7.96756425,29.5090669 6.80208939,32.9492398 6.50795531,36.6815932 C6.33801117,38.8391947 6.47426816,40.9746308 6.95493855,43.0884053 C7.57236872,45.806691 8.61918436,48.3395932 10.1818659,50.6498338 C12.5133184,54.0985707 15.5803575,56.6747962 19.3799665,58.3679316 C22.2086816,59.6288414 25.1816983,60.2152173 28.2713631,60.228315 C29.7857765,60.2348639 31.3006927,60.2298263 32.8146034,60.2298263 C34.0665587,60.2298263 35.3190168,60.2308338 36.5709721,60.228315 C36.7685698,60.2278113 36.9696872,60.2464504 37.1562235,60.1890218 M56.3664469,6.75123233 C54.2728156,6.75173609 52.1982905,6.93510451 50.1624804,7.4439015 C46.3120894,8.40608195 42.8408045,10.1385105 39.7496313,12.6331271 C39.4132626,12.9041496 39.412257,12.9086835 39.8119777,13.1086759 C41.4792402,13.9429015 43.070581,14.9030669 44.5759441,16.0022699 C44.885162,16.2279541 45.1415866,16.2360143 45.4518101,16.0350143 C45.982257,15.6909466 46.5333184,15.3821421 47.0964469,15.0929842 C49.6441006,13.7852248 52.3415866,13.0190068 55.203486,12.8628414 C57.1427598,12.7570519 59.0604134,12.936894 60.9579553,13.3540068 C63.2124804,13.849706 65.3382905,14.6673075 67.295162,15.897488 C70.5748827,17.9578639 73.0717542,20.7522173 74.8913631,24.1571271 C76.2569497,26.7121947 76.9920335,29.4466008 77.0981229,32.3492624 C77.1594637,34.0046158 77.0247151,35.6433451 76.7175084,37.2684729 C76.2649944,39.6573 75.4665587,41.920691 74.2392402,44.024894 C72.9862793,46.1739316 71.3677877,48.0106383 69.4702458,49.6055406 C66.2287374,52.3288639 62.5035419,53.8844729 58.2810838,54.1952925 C56.2995754,54.3413827 54.3251061,54.223503 52.369743,53.8547511 C49.893486,53.3882699 47.5896872,52.4850293 45.4694078,51.1168188 C44.109352,50.2392699 42.8956089,49.185909 41.7567821,48.0383451 C37.8304693,44.0808113 33.8976201,40.1298263 29.9662793,36.1763226 C29.7224246,35.9309917 29.4795754,35.6846534 29.2100782,35.465518 C27.8364469,34.3471722 26.0007486,34.7149165 25.0489609,35.8121045 C24.4008603,36.5596835 24.083095,37.4271571 24.277676,38.4291346 C24.4099106,39.1127361 24.8051061,39.6442023 25.2892961,40.1237812 C29.8028715,44.5916233 34.3164469,49.0594654 38.8249944,53.5323451 C40.2408603,54.9363226 41.8135978,56.1292248 43.5447151,57.1115556 C47.268905,59.2243226 51.3128715,60.144691 55.5524246,60.3028714 C57.1035419,60.3608038 58.6496313,60.2575331 60.1886816,60.0318489 C62.4039888,59.7074278 64.5478994,59.1230669 66.6168939,58.2702023 C71.0188492,56.4551571 74.6394637,53.6139541 77.5511397,49.8554053 C81.2320894,45.1039466 83.0376201,39.6925632 83.1477318,33.7013526 C83.1954972,31.0923827 82.8083464,28.5363075 82.0953855,26.0275857 C81.3220894,23.3057737 80.1556089,20.7698489 78.5537095,18.4369391 C77.392257,16.7448113 76.0206369,15.2380669 74.5263352,13.8396308 C71.8710838,11.354082 68.8558324,9.45239023 65.4237654,8.2343 C62.4939888,7.1945406 59.4661676,6.74871353 56.3664469,6.75123233 M54.8268939,0.371623308 L57.9753855,0.371623308 C58.0030391,0.415954135 58.0472849,0.42854812 58.0955531,0.433585714 C58.7828715,0.508142105 59.4691844,0.588743609 60.1570056,0.655743609 C61.6774525,0.804352632 63.1792961,1.05320977 64.6610279,1.42548797 C68.183095,2.30958571 71.4557765,3.76444286 74.4851061,5.76386391 C81.218514,10.2085331 85.7235419,16.3282023 88.1087933,24.0276609 C88.8468939,26.4094353 89.2028715,28.8642549 89.4049944,31.3442624 C89.3496872,31.5195707 89.4889609,31.6737211 89.4608045,31.8460068 L89.4608045,35.0725857 C89.418067,35.1018038 89.4039888,35.1451271 89.3994637,35.1939917 L89.2466145,36.761691 C89.1143799,38.1042098 88.9328715,39.4396759 88.6427598,40.758518 C87.6904693,45.0973977 85.8728715,49.0483827 83.2995754,52.6558038 C79.5778994,57.8747511 74.7108603,61.6448865 68.8055531,64.0815707 C65.9577318,65.2563376 62.9902458,65.9666383 59.9247151,66.2754429 C59.346,66.3338789 58.7607486,66.3620895 58.1900782,66.4965932 C58.178514,66.495082 58.1664469,66.4930669 58.1548827,66.4930669 C48.6415307,66.4930669 39.1286816,66.495082 29.6153296,66.4915556 C28.2713631,66.4910519 26.9304134,66.4981045 25.5854413,66.3585632 C23.3359441,66.1248188 21.1291844,65.7228188 18.9978436,64.9601271 C13.4982905,62.9914353 8.92840223,59.7472248 5.47924022,54.9897211 C3.73102793,52.5792323 2.3533743,49.9722774 1.42220112,47.1346008 C0.823877095,45.3135105 0.447284916,43.4465782 0.231586592,41.5438789 C0.161698324,40.9277812 0.0390167598,40.3142023 0.0163910615,39.6965932 C-0.0188044693,38.7545632 0.0128715084,37.8100143 0.0158882682,36.8664729 C0.137061453,36.6493526 0.124994413,36.4065406 0.138067039,36.1727962 C0.188849162,35.2650218 0.302480447,34.3648038 0.460860335,33.4711346 C1.13208939,29.6697662 2.56052514,26.165112 4.65516201,22.9334955 C7.34812291,18.780503 10.9591844,15.6476233 15.3299665,13.3701271 C19.1843799,11.3616383 23.2977318,10.3808188 27.6297989,10.2926609 C29.1100223,10.2624353 30.5852179,10.3591571 32.0523687,10.5576383 C32.4410279,10.6105331 32.7336536,10.5163301 33.0091844,10.2231421 C33.7694078,9.41309699 34.5995196,8.67408195 35.4592961,7.97234511 C40.823095,3.59417218 46.9370615,1.06832256 53.8464469,0.504615789 C54.1737654,0.477916541 54.5106369,0.492021805 54.8268939,0.371623308" id="Fill-1" fill="#5B5B5B" mask="url(#mask-4)"></path>
                </g>
            </g>
        </g>
    </g>
</svg>