<?xml version="1.0" encoding="UTF-8"?>
<svg width="211px" height="210px" viewBox="0 0 211 210" version="1.1" xmlns="http://www.w3.org/2000/svg" xmlns:xlink="http://www.w3.org/1999/xlink">
    <!-- Generator: Sketch 46.2 (44496) - http://www.bohemiancoding.com/sketch -->
    <title>Group 19</title>
    <desc>Created with Sketch.</desc>
    <defs>
        <polygon id="path-1" points="13 159 192 159 192 51 13 51"></polygon>
    </defs>
    <g id="Page-1" stroke="none" stroke-width="1" fill="none" fill-rule="evenodd">
        <g id="Imagery-Service" transform="translate(-1430.000000, -3438.000000)">
            <g id="Group-19" transform="translate(1430.000000, 3438.000000)">
                <g id="Group-15">
                    <g id="Group-18">
                        <rect id="Rectangle-18-Copy-28" fill="#F3F3F3" x="0.5" y="0" width="210" height="210"></rect>
                        <path d="M115.815048,90.086297 C114.609182,90.1086372 113.740326,90.1484609 112.869531,90.2410593 C110.083957,90.5366618 107.375284,91.1819365 104.684706,91.9321128 C103.177374,92.352367 102.739554,92.8933876 103.01614,94.1230681 C103.71633,97.2377407 104.69343,100.264024 106.036942,103.15918 C107.007903,105.251062 108.092923,107.28175 109.871671,108.834878 C113.639837,112.124386 119.987431,111.996497 123.724579,108.326558 C126.332763,105.765209 127.434262,102.653127 126.8365,98.991282 C126.26814,95.5058921 124.428324,92.9312687 121.334821,91.2580226 C119.506636,90.2692273 117.503,90.1293585 115.815048,90.086297 Z M87.9299016,90.0477683 C86.6364723,90.0953626 85.6758515,90.141338 84.7094146,90.272465 C81.6947518,90.6826823 79.4565343,92.2908506 77.8164027,94.7460026 C73.5034639,101.20134 77.4570989,109.297546 83.7933836,110.868804 C87.5835223,111.80871 92.2625504,110.840312 94.8183899,107.114685 C96.4594909,104.721697 97.6227048,102.133151 98.5613538,99.4222205 C99.1933667,97.5961547 99.7736812,95.7493675 100.053176,93.8261705 C100.161419,93.0811745 99.8774011,92.5770638 99.1584703,92.3047727 C95.4348933,90.8934569 91.5594522,90.2766741 87.9299016,90.0477683 Z M90.8686323,74.5462823 C90.758127,75.9702252 91.1484499,77.2879713 91.7003303,78.5260698 C92.7023099,80.77498 94.0345129,82.8228287 95.6769064,84.6757675 C97.1264002,86.3111325 98.6036819,87.914768 100.223457,89.3801534 C101.257102,90.3158503 101.870374,90.3184405 102.785436,89.3811247 C104.050431,88.085395 105.296362,86.7705629 106.515798,85.4317717 C108.019252,83.7805419 109.272939,81.944763 110.423228,80.0303078 C112.828819,76.0259137 112.707328,71.960327 109.93694,68.2550969 C106.893843,64.1849775 101.456141,62.7134404 96.7658039,65.0857071 C92.9407687,67.0202361 91.0654094,70.2984128 90.8686323,74.5462823 Z M101.341435,51.0016886 C123.363337,50.799332 140.755647,68.8126298 140.997337,89.9289445 C141.250336,112.069022 123.444438,129.723258 102.101078,129.99652 C79.2006273,130.289533 63.9476615,112.024989 62.2409682,95.1076543 C60.9727419,82.5343491 64.7031043,71.6087122 73.6087994,62.5648297 C80.8756553,55.1851277 90.9759065,50.9981271 101.341435,51.0016886 Z" id="Fill-1" fill="#6B6B6B"></path>
                        <path d="M32.5407407,148.220638 L29.8518519,154.796394 L35.1481481,154.796394 L32.5407407,148.220638 Z M32.0355556,147 L33.1437037,147 L38,159 L36.7940741,159 L35.5392593,155.813648 L29.4281481,155.813648 L28.1244444,159 L27,159 L32.0355556,147 Z" id="Fill-5" fill="#6B6B6B"></path>
                        <polygon id="Fill-7" fill="#6B6B6B" points="41 147 42.1853088 147 45.9916528 157.525756 49.8313856 147 51 147 46.509182 159 45.4073456 159"></polygon>
                        <mask id="mask-2" fill="white">
                            <use xlink:href="#path-1"></use>
                        </mask>
                        <g id="Clip-10"></g>
                        <polygon id="Fill-9" fill="#6B6B6B" mask="url(#mask-2)" points="56 159 57 159 57 147 56 147"></polygon>
                        <polygon id="Fill-11" fill="#6B6B6B" mask="url(#mask-2)" points="61 147 62.4554795 147 69.8356164 157.508475 69.869863 157.508475 69.869863 147 71 147 71 159 69.5445205 159 62.1643836 148.491525 62.130137 148.491525 62.130137 159 61 159"></polygon>
                        <path d="M85,155.919355 C84.4597712,156.66129 83.8341282,157.193548 83.1240064,157.516129 C82.4138845,157.83871 81.645469,158 80.8187599,158 C79.9602544,158 79.1734468,157.851992 78.4580255,157.55661 C77.7426042,157.260911 77.1303657,156.846932 76.6216216,156.314674 C76.1128776,155.7821 75.715733,155.148008 75.4292528,154.411132 C75.1430843,153.674889 75,152.870968 75,152 C75,151.129349 75.1430843,150.327957 75.4292528,149.596774 C75.715733,148.865591 76.1128776,148.233713 76.6216216,147.701771 C77.1303657,147.169513 77.7426042,146.753004 78.4580255,146.451613 C79.1734468,146.150538 79.9602544,146 80.8187599,146 C81.581876,146 82.2944917,146.136939 82.9572306,146.411448 C83.619346,146.685642 84.199788,147.145161 84.6979332,147.790323 L83.8394277,148.516129 C83.4896661,147.978811 83.0420213,147.586022 82.4961813,147.33871 C81.9500296,147.091398 81.391097,146.967742 80.8187599,146.967742 C80.0874404,146.967742 79.4278188,147.09709 78.8395835,147.354839 C78.2513482,147.612903 77.7503975,147.967742 77.3370429,148.419355 C76.9240001,148.870968 76.6057234,149.403226 76.3831479,150.016129 C76.1608841,150.629032 76.0492846,151.290323 76.0492846,152 C76.0492846,152.709994 76.1608841,153.370968 76.3831479,153.983871 C76.6057234,154.596774 76.9240001,155.129032 77.3370429,155.580645 C77.7503975,156.032258 78.2513482,156.387097 78.8395835,156.645161 C79.4278188,156.903226 80.0874404,157.032574 80.8187599,157.032574 C81.1049285,157.032574 81.4016958,156.99747 81.709062,156.927577 C82.0164282,156.857685 82.3160011,156.750158 82.6074691,156.604997 C82.898937,156.459836 83.1770005,156.27704 83.4419714,156.05661 C83.7069422,155.83618 83.9401166,155.570209 84.1414944,155.258065 L85,155.919355 Z" id="Fill-12" fill="#6B6B6B" mask="url(#mask-2)"></path>
                        <polygon id="Fill-13" fill="#6B6B6B" mask="url(#mask-2)" points="91 159 92 159 92 147 91 147"></polygon>
                        <path d="M108.140437,152.288136 L110.559546,152.288136 C111.158225,152.288136 111.645096,152.214689 112.019482,152.067797 C112.393868,151.921236 112.684567,151.740445 112.891919,151.525424 C113.09961,151.311067 113.240556,151.079096 113.315433,150.830508 C113.39031,150.582253 113.427579,150.356265 113.427579,150.152542 C113.427579,149.949153 113.39031,149.723164 113.315433,149.474576 C113.240556,149.226321 113.09961,148.994683 112.891919,148.779661 C112.684567,148.565304 112.393868,148.384513 112.019482,148.23762 C111.645096,148.090728 111.158225,148.016949 110.559546,148.016949 L108.140437,148.016949 L108.140437,152.288136 Z M107,147 L110.21362,147 C110.375233,147 110.593766,147.00565 110.870574,147.017281 C111.146705,147.028581 111.446214,147.062147 111.7691,147.118644 C112.09131,147.175474 112.419617,147.265869 112.753685,147.390163 C113.088091,147.514457 113.387261,147.695248 113.65255,147.932536 C113.917161,148.169492 114.136033,148.469259 114.308826,148.830841 C114.481958,149.192423 114.568355,149.633101 114.568355,150.152542 C114.568355,150.729146 114.467389,151.20339 114.265797,151.576271 C114.063866,151.949153 113.810435,152.251911 113.505506,152.483217 C113.200237,152.714855 112.86312,152.887338 112.494833,153.000332 C112.125868,153.112994 111.77486,153.192423 111.440454,153.237288 L115,159 L113.704388,159 L110.265458,153.305417 L108.140437,153.305417 L108.140437,159 L107,159 L107,147 Z" id="Fill-14" fill="#6B6B6B" mask="url(#mask-2)"></path>
                        <polygon id="Fill-15" fill="#6B6B6B" mask="url(#mask-2)" points="120 147 127.715259 147 127.715259 148.017281 121.175998 148.017281 121.175998 152.288136 127.305442 152.288136 127.305442 153.305417 121.175998 153.305417 121.175998 157.983383 128 157.983383 128 159 120 159"></polygon>
                        <path d="M133.12,155.596838 C133.428148,156.080379 133.827974,156.440901 134.319826,156.677454 C134.811678,156.914007 135.371503,157.032284 136,157.032284 C136.391111,157.032284 136.758519,156.978522 137.102222,156.870681 C137.445926,156.763473 137.745011,156.61294 137.999826,156.419396 C138.254641,156.225537 138.456122,155.99183 138.60427,155.717644 C138.752418,155.443774 138.826667,155.134484 138.826667,154.790091 C138.826667,154.392568 138.734641,154.064304 138.550937,153.806562 C138.367233,153.548188 138.121481,153.336303 137.813333,153.169324 C137.504837,153.002978 137.158344,152.860667 136.773159,152.742074 C136.387974,152.623798 135.990937,152.505837 135.582048,152.387245 C135.173508,152.268968 134.776122,152.134563 134.390937,151.983713 C134.005752,151.833496 133.659259,151.637106 133.351111,151.395177 C133.042614,151.153248 132.796863,150.849651 132.613508,150.484069 C132.429455,150.118487 132.337778,149.666886 132.337778,149.129266 C132.337778,148.623903 132.447233,148.174832 132.666492,147.782369 C132.885752,147.390223 133.182397,147.062274 133.555381,146.798524 C133.928715,146.535407 134.358519,146.336487 134.844444,146.201766 C135.33037,146.067361 135.84,146 136.373333,146 C137.060741,146 137.697952,146.110687 138.28427,146.330795 C138.870937,146.551219 139.377778,146.919647 139.804444,147.435446 L138.791111,148.096719 C138.494815,147.720701 138.147974,147.438292 137.750937,147.250125 C137.3539,147.062274 136.882963,146.968033 136.337778,146.968033 C135.958519,146.968033 135.596688,147.013572 135.253333,147.104968 C134.90963,147.196679 134.610196,147.330768 134.35573,147.508183 C134.100566,147.685598 133.896296,147.908868 133.742222,148.177678 C133.588148,148.446488 133.511111,148.764001 133.511111,149.129266 C133.511111,149.69946 133.671111,150.137146 133.991111,150.443589 C134.311111,150.750033 134.710937,150.991962 135.190937,151.169377 C135.670937,151.347108 136.192418,151.503018 136.75573,151.637106 C137.318344,151.771511 137.839826,151.951772 138.320174,152.177257 C138.800174,152.403057 139.2,152.717723 139.52,153.120938 C139.84,153.524153 140,154.080748 140,154.790091 C140,155.306523 139.893333,155.7635 139.68,156.161023 C139.466667,156.559178 139.179085,156.895032 138.817952,157.169219 C138.456122,157.443405 138.03817,157.650547 137.564444,157.790328 C137.09037,157.929793 136.598519,158 136.088889,158 C135.259259,158 134.494466,157.868125 133.795207,157.605007 C133.096296,157.341573 132.497778,156.897879 132,156.274239 L133.12,155.596838 Z" id="Fill-16" fill="#6B6B6B" mask="url(#mask-2)"></path>
                        <path d="M145.081967,152.000158 C145.081967,152.709817 145.196721,153.37109 145.42623,153.983661 C145.655738,154.596864 145.983928,155.129108 146.409836,155.580393 C146.836066,156.03231 147.352298,156.387139 147.959177,156.645197 C148.565734,156.903255 149.245902,157.032284 150,157.032284 C150.754098,157.032284 151.434587,156.903255 152.040823,156.645197 C152.647702,156.387139 153.164256,156.03231 153.590164,155.580393 C154.016393,155.129108 154.344262,154.596864 154.57377,153.983661 C154.803279,153.37109 154.918354,152.709817 154.918354,152.000158 C154.918354,151.290499 154.803279,150.629227 154.57377,150.016339 C154.344262,149.403452 154.016393,148.870892 153.590164,148.419607 C153.164256,147.968006 152.647702,147.613177 152.040823,147.355119 C151.434587,147.097062 150.754098,146.968033 150,146.968033 C149.245902,146.968033 148.565734,147.097062 147.959177,147.355119 C147.352298,147.613177 146.836066,147.968006 146.409836,148.419607 C145.983928,148.870892 145.655738,149.403452 145.42623,150.016339 C145.196721,150.629227 145.081967,151.290499 145.081967,152.000158 M144,152.000158 C144,151.129213 144.147541,150.328159 144.442623,149.596679 C144.738026,148.865832 145.147541,148.23397 145.672131,147.701726 C146.196721,147.169798 146.82803,146.752985 147.565734,146.451917 C148.303118,146.15085 149.114754,146 150,146 C150.885567,146 151.696882,146.15085 152.434587,146.451917 C153.172292,146.752985 153.803279,147.169798 154.32819,147.701726 C154.852459,148.23397 155.262295,148.865832 155.557377,149.596679 C155.852459,150.328159 156,151.129213 156,152.000158 C156,152.871103 155.852459,153.675003 155.557377,154.411227 C155.262295,155.147767 154.852459,155.782158 154.32819,156.314719 C153.803279,156.846646 153.172292,157.26093 152.434587,157.556305 C151.696882,157.851996 150.885567,158 150,158 C149.114754,158 148.303118,157.851996 147.565734,157.556305 C146.82803,157.26093 146.196721,156.846646 145.672131,156.314719 C145.147541,155.782158 144.738026,155.147767 144.442623,154.411227 C144.147541,153.675003 144,152.871103 144,152.000158" id="Fill-17" fill="#6B6B6B" mask="url(#mask-2)"></path>
                    </g>
                </g>
                <g id="Page-1" transform="translate(13.000000, 51.000000)" fill="#6B6B6B">
                    <path d="M1.09634551,106.983079 L3.35548173,106.983079 C4.13034981,106.983079 4.85603544,106.884046 5.53156146,106.686311 C6.20676177,106.488909 6.79401993,106.186491 7.2923588,105.779723 C7.79069767,105.372622 8.18350596,104.855853 8.4717608,104.228752 C8.75968992,103.601651 8.90365449,102.858899 8.90365449,102.000166 C8.90365449,101.141433 8.75968992,100.398682 8.4717608,99.7712482 C8.18350596,99.1441469 7.79069767,98.6270459 7.2923588,98.2206098 C6.79401993,97.8135091 6.20676177,97.5114237 5.53156146,97.3136891 C4.85603544,97.1162868 4.13034981,97.0172533 3.35548173,97.0172533 L1.09634551,97.0172533 L1.09634551,106.983079 Z M0,96 L3.63787375,96 C4.65669989,96 5.52048726,96.1272813 6.22923588,96.3815115 C6.9379845,96.6357418 7.52752264,96.9607577 7.99817601,97.3558947 C8.46882939,97.7516963 8.839815,98.1893711 9.11113283,98.6695838 C9.38245065,99.1501288 9.5817862,99.6100695 9.70913947,100.051068 C9.83649274,100.491733 9.91694352,100.889861 9.95016611,101.245784 C9.9833887,101.601706 10,101.853278 10,102.000166 C10,102.147055 9.9833887,102.398294 9.95016611,102.754216 C9.91694352,103.110139 9.83649274,103.508599 9.70913947,103.948932 C9.5817862,104.389598 9.38245065,104.850204 9.11113283,105.330416 C8.839815,105.810961 8.46882939,106.248636 7.99817601,106.643773 C7.52752264,107.039575 6.9379845,107.364258 6.22923588,107.618488 C5.52048726,107.872719 4.65669989,108 3.63787375,108 L0,108 L0,96 Z" id="Fill-3"></path>
                    <polygon id="Fill-18" points="148 96 149.166724 96 149.166724 106.983383 155 106.983383 155 108 148 108"></polygon>
                    <polygon id="Fill-19" points="156 96 157.18527 96 160.991489 106.525756 164.831097 96 166 96 161.509002 108 160.407201 108"></polygon>
                    <polygon id="Fill-20" points="171 96 178.715259 96 178.715259 97.0172815 172.175998 97.0172815 172.175998 101.288136 178.305442 101.288136 178.305442 102.305417 172.175998 102.305417 172.175998 106.983383 179 106.983383 179 108 171 108"></polygon>
                </g>
            </g>
        </g>
    </g>
</svg>