<?xml version="1.0" encoding="UTF-8"?>
<svg width="210px" height="210px" viewBox="0 0 210 210" version="1.1" xmlns="http://www.w3.org/2000/svg" xmlns:xlink="http://www.w3.org/1999/xlink">
    <!-- Generator: Sketch 46.2 (44496) - http://www.bohemiancoding.com/sketch -->
    <title>Group 26</title>
    <desc>Created with Sketch.</desc>
    <defs>
        <polygon id="path-1" points="0 0.0391151047 0 75.6122449 66.9766957 75.6122449 66.9766957 0.0391151047"></polygon>
        <polygon id="path-3" points="14.4531623 0.211326531 0.0394501696 0.211326531 0.0394501696 12.951699 14.4531623 12.951699 14.4531623 0.211326531"></polygon>
        <polygon id="path-5" points="12.9116768 0.211326531 0.353546377 0.211326531 0.353546377 12.9478214 12.9116768 12.9478214 12.9116768 0.211326531"></polygon>
        <polygon id="path-7" points="12.8723507 0.211326531 0.912365217 0.211326531 0.912365217 12.9420051 12.8723507 12.9420051 12.8723507 0.211326531"></polygon>
        <polygon id="path-9" points="11.1655986 0.211326531 0.910714493 0.211326531 0.910714493 12.9187398 11.1655986 12.9187398 11.1655986 0.211326531"></polygon>
        <polygon id="path-11" points="11.5026377 0.211326531 0.339855072 0.211326531 0.339855072 1.18042347 11.5026377 1.18042347"></polygon>
        <polygon id="path-13" points="4.28732029 0.211326531 0.101276812 0.211326531 0.101276812 1.18042347 4.28732029 1.18042347 4.28732029 0.211326531"></polygon>
    </defs>
    <g id="Page-1" stroke="none" stroke-width="1" fill="none" fill-rule="evenodd">
        <g id="Web-Design-Service" transform="translate(-279.000000, -3323.000000)">
            <g id="Group-26" transform="translate(279.000000, 3323.000000)">
                <rect id="Rectangle-18" fill="#F3F3F3" x="0" y="0" width="210" height="210"></rect>
                <g id="Page-1" transform="translate(72.000000, 58.000000)">
                    <g id="Group-3" transform="translate(0.000000, 19.176816)">
                        <mask id="mask-2" fill="white">
                            <use xlink:href="#path-1"></use>
                        </mask>
                        <g id="Clip-2"></g>
                        <path d="M33.4935913,52.5120255 C33.3265768,52.6225357 33.1809246,52.5129949 33.0265333,52.4713112 C30.6329826,51.8276378 28.2355478,51.1955969 25.8458812,50.538352 C25.2817217,50.38325 24.6796928,50.3289643 24.1407797,50.0051888 C23.9252145,47.7319745 23.7125623,45.4713622 23.4979681,43.2000867 L15.2258957,43.2000867 C15.6191565,47.645699 16.0056203,52.015699 16.3882,56.3420765 C16.5950261,56.5088112 16.7795188,56.5660051 16.9746928,56.6193214 C19.6197362,57.3444235 22.2657507,58.0724337 24.9069101,58.8111071 C27.7714029,59.6118214 30.6329826,60.4251378 33.4945623,61.2326378 L33.4945623,68.9363622 C36.0376493,68.225801 38.495287,67.5375357 40.9538957,66.8521786 C43.3940551,66.1726378 45.8351855,65.4940663 48.278258,64.8213112 C50.7349246,64.1437092 52.2497072,63.5611071 54.6005333,62.7497296 C54.6704464,61.5699847 54.7646348,61.5147296 54.8918377,60.5114133 C55.1142,58.7519745 55.2579101,56.9818724 55.3987072,55.2214643 C55.5492145,53.3204949 55.7764319,51.4234031 55.8832435,49.515648 C55.9279101,48.7362602 55.9249971,47.930699 56.0657942,47.1590663 C56.3988522,45.3434031 56.4328377,43.4996276 56.5998522,41.6713622 C56.7668667,39.8401888 56.9688377,38.0070765 57.0805043,36.1662092 C57.127113,35.385852 57.0805043,34.56575 57.2756783,33.8135051 C57.5543594,32.7423316 57.4456058,31.6517704 57.5786348,30.5767194 C57.7087507,29.5113622 57.8175043,28.4188622 57.8757652,27.3321786 C57.9194609,26.5188622 57.8971275,25.670648 58.0728812,24.8805969 C58.3059246,23.8404439 58.2826203,22.7838112 58.3787507,21.7455969 C58.4845913,20.6046276 58.6117942,19.4520255 58.6778232,18.3003929 C58.7244319,17.4870765 58.7399681,16.6543724 58.863287,15.8429949 C59.1458522,13.9904949 59.2584899,12.1215153 59.400258,10.2593214 C59.4827942,9.17651531 59.7206928,9.07472959 59.6498087,7.97544388 C59.6235913,7.57508673 59.9867507,7.17569898 59.7041855,6.72493367 L33.4945623,6.72493367 L33.4945623,13.9846786 C33.1314029,14.0001888 32.7672725,14.0292704 32.404113,14.0292704 C26.1643739,14.0321786 19.9246348,14.0292704 13.6848957,14.0370255 C13.3363014,14.0379949 12.9605188,13.9236071 12.6226058,14.1640153 C13.3644609,22.4697296 14.1053449,30.7638112 14.845258,39.0511071 C15.2647362,39.2226888 15.6317797,39.1596786 15.989113,39.160648 C21.4656348,39.1645255 26.9411855,39.1616173 32.4186783,39.1674337 C32.7760116,39.1674337 33.1498522,39.0772806 33.4916493,39.2692194 C33.4926203,43.6838112 33.4926203,48.0974337 33.4935913,52.5120255 M66.9770841,0.299831633 L66.9770841,0.89697449 C66.6488812,0.998760204 66.7916203,1.27891327 66.773171,1.48151531 C66.6042145,3.29330102 66.4527362,5.10702551 66.2886348,6.91881122 C66.0565623,9.48962755 65.8108957,12.0585051 65.5817362,14.628352 C65.3506348,17.2330969 65.1360406,19.8388112 64.9059101,22.4435561 C64.6660696,25.1462092 64.4136058,27.8469235 64.1708522,30.5495765 C63.9465478,33.0544745 63.7309826,35.5593724 63.5066783,38.0642704 C63.2678087,40.7339643 63.018258,43.4017194 62.7813304,46.0704439 C62.5550841,48.608301 62.3414609,51.1471276 62.1152145,53.6849847 C61.8753739,56.3866684 61.6267942,59.0873827 61.3791855,61.7880969 C61.1869246,63.8936071 60.9907797,65.9991173 60.7926928,68.1511582 C59.2264464,68.5805969 57.7009826,68.9945255 56.1774609,69.4171786 C48.9181565,71.4335051 41.6588522,73.4488622 34.4014899,75.4739133 C33.7839246,75.6464643 33.1993739,75.6648827 32.5711275,75.4884541 C25.5720551,73.5264133 18.5681275,71.580852 11.565171,69.633352 C9.78724348,69.1379949 8.00737391,68.6513622 6.19254783,68.1511582 C6.1236058,67.4842194 6.0498087,66.8628418 5.99446087,66.2404949 C5.76724348,63.6696786 5.5477942,61.0988622 5.3196058,58.5280459 C5.08170725,55.8593214 4.83215652,53.1905969 4.59522899,50.5209031 C4.36898261,47.9830459 4.15633043,45.44325 3.92911304,42.9044235 C3.69024348,40.2347296 3.4368087,37.5669745 3.19696812,34.89825 C2.96975072,32.3603929 2.75612754,29.8215663 2.52793913,27.2846786 C2.29392464,24.6809031 2.0434029,22.0790663 1.81133043,19.4752908 C1.58217101,16.9044745 1.37048986,14.3317194 1.14521449,11.7599337 C0.899547826,8.95840306 0.675243478,6.15493367 0.381026087,3.35825 C0.295576812,2.53717857 0.41404058,1.67151531 -0.000582608696,0.89697449 L-0.000582608696,0.101107143 C0.430547826,0.0836581633 0.861678261,0.0497295918 1.29183768,0.0497295918 C19.4614609,0.0477908163 37.6310841,0.0477908163 55.8016783,0.0477908163 C59.1565333,0.0477908163 62.5113884,0.0468214286 65.8662435,0.0497295918 C66.2517362,0.0506989796 66.6653884,-0.0413928571 66.9770841,0.299831633" id="Fill-1" fill="#242021" mask="url(#mask-2)"></path>
                    </g>
                    <g id="Group-6" transform="translate(33.985507, 0.758449)">
                        <mask id="mask-4" fill="white">
                            <use xlink:href="#path-3"></use>
                        </mask>
                        <g id="Clip-5"></g>
                        <path d="M14.4531623,0.211035714 L14.4531623,12.951699 L10.1156406,12.951699 L10.1156406,7.13925 C10.0612638,7.1237398 10.006887,7.1072602 9.95251014,7.09175 C9.05723478,8.45761735 8.16195942,9.82445408 7.19191594,11.3047092 C6.23352464,9.84190306 5.33824928,8.47506633 4.3215971,6.92307653 L4.3215971,12.9255255 L0.145263768,12.9255255 C-0.0110695652,12.7258316 0.0520463768,12.519352 0.0520463768,12.329352 C0.0471913043,8.55261735 0.0471913043,4.77588265 0.0501043478,1.00011735 C0.0501043478,0.803331633 0.0860318841,0.607515306 0.104481159,0.410729592 C1.22697391,0.410729592 2.35043768,0.419454082 3.47390145,0.405882653 C3.75161159,0.402005102 4.07884348,0.533841837 4.28761159,0.211035714 L4.68572754,0.211035714 C5.28775652,1.76981122 6.34616232,3.05618878 7.24046667,4.64113776 C8.16875652,3.07557653 9.0183942,1.64379082 9.8690029,0.211035714 L14.4531623,0.211035714 Z" id="Fill-4" fill="#242021" mask="url(#mask-4)"></path>
                    </g>
                    <g id="Group-9" transform="translate(5.826087, 0.758449)">
                        <mask id="mask-6" fill="white">
                            <use xlink:href="#path-5"></use>
                        </mask>
                        <g id="Clip-8"></g>
                        <path d="M12.9116768,0.211035714 C12.7825319,0.89930102 12.8621551,1.59435204 12.859242,2.2864949 C12.8485609,5.50001531 12.8573,8.71353571 12.8505029,11.9280255 C12.8495319,12.2508316 12.9349812,12.5881786 12.7398072,12.9478214 L8.53143043,12.9478214 L8.53143043,8.79108673 L4.73573478,8.79108673 L4.73573478,12.9313418 L0.353546377,12.9313418 L0.353546377,0.211035714 L4.73864783,0.211035714 L4.73864783,4.3687398 L8.55279275,4.3687398 L8.55279275,0.417515306 C9.60148841,0.41169898 10.6501841,0.413637755 11.6988797,0.39425 C11.9756188,0.389403061 12.2979957,0.518331633 12.5125899,0.211035714 L12.9116768,0.211035714 Z" id="Fill-7" fill="#242021" mask="url(#mask-6)"></path>
                    </g>
                    <g id="Group-12" transform="translate(19.420290, 0.758449)">
                        <mask id="mask-8" fill="white">
                            <use xlink:href="#path-7"></use>
                        </mask>
                        <g id="Clip-11"></g>
                        <path d="M12.8723507,0.211035714 L12.8723507,4.48118878 L9.10869855,4.48118878 L9.10869855,12.9420051 L4.7235971,12.9420051 L4.7235971,4.52578061 L1.05704638,4.52578061 C0.840510145,3.03486224 1.08908986,1.6137398 0.912365217,0.211035714 L1.31048116,0.211035714 C1.4940029,0.494096939 1.78336522,0.396188776 2.03291594,0.396188776 C5.27222029,0.402005102 8.51152464,0.402005102 11.750829,0.396188776 C12.0013507,0.396188776 12.290713,0.494096939 12.4732638,0.211035714 L12.8723507,0.211035714 Z" id="Fill-10" fill="#242021" mask="url(#mask-8)"></path>
                    </g>
                    <g id="Group-15" transform="translate(49.521739, 0.758449)">
                        <mask id="mask-10" fill="white">
                            <use xlink:href="#path-9"></use>
                        </mask>
                        <g id="Clip-14"></g>
                        <polygon id="Fill-13" fill="#242021" mask="url(#mask-10)" points="5.29581594 0.211035714 5.29581594 8.71644388 11.1655986 8.71644388 11.1655986 12.9187398 0.910714493 12.9187398 0.910714493 0.211035714"></polygon>
                    </g>
                    <g id="Group-18" transform="translate(20.391304, 0.758449)">
                        <mask id="mask-12" fill="white">
                            <use xlink:href="#path-11"></use>
                        </mask>
                        <g id="Clip-17"></g>
                        <path d="M11.5026377,0.211035714 C11.320087,0.494096939 11.0297536,0.396188776 10.7802029,0.396188776 C7.54089855,0.402005102 4.3015942,0.402005102 1.06228986,0.396188776 C0.81273913,0.396188776 0.522405797,0.494096939 0.339855072,0.211035714 L11.5026377,0.211035714 Z" id="Fill-16" fill="#5E5859" mask="url(#mask-12)"></path>
                    </g>
                    <g id="Group-21" transform="translate(33.985507, 0.758449)">
                        <mask id="mask-14" fill="white">
                            <use xlink:href="#path-13"></use>
                        </mask>
                        <g id="Clip-20"></g>
                        <path d="M4.28732029,0.211035714 C4.07952319,0.533841837 3.75132029,0.402005102 3.47361014,0.405882653 C2.35014638,0.419454082 1.22765362,0.410729592 0.104189855,0.410729592 C0.103218841,0.343841837 0.102247826,0.276954082 0.101276812,0.211035714 L4.28732029,0.211035714 Z" id="Fill-19" fill="#433E40" mask="url(#mask-14)"></path>
                    </g>
                    <path d="M14.379171,1.1762551 C14.3704319,1.10742857 14.3607217,1.03860204 14.3519826,0.96977551 L18.3389681,0.96977551 C18.1243739,1.27707143 17.8019971,1.14814286 17.525258,1.1529898 C16.4765623,1.17237755 15.4278667,1.17043878 14.379171,1.1762551" id="Fill-22" fill="#5E5859"></path>
                    <path d="M33.4950478,33.161301 L33.4950478,24.9321684 L60.6747145,24.9321684 C60.9572797,25.3829337 60.5950913,25.7823214 60.6213087,26.1826786 C60.6912217,27.2829337 60.4542942,28.3541071 60.371758,29.4359439 C60.2290188,31.2981378 60.1173522,33.1671173 59.8338159,35.0196173 C59.7104971,35.8309949 59.6949609,36.663699 59.6493232,37.4770153 C59.5832942,38.628648 59.4551203,39.78125 59.3492797,40.9222194 C59.2531493,41.9604337 59.2764536,43.0170663 59.0443812,44.0572194 C58.8676565,44.8472704 58.8899899,45.6954847 58.8462942,46.5097704 C58.7890043,47.5954847 58.6802507,48.6889541 58.5491638,49.7533418 C58.4171058,50.8283929 58.5258594,51.9199235 58.2471783,52.9910969 C58.0520043,53.7423724 58.097642,54.5634439 58.0510333,55.3428316 C57.9403377,57.183699 57.7373957,59.0168112 57.5703812,60.8489541 C57.4043377,62.67625 57.3693812,64.5200255 57.0372942,66.3356888 C56.8964971,67.1073214 56.8984391,67.9128827 56.8547435,68.6922704 C56.7469609,70.6000255 56.5207145,72.4971173 56.3692362,74.3980867 C56.2294101,76.1584949 56.0857,77.9285969 55.8623667,79.6880357 C55.7361348,80.691352 55.6419464,81.7159949 55.5710623,82.8957398 C53.2202362,83.7071173 50.7344391,84.2897194 48.2777725,84.9673214 C45.8347,85.6400765 43.3945406,86.318648 40.9543812,86.9991582 C38.4948014,87.6835459 36.0381348,88.3718112 33.4950478,89.0823724 L33.4950478,80.4092602 C33.5173812,80.3743622 33.5144681,80.3423724 33.4863087,80.3123214 C33.5834101,80.3035969 33.6843957,80.3103827 33.776642,80.2851786 C38.1063957,79.0841071 42.4351783,77.8791582 46.7639609,76.676148 C48.0330768,76.3232908 49.3021928,75.9733418 50.5742217,75.6204847 C51.3374391,67.09375 52.0928884,58.6474745 52.8434826,50.2690561 C52.6211203,50.0567602 52.4463377,50.106199 52.2880623,50.106199 C46.1512507,50.1032908 40.0154101,50.1032908 33.8785986,50.1052296 C33.7475116,50.1052296 33.6164246,50.1343112 33.4853377,50.148852 C33.5193232,50.118801 33.5232072,50.0848724 33.4969899,50.0460969 C33.4960188,47.226148 33.4950478,44.406199 33.4940768,41.5852806 C33.5164101,41.5406888 33.5154391,41.4970663 33.4901928,41.4544133 C33.6863377,41.4757398 33.8815116,41.5154847 34.0786275,41.5164541 C40.4154681,41.5193622 46.7523087,41.5183929 53.0901203,41.5174235 C53.2532507,41.5174235 53.4231783,41.5426276 53.6329174,41.3468112 C53.8698449,38.7100765 54.1145406,35.9977296 54.3572942,33.2999235 C53.9514101,33.1506378 53.6173812,33.2107398 53.2901493,33.2107398 C47.0193377,33.2068622 40.7485261,33.2068622 34.4777145,33.2097704 C34.1465986,33.2097704 33.8164536,33.2330357 33.4853377,33.2456378 L33.4950478,33.161301 Z" id="Fill-24" fill="#433E40"></path>
                    <path d="M33.4917464,58.4459388 C33.1489783,58.254 32.7761087,58.3451224 32.4187754,58.3441531 C26.9412826,58.3383367 21.4657319,58.3412449 15.9892101,58.3373673 C15.6318768,58.336398 15.2648333,58.3994082 14.8453551,58.2278265 C14.105442,49.9405306 13.364558,41.646449 12.6227029,33.3407347 C12.9596449,33.1003265 13.3363986,33.2147143 13.6849928,33.2137449 C19.9247319,33.2059898 26.164471,33.208898 32.4042101,33.2059898 C32.7673696,33.2059898 33.1315,33.1769082 33.4946594,33.161398 L33.4859203,33.2457347 C33.4868913,35.9823163 33.4888333,38.7179286 33.4898043,41.4545102 C33.5150507,41.4971633 33.5169928,41.5407857 33.4936884,41.5853776 C33.330558,41.564051 33.1683986,41.5233367 33.0052681,41.5233367 C29.4503841,41.5204286 25.897442,41.5194592 22.343529,41.5233367 C22.1532101,41.5243061 21.9425,41.4632347 21.6745,41.7298163 C21.9172536,44.4499184 22.1687464,47.2592041 22.4231522,50.1033878 C24.8720507,50.1033878 27.1956884,50.114051 29.5183551,50.0985408 C30.8447609,50.0898163 32.1731087,50.1712449 33.4975725,50.0461939 C33.5237899,50.0849694 33.5189348,50.118898 33.4849493,50.148949 C33.4868913,52.8612959 33.4878623,55.5746122 33.4898043,58.2859898 C33.5082536,58.3393061 33.5092246,58.3926224 33.4917464,58.4459388" id="Fill-26" fill="#C6C6C6"></path>
                    <path d="M33.4950478,80.409551 C30.6324971,79.602051 27.7709174,78.7887347 24.9064246,77.9880204 C22.2652652,77.2493469 19.6202217,76.5213367 16.9751783,75.7962347 C16.7790333,75.7429184 16.5945406,75.6857245 16.3886855,75.5189898 C16.0061058,71.1926122 15.619642,66.8226122 15.2263812,62.377 L23.4974826,62.377 C23.7120768,64.6482755 23.9257,66.9088878 24.1402942,69.182102 C24.6792072,69.5049082 25.2822072,69.5601633 25.8463667,69.7152653 C28.2360333,70.3725102 30.6324971,71.004551 33.0270188,71.6482245 C33.1814101,71.6899082 33.3270623,71.799449 33.4940768,71.6889388 C33.5183522,71.7354694 33.5164101,71.7810306 33.4872797,71.8256224 C33.4863087,74.6542959 33.4863087,77.4829694 33.4863087,80.3116429 C33.5144681,80.3426633 33.5173812,80.3746531 33.4950478,80.409551" id="Fill-28" fill="#C6C6C6"></path>
                    <path d="M33.4935913,71.6888418 C33.4926203,67.27425 33.4926203,62.8606276 33.4916493,58.4460357 C33.5091275,58.3927194 33.5081565,58.3394031 33.4897072,58.2860867 C33.8188812,58.3064439 34.1490261,58.3423112 34.4782,58.3423112 C37.2688957,58.3471582 40.0595913,58.3403724 42.8493159,58.3520051 C43.1610116,58.3529745 43.5115478,58.2240459 43.8086783,58.5245561 C43.4843594,62.0938418 43.1590696,65.6728214 42.8337797,69.2547092 C41.3384174,69.6579745 39.9304464,70.0224643 38.5312145,70.4179745 C36.8513594,70.8939439 35.1394609,71.2535867 33.4867942,71.8255255 C33.5159246,71.7809337 33.5188377,71.7353724 33.4935913,71.6888418" id="Fill-30" fill="#433E40"></path>
                    <path d="M33.4869884,71.8251378 C35.1396551,71.2541684 36.8515536,70.8935561 38.5314087,70.4185561 C39.9306406,70.0230459 41.3386116,69.6575867 42.8330029,69.2552908 C43.1582928,65.6734031 43.4835826,62.0934541 43.8079014,58.5251378 C43.511742,58.2236582 43.1612058,58.3535561 42.8495101,58.3516173 C40.0597855,58.3409541 37.2690899,58.3477398 34.4783942,58.3428929 C34.1492203,58.3419235 33.8190754,58.3060561 33.4889304,58.2866684 C33.4879594,55.5743214 33.4869884,52.8619745 33.4850464,50.1496276 C33.6161333,50.1341173 33.7472203,50.1060051 33.8783072,50.1060051 C40.0151188,50.1030969 46.1509594,50.1030969 52.287771,50.1060051 C52.4460464,50.1060051 52.620829,50.0565663 52.8431913,50.2698316 C52.0935681,58.6472806 51.3371478,67.0945255 50.5739304,75.6212602 C49.3019014,75.973148 48.0327855,76.3240663 46.7636696,76.6759541 C42.434887,77.8799337 38.1061043,79.0839133 33.7763507,80.2849847 C33.6850754,80.3101888 33.5831188,80.3034031 33.4869884,80.3121276 C33.4869884,77.4824847 33.4869884,74.6538112 33.4869884,71.8251378" id="Fill-32" fill="#FDFDFD"></path>
                    <path d="M33.4898043,41.4541224 C33.4888333,38.7185102 33.4868913,35.9819286 33.4859203,33.2463163 C33.8160652,33.2337143 34.1471812,33.2094796 34.4773261,33.2094796 C40.7491087,33.2075408 47.0199203,33.2065714 53.2907319,33.2114184 C53.6179638,33.2114184 53.9519928,33.1513163 54.3578768,33.2996327 C54.1151232,35.9974388 53.8704275,38.7097857 53.632529,41.3474898 C53.4237609,41.5433061 53.2528623,41.5171327 53.0907029,41.5171327 C46.7528913,41.518102 40.4150797,41.5190714 34.0782391,41.5161633 C33.8820942,41.5151939 33.6859493,41.475449 33.4898043,41.4541224" id="Fill-34" fill="#FDFDFD"></path>
                    <path d="M33.4973783,50.0465816 C32.1729145,50.1716327 30.8445667,50.0892347 29.5181609,50.0989286 C27.1954942,50.1144388 24.8718565,50.1028061 22.422958,50.1028061 C22.1685522,47.2595918 21.9170594,44.4503061 21.6743058,41.7292347 C21.9423058,41.4636224 22.1530159,41.5237245 22.3433348,41.5237245 C25.8972478,41.5198469 29.4511609,41.5198469 33.0050739,41.5237245 C33.1682043,41.5237245 33.3313348,41.5644388 33.4944652,41.5847959 C33.4954362,44.4057143 33.4964072,47.2266327 33.4973783,50.0465816" id="Fill-36" fill="#242021"></path>
                </g>
            </g>
        </g>
    </g>
</svg>