<?xml version="1.0" encoding="UTF-8"?>
<svg width="210px" height="210px" viewBox="0 0 210 210" version="1.1" xmlns="http://www.w3.org/2000/svg" xmlns:xlink="http://www.w3.org/1999/xlink">
    <!-- Generator: Sketch 46.2 (44496) - http://www.bohemiancoding.com/sketch -->
    <title>Group 31</title>
    <desc>Created with Sketch.</desc>
    <defs>
        <polygon id="path-1" points="6.04837953e-15 49.2635783 6.04837953e-15 0.156053258 130.264703 0.156053258 130.264703 49.2635783"></polygon>
    </defs>
    <g id="Page-1" stroke="none" stroke-width="1" fill="none" fill-rule="evenodd">
        <g id="Web-Design-Service" transform="translate(-971.000000, -3553.000000)">
            <g id="Group-31" transform="translate(971.000000, 3553.000000)">
                <rect id="Rectangle-18-Copy-9" fill="#F3F3F3" x="0" y="0" width="210" height="210"></rect>
                <g id="Page-1" transform="translate(26.000000, 73.000000)">
                    <g id="Group-3" transform="translate(120.288557, 0.708187)" fill="#1D1D1B">
                        <path d="M2.01686418,53.610512 L1.96140647,53.740512 C0.780391542,56.9223795 2.38632189,60.4926807 5.54116269,61.7135843 C6.26055075,61.9908133 6.99868507,62.1200301 7.75478458,62.1200301 C10.319899,62.1200301 12.5710134,60.5843072 13.5114512,58.1981024 L13.5856552,58.0320783 L31.9070085,10.267259 C32.2944313,9.23195783 34.1214114,7.58503012 34.4900881,7.25298193 L34.5275806,7.21539157 C34.564292,7.19659639 34.5822572,7.17858434 34.5822572,7.16057229 L34.6010035,7.14177711 C34.6197498,7.01177711 34.4533766,6.4385241 33.1622274,5.43924699 C31.9257547,4.49635542 30.1362672,3.55268072 28.1429139,2.77581325 C25.8183766,1.86972892 23.475093,1.3325 21.887909,1.3325 C20.8365557,1.3325 20.4866254,1.55490964 20.4311677,1.66611446 L20.4311677,1.68412651 L20.4311677,1.7585241 L20.4311677,1.77653614 C20.4678791,2.05454819 20.8178095,4.5151506 20.3389985,5.77286145 L2.01686418,53.610512 Z M7.77353085,63.4341265 L7.77353085,63.4341265 C6.85105821,63.4341265 5.94655075,63.2673193 5.07953582,62.9337048 C1.46384925,61.5467771 -0.4553,57.6068373 0.540595522,53.9441265 L0.50388408,53.9253313 L0.7436801,53.2964759 L19.1579836,5.34683735 C19.434491,4.64436747 19.3056104,2.94262048 19.1759488,2.01695783 C19.1392373,1.79533133 19.1392373,1.59171687 19.194695,1.38810241 L19.2134413,1.35207831 C19.2314065,1.31448795 19.2314065,1.27768072 19.2493716,1.24009036 C19.5446254,0.464006024 20.4491328,0.0755722892 21.9254015,0.0755722892 C23.6961428,0.0755722892 26.1323766,0.63003012 28.6412522,1.59171687 C30.7447398,2.40539157 32.6451428,3.42346386 33.9925308,4.44075301 C35.5789338,5.64286145 36.2061527,6.71575301 35.8554413,7.64141566 C35.836695,7.67822289 35.8187299,7.71503012 35.7999836,7.75183735 L35.7820184,7.78864458 C35.6890682,7.97424699 35.5601876,8.12225904 35.3938144,8.2514759 C34.5822572,8.97274096 33.3832771,10.1944277 33.1801925,10.7488855 L14.5448393,59.3273795 L14.5081279,59.3078012 C13.1982323,61.824006 10.6331179,63.4341265 7.77353085,63.4341265 L7.77353085,63.4341265 Z" id="Fill-1"></path>
                    </g>
                    <path d="M132.877692,50.3044398 C133.1542,50.1932349 133.4682,50.3044398 133.579115,50.5816687 C133.69003,50.8596807 133.579115,51.1737169 133.301826,51.2849217 C133.025319,51.3969096 132.7121,51.2849217 132.601185,51.0076928 C132.490269,50.7484759 132.601185,50.4344398 132.877692,50.3044398 L132.877692,50.3044398 Z M130.958543,42.6461867 C130.626578,41.8881145 130.958543,41.0000422 131.715423,40.6484157 C132.471523,40.3155843 133.357284,40.6484157 133.707996,41.4072711 C134.039961,42.1645602 133.707996,43.0534157 132.951896,43.404259 C132.17705,43.7370904 131.291289,43.404259 130.958543,42.6461867 L130.958543,42.6461867 Z M130.22119,45.5508253 C129.81502,45.7356446 129.335428,45.5508253 129.169055,45.1435964 C128.984717,44.7371506 129.169055,44.2555241 129.575224,44.0887169 C129.981394,43.9038976 130.460986,44.0887169 130.626578,44.4959458 C130.810916,44.9031747 130.626578,45.3652229 130.22119,45.5508253 L130.22119,45.5508253 Z M133.947792,33.0637771 C134.22508,32.9533554 134.538299,33.0637771 134.649214,33.341006 C134.76013,33.6182349 134.649214,33.9338373 134.372707,34.044259 C134.095418,34.1554639 133.7822,34.044259 133.671284,33.7670301 C133.560369,33.4890181 133.69003,33.1749819 133.947792,33.0637771 L133.947792,33.0637771 Z M137.342428,36.6896807 C137.748598,36.5048614 138.228971,36.6896807 138.394563,37.0969096 C138.578901,37.5033554 138.394563,37.9849819 137.988394,38.151006 C137.582224,38.3358253 137.103413,38.151006 136.93704,37.7437771 C136.751921,37.3365482 136.93704,36.8557048 137.342428,36.6896807 L137.342428,36.6896807 Z M145.867294,23.9441988 C145.867294,23.9441988 143.320926,26.8856446 141.014354,27.9209458 C138.707782,28.9570301 136.992498,28.6978133 134.907757,29.9195 C132.822234,31.1396205 131.770881,32.8413675 131.770881,32.8413675 L123.301473,54.9296205 C122.379782,57.4270301 123.745135,60.3316687 126.271976,61.3121506 C128.800379,62.2926325 131.641219,60.9965482 132.61915,58.5179337 L145.867294,23.9441988 Z" id="Fill-4" fill="#1D1D1B"></path>
                    <path d="M148.074667,4.3756747 C150.709299,5.39139759 152.628448,6.77910843 152.361314,7.47609639 C152.09418,8.1723012 149.742304,7.91308434 147.107672,6.89657831 C144.47304,5.88085542 142.553891,4.49236145 142.820244,3.79693976 C143.087379,3.09995181 145.440035,3.35995181 148.074667,4.3756747" id="Fill-6" fill="#1D1D1B"></path>
                    <g id="Group-10" transform="translate(0.000000, 12.455175)">
                        <mask id="mask-2" fill="white">
                            <use xlink:href="#path-1"></use>
                        </mask>
                        <g id="Clip-9"></g>
                        <path d="M129.556478,9.02857831 C130.700782,7.06761446 130.645324,5.55068675 127.98804,5.55068675 C125.976722,5.60628916 122.342289,7.01201205 120.663717,8.3253253 C120.276294,8.71375904 120.441886,8.91659036 120.940224,8.71375904 C121.27219,8.60255422 121.640866,8.38092771 122.028289,8.23213253 C123.928692,7.19683133 123.172593,9.37942169 122.729712,10.1930964 C120.441886,14.1706265 116.437996,19.7762892 114.316543,22.5509277 C113.30112,23.9198434 112.157598,25.288759 111.050787,26.4360482 C109.002757,28.3782169 104.98012,31.8193012 101.936195,32.9658072 C92.0459756,36.6653253 104.648155,19.7943012 105.681543,18.4441807 C108.024826,15.5035181 113.227697,10.397494 114.796135,7.84448193 C115.939657,5.88351807 115.884981,4.36659036 113.227697,4.36659036 C111.216379,4.42219277 107.581946,5.82791566 105.902593,7.14122892 C105.51517,7.52966265 105.681543,7.73327711 106.1791,7.52966265 C106.511846,7.41845783 106.880523,7.19683133 107.267946,7.04881928 C109.168349,6.01273494 108.412249,8.19610843 107.969369,9.00978313 C105.681543,12.9873133 101.677652,18.5921928 99.5554184,21.3668313 C97.8213886,23.6974337 95.6991547,26.0468313 94.0760403,27.3421325 C93.4300751,27.8785783 93.7987517,28.3782169 94.4634632,27.9341807 C95.0539706,27.545747 95.9209856,26.6764699 96.8989159,25.6403855 C95.1086473,29.2294819 93.6331597,34.2979157 98.3564383,34.8891807 C102.379075,35.4444217 107.175777,31.3196627 110.257195,28.267012 C110.58916,27.9341807 110.976583,27.5645422 111.364005,27.1565301 C111.456175,27.0641205 111.548344,26.972494 111.640513,26.8800843 C109.851025,30.4683976 108.393503,35.5188193 113.116782,36.1108675 C118.282941,36.8133373 124.685573,29.8583373 127.176483,27.3053253 C127.656075,26.8244819 127.508448,25.992012 126.696891,26.8244819 C125.239369,28.3414096 120.294259,32.8553855 116.696538,34.2235181 C106.8071,37.9230361 119.408498,21.0527952 120.441886,19.7018916 C122.766423,16.7056265 127.98804,11.5996024 129.556478,9.02857831 M97.9869806,16.9648434 C100.477891,17.2412892 99.4452841,14.1894217 96.8989159,14.9482771 C95.7546124,15.2803253 94.6665478,17.4449036 93.8542095,19.3510482 C91.363299,23.1061687 87.1750701,28.2114096 84.2412791,30.8748434 C81.6402343,33.1138193 79.241493,33.7058675 82.1752841,29.5059277 C83.3742642,27.8229759 84.8872443,26.0288193 85.7542592,24.2346627 C87.8210353,19.7206867 83.4109756,17.7041205 79.8874582,20.4239398 C77.8206821,21.9964699 75.0532642,25.2699639 72.8763537,27.0641205 C72.2850652,27.545747 72.432692,28.267012 73.0419458,27.7681566 C74.7759756,26.3616506 77.8206821,23.1421928 80.422508,21.2376145 C82.5994184,19.5538795 83.4664333,20.6455663 82.2119955,22.0512892 C80.4779657,24.0678554 77.4332592,27.545747 76.6763786,29.7839398 C75.5883139,33.0950241 76.8982095,34.5751446 79.0571547,34.5751446 C82.0456224,34.5751446 86.4923935,29.8951446 89.4816423,26.1956265 C90.4595726,24.9371325 91.5476373,23.4758072 92.470891,22.0700843 C89.8690652,27.120506 87.157105,32.2445422 83.7804333,36.8689398 C79.001697,43.3994819 73.0239806,48.3011084 67.3774483,48.3011084 C63.3001348,48.3011084 59.7758363,45.5264699 59.0189557,41.4385181 C58.9642791,40.9936988 58.4284483,40.9020723 58.483906,41.4941205 C59.4063786,47.099 63.7055229,49.2635783 68.9083935,49.2635783 C74.6103836,49.2635783 80.0897617,45.9517108 83.9460254,41.863759 C91.7140104,33.6502651 92.6364831,24.4006867 95.0164781,19.2398434 C96.1420353,16.9648434 97.1754234,16.8528554 97.9869806,16.9648434 M63.3368463,23.309 C69.573105,17.7041205 72.027304,22.7169518 68.0601249,25.7515904 C65.9941299,27.3233373 61.9160353,28.5254458 60.6248861,27.7681566 L60.3475975,27.6013494 C60.1820055,27.3233373 60.0156323,27.0641205 59.9047169,26.7876747 C60.938105,25.5291807 62.1378662,24.4006867 63.3368463,23.309 M69.738697,34.6495422 C71.3071348,34.2611084 72.6178114,33.3910482 72.6178114,32.0221325 C72.6178114,31.8929157 72.341304,31.8929157 72.341304,32.0221325 C72.341304,32.8358072 71.4180502,33.502253 70.3854433,33.6690602 C67.9492095,34.057494 63.1150154,31.1708675 60.8271896,28.2302048 C63.2626423,29.1550843 68.2632095,27.8049639 70.606493,26.1212289 C72.7834035,24.5486988 73.6504184,22.8101446 73.8167915,21.3856265 C74.093299,19.0550241 71.5289657,17.6861084 68.0046672,19.0550241 C65.7168413,19.9791205 63.0048811,21.9964699 60.1820055,25.7515904 C63.1704731,20.7935783 69.0380552,12.7468916 74.7947219,7.58526506 C81.8058264,1.33273494 85.8651746,2.53484337 79.5734582,9.15779518 C76.9716323,11.8776145 72.0819806,15.4103253 68.70609,16.9452651 C67.672702,17.3900843 68.1710403,17.9821325 68.9271398,17.6485181 C72.506896,16.075988 77.2856323,12.8017108 80.1639657,10.0826747 C88.6880502,1.86918072 81.5847766,-4.32853012 72.1194731,4.36659036 C65.7168413,10.3050843 61.5286124,16.502012 57.8933985,24.5486988 C56.6389607,26.0656265 55.7164881,27.3233373 54.5721846,28.3038193 C54.443304,28.4150241 54.3323886,28.5450241 54.2410005,28.6554458 C51.1041249,31.3564699 46.1777617,34.9823735 43.11509,35.0379759 C40.9373985,35.0927952 40.0149259,33.4654458 40.4023488,31.3376747 C40.9928562,28.0265904 44.4249856,24.1046627 47.3587766,22.735747 C51.1595826,20.9971928 53.3919507,24.3638795 48.3913836,27.0836988 C46.4909806,28.0641807 44.2031547,28.5998434 43.2806821,28.5998434 C42.1918363,28.5998434 42.3027517,29.0446627 43.2252244,29.0806867 C44.7382045,29.1370723 47.1924035,28.4894217 48.816299,27.7117711 C53.9270005,25.2699639 54.2410005,20.7011687 48.7053836,20.5343614 C42.6722095,20.3127349 35.4580204,25.4915904 35.5134781,31.9665301 C35.5681547,34.9079759 37.9114383,36.480506 41.1037716,36.480506 C46.4355229,36.4249036 51.196294,32.3549639 55.0892692,28.7854458 C55.6430652,28.3226145 56.1968612,27.8049639 56.7311299,27.2685181 C55.3665577,30.7456265 54.6651348,33.9650843 54.9971,36.3512892 C55.2189308,38.0898434 56.1968612,38.9035181 56.9529607,39.5519518 C57.1185527,39.6623735 57.4325527,39.5519518 57.2294682,39.2183373 C56.0851647,37.8494217 56.4179109,33.8162892 57.9863488,29.9139398 C59.3142095,32.5397831 64.4069458,35.8516506 69.738697,34.6495422 M33.0959905,19.7394819 C32.8749408,19.7394819 32.5054831,20.1279157 32.8194831,20.2751446 C33.2623637,20.4419518 33.4654483,20.8123735 33.4654483,21.3668313 C33.0772443,23.6050241 30.3098264,26.1580361 29.2209806,27.0273133 C28.9444731,27.3053253 29.331896,27.8973735 29.6091846,27.675747 C30.1989109,27.1941205 31.4541299,26.2136386 32.4875179,24.9003253 C30.8081647,28.6554458 27.5424085,33.502253 26.2879706,35.1852048 C21.3983189,41.993759 13.962299,48.245506 8.85159751,48.245506 C4.77428408,48.245506 1.30544328,45.4708675 0.548562687,41.3821325 C0.49388607,40.9388795 -0.096621393,40.8464699 0.0135129353,41.4385181 C0.935985572,47.0433976 5.23512985,49.2079759 10.4387816,49.2079759 C16.1399905,49.2079759 22.8378761,45.0644217 26.5090204,40.8276747 C32.4687716,33.9650843 36.3437816,26.0836386 35.3103935,21.6260482 C34.8854781,19.9611084 33.7419557,19.6830964 33.0959905,19.7394819 M35.4947318,17.6117108 C36.3062891,18.2593614 37.7825577,17.8889398 38.7604881,16.7980361 C39.7938761,15.650747 39.9594682,14.1894217 39.1479109,13.5425542 C38.3355726,12.8949036 36.8600851,13.2645422 35.8821547,14.4110482 C34.8308015,15.5583373 34.6644284,16.9648434 35.4947318,17.6117108" id="Fill-8" fill="#1D1D1B" mask="url(#mask-2)"></path>
                    </g>
                </g>
            </g>
        </g>
    </g>
</svg>