<?xml version="1.0" encoding="UTF-8"?>
<svg width="210px" height="210px" viewBox="0 0 210 210" version="1.1" xmlns="http://www.w3.org/2000/svg" xmlns:xlink="http://www.w3.org/1999/xlink">
    <!-- Generator: Sketch 46.2 (44496) - http://www.bohemiancoding.com/sketch -->
    <title>Group 14</title>
    <desc>Created with Sketch.</desc>
    <defs>
        <polygon id="path-1" points="0.605142045 4.97159091 3.31863636 4.97159091 3.31863636 0.75796875 0.605142045 0.75796875"></polygon>
        <polygon id="path-3" points="3.49011284e-15 27.31212 3.49011284e-15 0.585557185 31.1235732 0.585557185 31.1235732 27.31212"></polygon>
        <polygon id="path-5" points="26.1271023 28.0068453 26.1271023 0.371884322 0.0239745877 0.371884322 0.0239745877 28.0068453 26.1271023 28.0068453"></polygon>
    </defs>
    <g id="Page-1" stroke="none" stroke-width="1" fill="none" fill-rule="evenodd">
        <g id="Web-Design-Service" transform="translate(-1430.000000, -3323.000000)">
            <g id="Group-14" transform="translate(1430.000000, 3323.000000)">
                <rect id="Rectangle-18-Copy-5" fill="#F3F3F3" x="0" y="0" width="210" height="210"></rect>
                <g id="Page-1" transform="translate(18.000000, 83.000000)">
                    <path d="M67.4674935,39.6763004 C67.4536193,40.0611109 67.4267958,40.4584794 67.3740739,40.8791697 L68.9899554,38.0401828 L68.8123657,37.1144847 L70.432872,36.8731932 L71.0229879,40.8074102 L71.7684948,38.3415729 C71.8276913,38.1002814 71.8591395,37.9199855 71.8646892,37.7396897 C71.8711638,37.5593938 71.8535898,37.3665401 71.7888436,37.1019267 L73.4870454,36.7897727 C73.5490168,37.1261456 73.5887895,37.4149778 73.5776901,37.7154708 C73.562891,38.1128393 73.4602219,38.5451906 73.1762634,39.1946144 L71.8082675,42.7556818 L69.7872593,42.7556818 L69.3617839,40.0969907 L67.7782755,42.7556818 L65.8183138,42.7556818 C65.8950844,40.2772866 65.8025897,38.7254864 65.625,37.1019267 L67.3084027,36.8498713 C67.4369702,37.7513506 67.5044913,38.6537269 67.4674935,39.6763004" id="Fill-1" fill="#808080"></path>
                    <path d="M77.5287133,38.317354 C76.8073535,38.7263834 76.5390792,38.8824604 75.8867043,39.3040478 L75.1891912,42.7556818 L73.5795455,42.7556818 L74.7165174,37.0427251 L76.1405003,36.7897727 L76.0800321,37.5836127 C76.628504,37.2472398 77.0696661,37.0059484 77.5568182,36.7897727 L77.5287133,38.317354 Z" id="Fill-3" fill="#808080"></path>
                    <path d="M79.5479956,34.0583437 L81.5340909,33.8068182 L81.0939787,35.6951363 L79.1221134,35.9466618 L79.5479956,34.0583437 Z M78.9279761,36.7641196 L80.913055,36.5125942 L79.4778623,42.7556818 L77.5568182,42.7556818 L78.9279761,36.7641196 Z" id="Fill-5" fill="#808080"></path>
                    <path d="M82.9399236,37.9382324 L82.3598521,40.9864457 C82.3464012,41.0491315 82.3329502,41.1118173 82.3321095,41.1501772 C82.3295875,41.2371888 82.373303,41.2755488 82.4859546,41.2755488 C82.7566546,41.2755488 83.0643447,41.1501772 83.350177,41.0238701 L83.6276025,42.2541955 C83.1677487,42.5302001 82.5069717,42.7556818 81.8646896,42.7556818 C81.0643591,42.7556818 80.6490616,42.3290442 80.6726007,41.6020762 C80.6751227,41.5131934 80.6894144,41.4261818 80.7028653,41.3382346 L81.3510321,37.9382324 L80.5397727,37.9382324 L80.8096321,36.5207852 L81.6208915,36.5207852 L81.8924322,35.0528151 L83.5342867,34.8011364 L83.2097829,36.5207852 L84.5170455,36.5207852 L84.157233,37.9382324 L82.9399236,37.9382324 Z" id="Fill-7" fill="#808080"></path>
                    <path d="M87.9496217,38.4016826 C87.9565969,38.2016197 87.7865771,38.0726318 87.4822854,38.0726318 C86.8859086,38.0726318 86.6984509,38.4130897 86.6007986,38.8842903 L86.5162246,39.284416 C86.7995908,39.213341 86.9286315,39.1896494 87.2712866,39.0834757 C87.720313,38.9544878 87.9374152,38.7430179 87.9496217,38.4016826 L87.9496217,38.4016826 Z M84.9502994,38.9544878 C85.2284342,37.6365299 85.8431209,36.7897727 87.6435862,36.7897727 C88.718634,36.7897727 89.5207783,37.2600959 89.4876463,38.2253114 C89.4484109,39.3432064 88.8581373,39.8609129 87.4404344,40.2847302 C86.7429176,40.4962001 86.731583,40.4962001 86.236346,40.6260655 L86.1517721,41.0253137 C86.1099211,41.2376611 86.1264871,41.4254394 86.4299069,41.4254394 C87.0262838,41.4254394 87.9016674,41.1314874 88.6855019,40.7901521 L88.9601492,41.9668375 C88.2547853,42.402062 87.1553244,42.7556818 86.1509002,42.7556818 C84.9694811,42.7556818 84.4847069,42.2379753 84.5187109,41.2613528 C84.525686,41.0490054 84.5579462,40.8138438 84.6128756,40.5663976 L84.9502994,38.9544878 Z" id="Fill-9" fill="#808080"></path>
                    <polygon id="Fill-11" fill="#808080" points="93.9538521 34.0601236 95.4545455 33.8068182 93.9231316 42.7556818 92.4715909 42.7556818"></polygon>
                    <path d="M98.8871209,38.4016826 C98.894096,38.2016197 98.7240762,38.0726318 98.4197843,38.0726318 C97.8234072,38.0726318 97.6359494,38.4130897 97.538297,38.8842903 L97.4545949,39.284416 C97.7370894,39.213341 97.8661301,39.1896494 98.2087854,39.0834757 C98.6578121,38.9544878 98.8749143,38.7430179 98.8871209,38.4016826 L98.8871209,38.4016826 Z M95.8877969,38.9544878 C96.1659319,37.6365299 96.780619,36.7897727 98.5810852,36.7897727 C99.6561336,36.7897727 100.458278,37.2600959 100.425146,38.2253114 C100.385911,39.3432064 99.795637,39.8609129 98.3779333,40.2847302 C97.6804161,40.4962001 97.6690815,40.4962001 97.1738443,40.6260655 L97.0892703,41.0253137 C97.0474193,41.2376611 97.0639853,41.4254394 97.3674053,41.4254394 C97.9637825,41.4254394 98.8391666,41.1314874 99.6230015,40.7901521 L99.8976489,41.9668375 C99.1922846,42.402062 98.0928232,42.7556818 97.0883984,42.7556818 C95.9078506,42.7556818 95.4222042,42.2379753 95.4562082,41.2613528 C95.4640553,41.0490054 95.4954435,40.8138438 95.550373,40.5663976 L95.8877969,38.9544878 Z" id="Fill-13" fill="#808080"></path>
                    <path d="M100.426136,42.3783703 L100.80636,41.1543016 C101.258744,41.3078586 101.77496,41.4482536 102.431795,41.4482536 C103.015545,41.4482536 103.058101,41.284167 103.118233,41.0130292 C103.176516,40.7550534 103.008144,40.6137809 102.338358,40.2724456 C101.097773,39.6362809 101.062618,39.213341 101.255968,38.3542993 C101.537205,37.1188235 101.934081,36.7897727 103.608547,36.7897727 C104.179345,36.7897727 104.906489,36.9073535 105.397727,37.0600331 L105.065609,38.306916 C104.623402,38.1902126 103.970268,38.095446 103.548414,38.095446 C103.027572,38.095446 102.949862,38.1542364 102.876777,38.460473 C102.81757,38.7307333 102.876777,38.7904012 103.449426,39.0834757 C104.812127,39.7898379 105.014728,40.0372841 104.807501,40.9428317 C104.511463,42.2370979 104.096084,42.7556818 102.284701,42.7556818 C101.726854,42.7556818 100.950679,42.6021248 100.426136,42.3783703" id="Fill-15" fill="#808080"></path>
                    <path d="M105.397727,42.3783703 L105.777951,41.1543016 C106.23126,41.3078586 106.746551,41.4482536 107.404311,41.4482536 C107.987136,41.4482536 108.030617,41.284167 108.089824,41.0130292 C108.149032,40.7550534 107.98066,40.6137809 107.309949,40.2724456 C106.069364,39.6362809 106.035134,39.213341 106.228484,38.3542993 C106.508796,37.1188235 106.906597,36.7897727 108.580138,36.7897727 C109.150936,36.7897727 109.87808,36.9073535 110.369318,37.0600331 L110.0372,38.306916 C109.594993,38.1902126 108.941859,38.095446 108.520005,38.095446 C107.999163,38.095446 107.922378,38.1542364 107.848368,38.460473 C107.789161,38.7307333 107.848368,38.7904012 108.421017,39.0834757 C109.784643,39.7898379 109.986319,40.0372841 109.779092,40.9428317 C109.483979,42.2370979 109.067675,42.7556818 107.256292,42.7556818 C106.698445,42.7556818 105.923195,42.6021248 105.397727,42.3783703" id="Fill-17" fill="#808080"></path>
                    <g id="Group-21" transform="translate(109.375000, 39.772727)">
                        <mask id="mask-2" fill="white">
                            <use xlink:href="#path-1"></use>
                        </mask>
                        <g id="Clip-20"></g>
                        <polygon id="Fill-19" fill="#808080" mask="url(#mask-2)" points="0.605142045 4.4250142 1.68298295 2.97231534 0.976022727 2.97231534 1.439375 0.75796875 3.31863636 0.75796875 2.81053977 3.13140625 1.26536932 4.9718892"></polygon>
                    </g>
                    <path d="M118.202575,40.8057784 C118.125918,41.131073 118.211198,41.2811373 118.532198,41.2811373 C119.174198,41.2811373 119.648512,40.9558427 120.005924,40.6557141 L120.591389,37.9433724 C120.387291,37.9060893 120.143906,37.8930403 119.887106,37.8930403 C118.949019,37.8930403 118.739172,38.3805161 118.602148,38.9686562 L118.202575,40.8057784 Z M119.858359,42.6307836 L119.824822,42.1060247 C119.362965,42.4686023 118.710425,42.7556818 117.810667,42.7556818 C116.449052,42.7556818 116.144342,41.9559604 116.436596,40.593265 L116.791133,38.9565392 C117.100634,37.5062286 117.524163,36.4184957 120.158279,36.4184957 C120.350879,36.4184957 120.747577,36.4436618 120.914306,36.4809448 L121.437488,34.0556825 L123.295455,33.8068182 L121.386703,42.6307836 L119.858359,42.6307836 Z" id="Fill-22" fill="#808080"></path>
                    <path d="M126.480329,38.8254999 C126.496335,38.4016826 126.227045,38.1779281 125.647034,38.1779281 C124.977573,38.1779281 124.573636,38.4955717 124.453115,39.0606615 L124.13392,40.4847931 C124.117913,40.5663976 124.102848,40.6488797 124.100024,40.7199546 C124.084958,41.1314874 124.353308,41.366649 124.93426,41.366649 C125.615962,41.366649 126.005774,41.0490054 126.128179,40.4847931 L126.446432,39.0606615 C126.462439,38.9781794 126.478445,38.8956974 126.480329,38.8254999 M122.302554,40.8375354 C122.307262,40.7085475 122.325152,40.5663976 122.356224,40.4374097 L122.657529,39.1080448 C122.989905,37.6365299 123.79307,36.7897727 125.938922,36.7897727 C127.593272,36.7897727 128.304162,37.6725062 128.265557,38.6956346 C128.26085,38.8254999 128.24296,38.9667724 128.211888,39.1080448 L127.910583,40.4374097 C127.593272,41.814158 126.85131,42.7556818 124.616949,42.7556818 C123.051107,42.7556818 122.263008,41.8843555 122.302554,40.8375354" id="Fill-24" fill="#808080"></path>
                    <path d="M138.476603,38.7822879 C138.490259,38.7106791 138.503915,38.6507067 138.505622,38.6023708 C138.509036,38.482426 138.453558,38.4340901 138.293953,38.4340901 C137.996081,38.4340901 137.287674,38.7464835 136.821662,38.9980094 L136.067166,42.7556818 L134.465143,42.7556818 L135.26146,38.7822879 C135.275116,38.7106791 135.288772,38.6507067 135.289626,38.6023708 C135.293893,38.482426 135.238416,38.4340901 135.078811,38.4340901 C134.780938,38.4340901 134.060583,38.7464835 133.617615,38.986373 L132.863119,42.7556818 L131.25,42.7556818 L132.389425,37.0538302 L133.816481,36.8023043 L133.783194,37.450364 C134.668276,37.0180258 135.362173,36.7897727 136.003154,36.7897727 C136.551955,36.7897727 136.829344,37.0421938 136.941152,37.474532 C137.804897,36.9571583 138.577316,36.7897727 139.218296,36.7897727 C139.96255,36.7897727 140.222015,37.2346425 140.197263,37.978479 C140.190435,38.1825641 140.170805,38.4099221 140.117887,38.6507067 L139.294258,42.7556818 L137.680285,42.7556818 L138.476603,38.7822879 Z" id="Fill-26" fill="#808080"></path>
                    <path d="M145.372638,38.8254999 C145.388642,38.4016826 145.119391,38.1779281 144.538523,38.1779281 C143.869161,38.1779281 143.466225,38.4955717 143.34478,39.0606615 L143.026573,40.4847931 C143.010569,40.5663976 142.994564,40.6488797 142.992682,40.7199546 C142.976677,41.1314874 143.245928,41.366649 143.825855,41.366649 C144.508397,41.366649 144.898153,41.0490054 145.02054,40.4847931 L145.338746,39.0606615 C145.353809,38.9781794 145.369813,38.8956974 145.372638,38.8254999 M141.194534,40.8375354 C141.200183,40.7085475 141.21807,40.5663976 141.248196,40.4374097 L141.550398,39.1080448 C141.882726,37.6365299 142.685773,36.7897727 144.830369,36.7897727 C146.484476,36.7897727 147.196204,37.6725062 147.157605,38.6956346 C147.152898,38.8254999 147.134069,38.9667724 147.103943,39.1080448 L146.802683,40.4374097 C146.485418,41.814158 145.743564,42.7556818 143.509531,42.7556818 C141.943919,42.7556818 141.155935,41.8843555 141.194534,40.8375354" id="Fill-28" fill="#808080"></path>
                    <path d="M151.108259,38.317354 C150.386899,38.7263834 150.119476,38.8824604 149.46625,39.3040478 L148.768737,42.7556818 L147.159091,42.7556818 L148.296915,37.0427251 L149.720046,36.7897727 L149.659578,37.5836127 C150.208049,37.2472398 150.650063,37.0059484 151.136364,36.7897727 L151.108259,38.317354 Z" id="Fill-30" fill="#808080"></path>
                    <path d="M154.569506,38.4016826 C154.576482,38.2016197 154.406435,38.0726318 154.102093,38.0726318 C153.505618,38.0726318 153.317257,38.4130897 153.219588,38.8842903 L153.135873,39.284416 C153.419286,39.213341 153.548347,39.1896494 153.891059,39.0834757 C154.34016,38.9544878 154.557298,38.7430179 154.569506,38.4016826 L154.569506,38.4016826 Z M151.569689,38.9544878 C151.84787,37.6365299 152.462658,36.7897727 154.26342,36.7897727 C155.338645,36.7897727 156.140922,37.2600959 156.106912,38.2253114 C156.068543,39.3432064 155.478172,39.8609129 154.059363,40.2847302 C153.362603,40.4962001 153.351266,40.4962001 152.855948,40.6260655 L152.77136,41.0253137 C152.729502,41.2376611 152.746071,41.4254394 153.049541,41.4254394 C153.646016,41.4254394 154.521544,41.1314874 155.305508,40.7901521 L155.5802,41.9668375 C154.87472,42.402062 153.775078,42.7556818 152.770488,42.7556818 C151.588874,42.7556818 151.10402,42.2379753 151.138029,41.2613528 C151.145006,41.0490054 151.177271,40.8138438 151.23221,40.5663976 L151.569689,38.9544878 Z" id="Fill-32" fill="#808080"></path>
                    <polygon id="Fill-34" fill="#808080" points="156.501293 40.7670455 158.096591 40.7670455 157.703253 42.7556818 156.107955 42.7556818"></polygon>
                    <g id="Group-38" transform="translate(0.000000, 4.971591)">
                        <mask id="mask-4" fill="white">
                            <use xlink:href="#path-3"></use>
                        </mask>
                        <g id="Clip-37"></g>
                        <path d="M2.0267298,3.42622801 C-0.798017677,7.54937683 -0.448901515,12.9136913 1.71208333,17.2945931 C1.76069444,17.4023644 1.81637626,17.5029509 1.86940657,17.6071298 C1.89945707,17.6735887 1.93392677,17.7409457 1.97193182,17.8065066 C1.98784091,17.8424304 2.01258838,17.8828446 2.03380051,17.9178702 C2.0682702,17.9897177 2.10539141,18.0561767 2.14251263,18.1235337 C2.21145202,18.2429802 2.28127525,18.3633248 2.35021465,18.4809751 C2.38998737,18.5465359 2.42710859,18.6129949 2.47041667,18.6785557 C2.54465909,18.806085 2.63039141,18.9309201 2.70728535,19.0584494 C2.74175505,19.112335 2.77357323,19.1653226 2.81069444,19.217412 C2.92205808,19.3889479 3.03342172,19.5586877 3.15539141,19.7257331 C3.15539141,19.7302236 3.16069444,19.7356122 3.16511364,19.7374084 C3.18367424,19.7652493 3.20400253,19.7930902 3.22256313,19.8182368 C3.32685606,19.9628299 3.43114899,20.1038306 3.53986111,20.2439333 C3.57698232,20.2960227 3.61852273,20.3472141 3.65564394,20.3975073 C3.75463384,20.5205462 3.85185606,20.6417889 3.94907828,20.7639296 C3.98619949,20.8070381 4.02332071,20.8528409 4.0622096,20.8977456 C4.19213384,21.0558101 4.32824495,21.2138746 4.46700758,21.3692449 C4.46700758,21.3710411 4.47231061,21.3746334 4.47496212,21.3782258 C4.47849747,21.3845125 4.48291667,21.389901 4.49263889,21.3952896 C4.62698232,21.5452713 4.76309343,21.6916606 4.90185606,21.8371518 C4.94604798,21.8820565 4.9902399,21.926063 5.03885101,21.9727639 C5.14491162,22.0823314 5.25097222,22.1927969 5.36498737,22.3005682 C5.41183081,22.3454729 5.45690657,22.3885814 5.50109848,22.432588 C5.64958333,22.5735887 5.79718434,22.7145894 5.95185606,22.8493035 C5.95450758,22.8519978 5.95715909,22.8528959 5.95892677,22.8555902 C5.98455808,22.8780425 6.01284091,22.9004949 6.03582071,22.9220491 C6.17193182,23.0414956 6.30892677,23.1591459 6.44768939,23.275 C6.50337121,23.322599 6.55816919,23.3666056 6.61385101,23.4124084 C6.72963384,23.5058101 6.84541667,23.5947214 6.96119949,23.6845308 C7.02130051,23.7303336 7.08140152,23.7770345 7.14415404,23.8255315 C7.26877525,23.9207295 7.39869949,24.0132331 7.52508838,24.1048387 C7.57193182,24.1389663 7.61789141,24.1730938 7.66650253,24.2045271 C7.67799242,24.2153043 7.69213384,24.2251833 7.70362374,24.2341642 C7.83089646,24.318585 7.95109848,24.4012097 8.07660354,24.4847324 C8.13140152,24.5206562 8.18443182,24.5565799 8.23834596,24.5925037 C8.4327904,24.7182368 8.62635101,24.8394795 8.81902778,24.9571298 C8.8747096,24.9867669 8.92950758,25.0182001 8.98342172,25.0496334 C9.12660354,25.1340543 9.27243687,25.2184751 9.42003788,25.2984054 C9.50135101,25.3442082 9.5817803,25.3837243 9.66574495,25.4259348 C9.76473485,25.4816166 9.86902778,25.5381965 9.97597222,25.5929802 C10.0007197,25.6028592 10.026351,25.6127383 10.0493308,25.6262097 C10.0926389,25.6459677 10.1350631,25.6684201 10.1766035,25.6890762 C10.338346,25.7699047 10.5053914,25.8471408 10.6768561,25.9243768 C10.7086742,25.9396444 10.7431439,25.9531158 10.7776136,25.9719758 C10.9702904,26.0563966 11.1620833,26.1372251 11.3591793,26.2153592 C11.4051389,26.2333211 11.4510985,26.2548754 11.4997096,26.2710411 C11.6782449,26.3419905 11.8629672,26.4111437 12.0459217,26.4776026 C12.0689015,26.4874817 12.0901136,26.4946664 12.1130934,26.5027493 C12.3163763,26.5728006 12.5178914,26.6401576 12.7238258,26.7048204 C12.7724369,26.7191899 12.821048,26.7371518 12.8714268,26.7497251 C13.0826641,26.8143878 13.285947,26.8889296 13.5007197,26.9302419 C27.1569066,29.4601723 31.1235732,18.5914406 31.1235732,18.5914406 C27.7906187,23.0001833 21.8750884,24.165011 16.2724369,22.8690616 C16.063851,22.8214626 15.8579167,22.7541056 15.6475631,22.691239 C15.598952,22.6768695 15.5432702,22.6607038 15.4946591,22.6427419 C15.2913763,22.5807735 15.0898611,22.5134164 14.893649,22.4451613 C14.8653662,22.4361804 14.8361995,22.4254032 14.8079167,22.413728 C14.6302652,22.3517595 14.4543813,22.2835044 14.2784975,22.2134531 C14.2298864,22.1927969 14.1786237,22.174835 14.1300126,22.1559751 C13.9355682,22.078739 13.7437753,21.9952163 13.5564015,21.9116935 C13.5148611,21.896426 13.4795076,21.8784641 13.4406187,21.8622984 C13.2771086,21.7859604 13.1189015,21.7105205 12.9598106,21.6332845 C12.9111995,21.6126283 12.8670076,21.5883798 12.8183965,21.5641312 C12.6928914,21.5039589 12.569154,21.4366019 12.4463005,21.3710411 C12.3605682,21.3270345 12.2774874,21.2857221 12.1961742,21.2390213 C12.0459217,21.1572947 11.8956692,21.0701796 11.7454167,20.9857588 C11.6985732,20.9543255 11.6481944,20.9264846 11.5942803,20.8977456 C11.3998359,20.7800953 11.2036237,20.6588526 11.0118308,20.5340176 C10.956149,20.4989919 10.9048864,20.4639663 10.8545076,20.4271444 C10.7130934,20.337335 10.5743308,20.2421371 10.4382197,20.1478372 C10.3940278,20.1155059 10.3498359,20.0831745 10.3038763,20.049945 C10.1721843,19.9556452 10.0422601,19.8613453 9.91056818,19.7634531 C9.85488636,19.7185484 9.79743687,19.6736437 9.73733586,19.6296371 C9.61890152,19.5362353 9.50135101,19.4446298 9.38291667,19.3485337 C9.33253788,19.3054252 9.27950758,19.2623167 9.22824495,19.2201063 C9.07534091,19.0961694 8.93215909,18.9713343 8.78632576,18.8420088 C8.77218434,18.8267412 8.75185606,18.8132698 8.73506313,18.8006965 C8.58039141,18.6596957 8.4257197,18.5151026 8.27281566,18.3714076 C8.22597222,18.327401 8.18708333,18.2860887 8.14112374,18.2438783 C8.0297601,18.1325147 7.9192803,18.0247434 7.80968434,17.9133798 C7.76372475,17.8666789 7.72218434,17.8226723 7.67799242,17.7777676 C7.5392298,17.6358688 7.40311869,17.4894795 7.26877525,17.3385997 C7.26170455,17.332313 7.25463384,17.3260264 7.24756313,17.3179435 C7.10703283,17.159879 6.97003788,17.0000183 6.83392677,16.8383614 C6.79680556,16.7943548 6.76233586,16.7494501 6.72521465,16.7072397 C6.62622475,16.5824047 6.52635101,16.4575696 6.4247096,16.3327346 C6.39200758,16.2842375 6.35488636,16.2384348 6.31776515,16.1917339 C6.20021465,16.0372617 6.08708333,15.8836877 5.97306818,15.7247251 C2.86372475,11.4147727 1.74213384,5.46669721 4.22925505,0.585557185" id="Fill-36" fill="#808080" mask="url(#mask-4)"></path>
                    </g>
                    <path d="M10.5013345,5.4044883 C8.43331545,8.42481784 8.54761011,12.4691881 10.1575576,15.6648858 C10.4245428,16.2000765 10.728138,16.720729 11.0692361,17.2141222 C11.3772959,17.6657178 11.719287,18.2009085 12.1327122,18.5634571 C12.2773664,18.7297388 12.4345215,18.8914773 12.5952484,19.0541244 C12.6354301,19.0950133 12.6747189,19.134085 12.7166865,19.1767912 C12.8711629,19.3276259 13.028318,19.4766434 13.1890449,19.6211176 C13.1935095,19.6274781 13.2024388,19.6338386 13.2077964,19.6401992 C13.2095822,19.6401992 13.212261,19.6429251 13.212261,19.6429251 C13.3917393,19.8046635 13.5747894,19.9582242 13.7640899,20.1081503 C13.8087363,20.1399528 13.848025,20.1753899 13.8926714,20.2081011 C14.0792932,20.3571185 14.2712725,20.4988668 14.4650376,20.6397065 C14.4721811,20.6424324 14.4766457,20.646067 14.485575,20.6506102 C14.570403,20.712398 14.6588028,20.7696425 14.7498814,20.8287043 C14.7900631,20.8550549 14.8320306,20.8859488 14.8722124,20.9104822 C15.0141878,21.004981 15.1543773,21.0922108 15.2999244,21.1794405 C15.3204617,21.1903442 15.3409991,21.2021566 15.3624293,21.2121516 C15.4838674,21.287569 15.6124489,21.3611691 15.7410304,21.4275001 C15.7856767,21.455668 15.8294302,21.4765668 15.8740765,21.5020088 C15.9633692,21.5465323 16.051769,21.5937817 16.1383829,21.6410312 C16.149991,21.646483 16.1660637,21.6537522 16.1803505,21.6601127 C16.3625076,21.7518856 16.5473435,21.8354808 16.7295006,21.9199846 C16.774147,21.9381575 16.8116499,21.9536044 16.8536175,21.9708686 C17.0036292,22.0371995 17.1554268,22.1008046 17.3045456,22.1589577 C17.3724081,22.1816738 17.4358059,22.2089331 17.4983108,22.2316492 C17.6367145,22.2816245 17.776904,22.3306913 17.9144148,22.3770321 C17.9822773,22.3997481 18.0429963,22.4188296 18.1037153,22.4388198 C18.3001593,22.5015162 18.499282,22.5823854 18.7064411,22.6160052 C29.3545961,24.4123925 31.8181818,16.0655973 31.8181818,16.0655973 C29.600151,19.3176309 25.3069578,20.8659586 20.7262421,19.6556461 C20.5208689,19.6020361 20.3199603,19.5420657 20.1226234,19.4766434 C20.0601185,19.4602878 20.0038641,19.439389 19.9431451,19.4184902 C19.8011697,19.3721494 19.6583013,19.3230827 19.5198976,19.2712901 C19.4573927,19.2467567 19.3922091,19.223132 19.3288112,19.1985986 C19.1770136,19.1377195 19.0243231,19.0786577 18.8769902,19.0123268 C18.8332367,18.9941539 18.7912692,18.9777984 18.756445,18.9596255 C18.5671445,18.8760303 18.3796298,18.7869833 18.1974727,18.6979363 C18.1037153,18.6488696 18.0126368,18.6007115 17.9197724,18.5516448 C17.863518,18.5234768 17.8099423,18.4953089 17.7599384,18.4689582 C17.6367145,18.4044446 17.5215269,18.3344791 17.4045535,18.2645136 C17.3768727,18.2490666 17.349192,18.235437 17.3206183,18.2181728 C17.1786429,18.130943 17.03131,18.0428046 16.895585,17.9510317 C16.8491528,17.9237724 16.8089711,17.8928785 16.7652177,17.863802 C16.6714604,17.8038315 16.5803818,17.7429524 16.4839457,17.6775301 C16.2901805,17.540325 16.10088,17.3958508 15.9115794,17.2504679 C15.8669331,17.2141222 15.8249655,17.1805024 15.782998,17.1441567 C13.7730192,15.5340412 12.183609,13.332399 11.4317645,10.8390825 C10.6370594,8.24854109 10.8120731,5.34179193 12.1818232,2.98295455" id="Fill-39" fill="#808080"></path>
                    <path d="M17.9316885,2.22023431 C16.7230747,3.97004623 16.6071681,6.14508689 17.4406338,8.07651601 C18.325417,10.1284412 20.1339137,11.7385475 22.2414672,12.5008159 C22.3272911,12.533996 22.4122303,12.5610639 22.5007086,12.5907513 C22.5405239,12.6021024 22.5768,12.6151998 22.6192696,12.627424 C22.7422544,12.6649699 22.8643545,12.7112474 22.9917633,12.7348227 C28.8207146,13.8454817 30.4000525,9.7835431 30.8238636,9.18630191 C29.4365237,11.1535306 27.109544,11.6250368 24.2543488,10.9413528 C24.0296139,10.8872169 23.7836442,10.8068862 23.5659875,10.7300482 C23.2881656,10.6322543 23.0129981,10.5196167 22.744024,10.3947549 C22.2414672,10.1537628 21.7548364,9.86300063 21.3053666,9.52770733 C18.7492281,7.61461456 17.1654663,3.96655359 18.8323977,0.994318182" id="Fill-41" fill="#808080"></path>
                    <path d="M154.305256,10.9375 L154.562784,11.5921778 C154.635369,11.7800001 154.4375,11.9318182 154.119318,11.9318182" id="Fill-43" fill="#3B3835"></path>
                    <path d="M136.221591,8.94886364 C136.169385,9.20757311 136.105935,9.53567156 136.064171,9.75154834 L134.232955,18.8920455 L136.158944,9.26239896 L136.221591,8.94886364 Z" id="Fill-45" fill="#3B3835"></path>
                    <polygon id="Fill-47" fill="#3B3835" points="74.5738636 15.9090909 73.5795455 19.8863636 74.5738636 15.9099831"></polygon>
                    <path d="M155.100396,12.174258 L154.519812,9.64993293 C154.062061,7.8234774 152.763921,6.96022727 149.84863,6.96022727 L137.582139,6.96022727 C137.299358,6.96022727 137.017461,7.09107782 136.960021,7.37458733 L132.306513,30.0680701 C132.246423,30.3552144 132.227865,30.5596683 132.259678,30.7014231 C132.292374,30.8477213 132.838494,30.8204608 133.118624,30.8204608 L137.367402,30.8204608 C137.651066,30.8204608 138.167141,30.8413605 138.317368,30.77957 C138.474665,30.713236 138.544476,30.2807023 138.601916,29.9944667 L140.103304,22.0371179 L141.937843,13.2119756 C141.99705,12.928466 142.275413,12.6967515 142.55731,12.6967515 L154.707154,12.6876647 C154.987283,12.6876647 155.164905,12.4577675 155.100396,12.174258" id="Fill-49" fill="#3B3835"></path>
                    <g id="Group-53" transform="translate(148.153409, 1.988636)">
                        <mask id="mask-6" fill="white">
                            <use xlink:href="#path-5"></use>
                        </mask>
                        <g id="Clip-52"></g>
                        <path d="M24.1800085,0.372785423 C23.8918551,0.376389826 18.7229915,0.372785423 18.7229915,0.372785423 C18.4375227,0.372785423 18.0697244,0.681863015 17.9113295,0.91975364 L8.3333608,15.1093888 C8.16959659,15.3472794 7.98435511,15.3382684 7.92171307,15.058026 L7.21385795,11.948327 C7.15300568,11.6662824 6.86753693,11.4365017 6.57669886,11.4365017 L0.420775568,11.4365017 C0.137991477,11.4365017 -0.0329318182,11.6743923 0.04134375,11.9537336 L2.8011733,21.6946338 C2.88081818,21.9739751 2.88797727,22.429031 2.81728125,22.7083722 L1.52953977,27.6418994 C1.4624233,27.9212407 1.63782102,28.0068453 1.92865909,28.0068453 L8.00672727,28.0068453 C8.29219602,28.0068453 8.58750852,27.9230429 8.65730966,27.6418994 L9.94505114,22.6389875 C10.0148523,22.3596462 10.2144119,21.9802828 10.3844403,21.7477987 L26.0163153,0.873797496 C26.192608,0.64491788 26.1666562,0.371884322 25.8811875,0.371884322 L24.1800085,0.372785423 Z" id="Fill-51" fill="#1D1D1B" mask="url(#mask-6)"></path>
                    </g>
                    <path d="M108.335333,6.96022727 L102.881441,6.96022727 C102.602948,6.96022727 102.318305,7.06117012 102.262958,7.34672015 L100.460222,16.0778216 L98.6645136,24.4387992 C98.6065309,24.7216211 98.3289165,24.7025238 98.047788,24.7025238 L94.4633999,24.7025238 C90.9176669,24.7025238 91.3261817,22.3835665 92.0553587,18.9069494 C92.064144,18.8723924 94.3298638,7.34672015 94.3298638,7.34672015 C94.3799398,7.06298891 94.1963278,6.96022727 93.9178349,6.96022727 L88.7213506,6.96022727 C88.4411007,6.96022727 88.1626078,7.06298891 88.1081391,7.34672015 L86.017246,18.8987649 C84.9744351,25.1453991 84.9436866,30.6408732 91.9402717,30.8218428 C92.0553587,30.8263897 102.9895,30.8218428 102.9895,30.8218428 C103.272385,30.8218428 103.549999,30.7254469 103.610618,30.4444438 L105.983518,18.8596609 L108.346754,7.22668001 C108.346754,7.22668001 108.430214,6.96022727 108.335333,6.96022727" id="Fill-54" fill="#1D1D1B"></path>
                    <path d="M53.5588459,6.96022727 L47.4937209,6.96022727 C47.2021284,6.96022727 46.9096246,7.0340724 46.8449275,7.33916938 L45.7505443,12.3888159 C45.6885808,12.6871113 45.8744711,12.9261364 46.1678861,12.9261364 L51.9751339,12.9261364 C52.2685489,12.9261364 52.5592302,12.6443589 52.6221048,12.3431485 L53.6754829,7.25560779 C53.6754829,7.25560779 53.760227,6.96022727 53.5588459,6.96022727" id="Fill-56" fill="#3B3835"></path>
                    <path d="M45.564722,13.9204545 C45.2814901,13.9204545 44.9901916,14.1421284 44.9292429,14.4174614 L44.1243625,17.9044262 L42.3299633,25.9568167 C42.3299633,25.9568167 41.3745039,30.2381128 41.283081,30.5055289 C41.283081,30.5055289 40.4790969,33.5966476 38.5583189,33.4726158 C37.6647044,33.4145583 36.6429186,33.2139963 36.6429186,33.2139963 L36.6402297,33.2139963 C36.103344,33.0547781 36.0656993,33.6019255 36.0002691,33.8754992 L34.8153561,38.8921895 C34.7472371,39.1666428 34.9309793,39.4129471 35.2142111,39.4173454 C35.2142111,39.4173454 37.7830165,39.7727273 39.5962381,39.7727273 L39.8947071,39.7727273 C44.3753275,39.7727273 46.7424646,37.187412 48.2554246,30.1659809 L50.0283126,22.0396991 L51.6918516,14.4790375 C51.7536965,14.2037045 51.5842952,13.9477239 51.2983744,13.9477239" id="Fill-58" fill="#1D1D1B"></path>
                    <path d="M125.270016,16.9299484 C125.270016,17.2447913 124.294073,17.1849076 124.294073,17.1849076 L116.52215,17.1268386 C116.254122,17.1268386 116.176652,16.7430388 116.157952,16.4690258 C116.157062,16.4599525 116.177542,16.1396657 116.199804,16.0607281 C116.800864,13.9375804 118.593357,12.7244827 121.43481,12.7244827 C124.632447,12.7244827 125.315429,14.340434 125.315429,16.132407 M122.641382,6.96022727 C112.671807,6.96022727 110.291611,13.2398451 108.967499,19.4632085 C107.644277,25.8081539 107.757365,30.8238636 118.072439,30.8238636 L118.44465,30.8238636 L127.51041,30.8238636 C127.790014,30.8184197 128.069618,30.5580165 128.125717,30.2758375 L129.139949,26.25093 C129.19872,25.966029 129.009052,25.8825548 128.727667,25.8825548 L119.449088,25.8825548 C116.088497,25.8825548 114.885487,24.8273322 115.002137,22.4582986 C114.999466,22.1888221 115.303112,21.5028821 115.587168,21.5028821 L129.87903,21.5028821 C130.505913,21.4992528 130.526393,21.1254336 130.526393,21.1254336 C131.981403,14.4347962 132.076682,6.96022727 122.641382,6.96022727" id="Fill-60" fill="#1D1D1B"></path>
                    <path d="M73.6407919,19.2958857 L72.4869426,23.2023658 C72.4073359,23.476971 72.0817537,23.6594505 71.7955275,23.6594505 L65.8429174,23.6594505 C61.3241217,23.6594505 60.2257287,20.201197 61.3241217,15.0412771 C62.4269869,9.76708606 64.6112504,6.50371357 69.0549118,6.17330154 C75.1300624,5.71976008 76.3733574,9.96905374 74.9010815,14.8525968 L73.6407919,19.2958857 Z M78.9323983,23.4353373 C78.9323983,23.4353373 81.7365204,16.6880223 82.3733736,12.787743 C83.2436801,7.56935882 80.6086104,0 70.4144862,0 C60.2820795,0 55.8858243,7.22565944 54.2024566,15.082025 C52.5262445,22.9950832 54.7212415,29.8850156 64.7972974,29.8292088 L80.1774822,29.8194647 C80.461025,29.8185789 80.7561957,29.5918082 80.8286467,29.3207463 L82.1247147,24.4318883 C82.1953767,24.1555115 82.0200632,23.9313982 81.7320481,23.9305124 L80.4932254,23.9216542 L79.2552972,23.9163392 C79.0111105,23.9136818 78.8715753,23.7568911 78.9037757,23.5496085 C78.908248,23.5124039 78.9136147,23.4743135 78.9323983,23.4353373 L78.9323983,23.4353373 Z" id="Fill-62" fill="#1D1D1B"></path>
                </g>
            </g>
        </g>
    </g>
</svg>