<?xml version="1.0" encoding="UTF-8"?>
<svg width="210px" height="210px" viewBox="0 0 210 210" version="1.1" xmlns="http://www.w3.org/2000/svg" xmlns:xlink="http://www.w3.org/1999/xlink">
    <!-- Generator: Sketch 46.2 (44496) - http://www.bohemiancoding.com/sketch -->
    <title>Group 44</title>
    <desc>Created with Sketch.</desc>
    <defs>
        <polygon id="path-1" points="31.3227727 0.0430833333 0.0001301325 0.0430833333 0.0001301325 32.0218253 31.3227727 32.0218253 31.3227727 0.0430833333"></polygon>
        <polygon id="path-3" points="6.65337682 0.0430833333 0.143363636 0.0430833333 0.143363636 12.0887504 6.65337682 12.0887504 6.65337682 0.0430833333"></polygon>
    </defs>
    <g id="Page-1" stroke="none" stroke-width="1" fill="none" fill-rule="evenodd">
        <g id="Web-Design-Service" transform="translate(-279.000000, -3783.000000)">
            <g id="Group-44" transform="translate(279.000000, 3783.000000)">
                <rect id="Rectangle-18-Copy-12" fill="#F3F3F3" x="0" y="0" width="210" height="210"></rect>
                <g id="Page-1" transform="translate(30.000000, 89.000000)">
                    <g id="Group-3" transform="translate(0.000000, 0.874042)">
                        <mask id="mask-2" fill="white">
                            <use xlink:href="#path-1"></use>
                        </mask>
                        <g id="Clip-2"></g>
                        <path d="M28.2461818,0.0428083333 C28.3543636,0.191308333 28.5207273,0.114308333 28.658,0.142725 C30.1952727,0.467225 31.2625455,1.74689167 31.3198182,3.35014167 C31.3225455,3.426225 31.3225455,3.50230833 31.3225455,3.57839167 C31.3225455,11.9035583 31.3234545,20.2296417 31.3216364,28.555725 C31.3207273,30.0498917 30.558,31.2443083 29.2825455,31.7713917 C28.0398182,32.2838083 26.7089091,32.0023917 25.718,30.9958917 C23.6989091,28.946225 21.6870909,26.889225 19.6716364,24.834975 C15.3952727,20.4743917 11.118,16.1138083 6.84345455,11.7495583 C6.75709091,11.662475 6.70072727,11.5460583 6.63072727,11.4443083 C6.59254545,11.4653917 6.55527273,11.4873917 6.51709091,11.508475 L6.51709091,11.9063083 C6.51709091,17.4686417 6.51890909,23.0328083 6.51527273,28.5951417 C6.51436364,30.2543083 5.51436364,31.5578083 3.97436364,31.9336417 C2.14163636,32.3800583 0.238909091,31.0316417 0.0398181818,29.141475 C0.0134545455,28.8893917 0.00163636364,28.635475 0.00163636364,28.3833917 C-0.000181818182,20.1581417 -0.000181818182,11.9338083 0.000727272727,3.709475 C0.000727272727,1.70655833 0.950727273,0.533225 2.90709091,0.110641667 C2.93709091,0.104225 2.95981818,0.065725 2.98527273,0.0428083333 L3.43709091,0.0428083333 C3.45072727,0.062975 3.46163636,0.0996416667 3.47527273,0.100558333 C4.47981818,0.167475 5.21709091,0.707391667 5.90163636,1.40680833 C12.0952727,7.73914167 18.3007273,14.060475 24.5052727,20.382725 C24.5770909,20.456975 24.6289091,20.575225 24.7670909,20.572475 C24.8370909,20.437725 24.8016364,20.297475 24.8025455,20.1645583 C24.8052727,18.859225 24.8043636,17.5538917 24.8043636,16.2485583 C24.8043636,12.0300583 24.8025455,7.81064167 24.8052727,3.591225 C24.8061818,1.721225 25.8489091,0.466308333 27.6789091,0.118891667 C27.7307273,0.108808333 27.7761818,0.0996416667 27.7934545,0.0428083333 L28.2461818,0.0428083333 Z" id="Fill-1" fill="#1D1D1B" mask="url(#mask-2)"></path>
                    </g>
                    <path d="M149.800727,4.64218333 C149.780727,4.65501667 149.744364,4.6651 149.742545,4.67976667 C149.621636,5.73943333 149.000727,6.49201667 148.282545,7.21526667 C145.162545,10.3585167 142.065273,13.5256 138.949818,16.67435 C138.719818,16.9071833 138.708,17.0181 138.945273,17.2582667 C142.203455,20.5500167 145.453455,23.8500167 148.697091,27.1564333 C149.988909,28.4727667 150.064364,30.4280167 148.900727,31.76085 C147.642545,33.20185 145.519818,33.2706 144.146182,31.89285 C142.489818,30.2291 140.851636,28.5479333 139.205273,26.8750167 C137.584364,25.2296 135.959818,23.5887667 134.349818,21.93235 C134.126182,21.70135 134.017091,21.6802667 133.778,21.9250167 C130.529818,25.2442667 127.271636,28.5534333 124.008,31.8571 C123.007091,32.87185 121.806182,33.1560167 120.481636,32.6491 C118.284364,31.8076 117.698,28.93935 119.369818,27.2206 C121.648909,24.8776 123.950727,22.5575167 126.243455,20.2282667 C127.226182,19.2291 128.201636,18.2226 129.199818,17.2417667 C129.435273,17.00985 129.399818,16.9026 129.188,16.6890167 C125.922545,13.3862667 122.664364,10.0771 119.410727,6.76243333 C117.814364,5.1381 118.113455,2.57693333 120.017091,1.46043333 C121.286182,0.7161 122.862545,0.92235 123.930727,2.00218333 C126.398909,4.49551667 128.856182,6.99893333 131.318,9.49868333 C132.132545,10.3255167 132.955273,11.1459333 133.755273,11.9874333 C133.982545,12.22485 134.105273,12.2551 134.356182,11.9984333 C137.578,8.70668333 140.816182,5.43051667 144.041636,2.14243333 C145.010727,1.15426667 146.147091,0.758266667 147.469818,1.18818333 C148.801636,1.62085 149.536182,2.6026 149.725273,3.99868333 C149.731636,4.05093333 149.741636,4.09585 149.800727,4.11051667 L149.800727,4.64218333 Z" id="Fill-4" fill="#1D1D1B"></path>
                    <g id="Group-8" transform="translate(72.727273, 0.874042)">
                        <mask id="mask-4" fill="white">
                            <use xlink:href="#path-3"></use>
                        </mask>
                        <g id="Clip-7"></g>
                        <path d="M3.62790909,0.0428083333 C3.72245455,0.183975 3.87972727,0.118891667 4.00518182,0.148225 C5.52881818,0.514891667 6.64063636,1.89630833 6.64518182,3.47664167 C6.65245455,6.225725 6.64336364,8.975725 6.65336364,11.7248083 C6.65427273,11.9933917 6.60881818,12.0905583 6.31063636,12.088725 C4.36336364,12.0740583 2.41609091,12.0740583 0.467909091,12.0868917 C0.192454545,12.0896417 0.143363636,11.997975 0.143363636,11.7431417 C0.152454545,9.03164167 0.147909091,6.32014167 0.149727273,3.60955833 C0.151545455,1.88989167 1.15790909,0.581808333 2.80427273,0.144558333 C2.88063636,0.124391667 2.98972727,0.160141667 3.02427273,0.0428083333 L3.62790909,0.0428083333 Z" id="Fill-6" fill="#1D1D1B" mask="url(#mask-4)"></path>
                    </g>
                    <path d="M59.1383636,22.2038667 C57.8801818,22.2038667 56.6883636,22.20295 55.4965455,22.2047833 C54.0256364,22.2066167 52.5556364,22.2313667 51.0856364,22.2112 C49.5347273,22.1901167 48.112,20.8737833 47.9174545,19.3255333 C47.6792727,17.4335333 49.222,15.6157833 51.1201818,15.5983667 C53.8092727,15.5736167 56.4983636,15.5791167 59.1874545,15.5727 C62.5174545,15.56445 65.8474545,15.5552833 69.1774545,15.5470333 C69.6392727,15.5461167 69.6410909,15.54795 69.4310909,15.9815333 C66.7574545,21.5017 64.0810909,27.02095 61.412,32.5438667 C61.3056364,32.7647833 61.1929091,32.8527833 60.9365455,32.8527833 C55.1174545,32.8427 49.2992727,32.8436167 43.4810909,32.85095 C43.2483636,32.85095 43.1283636,32.77395 43.0156364,32.5722833 C40.2147273,27.5287833 37.4092727,22.4880333 34.5956364,17.45095 C34.462,17.21445 34.4638182,17.04395 34.5938182,16.8028667 C37.3838182,11.65395 40.1665455,6.49953333 42.9401818,1.34145 C43.0765455,1.08845 43.2138182,0.98945 43.5101818,0.990366667 C49.5292727,1.00136667 55.5483636,1.00136667 61.5683636,0.991283333 C61.8610909,0.990366667 62.002,1.0747 62.1310909,1.34603333 C63.6574545,4.56445 64.8710909,7.91578333 66.2574545,11.1928667 C66.4974545,11.7593667 66.7238182,12.33045 66.9747273,12.9437 L65.0729091,12.9437 C63.6401818,12.9437 62.2074545,12.9363667 60.7747273,12.9510333 C60.5065455,12.9537833 60.3847273,12.8630333 60.272,12.6228667 C59.5374545,11.0581167 58.7774545,9.50436667 58.0447273,7.93778333 C57.9283636,7.69028333 57.792,7.62061667 57.532,7.62061667 C54.1392727,7.62978333 50.7465455,7.6307 47.3538182,7.6197 C47.0710909,7.61786667 46.9338182,7.71961667 46.8056364,7.95795 C45.2247273,10.8922 43.6392727,13.8227833 42.0410909,16.74695 C41.9001818,17.0045333 41.912,17.1851167 42.0510909,17.4335333 C43.6338182,20.25045 45.2083636,23.0728667 46.7738182,25.8998667 C46.9001818,26.1253667 47.0274545,26.2188667 47.2938182,26.21795 C50.4856364,26.2078667 53.6774545,26.2115333 56.8692727,26.2106167 C57.0256364,26.2106167 57.1829091,26.2491167 57.2810909,26.0437833 C57.8838182,24.78245 58.4974545,23.5247833 59.1383636,22.2038667" id="Fill-9" fill="#1D1D1B"></path>
                    <path d="M89.7340909,21.45275 C91.3222727,19.9045 92.9368182,18.381 94.4940909,16.8015833 C99.3322727,11.8965 104.146818,6.9685 108.973182,2.0515 C109.870455,1.13758333 110.959545,0.820416667 112.183182,1.16141667 C113.393182,1.49691667 114.147727,2.33383333 114.472273,3.55575 C114.550455,3.84908333 114.577727,4.1525 114.577727,4.45866667 C114.575909,12.8205 114.578636,21.18325 114.575,29.5450833 C114.574091,31.30875 113.338636,32.7653333 111.727727,32.9275833 C109.991364,33.1026667 108.516818,32.0365833 108.136818,30.32975 C108.065,30.0061667 108.067727,29.6761667 108.067727,29.3461667 L108.067727,12.8874167 L108.067727,12.4685 C107.910455,12.42725 107.867727,12.562 107.798636,12.6325833 C101.505909,19.04375 95.215,25.4585833 88.9222727,31.8706667 C87.6495455,33.1686667 85.835,33.3199167 84.4977273,32.2373333 C83.7559091,31.636 83.3459091,30.8485833 83.2777273,29.887 C83.2668182,29.73575 83.265,29.5826667 83.265,29.4314167 C83.2640909,21.1319167 83.2668182,12.8333333 83.2622727,4.53383333 C83.2613636,3.04608333 83.8740909,1.92958333 85.2240909,1.31266667 C87.3604545,0.336416667 89.7531818,1.947 89.7659091,4.36058333 C89.7831818,7.42591667 89.7704545,10.4921667 89.7704545,13.5584167 C89.7713636,16.0920833 89.7704545,18.6266667 89.7704545,21.1603333 L89.7704545,21.5343333 C89.7586364,21.50775 89.7459091,21.4793333 89.7340909,21.45275" id="Fill-11" fill="#1D1D1B"></path>
                    <path d="M72.8769091,22.8510333 C72.8769091,20.5575333 72.8814545,18.26495 72.8705455,15.97145 C72.8696364,15.6946167 72.9278182,15.6066167 73.2196364,15.60845 C75.1541818,15.6222 77.0896364,15.6212833 79.0241818,15.6093667 C79.3014545,15.6075333 79.3823636,15.6707833 79.3814545,15.9622833 C79.3714545,20.4722833 79.3796364,24.9832 79.3714545,29.4932 C79.3678182,31.3182833 77.826,32.8720333 76.0705455,32.8555333 C74.4441818,32.83995 72.906,31.32195 72.8878182,29.6545333 C72.8623636,27.3867 72.8814545,25.1188667 72.8814545,22.8510333 L72.8769091,22.8510333 Z" id="Fill-13" fill="#1D1D1B"></path>
                </g>
            </g>
        </g>
    </g>
</svg>