<?xml version="1.0" encoding="UTF-8"?>
<svg width="210px" height="210px" viewBox="0 0 210 210" version="1.1" xmlns="http://www.w3.org/2000/svg" xmlns:xlink="http://www.w3.org/1999/xlink">
    <!-- Generator: Sketch 46.2 (44496) - http://www.bohemiancoding.com/sketch -->
    <title>Group 27</title>
    <desc>Created with Sketch.</desc>
    <defs>
        <polygon id="path-1" points="30.7230348 34.8258706 0.177960199 34.8258706 0.177960199 0.383850746 30.7230348 0.383850746 30.7230348 34.8258706"></polygon>
        <path d="M14.277805,0.180467662 C14.1354172,0.216153483 13.9968812,0.271653419 13.8662687,0.346865672 L0.587860697,8.00925373 C0.392781144,8.12186286 0.227125081,8.27208662 0.0979303483,8.4477996 L0.0979303483,25.6844952 C0.227125081,25.860309 0.392781144,26.010699 0.587860697,26.1235821 L13.8655721,33.7915423 C14.0878584,33.9199882 14.33303,33.9909416 14.5806,34.0044025 L14.7546239,34.0044025 C15.0021939,33.9909416 15.2473655,33.9199882 15.4696517,33.7915423 L28.7452736,26.1235821 C28.8705839,26.0510711 28.983709,25.963084 29.082806,25.8628235 L29.082806,8.26988883 C28.9835413,8.16961593 28.870186,8.08165939 28.7445771,8.00925373 L15.4689552,0.346865672 C15.3383427,0.271653419 15.1998067,0.216153483 15.0575207,0.180467662 L14.277805,0.180467662 L14.277805,0.180467662 Z" id="path-3"></path>
        <linearGradient x1="23.5442836%" y1="55.8162168%" x2="112.890176%" y2="16.0286582%" id="linearGradient-5">
            <stop stop-color="#BDBDBD" offset="1.81162309%"></stop>
            <stop stop-color="#000000" offset="100%"></stop>
        </linearGradient>
    </defs>
    <g id="Page-1" stroke="none" stroke-width="1" fill="none" fill-rule="evenodd">
        <g id="Web-Design-Service" transform="translate(-279.000000, -3553.000000)">
            <g id="Group-27" transform="translate(279.000000, 3553.000000)">
                <rect id="Rectangle-18-Copy-6" fill="#F3F3F3" x="0" y="0" width="210" height="210"></rect>
                <g id="Page-1" transform="translate(35.000000, 62.000000)">
                    <g id="Group-16" transform="translate(0.000000, 0.621294)">
                        <g id="Group-3" transform="translate(53.631841, 50.845771)">
                            <mask id="mask-2" fill="white">
                                <use xlink:href="#path-1"></use>
                            </mask>
                            <g id="Clip-2"></g>
                            <path d="M15.4470149,34.8259403 C14.9859204,34.8259403 14.5269154,34.7054428 14.1236318,34.4714129 L9.90970149,31.9785771 C9.28004975,31.6261393 9.58791045,31.5014627 9.79547264,31.4290249 C10.6347761,31.1378806 10.8047264,31.0703184 11.7004478,30.5625572 C11.7937811,30.5103184 11.9177612,30.5298209 12.0138806,30.5869353 L15.2512935,32.5086269 C15.369005,32.5740995 15.5340796,32.5740995 15.6420398,32.5086269 L28.2636318,25.2237512 C28.3813433,25.1568856 28.4565672,25.0210647 28.4565672,24.8817612 L28.4565672,10.3161891 C28.4565672,10.173403 28.3813433,10.0410647 28.2601493,9.96862687 L15.6441294,2.68932338 C15.5278109,2.62176119 15.3731841,2.62176119 15.2554726,2.68932338 L2.64223881,9.9700199 C2.51895522,10.0410647 2.44164179,10.1775821 2.44164179,10.3161891 L2.44164179,24.8817612 C2.44164179,25.0210647 2.51895522,25.153403 2.64084577,25.2195721 L6.09835821,27.2171841 C7.9740796,28.1546965 9.12333333,27.0500199 9.12333333,25.9404677 L9.12333333,11.5594726 C9.12333333,11.3560896 9.28631841,11.1958905 9.48970149,11.1958905 L11.0902985,11.1958905 C11.290199,11.1958905 11.4566667,11.3560896 11.4566667,11.5594726 L11.4566667,25.9404677 C11.4566667,28.4444478 10.0928856,29.8799701 7.71845771,29.8799701 C6.98920398,29.8799701 6.41527363,29.8799701 4.81119403,29.0901194 L1.5020398,27.1844478 C0.684328358,26.712209 0.177960199,25.8283284 0.177960199,24.8817612 L0.177960199,10.3161891 C0.177960199,9.36962189 0.684328358,8.48643781 1.5020398,8.01559204 L14.1236318,0.722358209 C14.9218408,0.271014925 15.9840299,0.271014925 16.7759701,0.722358209 L29.3968657,8.01559204 C30.2138806,8.48852736 30.7230348,9.36962189 30.7230348,10.3161891 L30.7230348,24.8817612 C30.7230348,25.8283284 30.2138806,26.7087264 29.3968657,27.1844478 L16.7759701,34.4714129 C16.3726866,34.7054428 15.9150746,34.8259403 15.4470149,34.8259403" id="Fill-1" fill="#B3B3B2" mask="url(#mask-2)"></path>
                        </g>
                        <path d="M72.9777512,75.6364975 C67.4543682,75.6364975 66.2974527,73.1011741 66.2974527,70.9747065 C66.2974527,70.7727164 66.4604378,70.6111244 66.6624279,70.6111244 L68.2936716,70.6111244 C68.4761592,70.6111244 68.6286965,70.7420697 68.6565572,70.9203781 C68.9031244,72.5815721 69.6379502,73.4201791 72.9777512,73.4201791 C75.6363582,73.4201791 76.768199,72.8183881 76.768199,71.4079403 C76.768199,70.594408 76.447801,69.9912239 72.3153632,69.5858507 C68.8620299,69.2445572 66.7258109,68.4818706 66.7258109,65.7187861 C66.7258109,63.1723184 68.8724776,61.6532139 72.4713831,61.6532139 C76.5146667,61.6532139 78.5157612,63.0566965 78.7692935,66.0677413 C78.7790448,66.1715224 78.7421294,66.2711244 78.6731741,66.3491343 C78.6035224,66.4215721 78.507403,66.4654527 78.4057114,66.4654527 L76.7675025,66.4654527 C76.5975522,66.4654527 76.447801,66.3449552 76.4136716,66.1798806 C76.0201393,64.4323184 75.0645174,63.8730149 72.4713831,63.8730149 C69.5682985,63.8730149 69.2311841,64.8843582 69.2311841,65.6421692 C69.2311841,66.5601791 69.6288955,66.8276418 73.5488955,67.3465473 C77.427801,67.8591841 79.2700896,68.5849552 79.2700896,71.3118209 C79.2700896,74.0616716 76.9771542,75.6364975 72.9777512,75.6364975" id="Fill-4" fill="#B3B3B2"></path>
                        <path d="M88.3466866,60.1930348 L88.7708657,60.1930348 C89.1177313,60.1930348 89.183204,59.9485572 89.183204,59.8071642 C89.183204,59.4338308 88.924796,59.4338308 88.7840995,59.4338308 L88.3466866,59.4338308 L88.3466866,60.1930348 Z M87.8312637,58.9964179 L88.7708657,58.9964179 C89.0926567,58.9964179 89.724398,58.9964179 89.724398,59.7173134 C89.724398,60.2195025 89.402607,60.3218905 89.2082786,60.3859701 C89.5823085,60.4117413 89.6080796,60.6569154 89.6589254,61.0044776 C89.685393,61.2224876 89.724398,61.5965174 89.8003184,61.7246766 L89.222209,61.7246766 C89.2082786,61.5965174 89.1177313,60.9006965 89.1177313,60.8623881 C89.0808159,60.7077612 89.0278806,60.6311443 88.8349453,60.6311443 L88.3599204,60.6311443 L88.3599204,61.7246766 L87.8312637,61.7246766 L87.8312637,58.9964179 Z M86.7056915,60.3539303 C86.7056915,61.4864677 87.6195224,62.4002985 88.7381294,62.4002985 C89.8713632,62.4002985 90.785194,61.4676617 90.785194,60.3539303 C90.785194,59.221393 89.8588259,58.320796 88.7381294,58.320796 C87.6320597,58.320796 86.7056915,59.2081592 86.7056915,60.3539303 L86.7056915,60.3539303 Z M91.1773333,60.3608955 C91.1773333,61.6989055 90.0831045,62.7931343 88.7450945,62.7931343 C87.4189254,62.7931343 86.3121592,61.7121393 86.3121592,60.3608955 C86.3121592,58.9838806 87.445393,57.9279602 88.7450945,57.9279602 C90.0580299,57.9279602 91.1773333,58.9838806 91.1773333,60.3608955 L91.1773333,60.3608955 Z" id="Fill-6" fill="#B3B3B2"></path>
                        <path d="M29.9942687,28.6834229 C29.9942687,28.1018308 29.6884975,27.5669055 29.1863085,27.2792438 L15.8048159,19.5778507 C15.5784478,19.4448159 15.3242189,19.3758607 15.0679005,19.3654129 L14.9292935,19.3654129 C14.6736716,19.3758607 14.4201393,19.4448159 14.1909851,19.5778507 L0.809492537,27.2792438 C0.310089552,27.5669055 0.000139303483,28.1018308 0.000139303483,28.6834229 L0.0293930348,49.4201393 C0.0293930348,49.7084975 0.179144279,49.9766567 0.433373134,50.1180498 C0.681333333,50.2671045 0.987800995,50.2671045 1.23576119,50.1180498 L9.18859701,45.5642189 C9.69148259,45.2661095 9.99725373,44.7388458 9.99725373,44.1621294 L9.99725373,34.4735721 C9.99725373,33.8961592 10.3030249,33.3619303 10.8045174,33.0749652 L14.1909851,31.1240199 C14.4431244,30.9784478 14.7189453,30.907403 15.0010348,30.907403 C15.2761592,30.907403 15.5589453,30.9784478 15.8048159,31.1240199 L19.1898905,33.0749652 C19.6906866,33.3619303 19.9978507,33.8961592 19.9978507,34.4735721 L19.9978507,44.1621294 C19.9978507,44.7388458 20.3084975,45.2688955 20.808597,45.5642189 L28.7586468,50.1180498 C29.008,50.2671045 29.3193433,50.2671045 29.566607,50.1180498 C29.8124776,49.9766567 29.967801,49.7084975 29.967801,49.4201393 L29.9942687,28.6834229 Z" id="Fill-8" fill="#1D1D1B"></path>
                        <path d="M93.1392836,39.4811841 C93.1392836,39.6253632 93.0626667,39.758398 92.9372935,39.8308358 L88.3409751,42.4803881 C88.216995,42.5521294 88.0623682,42.5521294 87.9376915,42.4803881 L83.3413731,39.8308358 C83.216,39.758398 83.1393831,39.6253632 83.1393831,39.4811841 L83.1393831,34.1737214 C83.1393831,34.0295423 83.216,33.8958109 83.3413731,33.8233731 L87.936995,31.1689453 C88.0623682,31.0965075 88.216995,31.0965075 88.3416716,31.1689453 L92.93799,33.8233731 C93.0626667,33.8958109 93.1392836,34.0295423 93.1392836,34.1737214 L93.1392836,39.4811841 Z M94.3811741,0.177402985 C94.1311244,0.0380995025 93.8253532,0.0415820896 93.5780896,0.186457711 C93.3308259,0.331333333 93.1796816,0.596706468 93.1796816,0.882975124 L93.1796816,21.4190945 C93.1796816,21.6210846 93.0710249,21.8084478 92.8968955,21.9094428 C92.7220697,22.0104378 92.5061493,22.0104378 92.3313234,21.9094428 L88.9789851,19.9786965 C88.4795821,19.6903383 87.8645572,19.6903383 87.3644577,19.9786965 L73.977393,27.7044677 C73.4772935,27.9935224 73.1687363,28.5270547 73.1687363,29.1044677 L73.1687363,44.558796 C73.1687363,45.136209 73.4772935,45.6697413 73.9766965,45.958796 L87.3630647,53.6901393 C87.8638607,53.979194 88.4802786,53.979194 88.9803781,53.6901393 L102.368836,45.958796 C102.868935,45.6697413 103.176796,45.136209 103.176796,44.558796 L103.176796,6.03441791 C103.176796,5.44864677 102.859881,4.90814925 102.34794,4.62327363 L94.3811741,0.177402985 Z" id="Fill-10" fill="#1D1D1B"></path>
                        <path d="M138.957801,34.0348358 C139.455811,33.7457811 139.761582,33.2129453 139.761582,32.6376219 L139.761582,28.8924478 C139.761582,28.3164279 139.455811,27.7828955 138.957104,27.4938408 L125.656408,19.7715522 C125.156308,19.480408 124.537801,19.480408 124.036308,19.7694627 L110.654119,27.4952338 C110.15402,27.783592 109.846159,28.3171244 109.846159,28.8945373 L109.846159,44.3446866 C109.846159,44.9262786 110.158199,45.4619005 110.663174,45.7495622 L123.961781,53.3269751 C124.452129,53.6069751 125.053224,53.6104577 125.546358,53.3360299 L133.590438,48.8650846 C133.845363,48.722995 134.004866,48.4555323 134.006259,48.1643881 C134.008348,47.8725473 133.853025,47.602995 133.600886,47.4574229 L120.133721,39.7281692 C119.881582,39.58399 119.727652,39.3165274 119.727652,39.0267761 L119.727652,34.1852836 C119.727652,33.8962289 119.881582,33.6294627 120.132328,33.4852836 L124.323274,31.0690647 C124.572627,30.9248856 124.880488,30.9248856 125.129841,31.0690647 L129.323572,33.4852836 C129.573622,33.6294627 129.728249,33.8962289 129.728249,34.1852836 L129.728249,37.9952338 C129.728249,38.2842886 129.882876,38.5510547 130.132925,38.6952338 C130.382975,38.8401095 130.692229,38.8387164 130.942279,38.6938408 L138.957801,34.0348358 Z" id="Fill-12" fill="#1D1D1B"></path>
                        <path d="M124.649244,33.3111542 C124.745363,33.2554328 124.863771,33.2554328 124.959194,33.3111542 L127.52795,34.7926468 C127.62407,34.8490647 127.682577,34.9507562 127.682577,35.062199 L127.682577,38.0279701 C127.682577,38.1394129 127.62407,38.2411045 127.52795,38.2968259 L124.959194,39.7790149 C124.863771,39.8340398 124.745363,39.8340398 124.649244,39.7790149 L122.081881,38.2968259 C121.986458,38.2411045 121.927254,38.1394129 121.927254,38.0279701 L121.927254,35.062199 C121.927254,34.9507562 121.986458,34.8490647 122.081881,34.7926468 L124.649244,33.3111542 Z" id="Fill-14" fill="#B3B3B2"></path>
                    </g>
                    <path d="M50.778209,20.4706468 L37.5032836,28.1330348 C37.0073632,28.4193035 36.701592,28.9486567 36.701592,29.521194 L36.701592,29.521194 L36.701592,44.8578109 C36.701592,45.4310448 37.0073632,45.960398 37.5025871,46.2473632 L37.5025871,46.2473632 L50.7775124,53.9153234 C51.2741294,54.2022886 51.8856716,54.2022886 52.3822886,53.9153234 L52.3822886,53.9153234 L65.6606965,46.2473632 C66.1566169,45.960398 66.4616915,45.4310448 66.4616915,44.8578109 L66.4616915,44.8578109 L66.4616915,29.5218905 C66.4616915,28.9486567 66.1566169,28.4193035 65.66,28.1330348 L65.66,28.1330348 L52.381592,20.4706468 C52.1336318,20.3278607 51.8564179,20.2561194 51.5799005,20.2561194 L51.5799005,20.2561194 C51.3026866,20.2561194 51.0261692,20.3278607 50.778209,20.4706468" id="Fill-17"></path>
                    <g id="Group-21" transform="translate(36.915423, 20.123781)">
                        <mask id="mask-4" fill="white">
                            <use xlink:href="#path-3"></use>
                        </mask>
                        <use id="Clip-20" fill="#C8C8C8" xlink:href="#path-3"></use>
                        <path d="M15.4582289,0.346935323 C15.3258905,0.270318408 15.1844975,0.21599005 15.0389254,0.180467662 L0.0979303483,25.7398706 C0.223303483,25.8910149 0.375144279,26.0226567 0.548577114,26.1229552 L13.8464876,33.7916119 C14.242806,34.0207662 14.7018109,34.0632537 15.1239005,33.9267363 L29.082806,8.36524378 C28.9741493,8.2259403 28.8397214,8.10335323 28.6767363,8.00932338 L15.4582289,0.346935323 Z" id="Fill-19" fill="#DDDDDD" mask="url(#mask-4)"></path>
                    </g>
                    <path d="M50.7816915,20.4706468 L37.6307463,28.059204 L51.9170149,54.0859701 C52.0667662,54.0504478 52.2123383,53.9954229 52.3509453,53.9153234 L65.5973134,46.2466667 C66.0932338,45.960398 66.3349254,45.4310448 66.3349254,44.8578109 L52.0054726,20.3174129 C51.86199,20.2770149 51.7136318,20.2568159 51.5659701,20.2568159 C51.5318408,20.2568159 51.4970149,20.258209 51.4628856,20.2602985 C51.2267662,20.2777114 50.9941294,20.3480597 50.7816915,20.4706468 Z" id="Fill-22" fill="url(#linearGradient-5)"></path>
                </g>
            </g>
        </g>
    </g>
</svg>