<?xml version="1.0" encoding="UTF-8"?>
<svg width="210px" height="210px" viewBox="0 0 210 210" version="1.1" xmlns="http://www.w3.org/2000/svg" xmlns:xlink="http://www.w3.org/1999/xlink">
    <!-- Generator: Sketch 46.2 (44496) - http://www.bohemiancoding.com/sketch -->
    <title>Group 12</title>
    <desc>Created with Sketch.</desc>
    <defs>
        <polygon id="path-1" points="0 12.0268269 0 0.219153126 9.46065002 0.219153126 9.46065002 12.0268269"></polygon>
        <polygon id="path-3" points="8.5893 12.0493827 0.326032807 12.0493827 0.326032807 0.183074519 8.5893 0.183074519 8.5893 12.0493827"></polygon>
        <polygon id="path-5" points="5.0535 10.7074729 5.0535 0.353429205 0.04455 0.353429205 0.04455 10.7074729 5.0535 10.7074729"></polygon>
    </defs>
    <g id="Page-1" stroke="none" stroke-width="1" fill="none" fill-rule="evenodd">
        <g id="Brand-&amp;-Creative-Service" transform="translate(-510.000000, -3438.000000)">
            <g id="Group-12" transform="translate(510.000000, 3438.000000)">
                <rect id="Rectangle-18-Copy-20" fill="#F3F3F3" x="0" y="0" width="210" height="210"></rect>
                <g id="Page-1" transform="translate(44.000000, 44.000000)">
                    <path d="M75.54845,53.1323053 C75.60495,45.4186922 69.35395,39.0792107 61.54445,39.072684 C53.69045,39.0656551 47.55745,45.3981078 47.50495,53.1187498 C47.45295,60.8770461 53.76095,67.2697457 61.58645,67.2356058 C69.77345,67.2004617 75.66945,60.4282066 75.54845,53.1323053 M68.49195,6.54386914 C64.12045,12.4581078 60.82395,18.6575152 60.63195,26.2225193 C62.77845,25.2826675 64.82995,24.4427251 66.95295,23.7815152 C72.13295,22.1684041 77.44195,21.6377292 82.83445,21.8832354 C90.32945,22.2251366 97.69145,23.5490626 105.02745,25.0366593 C105.53895,25.1400831 106.05045,25.2425029 106.56045,25.3524535 C106.62245,25.365507 106.67545,25.4207333 106.77845,25.4849967 C106.25745,28.9090296 105.73345,32.3536469 105.20345,35.839935 C104.64345,35.9262889 104.13095,35.8364206 103.62445,35.779186 C99.58245,35.3218115 95.56095,35.4061572 91.56895,36.2300337 C89.07095,36.7456469 86.67995,37.5609885 84.44995,38.8708568 C84.48645,39.2935893 84.87645,39.3894823 85.13395,39.5762477 C89.50145,42.7387086 93.19595,46.5528403 96.17345,51.0593095 C98.36945,54.3834329 100.13395,57.9344864 101.73145,61.5834412 C104.15195,67.1131037 106.10445,72.8129638 108.08745,78.6584206 C104.83445,79.9396716 101.58745,81.2184123 98.25795,82.5302889 C95.34045,75.8594494 91.68745,69.8297374 85.19845,65.8800502 C84.95695,68.2065852 84.66045,70.3428403 84.18495,72.4509802 C83.14045,77.0824617 81.33245,81.4041737 78.94195,85.4899185 C76.18245,90.2057457 72.87045,94.5209309 69.39695,98.7156222 C67.26045,101.295194 65.06395,103.824058 62.86645,106.408651 C60.09395,104.184536 57.37545,102.003598 54.59195,99.7704453 C58.89195,93.9360337 62.25295,87.7300996 62.44445,80.2720337 C62.12445,80.056651 61.92945,80.3046675 61.73895,80.3925276 C58.24645,81.9986099 54.61445,83.1694082 50.83145,83.8190708 C47.28595,84.4275646 43.70345,84.6319021 40.10845,84.4411202 C32.61845,84.0434905 25.25295,82.7552107 17.92045,81.2465276 C17.41145,81.1420996 16.90095,81.0477128 16.24645,80.9201901 C16.77395,77.4359103 17.29795,73.973721 17.83445,70.427186 C25.05445,71.2947416 32.05795,71.0100749 38.58145,67.4740831 C38.53645,67.0488403 38.19745,66.9398938 37.95795,66.7691942 C31.69495,62.2943547 27.02795,56.4760091 23.58245,49.6189062 C20.60395,43.6906099 18.27695,37.4982313 16.13895,31.2280337 C15.74745,30.0788239 15.36145,28.9276058 14.94345,27.6890296 C18.24445,26.3932189 21.49895,25.1159844 24.78745,23.8251942 C27.67945,30.5131037 31.36195,36.5061654 37.77745,40.4618774 C38.00995,38.9085111 38.21095,37.4425029 38.45095,35.9835235 C39.19195,31.4690214 40.72045,27.2241243 42.81995,23.1740255 C45.33945,18.3141078 48.58895,13.9572519 51.96995,9.68775391 C54.50745,6.48412428 57.19995,3.41303786 59.87995,0.330906173 C59.98945,0.204387654 60.06945,0.0291695473 60.34245,5.02057613e-05 C63.01495,2.14584444 65.72745,4.32377037 68.49195,6.54386914" id="Fill-1" fill="#242422"></path>
                    <path d="M33.29745,116.715693 C32.44945,116.346179 31.53795,116.294467 30.62995,116.60273 C29.85095,116.867816 29.56395,117.513965 29.68695,118.476409 C29.77995,119.20138 30.18695,119.509644 31.05695,119.617084 C31.97895,119.731051 32.67045,119.347981 33.29745,118.690286 L33.29745,116.715693 Z M29.15295,112.690195 C28.89045,112.060113 28.63995,111.459652 28.36995,110.811998 C29.87595,109.961512 31.42945,109.70245 33.03645,109.998664 C34.47545,110.263751 35.35045,111.184022 35.60095,112.667602 C35.68895,113.187734 35.74295,113.705356 35.74145,114.23101 C35.73895,115.454022 35.73395,116.677537 35.74295,117.901051 C35.75195,119.080886 35.65395,120.271265 36.13495,121.56557 C35.14145,121.316047 34.12745,121.962195 33.34195,120.959084 C32.21945,121.729742 30.99345,121.849232 29.67245,121.509841 C26.73095,120.754244 26.58345,117.092236 28.16145,115.640788 C29.20095,114.684368 30.41545,114.299792 31.79845,114.410244 C32.27495,114.448401 32.74645,114.540277 33.20645,114.605545 C33.25595,114.498607 33.30545,114.437858 33.30945,114.374598 C33.44245,112.198681 32.38095,111.412458 30.32145,112.169059 C29.93795,112.310137 29.57295,112.501421 29.15295,112.690195 L29.15295,112.690195 Z" id="Fill-3" fill="#242422"></path>
                    <path d="M52.94125,114.512313 L56.73625,114.512313 C56.59125,112.619053 56.13425,111.971901 54.98275,111.973909 C53.72275,111.975918 53.11175,112.726494 52.94125,114.512313 M59.31725,116.440716 L52.89925,116.440716 C52.89775,117.665737 53.09025,118.765243 54.22675,119.314494 C55.61525,119.986247 56.79075,119.459086 57.69825,118.397235 C58.18875,118.874189 58.65075,119.323029 59.14625,119.804502 C57.72375,121.413095 55.95125,122.071794 53.77575,121.475852 C52.64925,121.167086 51.79625,120.477259 51.17825,119.501761 C49.83725,117.386593 49.99225,113.552379 51.50525,111.551177 C52.58125,110.127342 54.07125,109.691053 55.76375,109.937062 C57.27125,110.155457 58.23225,111.095811 58.80225,112.490527 C59.30375,113.719062 59.30475,115.001317 59.31725,116.440716" id="Fill-5" fill="#242422"></path>
                    <path d="M41.3485,121.468522 L39.017,121.468522 L39.017,110.151139 C39.6975,109.937765 40.4225,110.094909 41.09,110.058258 C41.417,110.193312 41.3085,110.504086 41.376,110.652193 C41.554,110.746077 41.6375,110.684324 41.7225,110.63211 C42.4755,110.171723 43.2625,109.871493 44.173,109.885049 C46.4945,109.917682 47.7975,111.11509 47.893,113.465723 C47.961,115.139584 47.9265,116.81746 47.9335,118.49383 C47.938,119.465312 47.9345,120.436291 47.9345,121.458983 L45.6935,121.458983 C45.484,121.249123 45.591,120.953411 45.59,120.688324 C45.58,118.697666 45.592,116.707007 45.579,114.716349 C45.576,114.229353 45.5445,113.736333 45.458,113.258374 C45.302,112.399353 44.9055,112.082053 44.031,112.035361 C43.0615,111.983649 42.299,112.427468 41.597,113.041987 C41.277,113.321633 41.352,113.673073 41.3515,114.010958 C41.346,116.141691 41.3485,118.271921 41.3485,120.402653 L41.3485,121.468522 Z" id="Fill-7" fill="#242422"></path>
                    <g id="Group-11" transform="translate(0.000000, 109.675992)">
                        <mask id="mask-2" fill="white">
                            <use xlink:href="#path-1"></use>
                        </mask>
                        <g id="Clip-10"></g>
                        <path d="M2.52085,6.13067572 C2.54085,6.89581152 2.55835,7.62881564 2.76885,8.33772099 C3.08385,9.4000749 3.70535,9.91468395 4.68035,9.94079095 C5.76285,9.96940823 6.39985,9.5386428 6.72335,8.39997613 C7.14885,6.90284033 7.13935,5.37307078 6.74185,3.87191852 C6.43785,2.72471687 5.76385,2.21412428 4.75885,2.21763868 C3.77685,2.22115309 3.08585,2.79450288 2.76785,3.88597613 C2.55085,4.62952346 2.54035,5.39817366 2.52085,6.13067572 M9.45735,5.95294733 C9.47935,7.54296379 9.26685,8.9416963 8.41385,10.1672189 C6.51035,12.9024288 2.08385,12.5635399 0.73385,9.52458519 C-0.25915,7.28892263 -0.22765,4.9618856 0.72585,2.70865103 C1.49885,0.881161317 3.23285,0.0336880658 5.45435,0.253087243 C7.25335,0.43031358 8.75935,1.85414897 9.21835,3.80715309 C9.39485,4.55823128 9.47885,5.31784444 9.45735,5.95294733" id="Fill-9" fill="#242422" mask="url(#mask-2)"></path>
                    </g>
                    <g id="Group-14" transform="translate(10.500000, 109.675992)">
                        <mask id="mask-4" fill="white">
                            <use xlink:href="#path-3"></use>
                        </mask>
                        <g id="Clip-13"></g>
                        <path d="M8.2628,1.84701975 C7.8018,2.25218025 7.3358,2.6613572 6.8133,3.12073992 C6.3993,2.91590041 6.0203,2.41936543 5.3878,2.33702798 C4.3298,2.1994642 3.7383,2.48513498 3.2958,3.45912675 C3.0153,4.07515144 2.9418,4.7318428 2.9153,5.39807325 C2.8773,6.34294568 2.8613,7.28580988 3.0978,8.21361235 C3.5498,9.98687984 5.2083,10.5386412 6.6333,9.37838601 C6.8193,9.22626255 6.9528,9.00937366 7.1423,8.78394979 C7.7288,9.22877284 8.1658,9.70622963 8.5893,10.1947317 C6.2708,13.0906 2.1198,12.5052008 0.8703,9.07162881 C0.0933,6.9348716 0.1373,4.72280576 1.0728,2.62922551 C2.3643,-0.259111934 6.2548,-0.678330041 8.2628,1.84701975" id="Fill-12" fill="#242422" mask="url(#mask-4)"></path>
                    </g>
                    <path d="M21.3551,112.036817 L19.9556,112.036817 C19.8231,111.391171 19.8991,110.774644 19.9056,110.147574 C20.3386,109.87797 20.8121,110.153097 21.2871,109.974867 C21.4646,109.230817 21.2666,108.424513 21.4036,107.606159 C22.1236,107.471607 22.8446,107.586077 23.6001,107.539385 C23.8361,108.361756 23.5676,109.176595 23.8006,110.021056 L25.7006,110.021056 L25.7006,112.004686 L23.8696,112.004686 C23.5921,112.378719 23.7086,112.738694 23.7051,113.073566 C23.6911,114.436151 23.6981,115.799237 23.6991,117.162323 C23.7011,119.030982 23.9131,119.297574 25.7231,119.690184 L25.7231,121.548801 C23.3301,122.013706 21.3706,120.187723 21.3651,118.117237 C21.3611,116.579937 21.3581,115.042134 21.3551,113.504834 C21.3546,113.054488 21.3551,112.604644 21.3551,112.036817" id="Fill-15" fill="#242422"></path>
                    <path d="M99.8983,115.813044 C99.8983,115.044393 99.9008,114.275241 99.8973,113.506089 C99.8958,113.265101 99.9178,113.02562 99.7943,112.792163 C99.3318,111.916072 97.9468,111.265908 96.7188,111.401965 C95.6578,111.518945 95.0513,112.187686 94.7513,113.168706 C94.3583,114.453974 94.2423,115.763842 94.4323,117.099817 C94.5263,117.758517 94.6428,118.409184 94.9928,118.988056 C95.9653,120.596649 98.7163,120.611208 99.7183,119.023702 C99.8793,118.767653 99.8998,118.505579 99.8993,118.224426 C99.8968,117.420632 99.8983,116.616838 99.8983,115.813044 M99.8828,111.5812 L99.8828,104.938978 C100.2413,104.663348 100.5493,104.80041 100.8113,104.779826 C101.0428,105.01027 101.0908,119.243101 100.8998,120.802994 C100.6038,120.92399 100.3018,120.895875 100.0053,120.829603 C99.7838,120.602171 99.9698,120.274328 99.8738,120.134756 C99.6968,119.961546 99.5798,119.976105 99.5083,120.036352 C99.1083,120.374739 98.7058,120.69455 98.1878,120.847677 C96.0963,121.467719 94.3578,120.612212 93.6153,118.528673 C92.9998,116.801093 92.9648,115.018788 93.5083,113.279661 C94.3848,110.473159 97.0058,109.687941 99.3593,111.466731 C99.4703,111.550574 99.5703,111.647472 99.8828,111.5812" id="Fill-17" fill="#242422"></path>
                    <path d="M111.19345,115.161925 C111.12595,114.587069 111.09195,114.101077 111.00845,113.623621 C110.70345,111.868427 109.60595,111.052081 108.02745,111.39097 C107.13345,111.583258 106.58345,112.183719 106.25195,112.993036 C105.97595,113.665793 105.88395,114.385242 105.81195,115.161925 L111.19345,115.161925 Z M112.27395,116.086213 L105.94045,116.086213 C105.68745,117.554732 106.30745,119.09404 107.39995,119.773324 C108.59095,120.513357 109.89445,120.348682 111.35295,119.270263 C111.63745,119.272773 111.75995,119.482131 111.89845,119.726131 C110.68595,120.933077 109.26995,121.348279 107.61345,120.863291 C106.01195,120.39437 105.14595,119.244658 104.78445,117.67874 C104.39695,116.001365 104.47845,114.340559 105.19095,112.757571 C105.98495,110.993843 107.70845,110.149382 109.57745,110.588682 C110.67495,110.846238 111.39145,111.583258 111.83345,112.594402 C112.30595,113.675835 112.35845,114.818016 112.27395,116.086213 L112.27395,116.086213 Z" id="Fill-19" fill="#242422"></path>
                    <path d="M76.76645,115.170761 C76.78195,114.501016 76.71095,113.947749 76.57245,113.407033 C76.49545,113.1063 76.38495,112.811091 76.25995,112.52542 C75.95545,111.831074 75.41495,111.453527 74.66445,111.354621 C73.49295,111.200992 72.52345,111.675436 71.99595,112.732267 C71.62245,113.480333 71.48695,114.290152 71.49195,115.170761 L76.76645,115.170761 Z M77.95795,116.103584 L71.50395,116.103584 C71.44295,117.638374 71.74745,118.943724 73.02345,119.748523 C74.45545,120.651724 75.82095,120.239535 77.03595,119.242449 C77.13745,119.304704 77.20195,119.332317 77.25095,119.377 C77.32745,119.447288 77.39345,119.529123 77.46195,119.602926 C77.48145,119.907675 77.23495,120.024654 77.05695,120.162218 C74.74645,121.940004 71.50595,121.010695 70.58545,118.239337 C69.99845,116.474103 70.03295,114.651634 70.74545,112.909996 C71.50045,111.064432 73.21645,110.176292 75.14595,110.576934 C76.20845,110.79784 76.93295,111.477123 77.38945,112.443082 C77.92345,113.575222 77.97995,114.780663 77.95795,116.103584 L77.95795,116.103584 Z" id="Fill-21" fill="#242422"></path>
                    <path d="M82.9586,120.786075 C82.5366,120.907071 82.2296,120.905565 81.8666,120.804651 L81.8666,110.788602 C82.2131,110.609869 82.5421,110.698733 82.8466,110.743416 C83.0721,111.151589 82.8551,111.560766 83.0271,111.92275 C83.3221,111.970947 83.4356,111.705861 83.5966,111.560264 C84.7036,110.56368 86.0051,110.378421 87.4031,110.625433 C88.2501,110.775046 88.8566,111.257021 89.1726,112.079894 C89.3736,112.604544 89.5111,113.139235 89.5106,113.70656 C89.5081,116.047153 89.5096,118.387746 89.5096,120.749425 C89.2006,120.976355 88.8696,120.872429 88.4446,120.82624 C88.4446,119.983285 88.4546,119.153384 88.4426,118.323984 C88.4186,116.716396 88.5371,115.104791 88.3766,113.501721 C88.2516,112.25461 87.7441,111.614988 86.7901,111.440774 C86.2771,111.34689 85.7501,111.354421 85.2386,111.506042 C84.7681,111.64461 84.3406,111.868026 83.9286,112.135622 C83.2381,112.58396 82.9031,113.132709 82.9336,114.03089 C83.0096,116.261532 82.9586,118.496692 82.9586,120.786075" id="Fill-23" fill="#242422"></path>
                    <g id="Group-27" transform="translate(116.500000, 110.178049)">
                        <mask id="mask-6" fill="white">
                            <use xlink:href="#path-5"></use>
                        </mask>
                        <g id="Clip-26"></g>
                        <path d="M0.04455,0.57174321 C0.40055,0.456772016 0.67405,0.477356379 0.93605,0.526055967 C1.26405,0.746459259 0.98305,1.14710123 1.26205,1.4448214 C1.81755,1.01907654 2.33155,0.477858436 3.08055,0.388994239 C3.77705,0.30665679 4.45355,0.346319342 5.05255,0.733907819 C5.07105,1.05823704 4.90505,1.23144691 4.68355,1.44532346 C3.71555,1.10442634 2.75205,1.09388313 1.88105,1.81533992 C1.37055,2.23807243 1.08455,2.71000658 1.09655,3.42343045 C1.13555,5.79665679 1.11105,8.1713893 1.11105,10.5772494 C0.76155,10.774558 0.42955,10.704772 0.04455,10.6445251 L0.04455,0.57174321 Z" id="Fill-25" fill="#242422" mask="url(#mask-6)"></path>
                    </g>
                    <path d="M68.04625,110.942482 C67.88775,111.224137 67.78975,111.397347 67.70325,111.551478 C67.30125,111.685026 67.00475,111.418433 66.66125,111.393832 C65.11725,111.284886 63.99675,112.292013 63.99675,113.834836 C63.99625,116.13426 63.99625,118.433684 63.99625,120.742145 C63.65575,120.977108 63.32875,120.82398 62.96675,120.874186 L62.96675,110.783832 C63.27975,110.612128 63.58225,110.665849 63.88025,110.718063 C64.11925,111.001223 63.90125,111.345133 64.08775,111.71063 C65.16775,110.496655 66.44975,110.188392 68.04625,110.942482" id="Fill-28" fill="#242422"></path>
                </g>
            </g>
        </g>
    </g>
</svg>