<?xml version="1.0" encoding="UTF-8"?>
<svg width="210px" height="210px" viewBox="0 0 210 210" version="1.1" xmlns="http://www.w3.org/2000/svg" xmlns:xlink="http://www.w3.org/1999/xlink">
    <!-- Generator: Sketch 46.2 (44496) - http://www.bohemiancoding.com/sketch -->
    <title>Group 39</title>
    <desc>Created with Sketch.</desc>
    <defs>
        <polygon id="path-1" points="7.04830128e-16 43.0021915 7.04830128e-16 0.000382978723 37.7882346 0.000382978723 37.7882346 43.0021915"></polygon>
    </defs>
    <g id="Page-1" stroke="none" stroke-width="1" fill="none" fill-rule="evenodd">
        <g id="Web-Design-Service" transform="translate(-1200.000000, -3783.000000)">
            <g id="Group-39" transform="translate(1200.000000, 3783.000000)">
                <rect id="Rectangle-18-Copy-16" fill="#F3F3F3" x="0" y="0" width="210" height="210"></rect>
                <g id="Page-1" transform="translate(28.000000, 83.000000)">
                    <g id="Group-3" transform="translate(0.000000, 0.956968)">
                        <mask id="mask-2" fill="white">
                            <use xlink:href="#path-1"></use>
                        </mask>
                        <g id="Clip-2"></g>
                        <path d="M17.4086049,1.48825532 C17.6478025,1.48825532 17.8889136,1.5696383 18.1195,1.72857447 C16.3436975,2.56442553 14.4396852,4.67080851 13.6359815,8.87782979 C12.4600864,9.24165957 11.3119383,9.59782979 10.2499012,9.92623404 C11.1913827,6.71782979 13.4274012,1.48825532 17.4086049,1.48825532 M19.0552407,3.04793617 C19.395858,3.90197872 19.6178333,5.12942553 19.6178333,6.78389362 C19.6178333,6.86814894 19.6168765,6.94570213 19.6168765,7.02421277 C18.2668457,7.44261702 16.802,7.89548936 15.3333272,8.35123404 C16.1580802,5.16676596 17.7042531,3.62814894 19.0552407,3.04793617 M23.1436049,5.9327234 C22.5283889,6.12229787 21.8289753,6.33868085 21.0702407,6.57421277 C21.0711975,6.4277234 21.0711975,6.28410638 21.0711975,6.12708511 C21.0711975,4.75506383 20.8807963,3.65112766 20.5755802,2.77602128 C21.8021852,2.93017021 22.6183272,4.32612766 23.1436049,5.9327234 M33.0961358,8.37325532 C33.0674321,8.15687234 32.8779877,8.03719149 32.7220309,8.02378723 C32.5651173,8.01038298 29.2622778,7.76623404 29.2622778,7.76623404 C29.2622778,7.76623404 26.9688519,5.48751064 26.717216,5.23570213 C26.4646235,4.98293617 25.9728333,5.05953191 25.7824321,5.11602128 C25.7537284,5.1246383 25.2810741,5.27017021 24.4984198,5.51240426 C23.7320309,3.30548936 22.3800864,1.27857447 20.0005494,1.27857447 C19.9354877,1.27857447 19.8675556,1.28144681 19.7996235,1.2852766 C19.1231728,0.39006383 18.2850247,0.000382978723 17.5607346,0.000382978723 C12.0190062,0.000382978723 9.3715679,6.93325532 8.54107407,10.4566596 C6.38733951,11.124 4.8574321,11.5988936 4.66224691,11.6601702 C3.45956173,12.0383617 3.42224691,12.0757021 3.26437654,13.2093191 C3.14477778,14.0671915 -0.000191358025,38.4083617 -0.000191358025,38.4083617 L24.5079877,43.0021915 L37.7882346,40.1269787 C37.7882346,40.1269787 33.1267531,8.5896383 33.0961358,8.37325532" id="Fill-1" fill="#CDCDCD" mask="url(#mask-2)"></path>
                    </g>
                    <path d="M32.7219352,8.98085106 C32.5650216,8.96744681 29.2621821,8.72234043 29.2621821,8.72234043 C29.2621821,8.72234043 26.9687562,6.44457447 26.7171204,6.19276596 C26.6223981,6.09797872 26.4961019,6.04914894 26.363108,6.02904255 L24.5098056,43.9592553 L37.7881389,41.0840426 C37.7881389,41.0840426 33.1266574,9.54670213 33.0969969,9.33031915 C33.0673364,9.11393617 32.877892,8.99425532 32.7219352,8.98085106" id="Fill-4" fill="#979797"></path>
                    <path d="M20.0005494,16.3235106 L18.3634815,21.1978723 C18.3634815,21.1978723 16.9282963,20.4309574 15.1706728,20.4309574 C12.5921235,20.4309574 12.4629568,22.05 12.4629568,22.4588298 C12.4629568,24.6839362 18.2611049,25.5379787 18.2611049,30.7512766 C18.2611049,34.8539362 15.6605494,37.4955319 12.1548704,37.4955319 C7.9478642,37.4955319 5.79604321,34.8759574 5.79604321,34.8759574 L6.92314198,31.1505319 C6.92314198,31.1505319 9.13428395,33.0510638 11.0009815,33.0510638 C12.2199321,33.0510638 12.7155494,32.0907447 12.7155494,31.3879787 C12.7155494,28.4840426 7.95838889,28.3547872 7.95838889,23.5838298 C7.95838889,19.5682979 10.8383272,15.6810638 16.6536975,15.6810638 C18.8935432,15.6810638 20.0005494,16.3235106 20.0005494,16.3235106" id="Fill-6" fill="#FEFEFE"></path>
                    <path d="M53.268142,25.4612872 C51.9439444,24.7412872 51.2627099,24.1352234 51.2627099,23.3022447 C51.2627099,22.2423511 52.2089753,21.5616064 53.6843457,21.5616064 C55.4036975,21.5616064 56.9383889,22.2806489 56.9383889,22.2806489 L58.1496852,18.5695851 C58.1496852,18.5695851 57.0359815,17.699266 53.7599321,17.699266 C49.2008272,17.699266 46.0405494,20.3111809 46.0405494,23.9839468 C46.0405494,26.0663936 47.5168765,27.6567128 49.484037,28.7922447 C51.0742222,29.7018191 51.640642,30.3461809 51.640642,31.2921383 C51.640642,32.2763936 50.8465062,33.0720319 49.3711358,33.0720319 C47.1724321,33.0720319 45.0952407,31.9365 45.0952407,31.9365 L43.808358,35.6466064 C43.808358,35.6466064 45.7267222,36.9334149 48.9549321,36.9334149 C53.6470309,36.9334149 57.0149321,34.6240532 57.0149321,30.4591596 C57.0149321,28.2254362 55.3118457,26.635117 53.268142,25.4612872" id="Fill-8" fill="#1D1D1B"></path>
                    <path d="M71.9610463,17.6605851 C69.6523117,17.6605851 67.8363241,18.7587766 66.4365401,20.424734 L66.3599969,20.3873936 L68.3663858,9.89856383 L63.1442253,9.89856383 L58.0741944,36.5931383 L63.2953981,36.5931383 L65.0367562,27.4677128 C65.7179907,24.0228191 67.4957068,21.9020745 69.1605216,21.9020745 C70.3335463,21.9020745 70.7880216,22.6967553 70.7880216,23.8322872 C70.7880216,24.5522872 70.7124352,25.4226064 70.5612623,26.1426064 L68.5931451,36.5931383 L73.8153056,36.5931383 L75.8580525,25.8017553 C76.0857685,24.665266 76.2369414,23.3028191 76.2369414,22.3932447 C76.2369414,19.4404787 74.6850278,17.6605851 71.9610463,17.6605851" id="Fill-10" fill="#1D1D1B"></path>
                    <path d="M85.469679,32.9581915 C83.691963,32.9581915 82.935142,31.4435106 82.935142,29.5496809 C82.935142,26.558617 84.4860988,21.6746809 87.3239383,21.6746809 C89.1781975,21.6746809 89.7838457,23.265 89.7838457,24.8170213 C89.7838457,28.0359574 88.2319321,32.9581915 85.469679,32.9581915 M88.0424877,17.6601064 C81.7621173,17.6601064 77.5991235,23.3406383 77.5991235,29.6645745 C77.5991235,33.7155319 80.0963457,36.9718085 84.7884444,36.9718085 C90.9568704,36.9718085 95.1189074,31.4435106 95.1189074,24.9682979 C95.1189074,21.2198936 92.9240309,17.6601064 88.0424877,17.6601064" id="Fill-12" fill="#1D1D1B"></path>
                    <path d="M103.481444,33.0339255 C102.125673,33.0339255 101.32484,32.2765851 101.32484,32.2765851 L102.195519,27.3916915 C102.801167,24.1354149 104.503296,21.9773298 106.319284,21.9773298 C107.908512,21.9773298 108.400302,23.4537128 108.400302,24.8554149 C108.400302,28.2256277 106.39487,33.0339255 103.481444,33.0339255 M108.476846,17.6602021 C104.952031,17.6602021 102.951383,20.7661596 102.951383,20.7661596 L102.875796,20.7661596 L103.179099,17.9637128 L98.5625864,17.9637128 C98.3358272,19.8565851 97.9196235,22.7346702 97.502463,24.8927553 L93.8704877,44.014883 L99.0926481,44.014883 L100.530704,36.2902021 L100.643605,36.2902021 C100.643605,36.2902021 101.716167,36.9719043 103.70916,36.9719043 C109.838358,36.9719043 113.849222,30.686266 113.849222,24.3249894 C113.849222,20.8044574 112.298265,17.6602021 108.476846,17.6602021" id="Fill-14" fill="#1D1D1B"></path>
                    <path d="M121.303957,10.1636809 C119.639142,10.1636809 118.314944,11.4887872 118.314944,13.1930426 C118.314944,14.7450638 119.298525,15.8059149 120.774852,15.8059149 L120.850438,15.8059149 C122.476981,15.8059149 123.877722,14.706766 123.915037,12.7765532 C123.915037,11.2609149 122.893185,10.1636809 121.303957,10.1636809" id="Fill-16" fill="#1D1D1B"></path>
                    <polygon id="Fill-18" fill="#1D1D1B" points="114.001448 36.5935213 119.223608 36.5935213 122.779997 18.0774574 117.520522 18.0774574"></polygon>
                    <path d="M136.061296,18.0392553 L132.428364,18.0392553 L132.617809,17.1689362 C132.921111,15.3880851 133.980278,13.797766 135.721636,13.797766 C136.649722,13.797766 137.385494,14.0639362 137.385494,14.0639362 L138.407346,9.9737234 C138.407346,9.9737234 137.499352,9.51989362 135.568549,9.51989362 C133.715247,9.51989362 131.860988,10.0493617 130.460247,11.2614894 C128.682531,12.7761702 127.850123,14.9725532 127.43392,17.1689362 L127.282747,18.0392553 L124.861111,18.0392553 L124.10429,21.977234 L126.525926,21.977234 L123.762716,36.593617 L128.984877,36.593617 L131.74713,21.977234 L135.342747,21.977234 L136.061296,18.0392553 Z" id="Fill-20" fill="#1D1D1B"></path>
                    <path d="M148.623855,18.0775532 C148.623855,18.0775532 145.360244,26.307766 143.894441,30.8001064 L143.818855,30.8001064 C143.718392,29.3534043 142.531972,18.0775532 142.531972,18.0775532 L137.044781,18.0775532 L140.185923,35.0789362 C140.261509,35.4571277 140.224194,35.685 140.072065,35.9492553 C139.467373,37.1240426 138.444565,38.2595745 137.235182,39.0915957 C136.250645,39.8115957 135.153207,40.266383 134.283485,40.5689362 L135.72154,44.9990426 C136.780707,44.7721277 138.974627,43.9018085 140.829843,42.1592553 C143.213207,39.9255319 145.408083,36.4796809 147.678546,31.7843617 L154.072775,18.0775532 L148.623855,18.0775532 Z" id="Fill-22" fill="#1D1D1B"></path>
                </g>
            </g>
        </g>
    </g>
</svg>