<?xml version="1.0" encoding="UTF-8"?>
<svg width="210px" height="210px" viewBox="0 0 210 210" version="1.1" xmlns="http://www.w3.org/2000/svg" xmlns:xlink="http://www.w3.org/1999/xlink">
    <!-- Generator: Sketch 46.2 (44496) - http://www.bohemiancoding.com/sketch -->
    <title>Group 36</title>
    <desc>Created with Sketch.</desc>
    <defs>
        <polygon id="path-1" points="0 19.7683125 0 0.161875 39.6390794 0.161875 39.6390794 39.37475 0 39.37475"></polygon>
    </defs>
    <g id="Page-1" stroke="none" stroke-width="1" fill="none" fill-rule="evenodd">
        <g id="Web-Design-Service" transform="translate(-1430.000000, -3783.000000)">
            <g id="Group-36" transform="translate(1430.000000, 3783.000000)">
                <rect id="Rectangle-18-Copy-17" fill="#F3F3F3" x="0" y="0" width="210" height="210"></rect>
                <g id="Page-1" transform="translate(18.000000, 85.000000)">
                    <path d="M101.436444,27.537875 L101.16731,27.537875 C99.7843682,27.537875 99.5923105,27.195375 99.5923105,25.44725 L99.5923105,17.200375 L101.436444,17.200375 C105.431119,17.200375 106.161444,20.087875 106.161444,22.331 C106.161444,24.649125 105.431119,27.537875 101.436444,27.537875 L101.436444,27.537875 Z M85.2246209,22.25475 L85.2246209,17.200375 L86.7989892,17.200375 C88.527509,17.200375 89.2963718,18.377875 89.2963718,19.746 C89.2963718,21.076625 88.527509,22.25475 86.7989892,22.25475 L85.2246209,22.25475 Z M101.32083,16.060375 L94.444657,16.060375 L94.444657,16.781625 C96.5951986,16.781625 96.9414079,17.237875 96.9414079,19.936625 L96.9414079,24.801625 C96.9414079,27.499125 96.5951986,27.9935 94.444657,27.9935 C92.7925812,27.765375 91.6787726,26.891625 90.1416787,25.219125 L88.3746209,23.319125 C90.7563899,22.901 92.0243502,21.4185 92.0243502,19.746 C92.0243502,17.656 90.2187545,16.060375 86.8381588,16.060375 L80.075704,16.060375 L80.075704,16.781625 C82.227509,16.781625 82.5730866,17.237875 82.5730866,19.936625 L82.5730866,24.801625 C82.5730866,27.499125 82.227509,27.9935 80.075704,27.9935 L80.075704,28.716 L87.7213718,28.716 L87.7213718,27.9935 C85.5701986,27.9935 85.2246209,27.499125 85.2246209,24.801625 L85.2246209,23.4335 L85.8772383,23.4335 L90.1416787,28.716 L101.32083,28.716 C106.815325,28.716 109.196462,25.827875 109.196462,22.3685 C109.196462,18.910375 106.815325,16.060375 101.32083,16.060375 L101.32083,16.060375 Z" id="Fill-1" fill="#858584"></path>
                    <path d="M58.678574,23.6615 L61.3288448,15.90775 C62.0977076,13.66525 61.7514982,13.019625 59.2932852,13.019625 L59.2932852,12.259 L66.5156679,12.259 L66.5156679,13.019625 C64.095361,13.019625 63.5191877,13.589625 62.5588989,16.364 L58.1788448,29.362125 L57.6797473,29.362125 L53.7608845,17.465875 L49.7655776,29.362125 L49.2664801,29.362125 L45.0020397,16.364 C44.0802888,13.589625 43.4649458,13.019625 41.2366968,13.019625 L41.2366968,12.259 L49.7655776,12.259 L49.7655776,13.019625 C47.4987906,13.019625 46.8840794,13.550875 47.6908484,15.90775 L50.2646751,23.6615 L54.145,12.259 L54.8746931,12.259 L58.678574,23.6615 Z" id="Fill-3" fill="#858584"></path>
                    <path d="M71.739639,16.7438125 C68.2055235,16.7438125 66.9761011,19.8981875 66.9761011,22.3681875 C66.9761011,24.8775625 68.2055235,27.9938125 71.739639,27.9938125 C75.3129242,27.9938125 76.5423466,24.8775625 76.5423466,22.3681875 C76.5423466,19.8981875 75.3129242,16.7438125 71.739639,16.7438125 M71.739639,29.2094375 C67.5143682,29.2094375 64.056065,26.1319375 64.056065,22.3681875 C64.056065,18.6444375 67.5143682,15.5650625 71.739639,15.5650625 C75.9655415,15.5650625 79.423213,18.6444375 79.423213,22.3681875 C79.423213,26.1319375 75.9655415,29.2094375 71.739639,29.2094375" id="Fill-5" fill="#858584"></path>
                    <path d="M117.840262,13.6273125 L115.649919,13.6273125 L115.649919,20.2404375 L117.840262,20.2404375 C119.991435,20.2404375 120.990262,18.7579375 120.990262,16.9723125 C120.990262,15.1479375 119.991435,13.6273125 117.840262,13.6273125 M118.685569,27.9560625 L118.685569,28.7160625 L109.887554,28.7160625 L109.887554,27.9560625 C112.461381,27.9560625 112.923204,27.3098125 112.923204,23.5091875 L112.923204,17.4279375 C112.923204,13.6273125 112.461381,13.0191875 109.887554,13.0191875 L109.887554,12.2591875 L117.840262,12.2591875 C121.797031,12.2591875 123.986742,14.2735625 123.986742,16.9723125 C123.986742,19.5941875 121.797031,21.6466875 117.840262,21.6466875 L115.649919,21.6466875 L115.649919,23.5091875 C115.649919,27.3098125 116.111742,27.9560625 118.685569,27.9560625" id="Fill-7" fill="#1D1D1B"></path>
                    <path d="M130.018493,22.254625 L130.018493,17.20025 L131.593493,17.20025 C133.322013,17.20025 134.090875,18.37775 134.090875,19.745875 C134.090875,21.0765 133.322013,22.254625 131.593493,22.254625 L130.018493,22.254625 Z M150.379774,25.143375 L150.187717,25.82775 C149.841507,27.082125 149.418854,27.53775 146.691507,27.53775 L146.15324,27.53775 C144.156218,27.53775 143.810009,27.082125 143.810009,24.38275 L143.810009,22.634625 C146.806489,22.634625 147.037085,22.900875 147.037085,24.877125 L147.76741,24.877125 L147.76741,19.214625 L147.037085,19.214625 C147.037085,21.190875 146.806489,21.4565 143.810009,21.4565 L143.810009,17.20025 L145.922644,17.20025 C148.650623,17.20025 149.073276,17.6565 149.418854,18.91025 L149.611543,19.632125 L150.225623,19.632125 L149.957121,16.06025 L138.662356,16.06025 L138.662356,16.7815 C140.813529,16.7815 141.159106,17.23775 141.159106,19.9365 L141.159106,24.8015 C141.159106,27.269625 140.865334,27.892125 139.169034,27.98025 C137.557392,27.7365 136.450532,26.867125 134.936182,25.219 L133.168493,23.319 C135.550894,22.900875 136.818854,21.418375 136.818854,19.745875 C136.818854,17.6565 135.013258,16.06025 131.632662,16.06025 L124.870839,16.06025 L124.870839,16.7815 C127.022013,16.7815 127.36759,17.23775 127.36759,19.9365 L127.36759,24.8015 C127.36759,27.499625 127.022013,27.994 124.870839,27.994 L124.870839,28.715875 L132.515875,28.715875 L132.515875,27.994 C130.364702,27.994 130.018493,27.499625 130.018493,24.8015 L130.018493,23.433375 L130.671742,23.433375 L134.936182,28.715875 L150.72472,28.715875 L150.955948,25.143375 L150.379774,25.143375 Z" id="Fill-9" fill="#1D1D1B"></path>
                    <path d="M158.178457,29.209625 C156.641363,29.209625 155.296327,28.412125 154.720153,27.91775 C154.528727,28.10775 154.182518,28.67775 154.106074,29.209625 L153.375749,29.209625 L153.375749,23.964625 L154.14398,23.964625 C154.452283,26.473375 156.218078,27.955875 158.485496,27.955875 C159.714919,27.955875 160.713745,27.2715 160.713745,26.1315 C160.713745,25.143375 159.829901,24.38275 158.254901,23.6615 L156.06519,22.634625 C154.528727,21.912125 153.375749,20.65775 153.375749,18.9865 C153.375749,17.162125 155.104901,15.603375 157.48667,15.603375 C158.75463,15.603375 159.829901,16.06025 160.48315,16.592125 C160.675208,16.439625 160.867265,16.020875 160.982247,15.56525 L161.712572,15.56525 L161.712572,20.050875 L160.905171,20.050875 C160.63667,18.264 159.638475,16.7815 157.602283,16.7815 C156.526381,16.7815 155.527554,17.39025 155.527554,18.34025 C155.527554,19.32775 156.333691,19.86025 158.178457,20.6965 L160.291092,21.72275 C162.135226,22.5965 162.864919,24.003375 162.864919,25.143375 C162.864919,27.53775 160.751652,29.209625 158.178457,29.209625" id="Fill-11" fill="#1D1D1B"></path>
                    <path d="M170.010542,29.209625 C168.473448,29.209625 167.128412,28.412125 166.552238,27.91775 C166.360812,28.10775 166.015235,28.67775 165.938159,29.209625 L165.207834,29.209625 L165.207834,23.964625 L165.976065,23.964625 C166.284368,26.473375 168.050162,27.955875 170.317581,27.955875 C171.547004,27.955875 172.546462,27.2715 172.546462,26.1315 C172.546462,25.143375 171.661986,24.38275 170.086986,23.6615 L167.897274,22.634625 C166.360812,21.912125 165.207834,20.65775 165.207834,18.9865 C165.207834,17.162125 166.936986,15.603375 169.318755,15.603375 C170.586715,15.603375 171.661986,16.06025 172.315235,16.592125 C172.507292,16.439625 172.69935,16.020875 172.814332,15.56525 L173.544657,15.56525 L173.544657,20.050875 L172.737888,20.050875 C172.468755,18.264 171.47056,16.7815 169.434368,16.7815 C168.358466,16.7815 167.359639,17.39025 167.359639,18.34025 C167.359639,19.32775 168.165776,19.86025 170.010542,20.6965 L172.123177,21.72275 C173.967942,22.5965 174.697004,24.003375 174.697004,25.143375 C174.697004,27.53775 172.583736,29.209625 170.010542,29.209625" id="Fill-13" fill="#1D1D1B"></path>
                    <path d="M2.81699458,20.2313125 C2.81699458,26.8881875 6.7276444,32.6419375 12.3990343,35.3688125 L4.28901625,13.3856875 C3.3457852,15.4775625 2.81699458,17.7925625 2.81699458,20.2313125" id="Fill-15" fill="#1D1D1B"></path>
                    <path d="M31.2965704,19.3823125 C31.2965704,17.3035625 30.5416065,15.8635625 29.8940433,14.7435625 C29.0329422,13.3579375 28.2249097,12.1841875 28.2249097,10.7998125 C28.2249097,9.2535625 29.4101083,7.8135625 31.0798736,7.8135625 C31.1550542,7.8135625 31.226444,7.8235625 31.300361,7.8273125 C28.2754513,5.0854375 24.2453971,3.4116875 19.8192238,3.4116875 C13.8793321,3.4116875 8.65333935,6.4266875 5.61389892,10.9929375 C6.01254513,11.0048125 6.38844765,11.0129375 6.70749097,11.0129375 C8.48592058,11.0129375 11.2385379,10.7998125 11.2385379,10.7998125 C12.1552347,10.7460625 12.2632671,12.0773125 11.3478339,12.1841875 C11.3478339,12.1841875 10.4267148,12.2923125 9.40198556,12.3448125 L15.5933213,30.5648125 L19.3138087,19.5254375 L16.6654332,12.3448125 C15.75,12.2923125 14.8825812,12.1841875 14.8825812,12.1841875 C13.9658845,12.1316875 14.0732852,10.7460625 14.9893502,10.7998125 C14.9893502,10.7998125 17.7975632,11.0129375 19.4679603,11.0129375 C21.2457581,11.0129375 23.9990072,10.7998125 23.9990072,10.7998125 C24.915704,10.7460625 25.0237365,12.0773125 24.1083032,12.1841875 C24.1083032,12.1841875 23.1852888,12.2923125 22.1618231,12.3448125 L28.3064079,30.4260625 L30.0020758,24.8198125 C30.7368231,22.4935625 31.2965704,20.8223125 31.2965704,19.3823125" id="Fill-17" fill="#1D1D1B"></path>
                    <path d="M20.1172292,21.70225 L15.0163267,36.36725 C16.5395217,36.80975 18.1505325,37.05225 19.8190343,37.05225 C21.7983664,37.05225 23.6974639,36.7135 25.4651534,36.0985 C25.4196661,36.026625 25.3779693,35.950375 25.3438538,35.866625 L20.1172292,21.70225 Z" id="Fill-19" fill="#1D1D1B"></path>
                    <path d="M34.7373736,12.16125 C34.8106588,12.696875 34.8523556,13.271875 34.8523556,13.89125 C34.8523556,15.5975 34.5295217,17.51625 33.5597563,19.915 L28.3659838,34.77 C33.4207671,31.85375 36.8203159,26.43625 36.8203159,20.23125 C36.8203159,17.306875 36.0659838,14.556875 34.7373736,12.16125" id="Fill-21" fill="#1D1D1B"></path>
                    <g id="Group-25" transform="translate(0.000000, 0.463188)">
                        <mask id="mask-2" fill="white">
                            <use xlink:href="#path-1"></use>
                        </mask>
                        <g id="Clip-24"></g>
                        <path d="M19.8192238,38.476 C9.39187726,38.476 0.908483755,30.0835 0.908483755,19.767875 C0.908483755,9.45225 9.39187726,1.061 19.8192238,1.061 C30.2453069,1.061 38.7287004,9.45225 38.7287004,19.767875 C38.7287004,30.0835 30.2453069,38.476 19.8192238,38.476 M19.8192238,0.161625 C8.89088448,0.161625 0,8.95725 0,19.767875 C0,30.57975 8.89088448,39.37475 19.8192238,39.37475 C30.7462996,39.37475 39.6390794,30.57975 39.6390794,19.767875 C39.6390794,8.95725 30.7462996,0.161625 19.8192238,0.161625" id="Fill-23" fill="#1D1D1B" mask="url(#mask-2)"></path>
                    </g>
                </g>
            </g>
        </g>
    </g>
</svg>