<?xml version="1.0" encoding="UTF-8"?>
<svg width="211px" height="210px" viewBox="0 0 211 210" version="1.1" xmlns="http://www.w3.org/2000/svg" xmlns:xlink="http://www.w3.org/1999/xlink">
    <!-- Generator: Sketch 46.2 (44496) - http://www.bohemiancoding.com/sketch -->
    <title>Group 16</title>
    <desc>Created with Sketch.</desc>
    <defs>
        <polygon id="path-1" points="0 81.666614 0 0.178514347 83.8038943 0.178514347 83.8038943 81.666614"></polygon>
        <polygon id="path-3" points="24.8024266 0.155439502 24.8024266 19.464219 0.0302162551 19.464219 0.0302162551 0.155439502 24.8024266 0.155439502"></polygon>
        <polygon id="path-5" points="0 10.450298 0 0.00671609831 15.5334304 0.00671609831 15.5334304 10.450298"></polygon>
        <polygon id="path-7" points="0.0837254644 0.0478571429 7.25315236 0.0478571429 7.25315236 7.01618545 0.0837254644 7.01618545 0.0837254644 0.0478571429"></polygon>
    </defs>
    <g id="Page-1" stroke="none" stroke-width="1" fill="none" fill-rule="evenodd">
        <g id="Imagery-Service" transform="translate(-970.000000, -3438.000000)">
            <g id="Group-16" transform="translate(970.000000, 3438.000000)">
                <g id="Group-12" fill="#F3F3F3">
                    <rect id="Rectangle-18-Copy-24" x="0.5" y="0" width="210" height="210"></rect>
                </g>
                <g id="Group-9" transform="translate(20.000000, 48.000000)">
                    <g id="Page-1" transform="translate(41.000000, 2.000000)">
                        <g id="Group-3" transform="translate(0.000000, 0.155000)">
                            <mask id="mask-2" fill="white">
                                <use xlink:href="#path-1"></use>
                            </mask>
                            <g id="Clip-2"></g>
                            <path d="M41.7376255,1.76513333 C19.5766853,1.78913333 1.62411155,19.3034667 1.65188845,40.8728 C1.67966534,62.5451333 19.6138327,80.1554667 41.6301992,80.1294667 C63.8574024,80.1031333 81.7647968,62.6184667 81.8213546,40.8874667 C81.8769084,19.3704667 63.8145657,1.74146667 41.7376255,1.76513333 M83.8038884,40.9148 C83.7941833,57.3451333 73.774757,71.9841333 58.1899124,78.3394667 C40.7215936,85.4628 21.5160478,80.9284667 9.492,66.8411333 C-6.52054183,48.0814667 -1.68501992,19.0338 19.5612908,6.3518 C39.2755219,-5.4152 64.5839522,0.108466667 77.192988,18.9308 C81.3712351,25.1678 83.808239,33.2721333 83.8038884,40.9148" id="Fill-1" fill="#111921" mask="url(#mask-2)"></path>
                        </g>
                        <path d="M41.7807633,6.50703333 C21.9266438,6.56936667 6.3019745,21.9750333 6.34849243,41.4420333 C6.39400637,60.3820333 22.3774327,75.7293667 41.9916,75.6663667 C61.2098629,75.6043667 77.1052733,60.0747 77.0687952,41.3950333 C77.0309785,21.9247 61.3741817,6.4457 41.7807633,6.50703333 M41.737592,1.92003333 C63.8145323,1.89636667 81.8772096,19.5253667 81.8213211,41.0423667 C81.765098,62.7733667 63.8573689,80.2580333 41.6301657,80.2847 C19.6137992,80.3107 1.67963187,62.7003667 1.65185498,41.0277 C1.62407809,19.4583667 19.5766518,1.94403333 41.737592,1.92003333" id="Fill-4" fill="#888888"></path>
                        <path d="M31.7553131,61.6856 C31.7118072,67.5122667 36.6567633,72.0359333 42.1940701,71.6122667 C47.9238072,71.1742667 52.1107554,66.0839333 51.2312653,60.5886 C51.0970661,59.7509333 51.0154088,58.9672667 51.3480622,58.1452667 C52.8309466,54.4846 55.4302614,51.9976 59.1346279,50.6219333 C59.8344048,50.3619333 60.4866598,50.3269333 61.2413211,50.4559333 C65.3141498,51.1509333 68.6597594,49.7632667 71.0207952,46.4632667 C73.2412733,43.3592667 73.4577992,39.9209333 71.5666279,36.5579333 C69.5887793,33.0402667 66.3679984,31.1682667 62.4156478,31.6162667 C58.3404765,32.0779333 55.7003331,30.1752667 53.3734327,27.4296 C52.0588829,25.8782667 50.8092574,24.1629333 51.1790582,21.8922667 C51.85909,17.7156 50.3591378,14.3942667 46.8793291,12.1486 C43.4001896,9.90326667 39.6707235,9.88626667 36.1648112,12.1672667 C32.6535442,14.4519333 31.2673769,17.7856 31.9276637,21.9349333 C32.5320622,25.7329333 26.1410343,32.3019333 22.316859,31.8132667 C22.1522056,31.7919333 21.9935761,31.7232667 21.8289227,31.6989333 C17.6148669,31.0762667 14.1882693,32.4599333 11.8453052,35.9812667 C9.63419761,39.3036 9.73024542,42.8119333 11.837608,46.1856 C13.936604,49.5462667 17.9254327,51.1919333 21.9855442,50.4476 C22.6769546,50.3206 23.2763331,50.3659333 23.9309307,50.6109333 C26.5048112,51.5756 28.679106,53.0652667 30.2185482,55.3552667 C31.5792813,57.3796 32.6548829,59.5056 31.7553131,61.6856 M41.7807633,6.50693333 C61.3741817,6.4456 77.0309785,21.9249333 77.0687952,41.3949333 C77.1052733,60.0746 61.2098629,75.6046 41.9916,75.6662667 C22.3774327,75.7296 6.39400637,60.3822667 6.34882709,41.4422667 C6.3019745,21.9749333 21.9266438,6.56926667 41.7807633,6.50693333" id="Fill-6" fill="#010407"></path>
                        <path d="M62.9198151,33.5479 C58.6702853,33.5772333 55.179098,37.0149 55.2108908,41.1382333 C55.2430183,45.2269 58.8560223,48.6929 63.0309227,48.6395667 C67.3092335,48.5852333 70.7251219,45.1829 70.6842932,41.0162333 C70.6427952,36.8089 67.2215522,33.5179 62.9198151,33.5479 M27.4698072,41.1102333 C27.4845323,36.8692333 24.1161657,33.5512333 19.8047235,33.5602333 C15.5096797,33.5692333 12.0201657,36.9345667 12.0288669,41.0592333 C12.0375681,45.2109 15.5250741,48.6395667 19.7431458,48.6435667 C24.0224606,48.6475667 27.4550821,45.3009 27.4698072,41.1102333 M41.3816797,69.7232333 C45.6656797,69.7302333 49.109345,66.3785667 49.1070024,62.2052333 C49.1039904,58.0349 45.668357,54.6875667 41.3759904,54.6725667 C37.1134088,54.6579 33.6707474,58.0215667 33.6600382,62.2112333 C33.6496637,66.3939 37.0645482,69.7162333 41.3816797,69.7232333 M49.1043251,20.0415667 C49.1424765,15.8562333 45.7436558,12.4479 41.4790661,12.3952333 C37.2091219,12.3425667 33.7028749,15.6762333 33.6449785,19.8439 C33.5870821,24.0052333 37.0367713,27.4512333 41.2889785,27.4792333 C45.605106,27.5075667 49.0665084,24.2135667 49.1043251,20.0415667 M43.9813291,52.7929 C48.9918789,52.1455667 54.3963251,45.8069 53.2735363,42.2405667 C52.976357,41.2952333 53.143353,40.2509 53.3749386,39.2679 C53.5061259,38.7132333 53.5067952,38.1972333 53.2986359,37.6432333 C51.9630024,34.0855667 49.5688351,31.5972333 46.1037514,29.9532333 C44.258094,29.0775667 42.4592892,30.0179 40.7086757,29.5952333 C38.7371857,29.1185667 37.0347633,29.7255667 35.5046916,30.7535667 C32.0161817,33.0965667 29.1461259,35.8499 29.9037992,40.6379 C30.0128988,41.3279 29.8448988,42.0735667 29.7334566,42.7825667 C29.6367394,43.3992333 29.5925641,43.9919 29.8274964,44.5832333 C31.1289944,47.8582333 33.3116558,50.2572333 36.4561339,51.9839 C39.0002295,53.3805667 41.6721657,51.7839 43.9813291,52.7929 M31.7551458,61.6855667 C32.6550502,59.5055667 31.5791139,57.3795667 30.2183809,55.3552333 C28.6792733,53.0652333 26.5046438,51.5755667 23.931098,50.6109 C23.2765004,50.3659 22.6771219,50.3205667 21.9857116,50.4475667 C17.9252653,51.1919 13.9364367,49.5462333 11.8374406,46.1855667 C9.73007809,42.8119 9.63436494,39.3035667 11.8451378,35.9812333 C14.188102,32.4599 17.6150343,31.0762333 21.82909,31.6989 C21.9937434,31.7232333 22.1520382,31.7919 22.3166916,31.8132333 C26.1408669,32.3019 32.5322295,25.7329 31.9274964,21.9349 C31.2672096,17.7855667 32.6537116,14.4519 36.1646438,12.1672333 C39.6708908,9.88623333 43.400357,9.90323333 46.8791618,12.1485667 C50.3589705,14.3942333 51.8592574,17.7155667 51.1788908,21.8922333 C50.80909,24.1629 52.0587155,25.8782333 53.3736,27.4299 C55.7001657,30.1752333 58.3406438,32.0779 62.4158151,31.6162333 C66.3678311,31.1682333 69.588612,33.0405667 71.5667952,36.5579 C73.4579665,39.9209 73.2414406,43.3595667 71.0209625,46.4632333 C68.6599267,49.7632333 65.3139825,51.1509 61.2414884,50.4559 C60.4864924,50.3269 59.8342375,50.3619 59.1344606,50.6219 C55.4304287,51.9975667 52.8307793,54.4849 51.3482295,58.1452333 C51.0152414,58.9672333 51.0968988,59.7509 51.231098,60.5885667 C52.1109227,66.0839 47.9239745,71.1742333 42.1942375,71.6122333 C36.656596,72.0359 31.7116398,67.5125667 31.7551458,61.6855667" id="Fill-8" fill="#888888"></path>
                        <path d="M43.981396,52.793 C41.6722327,51.784 39.0002964,53.3806667 36.4562008,51.9836667 C33.3117227,50.2573333 31.1290614,47.858 29.8275633,44.5833333 C29.5922964,43.992 29.6368064,43.399 29.7335235,42.7826667 C29.8449657,42.0736667 30.0129657,41.3276667 29.9038661,40.6376667 C29.1458582,35.85 32.0162486,33.0966667 35.5044239,30.7536667 C37.0348303,29.7256667 38.7372526,29.1186667 40.7087426,29.595 C42.4593562,30.018 44.258161,29.0776667 46.1038183,29.953 C49.568902,31.5973333 51.9630693,34.0856667 53.2987028,37.6433333 C53.5065275,38.1973333 53.5058582,38.7133333 53.3750056,39.268 C53.1430853,40.251 52.9760892,41.2953333 53.2736032,42.2406667 C54.396392,45.807 48.9919458,52.1456667 43.981396,52.793" id="Fill-10" fill="#010407"></path>
                        <path d="M49.1044255,20.0417 C49.0666088,24.2137 45.6052064,27.5073667 41.2887442,27.4790333 C37.0368717,27.4513667 33.5868478,24.0053667 33.6450789,19.8437 C33.7029753,15.6760333 37.2092223,12.3423667 41.4788319,12.3953667 C45.7437562,12.4480333 49.1422422,15.8560333 49.1044255,20.0417" id="Fill-12" fill="#FEFEFE"></path>
                        <path d="M41.3815458,69.7233667 C37.064749,69.7163667 33.6495299,66.3940333 33.660239,62.2113667 C33.6706135,58.0217 37.1132749,54.6580333 41.3758566,54.6727 C45.6685578,54.6877 49.1041912,58.0350333 49.1068685,62.2050333 C49.1095458,66.3787 45.6655458,69.7303667 41.3815458,69.7233667" id="Fill-14" fill="#FEFEFE"></path>
                        <path d="M27.4697402,41.1104 C27.4550151,45.3007333 24.0227283,48.6474 19.7434135,48.6437333 C15.5250072,48.6397333 12.0375012,45.2110667 12.0288,41.0594 C12.0200988,36.9347333 15.5096127,33.5694 19.8049912,33.5604 C24.1160988,33.5510667 27.4844653,36.8690667 27.4697402,41.1104" id="Fill-16" fill="#FEFEFE"></path>
                        <path d="M62.9198151,33.5479 C67.2215522,33.5179 70.6427952,36.8089 70.6842932,41.0162333 C70.7251219,45.1829 67.3092335,48.5852333 63.0309227,48.6395667 C58.8560223,48.6929 55.2430183,45.2269 55.2108908,41.1382333 C55.179098,37.0149 58.6702853,33.5772333 62.9198151,33.5479" id="Fill-18" fill="#FEFEFE"></path>
                    </g>
                    <g id="Page-1" transform="translate(0.000000, 87.000000)">
                        <g id="Group-3" transform="translate(140.043526, 5.487857)">
                            <mask id="mask-4" fill="white">
                                <use xlink:href="#path-3"></use>
                            </mask>
                            <g id="Clip-2"></g>
                            <path d="M22.7641828,9.74289286 C25.2700642,11.2298571 24.8743515,13.5550357 24.5976757,15.6427143 C24.3132797,17.7891429 22.4591393,18.5639643 20.5604723,19.0459286 C19.4577193,19.32575 18.3255212,19.4400357 17.1865005,19.4411071 C11.8005702,19.4461071 6.41446028,19.4318214 1.02835038,19.4641429 C0.277860718,19.4687857 0.0202165397,19.2621786 0.0886224157,18.5145 C0.166364527,17.66325 -0.181230686,16.5218214 0.254340588,16.0196786 C0.761369967,15.4350357 1.93953101,15.8330714 2.82342111,15.8291429 C7.43139173,15.8089643 12.0395419,15.8175357 16.6476921,15.8216429 C17.4888509,15.8225357 18.3188781,15.7612857 19.1338237,15.5377143 C20.2624309,15.2280714 20.3951132,14.9139643 20.4574146,13.2914643 C20.4951186,12.3100357 19.9861143,11.9889643 19.1657824,11.8111071 C18.4567671,11.6575357 17.7423656,11.6386071 17.0268868,11.6377143 C11.7005647,11.63075 6.37424266,11.6191429 1.04827965,11.6493214 C0.310537541,11.65325 0.0110598477,11.47325 0.0873656148,10.7123571 C0.146435256,10.1228929 0.158464635,9.51592857 0.0871860718,8.9295 C-0.00438084875,8.17235714 0.324182807,8.04682143 0.999084875,8.04985714 C6.38501523,8.07271429 11.7711251,8.06342857 17.157235,8.06110714 C17.4857987,8.06092857 17.817235,8.06253571 18.1418487,8.02092857 C20.3737476,7.73610714 20.5893787,7.45842857 20.4432307,5.24039286 C20.4087584,4.71807143 20.1638618,4.43628571 19.6875343,4.27075 C18.8235734,3.97075 17.9278335,3.94146429 17.0308368,3.9345 C15.4749173,3.92253571 13.9184592,3.90825 12.3630783,3.94164286 C11.7680729,3.95432143 11.5328716,3.75289286 11.6107933,3.17021429 C11.6341338,2.99467857 11.6028934,2.81235714 11.6181545,2.63521429 C11.6833286,1.87592857 11.2748683,0.898071429 11.8002111,0.412 C12.3151404,-0.06425 13.2875452,0.269678571 14.0574255,0.263428571 C16.2975832,0.245392857 18.5393569,0.19825 20.7497106,0.699142857 C22.8659837,1.17896429 24.8831491,2.35575 24.7698575,5.62753571 C24.7109674,7.32735714 24.573617,8.84378571 22.7641828,9.74289286" id="Fill-1" fill="#090909" mask="url(#mask-4)"></path>
                        </g>
                        <path d="M57.5832405,19.0843393 C57.5832405,19.0630893 57.58342,19.0418393 57.58342,19.0204107 C58.7779195,19.0204107 59.972778,19.0371964 61.1667388,19.013625 C61.8199162,19.0009464 62.0829467,18.652375 62.0723536,17.9727321 C62.0520653,16.6441607 61.8595952,16.3825536 60.450901,16.3484464 C58.9856507,16.3129107 57.5189641,16.3413036 56.0528161,16.3413036 C53.9336703,16.3414821 53.9521632,16.3407679 54.0211077,18.4291607 C54.0381643,18.9471964 54.2218368,19.1027321 54.7110914,19.091125 C55.6680555,19.0684464 56.6257378,19.0843393 57.5832405,19.0843393 M58.072136,21.2520179 C60.1578868,22.3777321 62.2436376,23.503625 64.4096442,24.6725536 C62.7307378,25.1088036 60.4729848,24.8182679 59.1215647,24.0482679 C57.6493123,23.2091607 56.1637737,22.3921964 54.7037301,21.5321964 C54.199753,21.2352321 54.015901,21.2834464 54.0336757,21.8918393 C54.05558,22.6345179 54.0123101,23.3795179 54.0462437,24.1213036 C54.070482,24.649875 53.9187682,24.8604107 53.3444102,24.8413036 C51.4249162,24.7779107 51.7432459,25.078625 51.731037,23.2380893 C51.7134418,20.5916607 51.7432459,17.9450536 51.7100305,15.2991607 C51.7021306,14.6655893 51.8276311,14.4054107 52.537185,14.4168393 C55.0775386,14.458625 57.6191491,14.4318393 60.1604004,14.4359464 C61.2164723,14.4375536 62.2405854,14.5939821 63.1812111,15.1113036 C63.9478596,15.5329107 64.3724788,16.169875 64.3952807,17.0513036 C64.4038988,17.3782679 64.3999489,17.7054107 64.3992307,18.0325536 C64.3958194,19.457375 63.7774733,20.284875 62.4036104,20.7218393 C61.4479032,21.0257679 60.4649053,21.0463036 59.4759826,21.0300536 C59.016173,21.0225536 58.5561839,21.0289821 58.0963743,21.0289821 C58.0882949,21.1032679 58.0802155,21.1777321 58.072136,21.2520179" id="Fill-4" fill="#0D0D0D"></path>
                        <path d="M27.9526877,19.2883571 C27.9526877,19.27675 27.9526877,19.2647857 27.9526877,19.2531786 C29.0872198,19.2531786 30.2230087,19.2824643 31.3561045,19.24175 C32.0173613,19.2181786 32.5775354,19.0172857 32.6003373,18.1646071 C32.6337323,16.9147857 32.5484494,16.7083571 31.5259521,16.4983571 C29.8413003,16.1526429 28.1327693,16.37675 26.4357291,16.3476429 C24.1851578,16.3090714 24.2002394,16.3381786 24.2496137,18.6215714 C24.2603863,19.1171071 24.3869641,19.313 24.9060229,19.2972857 C25.9207998,19.26675 26.9370131,19.2883571 27.9526877,19.2883571 M21.9649293,19.6206786 C21.965827,18.1355 21.9853972,16.6497857 21.9554135,15.1649643 C21.9448205,14.6440714 22.0647552,14.4201429 22.6416268,14.4253214 C25.4191567,14.4497857 28.1970457,14.4197857 30.9745756,14.4471071 C32.0888194,14.4578214 33.1698477,14.6731786 34.0962894,15.3622857 C34.6575408,15.7796071 34.8909467,16.3153214 34.9467845,17.0322857 C35.216099,20.4901429 33.685136,21.0499643 30.7519423,21.2451429 C28.8489663,21.37175 26.9301904,21.2876429 25.0191349,21.258 C24.4397497,21.2490714 24.1993417,21.4155 24.2555386,22.0128214 C24.2998857,22.4840714 24.2948585,22.9649643 24.2560773,23.4369286 C24.2189119,23.8876429 24.516235,24.5499643 24.0445756,24.7388929 C23.5300054,24.9453214 22.8692873,24.8419286 22.2789499,24.793 C21.849124,24.7574643 21.9699565,24.35175 21.9683406,24.0765714 C21.9597225,22.5913929 21.9642111,21.1060357 21.9649293,19.6206786" id="Fill-6" fill="#090909"></path>
                        <path d="M116.626399,18.7718393 C117.942628,18.7718393 119.260833,18.8171964 120.57401,18.7559464 C121.463107,18.7145179 121.250169,19.2946964 121.254837,19.7568393 C121.259685,20.2200536 121.466339,20.7638036 120.579935,20.7468393 C117.978357,20.6964821 115.375343,20.721125 112.773227,20.7430893 C112.451665,20.7459464 111.905496,20.4941607 111.891312,21.1514821 C111.878564,21.7502321 111.680349,22.4805893 112.529408,22.7077321 C112.954924,22.8216607 113.416529,22.8330893 113.862155,22.8354107 C116.075561,22.8471964 118.290583,22.8891607 120.501655,22.818625 C121.499016,22.7870179 121.23419,23.4018393 121.260762,23.9134464 C121.287335,24.431125 121.351431,24.8734464 120.520686,24.8491607 C118.279271,24.7838036 116.034625,24.8271964 113.791236,24.8234464 C112.978445,24.8220179 112.182351,24.6934464 111.428629,24.3921964 C110.04166,23.8379107 109.583466,23.1570179 109.575566,21.6866607 C109.568923,20.4668393 109.573053,19.2471964 109.572873,18.027375 C109.572694,15.8057679 110.392128,14.8079107 112.610561,14.5345179 C113.702541,14.4002321 114.81894,14.4464821 115.924386,14.4400536 C116.784397,14.4350536 116.37845,15.1077321 116.430158,15.4970179 C116.480969,15.8796964 116.597133,16.3502321 115.891709,16.3534464 C114.878907,16.3580893 113.858385,16.237375 112.852405,16.4764821 C112.011606,16.676125 111.490931,17.862375 111.945713,18.5700536 C112.12759,18.8532679 112.421143,18.771125 112.678249,18.7725536 C113.994299,18.7795179 115.310349,18.7757679 116.626399,18.7757679 L116.626399,18.7718393 Z" id="Fill-8" fill="#0D0D0D"></path>
                        <path d="M127.557478,24.8296607 C126.100128,24.8296607 124.871695,24.7851964 123.648468,24.8444821 C122.755422,24.887875 122.970873,24.2957321 122.975362,23.8373393 C122.98003,23.3875179 122.739442,22.8048393 123.638953,22.8243036 C125.91071,22.8726964 128.184263,22.842875 130.457097,22.8387679 C130.815465,22.8380536 131.177065,22.832875 131.530764,22.7848393 C132.127565,22.7035893 132.513942,22.4262679 132.505683,21.7410893 C132.497424,21.074125 132.153958,20.7900179 131.535971,20.6976964 C130.047739,20.4755536 128.551787,20.6401964 127.060503,20.5875179 C126.041058,20.5514464 125.060933,20.404125 124.142212,19.8860893 C122.801564,19.1305536 122.877331,17.9025179 123.003011,16.6793036 C123.113789,15.6010893 123.868229,15.0569821 124.856075,14.7548393 C126.229937,14.3348393 127.640786,14.4257321 129.040862,14.4493036 C129.935525,14.4643036 129.425084,15.2014464 129.52491,15.6093036 C129.62707,16.0269821 129.549328,16.3575179 128.962223,16.3535893 C128.098441,16.347875 127.23071,16.2743036 126.369083,16.4498393 C125.732962,16.5796607 125.257533,16.759125 125.267048,17.570375 C125.276923,18.3923393 125.865824,18.515375 126.399426,18.5498393 C127.739894,18.6364464 129.087184,18.624125 130.431782,18.6355536 C131.459665,18.6443036 132.460258,18.7810893 133.387418,19.2448393 C134.614056,19.8580536 135.031673,20.8569821 134.776363,22.4943036 C134.579225,23.756625 133.954056,24.3298393 132.602456,24.6109107 C130.851912,24.9746607 129.084491,24.7560893 127.557478,24.8296607" id="Fill-10" fill="#0D0D0D"></path>
                        <g id="Group-14" transform="translate(0.000000, 14.416429)">
                            <mask id="mask-6" fill="white">
                                <use xlink:href="#path-5"></use>
                            </mask>
                            <g id="Clip-13"></g>
                            <path d="M15.4968036,0.192625 C14.2985337,1.19566071 13.1011616,2.19994643 11.9014554,3.20155357 C11.2610256,3.73619643 10.640525,4.29869643 9.96562296,4.78691071 C9.49486126,5.12744643 9.57511697,5.32905357 9.97047062,5.64833929 C11.56966,6.93994643 13.1516132,8.25280357 14.7378754,9.56030357 C15.0116785,9.78601786 15.3239037,9.97566071 15.5334304,10.3706607 C13.9419614,10.4203036 12.409562,10.715125 11.1595838,9.28816071 C10.3651061,8.38101786 9.28946409,7.72208929 8.37325626,6.91441071 C8.00447497,6.58923214 7.75903972,6.60119643 7.39851741,6.91619643 C6.36650435,7.81798214 5.27829434,8.65673214 4.26333787,9.57619643 C3.58556311,10.190125 2.88408868,10.551375 1.93753808,10.4253036 C1.38849565,10.3520893 0.821498912,10.4119107 -8.97714908e-05,10.4119107 C1.5687568,9.11798214 2.94064472,7.986375 4.31307127,6.85530357 C4.79604189,6.45708929 5.25944233,6.03155357 5.76952394,5.67173214 C6.27008977,5.31833929 6.17385473,5.08566071 5.75085147,4.74244643 C4.06189064,3.37280357 2.39411589,1.97708929 0.723468444,0.585125 C0.572113711,0.458875 0.339066921,0.391375 0.313392274,0.0379821429 C1.74201578,0.0669107143 3.16794614,-0.315410714 4.36208651,0.978875 C5.18134113,1.86691071 6.2681148,2.50458929 7.16547062,3.32958929 C7.74341948,3.86101786 8.12423014,3.76619643 8.65837051,3.28405357 C9.54172198,2.48691071 10.6040778,1.86423214 11.394426,0.992089286 C12.5842573,-0.320767857 14.0240125,0.0890535714 15.4968036,0.192625" id="Fill-12" fill="#0D0D0D" mask="url(#mask-6)"></path>
                        </g>
                        <path d="M44.710673,20.0633393 C44.1540898,18.9933393 43.4350201,18.206375 42.8348079,17.3411964 C42.640722,17.0611964 42.4669244,17.146375 42.2909723,17.3999464 C41.7839429,18.130125 41.2614728,18.8497679 40.7397209,19.5697679 C40.5172671,19.8769107 40.5422236,20.061375 40.9663041,20.0624464 C42.1746284,20.0649464 43.3831322,20.0633393 44.710673,20.0633393 M34.5115544,24.7449464 C35.8389157,22.8733393 37.089253,21.1090536 38.3408471,19.3456607 C39.3039157,17.9890536 40.263932,16.6303036 41.2338232,15.2785179 C42.0275827,14.1722679 43.1992802,14.0695893 43.9716741,15.1494107 C46.1998025,18.2653036 48.3636545,21.4265536 50.5492312,24.5722679 C50.5770604,24.6124464 50.5578493,24.6847679 50.565031,24.832625 C49.8545794,24.832625 49.1482573,24.8253036 48.4421148,24.8356607 C48.0650745,24.8410179 47.8882247,24.5529821 47.7889374,24.3061964 C46.9264129,22.1649464 45.2918536,21.6647679 43.150265,21.9497679 C42.0351235,22.0983393 40.8835348,21.9935179 39.7490027,21.9706607 C39.2838069,21.9611964 38.9385457,22.0619107 38.7370985,22.5178036 C38.6424793,22.7315536 38.4776589,22.9145893 38.3447971,23.1115536 C37.0580125,25.020125 37.0580125,25.020125 34.5115544,24.7449464" id="Fill-15" fill="#0D0D0D"></path>
                        <path d="M90.5704032,14.435375 C91.8257677,14.435375 93.0838254,14.4855536 94.3354195,14.4175179 C95.1518014,14.3730536 95.2290049,14.7294821 95.246241,15.4084107 C95.265093,16.152875 95.0480256,16.3769821 94.2950223,16.3601964 C92.1440974,16.3126964 89.991377,16.3423393 87.8393749,16.345375 C87.541154,16.3457321 87.2423945,16.3589464 86.9448917,16.3809107 C86.0956534,16.4432321 85.6898863,16.8032321 85.759549,17.7471607 C85.8509363,18.9889464 85.8317252,20.2450179 85.7660125,21.4901964 C85.7177155,22.4034107 86.1739342,22.7559107 86.9675141,22.777875 C88.6394184,22.8244821 90.312759,22.8260893 91.9855609,22.8396607 C92.8821986,22.8468036 93.7791953,22.8546607 94.6754739,22.8346607 C95.2970517,22.8209107 95.2699407,23.2500179 95.206562,23.6225179 C95.1345653,24.045375 95.5694184,24.8184107 94.7298754,24.8037679 C91.8367198,24.754125 88.932253,25.0689464 86.0513063,24.6075179 C84.345648,24.3343036 83.2965783,23.3819821 83.4192062,21.5262679 C83.5032323,20.2534107 83.520648,18.9637679 83.4165131,17.6939464 C83.230327,15.4248393 84.7496197,14.7132321 86.3624543,14.5401964 C87.750142,14.3912679 89.1665566,14.5093036 90.5704032,14.5093036 C90.5704032,14.4844821 90.5704032,14.4600179 90.5704032,14.435375" id="Fill-17" fill="#0D0D0D"></path>
                        <path d="M71.828414,14.4378214 C73.5310201,14.4372857 75.234883,14.4733571 76.9360528,14.4219286 C77.7712867,14.39675 77.6445294,14.8903214 77.6560201,15.4005 C77.6684086,15.9385357 77.7247851,16.4026429 76.9128917,16.3549643 C75.8710038,16.2940714 74.8208569,16.3785357 73.7778917,16.3269286 C73.1415914,16.2953214 72.9564826,16.5044286 72.9651007,17.1253214 C72.995982,19.3828214 72.9467873,21.6419286 72.9952639,23.8987143 C73.0114227,24.6533571 72.7731692,24.9338929 72.0348885,24.8258571 C71.8302095,24.7958571 71.6127829,24.7940714 71.4090016,24.8269286 C70.7455903,24.9335357 70.6213466,24.6156786 70.6287078,24.0244286 C70.6574347,21.7369286 70.6154217,19.4487143 70.6558188,17.16175 C70.6678482,16.4876429 70.4646055,16.2890714 69.7979625,16.3255 C68.78534,16.3808571 67.7633814,16.2838929 66.753093,16.3569286 C65.9462269,16.4151429 65.8968526,16.0231786 65.9157046,15.403 C65.9331202,14.8321071 65.8645348,14.3819286 66.7211344,14.4174643 C68.4208678,14.4878214 70.1256284,14.4381786 71.828414,14.4378214" id="Fill-19" fill="#090909"></path>
                        <path d="M96.8343346,18.5828036 C96.8348732,17.4235179 96.8530071,16.2640536 96.8260756,15.1053036 C96.815303,14.6369107 96.8951997,14.4270893 97.4485511,14.4197679 C99.1779091,14.3970893 99.1779091,14.3695893 99.1780887,16.0767321 C99.1782682,17.8599464 99.1764728,19.6431607 99.1779091,21.4267321 C99.1788069,22.5011964 99.3583498,22.7479821 100.469182,22.778875 C102.588867,22.8379821 104.711603,22.8635179 106.831288,22.8204821 C107.628638,22.8044107 107.855581,23.0269107 107.837447,23.8156607 C107.82057,24.541375 107.724514,24.893875 106.867376,24.8461964 C104.426489,24.7103036 101.971059,25.022625 99.5351997,24.6128036 C97.7365381,24.310125 96.6756186,23.437625 96.8217666,21.4353036 C96.8908906,20.4890536 96.833796,19.533875 96.8343346,18.5828036" id="Fill-21" fill="#0D0D0D"></path>
                        <g id="Group-25" transform="translate(131.425462, 0.130714)">
                            <mask id="mask-8" fill="white">
                                <use xlink:href="#path-7"></use>
                            </mask>
                            <g id="Clip-24"></g>
                            <path d="M3.66441839,7.01617857 C1.67131175,7.01260714 0.0958220892,5.49564286 0.0837927095,3.56885714 C0.0717633297,1.66635714 1.6752617,0.0681428571 3.61612133,0.0479642857 C5.59486453,0.0274285714 7.27466866,1.65225 7.25294396,3.56582143 C7.23121926,5.48921429 5.63939119,7.01992857 3.66441839,7.01617857" id="Fill-23" fill="#090909" mask="url(#mask-8)"></path>
                        </g>
                        <path d="M79.2151893,19.5689464 C79.2151893,18.0857321 79.2419412,16.6019821 79.2015441,15.1200179 C79.1861034,14.5530536 79.3805484,14.4246607 79.9150479,14.4244821 C81.5144168,14.4239464 81.5145963,14.4018036 81.5147758,16.0243036 C81.5149554,18.6643036 81.4917943,21.3046607 81.5296779,23.9439464 C81.5397323,24.6521607 81.3187149,24.9268036 80.6158041,24.8280536 C80.3818596,24.7951964 80.1355267,24.7951964 79.9015822,24.8271607 C79.3187856,24.9075179 79.1965169,24.6193036 79.2038781,24.1071607 C79.2257824,22.5946607 79.2115985,21.0818036 79.2115985,19.5689464 L79.2151893,19.5689464 Z" id="Fill-26" fill="#090909"></path>
                        <path d="M136.984544,7.91489286 C138.151394,7.91757143 139.121106,8.85667857 139.113206,9.97667857 C139.105306,11.1298929 138.075088,12.1043571 136.892259,12.07775 C135.734386,12.0516786 134.787118,11.1107857 134.772754,9.97257143 C134.757852,8.79578571 135.707814,7.91185714 136.984544,7.91489286" id="Fill-28" fill="#0D0D0D"></path>
                        <path d="M141.082649,8.93871429 C139.905744,8.92764286 139.039988,8.07532143 139.039988,6.92746429 C139.039808,5.76585714 139.892638,4.93192857 141.085162,4.92728571 C142.260271,4.92282143 143.261762,5.87925 143.225853,6.97139286 C143.190483,8.04282143 142.203176,8.94925 141.082649,8.93871429" id="Fill-30" fill="#0D0D0D"></path>
                        <path d="M17.630636,21.3949464 C16.9165936,21.3949464 16.2016534,21.3731607 15.4888678,21.4035179 C15.0963868,21.4204821 14.9838134,21.2870893 14.9540092,20.9058393 C14.8466425,19.530125 14.8419744,19.5199464 16.1968058,19.5211964 C17.3869962,19.5222679 18.5782639,19.5542321 19.7666589,19.510125 C20.5480299,19.4811964 20.3647165,20.0049464 20.341735,20.4022679 C20.3187535,20.8019107 20.6309788,21.430125 19.7727633,21.397625 C19.0596186,21.3703036 18.344858,21.3919107 17.630636,21.3919107 L17.630636,21.3949464 Z" id="Fill-32" fill="#111921"></path>
                        <path d="M135.214196,15.728625 C134.436237,15.7200536 133.712858,14.9984464 133.733685,14.2516607 C133.755051,13.4813036 134.47825,12.8309464 135.281705,12.8600536 C136.044583,12.8875536 136.724871,13.5488036 136.733848,14.2718393 C136.742825,15.0000536 135.974202,15.7368393 135.214196,15.728625" id="Fill-34" fill="#0D0D0D"></path>
                        <path d="M131.289315,13.9559821 C131.880191,13.9709821 132.50895,14.6002679 132.495305,15.163125 C132.481301,15.7352679 131.844641,16.3629464 131.272079,16.3688393 C130.659658,16.3752679 129.997144,15.7020536 130.025512,15.1022321 C130.0537,14.5088393 130.679946,13.940625 131.289315,13.9559821" id="Fill-36" fill="#111921"></path>
                        <path d="M57.5832405,19.0843393 C56.6257378,19.0843393 55.6680555,19.0684464 54.7110914,19.091125 C54.2218368,19.1027321 54.0381643,18.9471964 54.0211077,18.4291607 C53.9521632,16.3407679 53.9336703,16.3414821 56.0528161,16.3413036 C57.5189641,16.3413036 58.9856507,16.3129107 60.450901,16.3484464 C61.8595952,16.3825536 62.0520653,16.6441607 62.0723536,17.9727321 C62.0829467,18.652375 61.8199162,19.0009464 61.1667388,19.013625 C59.972778,19.0371964 58.7779195,19.0204107 57.58342,19.0204107 C57.58342,19.0418393 57.5832405,19.0630893 57.5832405,19.0843393" id="Fill-38" fill="#FEFEFE"></path>
                        <path d="M27.9526877,19.2883571 C26.9370131,19.2883571 25.9207998,19.26675 24.9060229,19.2972857 C24.3869641,19.313 24.2603863,19.1171071 24.2496137,18.6215714 C24.2002394,16.3381786 24.1851578,16.3090714 26.4357291,16.3476429 C28.1327693,16.37675 29.8413003,16.1526429 31.5259521,16.4983571 C32.5484494,16.7083571 32.6337323,16.9147857 32.6003373,18.1646071 C32.5775354,19.0172857 32.0173613,19.2181786 31.3561045,19.24175 C30.2230087,19.2824643 29.0872198,19.2531786 27.9526877,19.2531786 C27.9526877,19.2647857 27.9526877,19.27675 27.9526877,19.2883571" id="Fill-40" fill="#FEFEFE"></path>
                        <path d="M44.710673,20.0633393 C43.3831322,20.0633393 42.1746284,20.0649464 40.9663041,20.0624464 C40.5422236,20.061375 40.5172671,19.8769107 40.7397209,19.5697679 C41.2614728,18.8497679 41.7839429,18.130125 42.2909723,17.3999464 C42.4669244,17.146375 42.640722,17.0611964 42.8348079,17.3411964 C43.4350201,18.206375 44.1540898,18.9933393 44.710673,20.0633393" id="Fill-42" fill="#FEFEFE"></path>
                    </g>
                </g>
            </g>
        </g>
    </g>
</svg>