<?xml version="1.0" encoding="UTF-8"?>
<svg width="12px" height="12px" viewBox="0 0 12 12" version="1.1" xmlns="http://www.w3.org/2000/svg" xmlns:xlink="http://www.w3.org/1999/xlink">
    <!-- Generator: Sketch 46.2 (44496) - http://www.bohemiancoding.com/sketch -->
    <title>Page 1 Copy</title>
    <desc>Created with Sketch.</desc>
    <defs></defs>
    <g id="Page-1" stroke="none" stroke-width="1" fill="none" fill-rule="evenodd">
        <g id="Home" transform="translate(-1602.000000, -103.000000)" fill="#000000">
            <g id="Group-2" transform="translate(1454.000000, 83.000000)">
                <path d="M153.364441,20.7095094 L153.226658,20.8472762 L153.226658,20.8472762 C152.836111,21.2377779 152.836075,21.8709428 153.226577,22.2614897 C153.227548,22.2624615 153.228522,22.2634312 153.229498,22.264399 L155.852861,24.866522 L149,24.866522 L149,24.866522 C148.447715,24.866522 148,25.3142373 148,25.866522 L148,26.069093 L148,26.069093 C148,26.6213777 148.447715,27.069093 149,27.069093 L155.853822,27.069093 L153.229496,29.6721764 L153.229496,29.6721764 C152.837388,30.0611106 152.834815,30.6942703 153.223749,31.0863783 C153.224717,31.0873537 153.225686,31.0883271 153.226657,31.0892985 L153.36437,31.2269947 L153.36437,31.2269947 C153.754916,31.6174964 154.388081,31.6174598 154.778583,31.2269129 C154.77942,31.226076 154.780255,31.2252376 154.781089,31.2243977 L159.300445,26.672309 L159.300445,26.672309 C159.687601,26.2823488 159.68757,25.6530575 159.300374,25.2631362 L154.78109,20.712035 L154.78109,20.712035 C154.391938,20.3201433 153.758777,20.3179223 153.366885,20.7070743 C153.366069,20.7078846 153.365254,20.7086963 153.364441,20.7095094 Z" id="Page-1-Copy"></path>
            </g>
        </g>
    </g>
</svg>