<?xml version="1.0" encoding="UTF-8"?>
<svg width="12px" height="11px" viewBox="0 0 12 11" version="1.1" xmlns="http://www.w3.org/2000/svg" xmlns:xlink="http://www.w3.org/1999/xlink">
    <!-- Generator: Sketch 46.2 (44496) - http://www.bohemiancoding.com/sketch -->
    <title>Page 1 Copy 6</title>
    <desc>Created with Sketch.</desc>
    <defs></defs>
    <g id="Page-1" stroke="none" stroke-width="1" fill="none" fill-rule="evenodd">
        <g id="Home" transform="translate(-1628.000000, -1126.000000)" fill="#E20674">
            <path d="M1633.60843,1126.27469 L1633.45043,1126.42482 L1633.45043,1126.42482 C1633.05006,1126.80523 1633.03388,1127.43819 1633.4143,1127.83857 C1633.42695,1127.85189 1633.43997,1127.86485 1633.45334,1127.87745 L1636.14462,1130.41417 L1629,1130.41417 L1629,1130.41417 C1628.44772,1130.41417 1628,1130.86188 1628,1131.41417 L1628,1131.58495 L1628,1131.58495 C1628,1132.13724 1628.44772,1132.58495 1629,1132.58495 L1636.14561,1132.58495 L1633.45334,1135.12261 L1633.45334,1135.12261 C1633.05144,1135.50143 1633.03273,1136.13431 1633.41155,1136.53621 C1633.42415,1136.54958 1633.43711,1136.5626 1633.45043,1136.57525 L1633.60836,1136.72531 L1633.60836,1136.72531 C1633.99537,1137.09302 1634.60297,1137.09191 1634.98863,1136.72278 L1639.691,1132.22193 L1639.691,1132.22193 C1640.08998,1131.84005 1640.10384,1131.20704 1639.72196,1130.80806 C1639.71184,1130.79749 1639.70149,1130.78714 1639.69092,1130.77703 L1634.98863,1126.27715 L1634.98863,1126.27715 C1634.60296,1125.90808 1633.99541,1125.907 1633.60843,1126.27469 Z" id="Page-1-Copy-6"></path>
        </g>
    </g>
</svg>