<?xml version="1.0" encoding="UTF-8"?>
<svg width="12px" height="12px" viewBox="0 0 12 12" version="1.1" xmlns="http://www.w3.org/2000/svg" xmlns:xlink="http://www.w3.org/1999/xlink">
    <!-- Generator: Sketch 46.2 (44496) - http://www.bohemiancoding.com/sketch -->
    <title>Page 1 Copy</title>
    <desc>Created with Sketch.</desc>
    <defs></defs>
    <g id="Page-1" stroke="none" stroke-width="1" fill="none" fill-rule="evenodd">
        <g id="Home" transform="translate(-409.000000, -813.000000)" fill="#FFFFFF">
            <g id="Group-4" transform="translate(280.000000, 793.000000)">
                <path d="M134.364441,20.2928524 L134.226658,20.4306191 L134.226658,20.4306191 C133.836111,20.8211208 133.836075,21.4542858 134.226577,21.8448327 C134.227548,21.8458044 134.228522,21.8467742 134.229498,21.8477419 L136.852861,24.449865 L130,24.449865 L130,24.449865 C129.447715,24.449865 129,24.8975802 129,25.449865 L129,25.6524359 L129,25.6524359 C129,26.2047207 129.447715,26.6524359 130,26.6524359 L136.853822,26.6524359 L134.229496,29.2555194 L134.229496,29.2555194 C133.837388,29.6444535 133.834815,30.2776133 134.223749,30.6697213 C134.224717,30.6706967 134.225686,30.67167 134.226657,30.6726414 L134.36437,30.8103376 L134.36437,30.8103376 C134.754916,31.2008393 135.388081,31.2008027 135.778583,30.8102558 C135.77942,30.8094189 135.780255,30.8085805 135.781089,30.8077407 L140.300445,26.255652 L140.300445,26.255652 C140.687601,25.8656918 140.68757,25.2364004 140.300374,24.8464792 L135.78109,20.2953779 L135.78109,20.2953779 C135.391938,19.9034862 134.758777,19.9012652 134.366885,20.2904173 C134.366069,20.2912276 134.365254,20.2920393 134.364441,20.2928524 Z" id="Page-1-Copy"></path>
            </g>
        </g>
    </g>
</svg>