<?xml version="1.0" encoding="UTF-8"?>
<svg width="48px" height="48px" viewBox="0 0 48 48" version="1.1" xmlns="http://www.w3.org/2000/svg" xmlns:xlink="http://www.w3.org/1999/xlink">
    <!-- Generator: Sketch 48.2 (47327) - http://www.bohemiancoding.com/sketch -->
    <title>Group 16</title>
    <desc>Created with Sketch.</desc>
    <defs></defs>
    <g id="Websites-From-£795" stroke="none" stroke-width="1" fill="none" fill-rule="evenodd" transform="translate(-1173.000000, -1222.000000)">
        <g id="Group-16" transform="translate(1173.000000, 1222.000000)">
            <circle id="Oval-4-Copy" fill-opacity="0.375622736" fill="#FFFFFF" cx="24" cy="24" r="24"></circle>
            <path d="M32.9437156,23.0007374 C32.9152512,22.7476625 32.6203092,22.5572913 32.3652174,22.5572913 C31.5404179,22.5572913 30.8085464,22.0733264 30.5014651,21.3241477 C30.1878538,20.5569699 30.3899514,19.6625432 31.0047837,19.0987965 C31.198342,18.9219036 31.2219508,18.625631 31.0593685,18.4199396 C30.6375085,17.8839031 30.1574638,17.3996033 29.6335503,16.9800163 C29.4285225,16.8155972 29.1276364,16.8384518 28.9497336,17.0353529 C28.4130948,17.6294887 27.4496566,17.850249 26.7049762,17.5395772 C25.9299894,17.2135016 25.4414054,16.4284085 25.4891252,15.5856348 C25.5047807,15.3207559 25.3115572,15.0905356 25.0476749,15.0598117 C24.375244,14.9822902 23.6970364,14.979695 23.0226799,15.0545375 C22.7617278,15.083336 22.5680858,15.308031 22.57696,15.569645 C22.6063453,16.4041307 22.111901,17.175578 21.3447001,17.4898496 C20.6088938,17.7903918 19.6519857,17.5713058 19.1166865,16.9823604 C18.9397045,16.7883893 18.643423,16.7645301 18.4373906,16.9254332 C17.8981565,17.3486199 17.4073121,17.8332546 16.9815173,18.3649379 C16.8154188,18.5716339 16.8396136,18.8711714 17.0350974,19.048734 C17.6613992,19.6161642 17.8638317,20.5187115 17.538416,21.2944283 C17.2277348,22.0343982 16.459613,22.5112472 15.5798938,22.5112472 C15.2946632,22.5017035 15.0913098,22.6933305 15.06025,22.953019 C14.9810519,23.6289458 14.980131,24.3180161 15.0563153,24.9994681 C15.0844448,25.2535476 15.3885959,25.4422445 15.6466179,25.4422445 C16.430144,25.42232 17.1826103,25.9072895 17.4982309,26.6754719 C17.8128469,27.4426496 17.6107492,28.3367415 16.9949123,28.9011579 C16.8026098,29.0780508 16.7780801,29.3736537 16.9403275,29.579345 C17.3585876,30.1117818 17.8382974,30.5964164 18.3642202,31.0195195 C18.5705038,31.1856967 18.8703852,31.1625072 19.0492927,30.9652712 C19.5876058,30.3697959 20.5512952,30.1493705 21.2930455,30.460712 C22.0697066,30.7857831 22.5582906,31.5708761 22.5105708,32.4139847 C22.4948316,32.6788636 22.6894783,32.9097536 22.9523559,32.9398079 C23.2961061,32.9799918 23.642033,33 23.9890483,33 C24.3183988,33 24.6476656,32.982001 24.9770161,32.9453331 C25.2383031,32.9166184 25.4315265,32.6915885 25.422736,32.4299746 C25.3926809,31.5957399 25.8881299,30.8242927 26.6539913,30.5106908 C27.394737,30.2082232 28.3477103,30.4296532 28.8830095,31.017594 C29.0612473,31.2112302 29.3552684,31.2347545 29.5622217,31.0745212 C30.1008697,30.652339 30.5904584,30.1680393 31.0185136,29.6349328 C31.1846121,29.4289065 31.1610871,29.128783 30.9645149,28.9508855 C30.3382968,28.3837901 30.1348597,27.4812429 30.4602754,26.7058609 C30.766352,25.975937 31.5060931,25.4857771 32.3017584,25.4857771 L32.4129372,25.4887072 C32.6709592,25.5096363 32.9083862,25.3108097 32.9397808,25.0476051 C33.0188953,24.3706737 33.0198999,23.6822732 32.9437156,23.0007374 Z M24.0142477,27.0211372 C22.3587883,27.0211372 21.0120845,25.674474 21.0120845,24.0190645 C21.0120845,22.3637388 22.3587883,21.0170757 24.0142477,21.0170757 C25.6696234,21.0170757 27.0163271,22.3637388 27.0163271,24.0190645 C27.0163271,25.674474 25.6696234,27.0211372 24.0142477,27.0211372 Z" id="001-settings-work-tool-copy" fill="#F3F3F3"></path>
        </g>
    </g>
</svg>