<?xml version="1.0" encoding="UTF-8"?>
<svg width="48px" height="48px" viewBox="0 0 48 48" version="1.1" xmlns="http://www.w3.org/2000/svg" xmlns:xlink="http://www.w3.org/1999/xlink">
    <!-- Generator: Sketch 48.2 (47327) - http://www.bohemiancoding.com/sketch -->
    <title>Group 7</title>
    <desc>Created with Sketch.</desc>
    <defs></defs>
    <g id="Websites-From-£795" stroke="none" stroke-width="1" fill="none" fill-rule="evenodd" transform="translate(-704.000000, -664.000000)">
        <g id="Group-7" transform="translate(704.000000, 664.000000)">
            <circle id="Oval-4" fill="#E0E0E0" cx="24" cy="24" r="24"></circle>
            <g id="envelope" transform="translate(16.000000, 18.000000)" fill="#212121">
                <path d="M1.53312821,3.89989744 C1.73511111,4.04252991 2.34406838,4.46564103 3.36,5.16964103 C4.37661538,5.87418803 5.15487179,6.41641026 5.69545299,6.79630769 C5.75480342,6.83788034 5.8814359,6.92868376 6.07425641,7.06817094 C6.26762393,7.20806838 6.42789744,7.32075214 6.55562393,7.40676923 C6.68321368,7.49333333 6.83760684,7.58947009 7.01921368,7.69682051 C7.2002735,7.80376068 7.37121368,7.88389744 7.53148718,7.93723077 C7.69230769,7.99070085 7.84082051,8.01736752 7.97757265,8.01736752 L7.99521368,8.01736752 C8.13196581,8.01736752 8.28047863,7.99070085 8.44129915,7.93723077 C8.6014359,7.88389744 8.77237607,7.80321368 8.95357265,7.69682051 C9.13463248,7.58947009 9.28902564,7.49333333 9.41716239,7.40676923 C9.54488889,7.32075214 9.70516239,7.20806838 9.89798291,7.06817094 C10.0913504,6.92868376 10.2179829,6.83788034 10.2771966,6.79630769 C10.8236581,6.41586325 12.2141538,5.45066667 14.4486838,3.89935043 C14.8824615,3.59644444 15.2447179,3.23104274 15.5357265,2.8031453 C15.8268718,2.37524786 15.9727863,1.92711111 15.9727863,1.45750427 C15.9727863,1.0654359 15.8312479,0.729435897 15.5491282,0.450051282 C15.2671453,0.170666667 14.9326496,0.0313162393 14.5464615,0.0313162393 L1.42632479,0.0313162393 C0.968478632,0.0313162393 0.616478632,0.185709402 0.369641026,0.494905983 C0.123350427,0.803692308 0,1.18988034 0,1.65360684 C0,2.02803419 0.163418803,2.43350427 0.490393162,2.8705641 C0.816820513,3.30694017 1.1645812,3.65046154 1.53312821,3.89989744 Z" id="Fill-1"></path>
                <path d="M15.0811624,4.85347009 C13.1324444,6.17230769 11.6527863,7.19740171 10.6425983,7.92820513 C10.304,8.17818803 10.0288547,8.37264957 9.81784615,8.512 C9.60738462,8.65203419 9.32635897,8.79466667 8.976,8.93989744 C8.62495726,9.08581197 8.29866667,9.15842735 7.99521368,9.15842735 L7.97757265,9.15842735 C7.67411966,9.15842735 7.34728205,9.08581197 6.99678632,8.93989744 C6.64642735,8.79466667 6.36540171,8.65203419 6.15439316,8.512 C5.94393162,8.37264957 5.66878632,8.17818803 5.33018803,7.92820513 C4.5277265,7.34003419 3.05121368,6.31494017 0.900102564,4.85347009 C0.561367521,4.6274188 0.261196581,4.36895726 0,4.07781197 L0,11.154735 C0,11.5473504 0.139487179,11.8828034 0.418735043,12.162188 C0.698119658,12.4415726 1.03411966,12.5809231 1.42632479,12.5809231 L14.5464615,12.5809231 C14.9385299,12.5809231 15.2745299,12.4415726 15.5539145,12.162188 C15.8332991,11.8828034 15.9727863,11.5473504 15.9727863,11.154735 L15.9727863,4.07781197 C15.7169231,4.36307692 15.4198974,4.62153846 15.0811624,4.85347009 Z" id="Fill-3"></path>
            </g>
        </g>
    </g>
</svg>