<?xml version="1.0" encoding="UTF-8"?>
<svg width="16px" height="25px" viewBox="0 0 16 25" version="1.1" xmlns="http://www.w3.org/2000/svg" xmlns:xlink="http://www.w3.org/1999/xlink">
    <!-- Generator: Sketch 48.2 (47327) - http://www.bohemiancoding.com/sketch -->
    <title>sand-clock</title>
    <desc>Created with Sketch.</desc>
    <defs></defs>
    <g id="Websites-From-£795" stroke="none" stroke-width="1" fill="none" fill-rule="evenodd" transform="translate(-587.000000, -1287.000000)">
        <g id="sand-clock" transform="translate(587.000000, 1287.000000)" fill="#212121">
            <path d="M3.328125,15.2927246 L6.071875,12.8916504 C6.18540039,12.7927246 6.25,12.65 6.25,12.5 C6.25,12.35 6.18540039,12.2072754 6.071875,12.1083496 L3.328125,9.70727539 C2.5375,9.01459961 2.08334961,8.01459961 2.08334961,6.96352539 L2.08334961,3.125 L13.5416504,3.125 L13.5416504,6.96352539 C13.5416504,8.01459961 13.0875,9.01459961 12.296875,9.70727539 L9.553125,12.1083496 C9.43959961,12.2072754 9.375,12.35 9.375,12.5 C9.375,12.65 9.43959961,12.7927246 9.553125,12.8916504 L12.296875,15.2927246 C13.0885254,15.9854004 13.5416504,16.9854004 13.5416504,18.0364746 L13.5416504,21.875 L2.08334961,21.875 L2.08334961,18.0364746 C2.08334961,16.9854004 2.5375,15.9854004 3.328125,15.2927246 Z M14.5833496,21.9708496 L14.5833496,18.0364746 C14.5833496,16.6854004 14,15.3989746 12.9822754,14.5083496 L10.6864746,12.5 L12.9822754,10.4916504 C14,9.60102539 14.5833496,8.31459961 14.5833496,6.96352539 L14.5833496,3.02915039 C15.1885254,2.81352539 15.625,2.240625 15.625,1.5625 C15.625,0.701025391 14.9239746,0 14.0625,0 L1.5625,0 C0.701025391,0 0,0.701025391 0,1.5625 C0,2.240625 0.436474609,2.81352539 1.04165039,3.02915039 L1.04165039,6.96352539 C1.04165039,8.31459961 1.625,9.60102539 2.64272461,10.4916504 L4.93852539,12.5 L2.64272461,14.5083496 C1.625,15.3989746 1.04165039,16.6854004 1.04165039,18.0364746 L1.04165039,21.9708496 C0.436474609,22.1864746 0,22.759375 0,23.4375 C0,24.2989746 0.701025391,25 1.5625,25 L14.0625,25 C14.9239746,25 15.625,24.2989746 15.625,23.4375 C15.625,22.759375 15.1885254,22.1864746 14.5833496,21.9708496 Z" id="Fill-1"></path>
            <path d="M3.64584961,20.8333496 L11.9791504,20.8333496 C12.1791504,20.8333496 12.3614746,20.71875 12.4489746,20.5385254 C12.5354004,20.3583496 12.5114746,20.14375 12.3864746,19.9875 L8.21977539,14.7791504 C8.021875,14.5322754 7.60415039,14.5322754 7.40625,14.7791504 L3.23959961,19.9875 C3.11459961,20.14375 3.090625,20.3583496 3.17709961,20.5385254 C3.26352539,20.71875 3.44584961,20.8333496 3.64584961,20.8333496" id="Fill-4"></path>
            <path d="M7.8125,11.4583496 C7.94584961,11.4583496 8.07915039,11.4072754 8.18125,11.30625 L10.2645996,9.22290039 C10.4135254,9.07397461 10.4583496,8.85 10.3770996,8.65522461 C10.296875,8.46040039 10.10625,8.33334961 9.89584961,8.33334961 L5.72915039,8.33334961 C5.51875,8.33334961 5.328125,8.46040039 5.24790039,8.65522461 C5.16665039,8.85 5.21147461,9.07290039 5.36040039,9.22290039 L7.44375,11.30625 C7.54584961,11.4072754 7.67915039,11.4583496 7.8125,11.4583496" id="Fill-5"></path>
        </g>
    </g>
</svg>