<?xml version="1.0" encoding="UTF-8"?>
<svg width="25px" height="25px" viewBox="0 0 25 25" version="1.1" xmlns="http://www.w3.org/2000/svg" xmlns:xlink="http://www.w3.org/1999/xlink">
    <!-- Generator: Sketch 46.2 (44496) - http://www.bohemiancoding.com/sketch -->
    <title>Page 1 Copy 3</title>
    <desc>Created with Sketch.</desc>
    <defs>
        <polygon id="path-1" points="24.8620956 24.8397436 0 24.8397436 0 0.13698388 24.8620956 0.13698388"></polygon>
    </defs>
    <g id="Page-1" stroke="none" stroke-width="1" fill="none" fill-rule="evenodd">
        <g id="Contact" transform="translate(-294.000000, -757.000000)">
            <g id="Group-6" transform="translate(294.000000, 756.000000)">
                <g id="Page-1-Copy-3" transform="translate(0.000000, 1.000000)">
                    <g id="Group-3" transform="translate(0.000000, 0.045661)">
                        <mask id="mask-2" fill="white">
                            <use xlink:href="#path-1"></use>
                        </mask>
                        <g id="Clip-2"></g>
                        <path d="M22.6562132,18.022476 C22.6562132,20.5731158 20.5681618,22.647965 18.0010662,22.647965 L6.86099265,22.647965 C4.29389706,22.647965 2.20584559,20.5731158 2.20584559,18.022476 L2.20584559,6.95399581 C2.20584559,4.40335596 4.29389706,2.32868943 6.86099265,2.32868943 L18.0010662,2.32868943 C20.5681618,2.32868943 22.6562132,4.40335596 22.6562132,6.95399581 L22.6562132,18.022476 Z M18.0010662,0.136947351 L6.86099265,0.136947351 C3.07753676,0.136947351 -3.67647059e-05,3.19479285 -3.67647059e-05,6.95399581 L-3.67647059e-05,18.022476 C-3.67647059e-05,21.7818616 3.07753676,24.8398897 6.86099265,24.8398897 L18.0010662,24.8398897 C21.7845221,24.8398897 24.8620956,21.7813136 24.8620956,18.022476 L24.8620956,6.95399581 C24.8620956,3.19479285 21.7845221,0.136947351 18.0010662,0.136947351 L18.0010662,0.136947351 Z" id="Fill-1" fill="#555555" mask="url(#mask-2)"></path>
                    </g>
                    <path d="M12.4310294,16.7069376 C10.1152206,16.7069376 8.23029412,14.8355551 8.23029412,12.5340433 C8.23029412,10.2330794 10.1144853,8.36023579 12.4310294,8.36023579 C14.7475735,8.36023579 16.6317647,10.2330794 16.6317647,12.5340433 C16.6317647,14.8355551 14.7468382,16.7069376 12.4310294,16.7069376 M12.4310294,6.16922429 C8.898125,6.16922429 6.02441176,9.02451628 6.02441176,12.5340433 C6.02441176,16.0441182 8.898125,18.8994102 12.4310294,18.8994102 C15.9631985,18.8994102 18.8376471,16.0441182 18.8376471,12.5340433 C18.8376471,9.02451628 15.9631985,6.16922429 12.4310294,6.16922429" id="Fill-4" fill="#555555"></path>
                    <path d="M19.1062132,4.31060874 C18.6810294,4.31060874 18.26375,4.48119933 17.96375,4.78073742 C17.6613603,5.07899698 17.4883824,5.49433211 17.4883824,5.91806891 C17.4883824,6.34034455 17.6620956,6.7549491 17.96375,7.05466982 C18.2631985,7.35274675 18.6810294,7.5247985 19.1062132,7.5247985 C19.5326838,7.5247985 19.9484926,7.35274675 20.2499632,7.05466982 C20.5516176,6.7549491 20.7238603,6.33979662 20.7238603,5.91806891 C20.7238603,5.49433211 20.5516176,5.07899698 20.2499632,4.78073742 C19.9497794,4.48119933 19.5326838,4.31060874 19.1062132,4.31060874" id="Fill-6" fill="#555555"></path>
                </g>
            </g>
        </g>
    </g>
</svg>