<?xml version="1.0" encoding="UTF-8"?>
<svg width="25px" height="24px" viewBox="0 0 25 24" version="1.1" xmlns="http://www.w3.org/2000/svg" xmlns:xlink="http://www.w3.org/1999/xlink">
    <!-- Generator: Sketch 46.2 (44496) - http://www.bohemiancoding.com/sketch -->
    <title>001-linkedin-logo</title>
    <desc>Created with Sketch.</desc>
    <defs>
        <polygon id="path-1" points="1.50225838e-18 0 0 23.9408867 24.8275862 23.9408867 24.8275862 0"></polygon>
    </defs>
    <g id="Page-1" stroke="none" stroke-width="1" fill="none" fill-rule="evenodd">
        <g id="Home" transform="translate(-1328.000000, -4316.000000)">
            <g id="001-linkedin-logo" transform="translate(1328.000000, 4316.000000)">
                <mask id="mask-2" fill="white">
                    <use xlink:href="#path-1"></use>
                </mask>
                <g id="Clip-2"></g>
                <path d="M24.8275862,14.6781325 L24.8275862,23.9408867 L19.5062656,23.9408867 L19.5062656,15.2984163 C19.5062656,13.1274594 18.7365321,11.6458847 16.8103223,11.6458847 C15.3399783,11.6458847 14.4651171,12.6442074 14.080106,13.6101289 C13.9396953,13.9554025 13.9036186,14.436106 13.9036186,14.9195764 L13.9036186,23.9408867 L8.58034984,23.9408867 C8.58034984,23.9408867 8.65192611,9.30367446 8.58034984,7.78715011 L13.9031135,7.78715011 L13.9031135,10.0767174 C13.892074,10.0938282 13.8782927,10.1123224 13.868119,10.1290691 L13.9031135,10.1290691 L13.9031135,10.0767174 C14.6102178,8.9777688 15.8731926,7.40743653 18.6998781,7.40743653 C22.2021368,7.40743653 24.8275862,9.71637179 24.8275862,14.6781325 Z M3.01211998,0 C1.19110997,0 0,1.20539949 0,2.79043975 C0,4.34111284 1.15669275,5.58320948 2.94140955,5.58320948 L2.97719769,5.58320948 C4.83341861,5.58320948 5.9878746,4.34140408 5.9878746,2.79043975 C5.95295231,1.20539949 4.83341861,0 3.01211998,0 Z M0.316248788,23.9408867 L5.63728075,23.9408867 L5.63728075,7.78715011 L0.316248788,7.78715011 L0.316248788,23.9408867 Z" id="Fill-1" fill="#FFFFFF" mask="url(#mask-2)"></path>
            </g>
        </g>
    </g>
</svg>