<?xml version="1.0" encoding="UTF-8"?>
<svg width="31px" height="44px" viewBox="0 0 31 44" version="1.1" xmlns="http://www.w3.org/2000/svg" xmlns:xlink="http://www.w3.org/1999/xlink">
    <!-- Generator: Sketch 46.2 (44496) - http://www.bohemiancoding.com/sketch -->
    <title>placeholder</title>
    <desc>Created with Sketch.</desc>
    <defs>
        <linearGradient x1="100%" y1="0%" x2="0%" y2="100%" id="linearGradient-1">
            <stop stop-color="#E20674" offset="0%"></stop>
            <stop stop-color="#A10489" offset="37.5908213%"></stop>
            <stop stop-color="#3400AC" offset="100%"></stop>
        </linearGradient>
    </defs>
    <g id="Page-1" stroke="none" stroke-width="1" fill="none" fill-rule="evenodd">
        <g id="Contact" transform="translate(-1322.000000, -827.000000)" fill="url(#linearGradient-1)">
            <path d="M1348.46392,831.513001 C1345.53569,828.605114 1341.64351,827 1337.50377,827 C1333.35898,827 1329.46781,828.605114 1326.53857,831.513001 C1321.12367,836.899874 1320.44871,847.030773 1325.08254,853.170985 L1337.50377,871 L1349.90075,853.195092 C1354.55479,847.030773 1353.87983,836.899874 1348.46392,831.513001 Z M1337.64523,847.893597 C1334.52401,847.893597 1331.98581,845.370414 1331.98581,842.267664 C1331.98581,839.167926 1334.52401,836.644744 1337.64523,836.644744 C1340.76342,836.644744 1343.30162,839.167926 1343.30162,842.267664 C1343.30162,845.370414 1340.76342,847.893597 1337.64523,847.893597 Z" id="placeholder"></path>
        </g>
    </g>
</svg>