<?xml version="1.0" encoding="UTF-8"?>
<svg width="48px" height="48px" viewBox="0 0 48 48" version="1.1" xmlns="http://www.w3.org/2000/svg" xmlns:xlink="http://www.w3.org/1999/xlink">
    <!-- Generator: Sketch 48.2 (47327) - http://www.bohemiancoding.com/sketch -->
    <title>Group 12</title>
    <desc>Created with Sketch.</desc>
    <defs></defs>
    <g id="Websites-From-£795" stroke="none" stroke-width="1" fill="none" fill-rule="evenodd" transform="translate(-1173.000000, -877.000000)">
        <g id="Group-12" transform="translate(1173.000000, 877.000000)">
            <circle id="Oval-4" fill-opacity="0.375622736" fill="#FFFFFF" cx="24" cy="24" r="24"></circle>
            <path d="M31.6352626,23.5398931 C31.3920665,23.3011222 31.0970501,23.1819607 30.7496434,23.1819607 L30.3332,23.1819607 L30.3332,20.727143 C30.3332,19.1590686 29.7604407,17.8125262 28.6145231,16.6876277 C27.4687765,15.5625052 26.0974493,15 24.4999143,15 C22.9025504,15 21.5310522,15.5625052 20.3853055,16.6876277 C19.2393879,17.8125262 18.6666286,19.1590686 18.6666286,20.727143 L18.6666286,23.1819607 L18.2499572,23.1819607 C17.9027786,23.1819607 17.6077052,23.3011222 17.3645661,23.5398931 C17.121598,23.7782162 17,24.0680883 17,24.4091736 L17,31.7727871 C17,32.1136484 17.121598,32.4035765 17.3645661,32.6423474 C17.6077052,32.8806146 17.9027786,33 18.2499572,33 L30.7500995,33 C31.0974492,33 31.3922945,32.8808384 31.6354906,32.6423474 C31.8784586,32.4035765 31.9999997,32.1136484 31.9999997,31.7727871 L31.9999997,24.4091736 C32.0002277,24.0683122 31.8784586,23.7783841 31.6352626,23.5398931 Z M27.8333426,23.1819607 L21.1667141,23.1819607 L21.1667141,20.727143 C21.1667141,19.8239443 21.4922867,19.0523885 22.143204,18.4133154 C22.7943492,17.7742423 23.5799764,17.4545938 24.5001424,17.4545938 C25.4204794,17.4545938 26.2057074,17.7742423 26.8568527,18.4133154 C27.50777,19.0523885 27.8333426,19.8239443 27.8333426,20.727143 L27.8333426,23.1819607 Z" id="003-padlock" fill="#F3F3F3"></path>
        </g>
    </g>
</svg>