<?xml version="1.0" encoding="UTF-8"?>
<svg width="30px" height="30px" viewBox="0 0 30 30" version="1.1" xmlns="http://www.w3.org/2000/svg" xmlns:xlink="http://www.w3.org/1999/xlink">
    <!-- Generator: Sketch 46.2 (44496) - http://www.bohemiancoding.com/sketch -->
    <title>002-rounded-pause-button</title>
    <desc>Created with Sketch.</desc>
    <defs></defs>
    <g id="Page-1" stroke="none" stroke-width="1" fill="none" fill-rule="evenodd">
        <g id="Wedgewood-Project" transform="translate(-429.000000, -1508.000000)" fill="#212121">
            <g id="002-rounded-pause-button" transform="translate(429.000000, 1508.000000)">
                <path d="M10.5000735,21.0001471 L13.5001471,21.0001471 L13.5001471,8.99985294 L10.5000735,8.99985294 L10.5000735,21.0001471 Z M15,0 C6.75007353,0 0,6.75007353 0,15 C0,23.2499265 6.75007353,30 15,30 C23.2499265,30 30,23.2499265 30,15 C30,6.75007353 23.2499265,0 15,0 Z M15,26.9999265 C8.39985294,26.9999265 3.00007353,21.6001471 3.00007353,15 C3.00007353,8.39985294 8.39985294,3.00007353 15,3.00007353 C21.6001471,3.00007353 26.9999265,8.39985294 26.9999265,15 C26.9999265,21.6001471 21.6001471,26.9999265 15,26.9999265 Z M16.4998529,21.0001471 L19.4999265,21.0001471 L19.4999265,8.99985294 L16.4998529,8.99985294 L16.4998529,21.0001471 Z" id="Fill-1"></path>
            </g>
        </g>
    </g>
</svg>