<?xml version="1.0" encoding="UTF-8"?>
<svg width="30px" height="30px" viewBox="0 0 30 30" version="1.1" xmlns="http://www.w3.org/2000/svg" xmlns:xlink="http://www.w3.org/1999/xlink">
    <!-- Generator: Sketch 46.2 (44496) - http://www.bohemiancoding.com/sketch -->
    <title>001-play-button</title>
    <desc>Created with Sketch.</desc>
    <defs></defs>
    <g id="Page-1" stroke="none" stroke-width="1" fill="none" fill-rule="evenodd">
        <g id="Wedgewood-Project" transform="translate(-430.000000, -1554.000000)" fill="#212121">
            <g id="001-play-button" transform="translate(430.000000, 1554.000000)">
                <path d="M27.905,7.56785714 C23.7755952,0.415714286 14.6303571,-2.03452381 7.47904762,2.09535714 C0.326904762,6.22392857 -2.12380952,15.3691667 2.00619048,22.5203571 C6.13464286,29.672619 15.28,32.1232143 22.4316667,27.9938095 C29.5833333,23.8639286 32.0354762,14.7190476 27.905,7.56785714 Z M20.9365476,25.4030952 C15.2157143,28.7071429 7.89904762,26.7465476 4.59583333,21.024881 C1.2922619,15.3040476 3.25333333,7.9872619 8.97416667,4.68511905 C14.6953571,1.38107143 22.0116667,3.34166667 25.314881,9.06333333 C28.6184524,14.7846429 26.6578571,22.1 20.9365476,25.4030952 Z M20.3385714,14.4367857 L12.5088095,9.8702381 C11.795,9.45357143 11.2197619,9.78654762 11.2234524,10.6119048 L11.2634524,19.6758333 C11.2672619,20.5011905 11.849881,20.8370238 12.5655952,20.4235714 L20.3357143,15.9378571 C21.0504762,15.525 21.0519048,14.8529762 20.3385714,14.4367857 Z" id="Fill-1"></path>
            </g>
        </g>
    </g>
</svg>