<?xml version="1.0" encoding="UTF-8"?>
<svg width="48px" height="48px" viewBox="0 0 48 48" version="1.1" xmlns="http://www.w3.org/2000/svg" xmlns:xlink="http://www.w3.org/1999/xlink">
    <!-- Generator: Sketch 46.2 (44496) - http://www.bohemiancoding.com/sketch -->
    <title>Group 6 Copy 2</title>
    <desc>Created with Sketch.</desc>
    <defs></defs>
    <g id="Page-1" stroke="none" stroke-width="1" fill="none" fill-rule="evenodd">
        <g id="Services" transform="translate(-476.000000, -2946.000000)">
            <g id="Group-6-Copy-2" transform="translate(476.000000, 2946.000000)">
                <circle id="Oval-4" fill="#F3F3F3" cx="24" cy="24" r="24"></circle>
                <path d="M27.335,28.6 C29.4,28.6 30.59,27.165 30.59,25.415 L30.59,25.275 C30.59,23.98 29.645,22.51 27.825,22.51 L27.685,22.51 C28.14,21.075 29.365,19.29 30.94,18.1 L27.615,18.1 C25.725,19.885 24.08,22.405 24.08,24.925 L24.08,25.345 C24.08,27.095 25.165,28.6 27.335,28.6 Z M18.83,28.6 C20.895,28.6 22.085,27.165 22.085,25.415 L22.085,25.275 C22.085,23.98 21.14,22.51 19.32,22.51 L19.18,22.51 C19.635,21.075 20.86,19.29 22.435,18.1 L19.11,18.1 C17.22,19.885 15.575,22.405 15.575,24.925 L15.575,25.345 C15.575,27.095 16.66,28.6 18.83,28.6 Z" id="“" fill="#212121"></path>
            </g>
        </g>
    </g>
</svg>