<?xml version="1.0" encoding="UTF-8"?>
<svg width="48px" height="48px" viewBox="0 0 48 48" version="1.1" xmlns="http://www.w3.org/2000/svg" xmlns:xlink="http://www.w3.org/1999/xlink">
    <!-- Generator: Sketch 46.2 (44496) - http://www.bohemiancoding.com/sketch -->
    <title>Group 47</title>
    <desc>Created with Sketch.</desc>
    <defs></defs>
    <g id="Page-1" stroke="none" stroke-width="1" fill="none" fill-rule="evenodd">
        <g id="Web-Design-Service" transform="translate(-936.000000, -4257.000000)">
            <g id="Group-47" transform="translate(936.000000, 4257.000000)">
                <circle id="Oval-4" fill="#555555" cx="24" cy="24" r="24"></circle>
                <path d="M28.9725025,21.1734676 C28.924206,21.0677347 28.8203751,21.0001025 28.7060749,21.0001025 L25.2207162,21.0001025 L28.6604927,15.4605491 C28.7177074,15.3680438 28.7212403,15.2511487 28.6695833,15.1553474 C28.6177109,15.0594144 28.5189638,15 28.4119016,15 L23.7060771,15 C23.5946635,15 23.4928144,15.0642044 23.4428377,15.1658065 L19.031014,24.1658944 C18.9853887,24.2586194 18.9904295,24.3689666 19.0439821,24.4575608 C19.0978364,24.5459792 19.192232,24.6000322 19.2942104,24.6000322 L22.3186201,24.6000322 L19.0230867,32.583704 C18.966906,32.7201549 19.0168827,32.8786225 19.1407474,32.9560545 C19.1883545,32.9857177 19.2413902,33 19.294038,33 C19.3783522,33 19.4616754,32.9630858 19.5192348,32.8935639 L28.9310994,21.493479 C29.004815,21.4041817 29.0206266,21.2794203 28.9725025,21.1734676 Z" id="002-flash" fill="#F3F3F3"></path>
            </g>
        </g>
    </g>
</svg>