<?xml version="1.0" encoding="UTF-8"?>
<svg width="123px" height="21px" viewBox="0 0 123 21" version="1.1" xmlns="http://www.w3.org/2000/svg" xmlns:xlink="http://www.w3.org/1999/xlink">
    <!-- Generator: Sketch 46.2 (44496) - http://www.bohemiancoding.com/sketch -->
    <title>Group 8</title>
    <desc>Created with Sketch.</desc>
    <defs>
        <polygon id="path-1" points="0 20.743865 0 0 24.9380368 0 24.9380368 20.743865"></polygon>
    </defs>
    <g id="Page-1" stroke="none" stroke-width="1" fill="none" fill-rule="evenodd">
        <g id="Blog-Article" transform="translate(-898.000000, -2072.000000)">
            <g id="Group-8" transform="translate(898.000000, 2072.000000)">
                <g id="Page-1-Copy-2">
                    <mask id="mask-2" fill="white">
                        <use xlink:href="#path-1"></use>
                    </mask>
                    <g id="Clip-2"></g>
                    <path d="M24.5414724,2.41317485 C23.9874847,2.65888037 23.4121779,2.8527454 22.8219939,2.99308282 C23.4723006,2.37498466 23.9612577,1.60197853 24.2371779,0.739248466 C24.3158589,0.492929448 24.0483742,0.280046012 23.8259816,0.411947853 C23.004816,0.898911043 22.1204601,1.26424847 21.1971472,1.4979908 C21.1436196,1.51148773 21.0882515,1.51838957 21.0328834,1.51838957 C20.8646319,1.51838957 20.7012883,1.45596626 20.5726074,1.3426227 C19.5903988,0.476825153 18.3269018,-1.53374233e-05 17.0152454,-1.53374233e-05 C16.4477607,-1.53374233e-05 15.8746012,0.0884815951 15.3118712,0.262868098 C13.5686196,0.803665644 12.2235276,2.24170245 11.8015951,4.01593558 C11.6431595,4.68142638 11.6003681,5.3473773 11.6739877,5.99553681 C11.6824233,6.07007669 11.6473006,6.12207055 11.6255215,6.14645706 C11.5874847,6.18924847 11.5333436,6.21363497 11.4772086,6.21363497 C11.4709202,6.21363497 11.4644785,6.21332822 11.4581902,6.21271472 C7.64208589,5.85826687 4.2009816,4.01976994 1.76861963,1.03602761 C1.64453988,0.883880368 1.40665644,0.902592025 1.30788344,1.07222393 C0.831503067,1.88924847 0.579969325,2.82406442 0.579969325,3.77498466 C0.579969325,5.23265337 1.16539877,6.60611963 2.18257669,7.6075 C1.75481595,7.50611963 1.34070552,7.34645706 0.956349693,7.13280675 C0.770306748,7.02943252 0.541319018,7.1622546 0.538711656,7.37513804 C0.51202454,9.54032209 1.77981595,11.4670092 3.67889571,12.3346472 C3.64070552,12.3354141 3.60236196,12.3358742 3.56417178,12.3358742 C3.26309816,12.3358742 2.95819018,12.3068865 2.65819018,12.2495245 C2.44868098,12.2094939 2.27276074,12.4082669 2.33763804,12.6114877 C2.95420245,14.5358742 4.61110429,15.9544325 6.59392638,16.276365 C4.94837423,17.3811196 3.03196319,17.9639417 1.03733129,17.9639417 L0.415398773,17.9634816 C0.223834356,17.9634816 0.0618711656,18.0883282 0.0129447853,18.273911 C-0.0350613497,18.4567331 0.0535889571,18.6493712 0.216932515,18.7444632 C2.4646319,20.052592 5.02812883,20.7440031 7.63196319,20.7440031 C9.91110429,20.7440031 12.0431595,20.2915491 13.9686196,19.3996779 C15.7338037,18.5818865 17.293773,17.4130215 18.6051227,15.9252914 C19.8265951,14.5395552 20.7818098,12.939862 21.4440798,11.1706902 C22.0753681,9.48418712 22.4091104,7.68464724 22.4091104,5.96654908 L22.4091104,5.88480061 C22.4089571,5.60888037 22.5336503,5.34937117 22.7514417,5.17268405 C23.577362,4.5021319 24.2966871,3.71256135 24.8891718,2.82636503 C25.0456135,2.59231595 24.7989877,2.29891104 24.5414724,2.41317485" id="Fill-1" fill="#E20674" mask="url(#mask-2)"></path>
                </g>
                <path d="M35.488,4.8 L44.848,4.8 L44.848,6.944 L41.424,6.944 L41.424,16 L38.896,16 L38.896,6.944 L35.488,6.944 L35.488,4.8 Z M44.928,7.408 L47.44,7.392 L49.36,13.552 L51.216,7.392 L53.632,7.392 L55.52,13.552 L57.408,7.392 L59.84,7.392 L56.704,16 L54.24,16 L52.384,10.32 L50.544,16 L48.08,16 L44.928,7.408 Z M67.784,8.512 C68.5040036,9.312004 68.864,10.4266595 68.864,11.856 C68.864,12.1120013 68.8586667,12.3093326 68.848,12.448 L62.672,12.448 C62.8106674,12.9920027 63.0773314,13.4159985 63.472,13.72 C63.8666686,14.0240015 64.3413306,14.176 64.896,14.176 C65.3013354,14.176 65.6906648,14.0986674 66.064,13.944 C66.4373352,13.7893326 66.7733318,13.5626682 67.072,13.264 L68.368,14.576 C67.9306645,15.0666691 67.4000031,15.4426654 66.776,15.704 C66.1519969,15.9653346 65.4560038,16.096 64.688,16.096 C63.7813288,16.096 62.9893367,15.9146685 62.312,15.552 C61.6346633,15.1893315 61.1120018,14.6773366 60.744,14.016 C60.3759982,13.3546634 60.192,12.5920043 60.192,11.728 C60.192,10.853329 60.3786648,10.08267 60.752,9.416 C61.1253352,8.74933 61.6479966,8.23200184 62.32,7.864 C62.9920034,7.49599816 63.7599957,7.312 64.624,7.312 C66.0106736,7.312 67.0639964,7.711996 67.784,8.512 Z M66.544,10.992 C66.5226666,10.4266638 66.341335,9.97333504 66,9.632 C65.658665,9.29066496 65.2053362,9.12 64.64,9.12 C64.106664,9.12 63.6613351,9.28799832 63.304,9.624 C62.9466649,9.96000168 62.7200005,10.4159971 62.624,10.992 L66.544,10.992 Z M77.336,8.512 C78.0560036,9.312004 78.416,10.4266595 78.416,11.856 C78.416,12.1120013 78.4106667,12.3093326 78.4,12.448 L72.224,12.448 C72.3626674,12.9920027 72.6293314,13.4159985 73.024,13.72 C73.4186686,14.0240015 73.8933306,14.176 74.448,14.176 C74.8533354,14.176 75.2426648,14.0986674 75.616,13.944 C75.9893352,13.7893326 76.3253318,13.5626682 76.624,13.264 L77.92,14.576 C77.4826645,15.0666691 76.9520031,15.4426654 76.328,15.704 C75.7039969,15.9653346 75.0080038,16.096 74.24,16.096 C73.3333288,16.096 72.5413367,15.9146685 71.864,15.552 C71.1866633,15.1893315 70.6640018,14.6773366 70.296,14.016 C69.9279982,13.3546634 69.744,12.5920043 69.744,11.728 C69.744,10.853329 69.9306648,10.08267 70.304,9.416 C70.6773352,8.74933 71.1999966,8.23200184 71.872,7.864 C72.5440034,7.49599816 73.3119957,7.312 74.176,7.312 C75.5626736,7.312 76.6159964,7.711996 77.336,8.512 Z M76.096,10.992 C76.0746666,10.4266638 75.893335,9.97333504 75.552,9.632 C75.210665,9.29066496 74.7573362,9.12 74.192,9.12 C73.658664,9.12 73.2133351,9.28799832 72.856,9.624 C72.4986649,9.96000168 72.2720005,10.4159971 72.176,10.992 L76.096,10.992 Z M85.36,15.52 C85.0399984,15.712001 84.6853353,15.8586662 84.296,15.96 C83.9066647,16.0613338 83.5146686,16.112 83.12,16.112 C82.319996,16.112 81.6693358,15.882669 81.168,15.424 C80.6666642,14.965331 80.416,14.3093376 80.416,13.456 L80.416,9.472 L79.216,9.472 L79.216,7.776 L80.416,7.776 L80.416,5.408 L82.864,5.408 L82.864,7.776 L85.2,7.776 L85.2,9.488 L82.864,9.488 L82.864,13.04 C82.864,13.7013366 83.1253307,14.032 83.648,14.032 C84.0106685,14.032 84.4106645,13.9253344 84.848,13.712 L85.36,15.52 Z M89.536,4.8 L98.896,4.8 L98.896,6.944 L95.472,6.944 L95.472,16 L92.944,16 L92.944,6.944 L89.536,6.944 L89.536,4.8 Z M108.04,8.192 C108.61067,8.78933632 108.896,9.58932832 108.896,10.592 L108.896,16 L106.432,16 L106.432,11.312 C106.432,10.7679973 106.280002,10.3386682 105.976,10.024 C105.671998,9.70933176 105.258669,9.552 104.736,9.552 C104.127997,9.56266672 103.645335,9.77333128 103.288,10.184 C102.930665,10.5946687 102.752,11.1199968 102.752,11.76 L102.752,16 L100.288,16 L100.288,4.128 L102.752,4.128 L102.752,8.912 C103.349336,7.85599472 104.341326,7.31733344 105.728,7.296 C106.698672,7.296 107.46933,7.59466368 108.04,8.192 Z M111.008,7.392 L113.472,7.392 L113.472,16 L111.008,16 L111.008,7.392 Z M113.192,3.952 C113.442668,4.20800128 113.568,4.53866464 113.568,4.944 C113.568,5.34933536 113.442668,5.67999872 113.192,5.936 C112.941332,6.19200128 112.618669,6.32 112.224,6.32 C111.839998,6.32 111.522668,6.18933464 111.272,5.928 C111.021332,5.66666536 110.896,5.33866864 110.896,4.944 C110.896,4.53866464 111.021332,4.20800128 111.272,3.952 C111.522668,3.69599872 111.839998,3.568 112.224,3.568 C112.618669,3.568 112.941332,3.69599872 113.192,3.952 Z M119.872,9.304 C119.413331,9.15999928 119.002668,9.088 118.64,9.088 C118.341332,9.088 118.101334,9.1413328 117.92,9.248 C117.738666,9.3546672 117.648,9.5146656 117.648,9.728 C117.648,9.96266784 117.770665,10.1439994 118.016,10.272 C118.261335,10.4000006 118.661331,10.5439992 119.216,10.704 C119.824003,10.8853342 120.325331,11.0639991 120.72,11.24 C121.114669,11.4160009 121.455999,11.6773316 121.744,12.024 C122.032001,12.3706684 122.176,12.8266638 122.176,13.392 C122.176,14.2453376 121.848003,14.909331 121.192,15.384 C120.535997,15.858669 119.696005,16.096 118.672,16.096 C117.967996,16.096 117.29067,15.992001 116.64,15.784 C115.98933,15.575999 115.424002,15.2800019 114.944,14.896 L115.744,13.232 C116.181336,13.573335 116.669331,13.8373324 117.208,14.024 C117.746669,14.2106676 118.255998,14.304 118.736,14.304 C119.066668,14.304 119.330666,14.2480006 119.528,14.136 C119.725334,14.0239994 119.824,13.8560011 119.824,13.632 C119.824,13.3866654 119.698668,13.1946674 119.448,13.056 C119.197332,12.9173326 118.794669,12.7680008 118.24,12.608 C117.65333,12.4373325 117.165335,12.2666675 116.776,12.096 C116.386665,11.9253325 116.053335,11.6666684 115.776,11.32 C115.498665,10.9733316 115.36,10.5226694 115.36,9.968 C115.36,9.1146624 115.679997,8.45333568 116.32,7.984 C116.960003,7.51466432 117.770662,7.28 118.752,7.28 C119.33867,7.28 119.92533,7.36266584 120.512,7.528 C121.09867,7.69333416 121.631998,7.93066512 122.112,8.24 L121.264,9.92 C120.794664,9.653332 120.330669,9.44800072 119.872,9.304 Z" id="Tweet-This" fill="#E20674"></path>
            </g>
        </g>
    </g>
</svg>