<?xml version="1.0" encoding="UTF-8"?>
<svg width="30px" height="25px" viewBox="0 0 30 25" version="1.1" xmlns="http://www.w3.org/2000/svg" xmlns:xlink="http://www.w3.org/1999/xlink">
    <!-- Generator: Sketch 46.2 (44496) - http://www.bohemiancoding.com/sketch -->
    <title>Page 1 Copy 2</title>
    <desc>Created with Sketch.</desc>
    <defs>
        <polygon id="path-1" points="0 24.892638 0 0 29.9256442 0 29.9256442 24.892638"></polygon>
    </defs>
    <g id="Page-1" stroke="none" stroke-width="1" fill="none" fill-rule="evenodd">
        <g id="Home" transform="translate(-280.000000, -3458.000000)">
            <g id="Page-1-Copy-2" transform="translate(280.000000, 3458.000000)">
                <mask id="mask-2" fill="white">
                    <use xlink:href="#path-1"></use>
                </mask>
                <g id="Clip-2"></g>
                <path d="M29.4497669,2.89580982 C28.7849816,3.19065644 28.0946135,3.42329448 27.3863926,3.59169939 C28.1667607,2.8499816 28.7535092,1.92237423 29.0846135,0.88709816 C29.1790307,0.591515337 28.8580491,0.336055215 28.5911779,0.494337423 C27.6057791,1.07869325 26.5445521,1.51709816 25.4365767,1.79758896 C25.3723436,1.81378528 25.3059018,1.82206748 25.2394601,1.82206748 C25.0375583,1.82206748 24.841546,1.74715951 24.6871288,1.61114724 C23.5084785,0.572190184 21.9922822,-1.8404908e-05 20.4182945,-1.8404908e-05 C19.7373129,-1.8404908e-05 19.0495215,0.106177914 18.3742454,0.315441718 C16.2823436,0.964398773 14.6682331,2.69004294 14.1619141,4.8191227 C13.9717914,5.61771166 13.9204417,6.41685276 14.0087853,7.19464417 C14.018908,7.28409202 13.9767607,7.34648466 13.9506258,7.37574847 C13.9049816,7.42709816 13.8400123,7.45636196 13.7726503,7.45636196 C13.7651043,7.45636196 13.7573742,7.45599387 13.7498282,7.45525767 C9.17050307,7.02992025 5.04117791,4.82372393 2.12234356,1.24323313 C1.97344785,1.06065644 1.68798773,1.08311043 1.56946012,1.28666871 C0.997803681,2.26709816 0.69596319,3.3888773 0.69596319,4.5299816 C0.69596319,6.27918405 1.39847853,7.92734356 2.61909202,9.129 C2.10577914,9.00734356 1.60884663,8.81574847 1.14761963,8.5593681 C0.924368098,8.43531902 0.649582822,8.59470552 0.646453988,8.85016564 C0.614429448,11.4483865 2.13577914,13.760411 4.41467485,14.8015767 C4.36884663,14.8024969 4.32283436,14.8030491 4.27700613,14.8030491 C3.91571779,14.8030491 3.54982822,14.7682638 3.18982822,14.6994294 C2.93841718,14.6513926 2.72731288,14.8899202 2.80516564,15.1337853 C3.54504294,17.4430491 5.53332515,19.145319 7.91271166,19.531638 C5.93804908,20.8573436 3.63835583,21.5567301 1.24479755,21.5567301 L0.498478528,21.5561779 C0.268601227,21.5561779 0.0742453988,21.7059939 0.0155337423,21.9286933 C-0.0420736196,22.1480798 0.0643067485,22.3792454 0.260319018,22.4933558 C2.95755828,24.0631104 6.0337546,24.8928037 9.15835583,24.8928037 C11.8933252,24.8928037 14.4517914,24.3498589 16.7623436,23.2796135 C18.8805644,22.2982638 20.7525276,20.8956258 22.3261472,19.1103497 C23.7919141,17.4474663 24.9381718,15.5278344 25.7328957,13.4048282 C26.4904417,11.3810245 26.8909325,9.22157669 26.8909325,7.1598589 L26.8909325,7.06176074 C26.8907485,6.73065644 27.0403804,6.4192454 27.3017301,6.20722086 C28.2928344,5.40255828 29.1560245,4.45507362 29.8670061,3.39163804 C30.0547362,3.11077914 29.7587853,2.75869325 29.4497669,2.89580982" id="Fill-1" fill="#212121" mask="url(#mask-2)"></path>
            </g>
        </g>
    </g>
</svg>