<?xml version="1.0" encoding="UTF-8"?>
<svg width="25px" height="21px" viewBox="0 0 25 21" version="1.1" xmlns="http://www.w3.org/2000/svg" xmlns:xlink="http://www.w3.org/1999/xlink">
    <!-- Generator: Sketch 46.2 (44496) - http://www.bohemiancoding.com/sketch -->
    <title>Page 1 Copy 2</title>
    <desc>Created with Sketch.</desc>
    <defs>
        <polygon id="path-1" points="0 20.743865 0 0 24.9380368 0 24.9380368 20.743865"></polygon>
    </defs>
    <g id="Page-1" stroke="none" stroke-width="1" fill="none" fill-rule="evenodd">
        <g id="Home" transform="translate(-1234.000000, -4320.000000)">
            <g id="Page-1-Copy-2" transform="translate(1234.000000, 4320.000000)">
                <mask id="mask-2" fill="white">
                    <use xlink:href="#path-1"></use>
                </mask>
                <g id="Clip-2"></g>
                <path d="M24.5414724,2.41317485 C23.9874847,2.65888037 23.4121779,2.8527454 22.8219939,2.99308282 C23.4723006,2.37498466 23.9612577,1.60197853 24.2371779,0.739248466 C24.3158589,0.492929448 24.0483742,0.280046012 23.8259816,0.411947853 C23.004816,0.898911043 22.1204601,1.26424847 21.1971472,1.4979908 C21.1436196,1.51148773 21.0882515,1.51838957 21.0328834,1.51838957 C20.8646319,1.51838957 20.7012883,1.45596626 20.5726074,1.3426227 C19.5903988,0.476825153 18.3269018,-1.53374233e-05 17.0152454,-1.53374233e-05 C16.4477607,-1.53374233e-05 15.8746012,0.0884815951 15.3118712,0.262868098 C13.5686196,0.803665644 12.2235276,2.24170245 11.8015951,4.01593558 C11.6431595,4.68142638 11.6003681,5.3473773 11.6739877,5.99553681 C11.6824233,6.07007669 11.6473006,6.12207055 11.6255215,6.14645706 C11.5874847,6.18924847 11.5333436,6.21363497 11.4772086,6.21363497 C11.4709202,6.21363497 11.4644785,6.21332822 11.4581902,6.21271472 C7.64208589,5.85826687 4.2009816,4.01976994 1.76861963,1.03602761 C1.64453988,0.883880368 1.40665644,0.902592025 1.30788344,1.07222393 C0.831503067,1.88924847 0.579969325,2.82406442 0.579969325,3.77498466 C0.579969325,5.23265337 1.16539877,6.60611963 2.18257669,7.6075 C1.75481595,7.50611963 1.34070552,7.34645706 0.956349693,7.13280675 C0.770306748,7.02943252 0.541319018,7.1622546 0.538711656,7.37513804 C0.51202454,9.54032209 1.77981595,11.4670092 3.67889571,12.3346472 C3.64070552,12.3354141 3.60236196,12.3358742 3.56417178,12.3358742 C3.26309816,12.3358742 2.95819018,12.3068865 2.65819018,12.2495245 C2.44868098,12.2094939 2.27276074,12.4082669 2.33763804,12.6114877 C2.95420245,14.5358742 4.61110429,15.9544325 6.59392638,16.276365 C4.94837423,17.3811196 3.03196319,17.9639417 1.03733129,17.9639417 L0.415398773,17.9634816 C0.223834356,17.9634816 0.0618711656,18.0883282 0.0129447853,18.273911 C-0.0350613497,18.4567331 0.0535889571,18.6493712 0.216932515,18.7444632 C2.4646319,20.052592 5.02812883,20.7440031 7.63196319,20.7440031 C9.91110429,20.7440031 12.0431595,20.2915491 13.9686196,19.3996779 C15.7338037,18.5818865 17.293773,17.4130215 18.6051227,15.9252914 C19.8265951,14.5395552 20.7818098,12.939862 21.4440798,11.1706902 C22.0753681,9.48418712 22.4091104,7.68464724 22.4091104,5.96654908 L22.4091104,5.88480061 C22.4089571,5.60888037 22.5336503,5.34937117 22.7514417,5.17268405 C23.577362,4.5021319 24.2966871,3.71256135 24.8891718,2.82636503 C25.0456135,2.59231595 24.7989877,2.29891104 24.5414724,2.41317485" id="Fill-1" fill="#FFFFFF" mask="url(#mask-2)"></path>
            </g>
        </g>
    </g>
</svg>