<?xml version="1.0" encoding="UTF-8"?>
<svg width="210px" height="210px" viewBox="0 0 210 210" version="1.1" xmlns="http://www.w3.org/2000/svg" xmlns:xlink="http://www.w3.org/1999/xlink">
    <!-- Generator: Sketch 46.2 (44496) - http://www.bohemiancoding.com/sketch -->
    <title>Group 10</title>
    <desc>Created with Sketch.</desc>
    <defs>
        <polygon id="path-1" points="18.4826711 0.126523297 0.0302987239 0.126523297 0.0302987239 22.5040023 18.4826711 22.5040023 18.4826711 0.126523297"></polygon>
        <polygon id="path-3" points="7.31081801e-21 0.144071322 7.31081801e-21 22.5002408 18.8679176 22.5002408 18.8679176 0.144071322"></polygon>
        <polygon id="path-5" points="3.12895012 0.0355492738 3.12895012 3.07137993 0.0683050238 3.07137993 0.0683050238 0.0355492738 3.12895012 0.0355492738"></polygon>
    </defs>
    <g id="Page-1" stroke="none" stroke-width="1" fill="none" fill-rule="evenodd">
        <g id="Imagery-Service" transform="translate(-740.000000, -3438.000000)">
            <g id="Group-10" transform="translate(740.000000, 3438.000000)">
                <rect id="Rectangle-18-Copy-22" fill="#F3F3F3" x="0" y="0" width="210" height="210"></rect>
                <g id="Page-1" transform="translate(28.000000, 80.000000)">
                    <path d="M107.466787,36.195233 C108.344101,36.195233 109.221775,36.2140502 110.09837,36.1905735 C111.263747,36.1590323 111.621218,35.7857348 111.654664,34.5964875 C111.672106,33.9798208 111.675882,33.3615412 111.653405,32.745233 C111.613666,31.6593907 111.237135,31.2473835 110.172274,31.2280287 C108.469971,31.1972043 106.76623,31.1972043 105.064107,31.2278495 C104.000325,31.2468459 103.626491,31.6570609 103.58837,32.7488172 C103.564994,33.4163799 103.55978,34.0866308 103.589629,34.7540143 C103.634043,35.7482796 104.017947,36.1479211 104.990383,36.1877061 C105.814472,36.2213978 106.641079,36.1945161 107.466787,36.195233 M103.584414,45.418172 C105.492964,46.652043 107.559211,45.8656631 109.495632,46.0798208 C110.287535,46.1674552 111.04779,46.057957 111.657361,45.2052688 C111.657361,44.0939785 111.682355,42.8615412 111.649449,41.6307168 C111.622477,40.6346595 111.224727,40.217276 110.245278,40.198638 C108.487413,40.1653047 106.727749,40.1665591 104.969704,40.1989964 C104.059124,40.2156631 103.626311,40.6233692 103.595922,41.5013262 C103.551688,42.7826882 103.584414,44.0663799 103.584414,45.418172 M113.966897,37.6330466 C115.608242,38.2463082 116.06641,39.5036559 116.026131,41.083405 C115.986212,42.6317921 116.026311,44.1819713 116.014803,45.7314337 C115.996821,48.1782079 114.399171,49.8135125 111.983184,49.8285663 C109.08134,49.8466667 106.179316,49.845233 103.277471,49.8289247 C100.853573,49.8154839 99.2472912,48.1902151 99.2264327,45.7532975 C99.2140255,44.3074194 99.2780394,42.8586738 99.2093503,41.4158423 C99.1329292,39.8104659 99.5114385,38.4687097 101.080499,37.6196057 C99.6387471,36.885914 99.1793213,35.7219355 99.2192401,34.2791039 C99.2447738,33.3500717 99.2134861,32.4197849 99.2260731,31.4902151 C99.2589791,29.0889606 100.899785,27.4810753 103.327639,27.4758781 C106.28145,27.4696057 109.235261,27.4627957 112.189072,27.4787455 C114.288405,27.4902151 115.915186,29.0355556 116.00761,31.1239068 C116.057599,32.2577778 116.033683,33.3963082 116.013005,34.5321505 C115.982976,36.1844803 115.527686,36.8721147 113.966897,37.6330466" id="Fill-1" fill="#ACACAC"></path>
                    <path d="M74.4497726,18.4653763 C74.5831949,17.8709319 74.7074466,17.5725448 74.7083457,17.2737993 C74.7223712,13.4005018 74.7381949,9.52702509 74.7079861,5.6537276 C74.6989954,4.50103943 74.3692158,4.22129032 73.1811821,4.20964158 C70.9013155,4.18759857 68.6209095,4.18939068 66.3412227,4.20856631 C65.054471,4.21949821 64.7236125,4.54960573 64.7162401,5.89727599 C64.6957413,9.56412186 64.7117448,13.2309677 64.70671,16.8976344 C64.7058109,17.4840143 64.7610139,18.0359857 65.5070638,18.5750538 C68.3166636,18.5101792 71.3461763,18.6831183 74.4497726,18.4653763 M79.0217332,11.4775627 C79.0220928,13.8533692 78.9400974,16.2327599 79.0449292,18.604086 C79.1520986,21.0266667 77.0782993,22.6325806 75.0591636,22.5737993 C71.4864316,22.4698566 67.9083051,22.5635842 64.3326961,22.5381362 C61.9947494,22.5212903 60.4587749,21.1433333 60.4256891,18.8352688 C60.3548422,13.8781004 60.3498074,8.91842294 60.4285661,3.96143369 C60.4650684,1.66896057 62.0244188,0.248888889 64.3332355,0.222903226 C67.9086647,0.182401434 71.484993,0.239569892 75.0604223,0.202831541 C77.5603817,0.177204301 79.1456253,2.1974552 79.049065,4.19637993 C78.9321856,6.61824373 79.0213735,9.04996416 79.0217332,11.4775627" id="Fill-3" fill="#080808"></path>
                    <g id="Group-7" transform="translate(83.074246, 0.052688)">
                        <mask id="mask-2" fill="white">
                            <use xlink:href="#path-1"></use>
                        </mask>
                        <g id="Clip-6"></g>
                        <path d="M4.30916183,9.42272401 C6.73180104,9.42272401 9.00087877,9.4411828 11.2694171,9.41448029 C12.3127001,9.40229391 12.6304321,9.06555556 12.673228,8.01179211 C12.7063138,7.18849462 12.7113486,6.36125448 12.67125,5.53867384 C12.620902,4.50265233 12.2902233,4.18562724 11.230757,4.15749104 C10.0937906,4.1272043 8.95484629,4.12594982 7.81805974,4.15713262 C6.65052494,4.18903226 5.46986369,4.01483871 4.30916183,4.26716846 L4.30916183,9.42272401 Z M8.38950986,13.4703943 L4.29405742,13.4703943 L4.29405742,22.4322222 L0.0302987239,22.4322222 L0.0302987239,0.315913978 C0.339939095,0.00731182796 0.778866009,0.168960573 1.17176044,0.167526882 C5.00917923,0.154444444 8.84893561,0.238315412 12.6834774,0.134014337 C15.6025841,0.0544444444 17.3136978,2.12863799 17.1119461,4.51394265 C16.9948869,5.89960573 17.091627,7.30318996 17.0905481,8.69853047 C17.0880307,11.7386738 16.3133904,12.7479928 13.2130307,13.5628674 C14.9599275,16.4886738 16.6827291,19.3739785 18.4826711,22.3883154 C16.8488776,22.5745161 15.3790748,22.4884946 13.8538892,22.45319 C12.026076,19.448172 10.2070737,16.4580287 8.38950986,13.4703943 L8.38950986,13.4703943 Z" id="Fill-5" fill="#080808" mask="url(#mask-2)"></path>
                    </g>
                    <path d="M18.0272193,27.5062007 L18.0272193,31.3698208 C17.4856183,31.6524373 16.9607401,31.5189247 16.4583387,31.5212545 C13.2925267,31.5355914 10.1267146,31.5277061 6.96090255,31.5286022 C4.60857077,31.529319 4.55606497,31.5839785 4.55606497,34.0011828 C4.55588515,36.5873835 4.62835035,39.1764516 4.52585615,41.7587097 C4.47370998,43.0694624 4.79953364,44.0717921 5.84839095,44.8560215 C6.17745128,45.1020789 6.45202784,45.42 6.84330394,45.7925806 C8.89354756,45.7925806 11.0171555,45.817491 13.1395046,45.7809319 C14.0628515,45.7649821 14.3935302,45.3925806 14.426616,44.4044086 C14.4661752,43.2196416 14.4359664,42.0323656 14.4359664,40.6866667 L9.23501508,40.6866667 L9.23501508,36.7468817 L18.7067378,36.7468817 C18.9852703,36.967491 18.8484316,37.3542294 18.8496903,37.6927599 C18.8602993,40.3823656 18.8710882,43.0723297 18.8511288,45.7619355 C18.8318886,48.3092473 17.3329559,49.8124731 14.7887622,49.8298566 C11.7786694,49.8502867 8.76821694,49.8113978 5.75866357,49.8504659 C4.96496288,49.860681 4.37804872,49.6271685 3.83968445,49.0574552 C2.87929582,48.0413262 1.88492227,47.0553047 0.868791183,46.0943728 C0.336540603,45.5909677 0.146117169,45.032724 0.150612529,44.3067384 C0.1765058,40.0137276 0.145757541,35.7201792 0.17075174,31.4271685 C0.183338747,29.2728674 1.56359397,27.5784229 3.59603596,27.5372043 C8.36237587,27.4404301 13.1319524,27.5062007 18.0272193,27.5062007" id="Fill-8" fill="#080808"></path>
                    <g id="Group-12" transform="translate(0.000000, 0.052688)">
                        <mask id="mask-4" fill="white">
                            <use xlink:href="#path-3"></use>
                        </mask>
                        <g id="Clip-11"></g>
                        <path d="M9.24159629,9.41125448 L18.8555522,9.41125448 C18.8555522,11.1591039 18.8555522,12.8522939 18.8555522,14.5454839 C18.8553724,15.9410036 18.8882784,17.3375986 18.8474606,18.7316846 C18.783087,20.9180645 17.2938643,22.4440502 15.11829,22.4759498 C11.9035684,22.5232616 8.68776798,22.4841935 5.47268677,22.4988889 C4.92209513,22.5013978 4.44936311,22.3927957 4.09063341,21.9524731 C4.05808701,21.9126882 4.0167297,21.8800717 3.98058701,21.8429749 C2.7517355,20.585448 1.1830348,19.5069534 0.39275058,18.0180645 C-0.348983759,16.6205735 0.19099884,14.7764875 0.172657773,13.1298925 C0.139392111,10.1325806 0.144426914,7.13437276 0.169421114,4.13688172 C0.188661253,1.83455197 1.61890487,0.217526882 3.86262877,0.182939068 C8.52611485,0.110896057 13.1915789,0.161075269 17.9118863,0.161075269 C18.2632436,1.47505376 17.9888469,2.74422939 18.0925998,3.92738351 C17.6211265,4.30659498 17.1917297,4.16967742 16.7964977,4.17111111 C13.3737309,4.18311828 9.95114385,4.17111111 6.52837703,4.18078853 C4.81600464,4.18562724 4.56120766,4.44870968 4.55761137,6.16878136 C4.55149768,9.11483871 4.54951972,12.0608961 4.55815081,15.0069534 C4.56318561,16.7737993 6.20902668,18.4408244 7.95844084,18.4537276 C9.6179478,18.4657348 11.2778144,18.4763082 12.9367819,18.4488889 C14.0863353,18.4298925 14.3966949,18.1166308 14.4294211,16.9655556 C14.4612483,15.8363441 14.4362541,14.7055197 14.4362541,13.4026523 L9.24159629,13.4026523 L9.24159629,9.41125448 Z" id="Fill-10" fill="#080808" mask="url(#mask-4)"></path>
                    </g>
                    <path d="M124.535271,31.5562186 C123.988636,32.1875806 123.835973,32.7528136 123.83885,33.4012007 C123.853235,36.9101613 123.850538,40.4193011 123.841548,43.9282616 C123.839749,44.6304122 123.983601,45.2508423 124.679842,45.8042473 C126.48392,45.8042473 128.394628,45.8325627 130.303717,45.7918817 C131.226524,45.7721685 131.592087,45.3166129 131.596582,44.2567563 C131.612226,40.5415233 131.596582,36.8257527 131.60899,33.1105197 C131.610968,32.5167921 131.516925,31.9897312 131.010208,31.5562186 L124.535271,31.5562186 Z M135.964274,38.7219892 C135.964454,41.0468996 135.867713,43.3766487 135.991785,45.6949283 C136.1137,47.9759319 134.095283,49.9673297 131.834836,49.8612366 C129.248746,49.739552 126.64809,49.7390143 124.062,49.8596237 C121.505939,49.9786201 119.496693,48.5592652 119.4895,45.2936738 C119.481948,41.8323835 119.467922,38.370914 119.496872,34.9098029 C119.509999,33.3723477 119.333781,31.8271864 119.742319,30.2990502 C120.186101,28.6375806 121.42664,27.5110573 123.150881,27.4877599 C126.260411,27.4458244 129.371379,27.4456452 132.48091,27.4897312 C134.411756,27.5169713 135.925074,29.1857885 135.955643,31.2831004 C135.991606,33.7623118 135.964094,36.2422401 135.964274,38.7219892 L135.964274,38.7219892 Z" id="Fill-13" fill="#ACACAC"></path>
                    <path d="M90.6474704,45.8042294 C91.2476908,45.1389964 91.4050284,44.5760932 91.402511,43.9262724 C91.3881259,40.4169534 91.3908231,36.9078136 91.399634,33.3986738 C91.4014321,32.6997491 91.2635145,32.075914 90.6516061,31.5542294 L84.2304345,31.5542294 C83.7916874,31.9554839 83.6330911,32.4085305 83.6347094,32.9583513 C83.6454983,36.7771685 83.6275168,40.5959857 83.6498138,44.4146237 C83.6552082,45.3332616 84.0689611,45.7753763 84.9432187,45.7927599 C86.8524878,45.8303943 88.7630157,45.8042294 90.6474704,45.8042294 M79.2769078,38.6162366 C79.2769078,36.2913262 79.3673544,33.9621147 79.2513741,31.6427599 C79.1373718,29.366595 81.0586885,27.2533333 83.4942744,27.431828 C86.0722732,27.6208961 88.6781433,27.5563799 91.2656723,27.451362 C93.9504809,27.3424014 95.6391177,28.7382796 95.7207535,31.6065591 C95.8543556,36.3040502 95.8255853,41.0096057 95.7306433,45.7092473 C95.6752604,48.4484946 94.0968498,49.8275269 91.3883057,49.831828 C88.7964611,49.8359498 86.1977836,49.7173118 83.6145702,49.8662366 C81.1669368,50.0074552 79.069402,48.0468817 79.2452604,45.4337993 C79.3975632,43.1707168 79.2769078,40.8893548 79.2769078,38.6162366" id="Fill-15" fill="#ACACAC"></path>
                    <polygon id="Fill-17" fill="#080808" points="23.2025829 22.4590502 23.2025829 0.316218638 38.7362082 0.316218638 38.7362082 4.1640681 27.5772871 4.1640681 27.5772871 9.3968638 36.5268289 9.3968638 36.5268289 13.3560036 27.6012024 13.3560036 27.6012024 18.5393369 38.7410632 18.5393369 38.7410632 22.4590502"></polygon>
                    <path d="M122.890437,22.4677957 L122.890437,0.309014337 L138.433053,0.309014337 L138.433053,4.17890681 L127.272514,4.17890681 L127.272514,9.35955197 L136.176023,9.35955197 L136.176023,13.3665412 L127.31459,13.3665412 C127.103668,15.1151075 127.279167,16.7487993 127.191957,18.5100896 L138.336853,18.5100896 C138.641099,19.8776523 138.439167,21.1367921 138.502821,22.4677957 L122.890437,22.4677957 Z" id="Fill-19" fill="#080808"></path>
                    <path d="M47.6908747,38.5652509 C45.372348,34.8745699 43.1261067,31.2989427 40.7833051,27.5697312 L46.0159037,27.5697312 C47.3920232,29.7421326 48.8470812,32.0389068 50.3965418,34.4849642 C51.9283805,32.1014516 53.366536,29.8634588 54.8528817,27.5505556 L59.6533863,27.5505556 C57.3161589,31.0772581 55.0323364,34.5231362 52.6778469,38.0760036 C55.1164896,41.9365771 57.5583689,45.8019892 60.0712749,49.7801254 L54.8424524,49.7801254 C53.3023422,47.3760036 51.7212343,44.9082616 50.0111995,42.2394444 C48.3243608,44.8272581 46.7094478,47.3052151 45.0895,49.7903405 L40.3307123,49.7903405 C42.8110719,46.0071864 45.2223828,42.3299462 47.6908747,38.5652509" id="Fill-21" fill="#080808"></path>
                    <path d="M41.963337,22.4586201 L41.963337,0.30109319 L57.5167419,0.30109319 C57.7082442,1.56023297 57.5706862,2.78639785 57.626069,4.15360215 L46.3624959,4.15360215 L46.3624959,9.43335125 L55.2740969,9.43335125 L55.2740969,13.3333513 L46.3315679,13.3333513 L46.3315679,22.4586201 L41.963337,22.4586201 Z" id="Fill-23" fill="#080808"></path>
                    <path d="M119.007741,18.5695161 L119.007741,22.3587634 C118.606755,22.6659319 118.177538,22.5367204 117.781587,22.5383333 C114.618652,22.5506989 111.451761,22.4517742 108.293861,22.5759677 C105.961488,22.6679032 104.047364,20.8974731 104.106164,18.4625269 C104.219447,13.7625269 104.211175,9.05643369 104.109041,4.35571685 C104.055816,1.914319 105.864748,0.14765233 108.267248,0.194426523 C111.790352,0.263064516 115.316152,0.211989247 118.932039,0.211989247 C119.220462,1.50589606 119.017631,2.76915771 119.089377,4.20302867 C117.911233,4.20302867 116.840259,4.20284946 115.769284,4.20302867 C113.798878,4.20302867 111.828113,4.18259857 109.858246,4.21216846 C108.843733,4.22740143 108.48878,4.52148746 108.482666,5.47704301 C108.456593,9.50750896 108.47871,13.5381541 108.494534,17.5687993 C108.495253,17.7653943 108.601883,17.96181 108.643959,18.1066129 C109.16632,18.7039247 109.821384,18.5628853 110.428617,18.5652151 C113.227068,18.5750717 116.02552,18.5695161 119.007741,18.5695161" id="Fill-25" fill="#080808"></path>
                    <polygon id="Fill-27" fill="#080808" points="39.0167726 31.4078136 32.7745162 31.4078136 32.7745162 49.7701792 28.376616 49.7701792 28.376616 31.4579928 22.0478689 31.4579928 22.0478689 27.5809319 39.0167726 27.5809319"></polygon>
                    <path d="M75.1533144,49.7631541 L70.9062784,49.7631541 L70.9062784,31.6387814 C69.7783028,31.3093907 68.7175777,31.6835842 67.6640452,31.3314337 C67.2713306,30.1328674 67.5272065,28.9111828 67.4863886,27.5882437 L75.1533144,27.5882437 L75.1533144,49.7631541 Z" id="Fill-29" fill="#ACACAC"></path>
                    <path d="M150.54936,34.4241219 L150.54936,37.3863082 L146.876651,37.3863082 C146.849859,41.536129 146.87845,45.5863082 146.859569,49.7173118 C145.827255,49.9117563 144.874059,49.8266308 143.808838,49.7981362 L143.808838,37.6481362 C142.574053,37.1857706 141.364441,37.6207168 140.134151,37.3363082 C139.799337,36.4248387 140.075172,35.4669534 139.972318,34.4241219 L150.54936,34.4241219 Z" id="Fill-31" fill="#ACACAC"></path>
                    <path d="M151.926595,49.7962366 L151.926595,38.7191756 L154.853253,38.7191756 L154.853253,49.7376344 C153.924872,49.9107527 152.971676,49.8290323 151.926595,49.7962366" id="Fill-33" fill="#ACACAC"></path>
                    <g id="Group-37" transform="translate(151.763341, 34.282079)">
                        <mask id="mask-6" fill="white">
                            <use xlink:href="#path-5"></use>
                        </mask>
                        <g id="Clip-36"></g>
                        <path d="M3.1289681,0.0772939068 L3.1289681,3.07137993 L0.249240719,3.07137993 C-0.0596803944,2.16564516 0.119594548,1.2084767 0.124089907,0.185358423 C1.11163051,-0.0576523297 2.06338805,0.0651075269 3.1289681,0.0772939068" id="Fill-35" fill="#ACACAC" mask="url(#mask-6)"></path>
                    </g>
                    <path d="M142.574664,0.597168459 C141.686921,0.597168459 140.965146,1.31688172 140.965146,2.20129032 C140.965146,3.08587814 141.686921,3.80541219 142.574664,3.80541219 C143.462228,3.80541219 144.184003,3.08587814 144.184003,2.20129032 C144.184003,1.31688172 143.462228,0.597168459 142.574664,0.597168459 M142.574664,4.14322581 C141.500273,4.14322581 140.626195,3.27207885 140.626195,2.20129032 C140.626195,1.13050179 141.500273,0.25953405 142.574664,0.25953405 C143.648875,0.25953405 144.522953,1.13050179 144.522953,2.20129032 C144.522953,3.27207885 143.648875,4.14322581 142.574664,4.14322581" id="Fill-38" fill="#080808"></path>
                    <path d="M142.63314,2.12476703 C142.746603,2.12476703 142.83615,2.10146953 142.901962,2.05505376 C142.967954,2.00863799 143.00122,1.92476703 143.00122,1.80362007 C143.00122,1.67315412 142.955008,1.58444444 142.862583,1.53713262 C142.813134,1.51222222 142.747142,1.49985663 142.664787,1.49985663 L142.074456,1.49985663 L142.074456,2.12476703 L142.63314,2.12476703 Z M141.825773,1.28695341 L142.659573,1.28695341 C142.797131,1.28695341 142.910414,1.3072043 142.999422,1.3478853 C143.168807,1.42602151 143.253499,1.56992832 143.253499,1.77996416 C143.253499,1.88946237 143.230663,1.9790681 143.18535,2.04878136 C143.140037,2.11849462 143.076562,2.17458781 142.994926,2.21688172 C143.066492,2.24591398 143.120437,2.28408602 143.156579,2.33139785 C143.192902,2.37870968 143.213221,2.45541219 143.217177,2.56168459 L143.225988,2.80702509 C143.228505,2.87673835 143.234439,2.92853047 143.24361,2.96258065 C143.258534,3.02064516 143.285147,3.05810036 143.323447,3.07458781 L143.323447,3.11562724 L143.018662,3.11562724 C143.01039,3.09985663 143.003737,3.07960573 142.998702,3.05469534 C142.993668,3.02978495 142.989352,2.98157706 142.986115,2.9102509 L142.971191,2.60523297 C142.965617,2.48569892 142.922102,2.4055914 142.841185,2.36491039 C142.795153,2.34250896 142.722867,2.33139785 142.624149,2.33139785 L142.074456,2.33139785 L142.074456,3.11562724 L141.825773,3.11562724 L141.825773,1.28695341 Z" id="Fill-40" fill="#000000"></path>
                </g>
            </g>
        </g>
    </g>
</svg>