<?xml version="1.0" encoding="UTF-8"?>
<svg width="210px" height="210px" viewBox="0 0 210 210" version="1.1" xmlns="http://www.w3.org/2000/svg" xmlns:xlink="http://www.w3.org/1999/xlink">
    <!-- Generator: Sketch 46.2 (44496) - http://www.bohemiancoding.com/sketch -->
    <title>Group 34</title>
    <desc>Created with Sketch.</desc>
    <defs>
        <polygon id="path-1" points="2.81712269e-20 -0.000477698063 2.81712269e-20 20.6779661 90.4222938 20.6779661 90.4222938 -0.000477698063"></polygon>
        <polygon id="path-3" points="0.0674717013 0.871576271 25.5389678 0.871576271 25.5389678 31.5218876 0.0674717013 31.5218876 0.0674717013 0.871576271"></polygon>
    </defs>
    <g id="Page-1" stroke="none" stroke-width="1" fill="none" fill-rule="evenodd">
        <g id="Web-Design-Service" transform="translate(-1430.000000, -3553.000000)">
            <g id="Group-34" transform="translate(1430.000000, 3553.000000)">
                <rect id="Rectangle-18-Copy-11" fill="#F3F3F3" x="0" y="0" width="210" height="210"></rect>
                <g id="Page-1" transform="translate(55.000000, 74.000000)">
                    <g id="Group-3" transform="translate(0.000000, 39.450975)">
                        <mask id="mask-2" fill="white">
                            <use xlink:href="#path-1"></use>
                        </mask>
                        <g id="Clip-2"></g>
                        <path d="M49.2551167,20.6696949 C30.7352095,20.6614237 14.6494244,14.3525763 0.86576591,2.09571186 C-0.0041573393,1.32132203 -0.212024304,0.771288136 0.212024304,0.332915254 C0.869923249,-0.346355932 1.46858011,0.168525424 2.04645027,0.504542373 C11.9201311,6.22510169 22.5005596,9.99986441 33.7409658,11.996322 C40.7221778,13.237 47.7543172,13.7291356 54.8238727,13.3817458 C66.0871442,12.8286102 76.9274065,10.3503559 87.3228334,5.9800678 C87.7479213,5.80120339 88.1594979,5.57581356 88.6375919,5.54272881 C89.3495363,5.49310169 89.9492325,5.6750678 90.276623,6.36261017 C90.6102494,7.06462712 90.335865,7.64671186 89.807883,8.10989831 C89.357851,8.50381356 88.8579309,8.8460339 88.3663256,9.18928814 C81.3664055,14.0579153 73.5869843,17.1368644 65.2982891,18.9647966 C59.185961,20.313 56.1864407,20.7462034 49.2551167,20.6696949" id="Fill-1" fill="#B6B6B6" mask="url(#mask-2)"></path>
                    </g>
                    <path d="M42.6699952,24.7707559 C43.1896626,22.5892305 43.7103694,20.408739 44.2279581,18.2261797 C45.3816198,13.3616881 46.5311241,8.49616271 47.6889431,3.63167119 C48.0277662,2.20489153 48.4143988,1.91229831 49.9172769,1.89885763 C50.6021986,1.89368814 51.2860809,1.89575593 51.9710026,1.89885763 C53.657843,1.90402712 53.9997841,2.16870508 54.3895347,3.81053559 C55.4382235,8.22528136 56.482755,12.641061 57.5241685,17.0578746 C58.0926847,19.4647898 58.6508075,21.8737729 59.2182843,24.2806881 C59.2775264,24.5308915 59.3648305,24.7738576 59.5976415,25.0302644 C60.0071394,23.4763153 60.418716,21.9234 60.8230173,20.3673831 C62.2604173,14.8463661 63.6905421,9.32328136 65.1310601,3.80329831 C65.5623841,2.14699322 65.9053646,1.89989153 67.6587224,1.89782373 C68.3987288,1.89782373 69.1376959,1.89368814 69.8777023,1.89989153 C70.9263911,1.90816271 71.2298769,2.25038305 70.9783579,3.26567119 C70.7652942,4.13517966 70.4607691,4.98194237 70.1905421,5.83697627 C67.7335545,13.6346373 65.276567,21.4312644 62.8164615,29.2278915 C62.3477215,30.7156712 62.0379997,30.9379593 60.4644468,30.9431288 C59.6974177,30.9462305 58.9314279,30.9514 58.1633594,30.9420949 C56.7737688,30.9245186 56.3819396,30.6277898 56.0503917,29.2754508 C54.6774304,23.682061 53.3148625,18.0845356 51.9470979,12.489078 C51.6186681,11.147078 51.2850416,9.80611186 50.8329309,8.46617966 C50.1105932,11.4634508 49.3872162,14.460722 48.6669571,17.4579932 C47.7253198,21.3681966 46.7909578,25.2794339 45.8451631,29.1886034 C45.5001039,30.6153831 45.0916453,30.9296881 43.6241046,30.9431288 C42.8840982,30.9503661 42.1451311,30.9462305 41.4051247,30.9431288 C39.8190998,30.9379593 39.4709226,30.6898237 39.0063399,29.1689593 C37.3454829,23.7399593 35.6898225,18.3099254 34.0352015,12.8798915 C33.0935641,9.78853559 32.1404941,6.69924746 31.2248401,3.60065424 C30.8028702,2.17180678 31.0377598,1.89885763 32.5136153,1.89782373 C33.2806444,1.89782373 34.0466342,1.89575593 34.8136633,1.89885763 C36.3071874,1.90609492 36.6667972,2.15423051 37.0555085,3.6213322 C37.8194196,6.51004407 38.55319,9.40702712 39.295275,12.3019424 C40.3605932,16.4582136 41.4227934,20.6144847 42.4860329,24.7717898 C42.5473537,24.7707559 42.6086744,24.7707559 42.6699952,24.7707559" id="Fill-4" fill="#1D1D1B"></path>
                    <g id="Group-8" transform="translate(4.061401, 0.162839)">
                        <mask id="mask-4" fill="white">
                            <use xlink:href="#path-3"></use>
                        </mask>
                        <g id="Clip-7"></g>
                        <path d="M12.6962104,17.4796017 C12.0414295,17.5106186 11.3835305,17.5178559 10.7297889,17.5767881 C7.00169492,17.9169407 5.07268948,20.608178 5.97898945,24.196839 C6.36977934,25.7456186 7.3654621,26.7319576 8.920307,27.0338559 C11.484346,27.531161 13.8665014,27.0038729 15.9794691,25.4643983 C17.3181324,24.4883983 18.1184202,23.1505339 18.2971858,21.4931949 C18.3865686,20.6567712 18.3647426,19.8079407 18.4582827,18.9715169 C18.5227215,18.3842627 18.3003038,18.1619746 17.742181,18.0627203 C16.0719699,17.7659915 14.3996802,17.5095847 12.6962104,17.4796017 M18.7586505,27.0162797 C17.0614167,28.934161 15.1001919,30.3506017 12.6494404,31.0257373 C10.5801247,31.5954153 8.48586505,31.6957034 6.39888072,31.2159746 C2.62713463,30.3485339 0.269923249,27.4567203 0.0807643108,23.5702966 C-0.169715382,18.4049407 3.13848737,14.5464322 8.41830828,13.8020254 C11.5040934,13.3667542 14.5316757,13.7224153 17.5384714,14.3820424 C18.1994883,14.527822 18.5383115,14.5412627 18.465558,13.6913983 C18.3761752,12.6647373 18.453086,11.6267034 18.3429165,10.5928051 C17.9895427,7.26985593 16.3557083,5.72314407 12.9799488,5.46673729 C9.93365846,5.23617797 7.06197634,5.89683898 4.26512632,7.01138136 C2.23322673,7.82092373 2.13137192,7.68238136 2.00353374,5.51636441 C1.91311161,3.96655085 2.56477454,3.2004322 3.93461784,2.64833051 C8.07428846,0.978584746 12.3116565,0.354110169 16.6976495,1.34561864 C20.9880237,2.31438136 23.3972018,5.17000847 23.7370643,9.55166949 C24.0322354,13.3595169 23.8721778,17.1756356 23.8472338,20.9865847 C23.8306044,23.3200932 24.0665334,25.538839 25.3293252,27.5652797 C25.7336265,28.2145678 25.5278382,28.7739068 24.9291813,29.1895339 C24.2338663,29.6713305 23.5302366,30.143822 22.8120563,30.5915 C22.1167413,31.0257373 21.470275,30.9450932 20.8913655,30.3423305 C20.2979053,29.727161 19.8291653,29.0313475 19.4373361,28.2786695 C19.2253118,27.8723475 19.0028941,27.4711949 18.7586505,27.0162797" id="Fill-6" fill="#1D1D1B" mask="url(#mask-4)"></path>
                    </g>
                    <path d="M83.3684762,31.8019881 C80.6069635,31.7471915 77.9712104,31.3398356 75.4539415,30.3328186 C73.4085305,29.5139712 72.7142549,28.0385983 73.3461705,25.9542593 C73.5259754,25.3639034 73.9822434,25.3049712 74.4624161,25.4445475 C74.9571394,25.5872254 75.4238008,25.8281237 75.9081308,26.0111237 C79.2194516,27.2662763 82.6149584,27.8235475 86.1185561,27.0202085 C87.6650863,26.6655814 88.9808842,25.9015305 89.4413096,24.2152424 C89.8892629,22.5713441 89.3332187,21.1931576 87.8708746,20.2947 C86.4573793,19.4272593 84.8495283,19.0560898 83.2957227,18.5515475 C81.5849776,17.9953102 79.8233051,17.5807169 78.2133754,16.7453271 C74.5517988,14.8481237 72.7714183,10.9875475 74.0019907,7.3006661 C75.0600336,4.1317678 77.5066278,2.39481864 80.6371043,1.55632712 C84.373513,0.555513559 88.0153422,1.09831017 91.5792213,2.39792034 C92.8752718,2.87041186 93.4915974,3.73888644 93.4115686,5.21322542 C93.2972418,7.34098814 93.2005836,7.45264915 91.1936281,6.64517458 C88.2284058,5.45205593 85.1644468,5.07261525 82.0329309,5.81805593 C79.6736409,6.37946271 78.5563559,8.27046271 79.2402382,10.3382593 C79.5915334,11.4000729 80.4126079,12.0162763 81.3667173,12.4867 C83.1616485,13.3727508 85.1104013,13.8328356 86.9967941,14.4635136 C88.0579549,14.8181407 89.1232731,15.150022 90.1563719,15.5863271 C96.5129437,18.2744627 96.240638,26.0028525 91.6654861,29.3878356 C89.1762792,31.2292085 86.3149904,31.7502932 83.3684762,31.8019881" id="Fill-9" fill="#1D1D1B"></path>
                    <path d="M89.4279021,41.8532373 C86.8877678,41.8925254 84.68126,42.0775932 82.4820275,42.3670847 C82.2928686,42.3918983 82.0995523,42.4146441 81.9103933,42.4115424 C81.4936201,42.4032712 80.9458906,42.6214237 80.7629677,42.0713898 C80.5748481,41.5058475 81.0404701,41.1863729 81.453086,40.9061864 C83.7167573,39.3708475 86.2672849,38.6016271 88.9425328,38.2314915 C91.6967701,37.8489492 94.453086,37.8479153 97.1782219,38.4941017 C99.1456828,38.9614237 99.5333547,39.3625763 99.4314998,41.347661 C99.1675088,46.5192203 97.3850496,51.097322 93.8128558,54.9237797 C93.47819,55.2804746 93.0946754,55.5978814 92.7028462,55.8915085 C92.3941637,56.1220678 92.0148065,56.3009322 91.643764,56.0321186 C91.2384234,55.7405593 91.4182283,55.3518136 91.5616565,54.9961525 C92.3557083,53.0317458 93.1445635,51.0642373 93.773361,49.0388305 C94.2317077,47.5582881 94.689015,46.075678 94.7264311,44.5072542 C94.7617685,42.9481356 94.3221298,42.4074068 92.7839143,42.09 C91.5689319,41.8397966 90.3352414,41.8687458 89.4279021,41.8532373" id="Fill-11" fill="#B6B6B6"></path>
                </g>
            </g>
        </g>
    </g>
</svg>