<?xml version="1.0" encoding="UTF-8"?>
<svg width="210px" height="210px" viewBox="0 0 210 210" version="1.1" xmlns="http://www.w3.org/2000/svg" xmlns:xlink="http://www.w3.org/1999/xlink">
    <!-- Generator: Sketch 46.2 (44496) - http://www.bohemiancoding.com/sketch -->
    <title>Group 22</title>
    <desc>Created with Sketch.</desc>
    <defs></defs>
    <g id="Page-1" stroke="none" stroke-width="1" fill="none" fill-rule="evenodd">
        <g id="Web-Design-Service" transform="translate(-739.000000, -3323.000000)">
            <g id="Group-22" transform="translate(739.000000, 3323.000000)">
                <rect id="Rectangle-18-Copy-2" fill="#F3F3F3" x="0" y="0" width="210" height="210"></rect>
                <g id="Page-1" transform="translate(71.000000, 59.000000)">
                    <path d="M53.697,0.000199999999 C53.697,1.4072 53.691,2.8142 53.7,4.2222 C53.702,4.4292 53.636,4.4632 53.449,4.4612 C52.237,4.4542 51.025,4.4582 49.812,4.4582 L49.529,4.4582 C49.649,4.5662 49.727,4.6332 49.801,4.7062 C51.047,5.9292 52.291,7.1552 53.54,8.3752 C53.652,8.4852 53.7,8.5912 53.699,8.7502 C53.692,9.9622 53.693,11.1752 53.698,12.3872 C53.698,12.5412 53.681,12.6072 53.496,12.6062 C50.155,12.6002 46.813,12.6002 43.472,12.6052 C43.312,12.6052 43.267,12.5712 43.268,12.4052 C43.276,11.1792 43.277,9.9522 43.268,8.7252 C43.267,8.5562 43.317,8.5262 43.474,8.5272 C44.765,8.5342 46.057,8.5312 47.365,8.5312 C47.349,8.4422 47.276,8.4032 47.226,8.3542 C45.959,7.1002 44.692,5.8472 43.421,4.5972 C43.316,4.4942 43.268,4.3922 43.269,4.2422 C43.275,2.9072 43.273,1.5722 43.272,0.2362 C43.272,0.1582 43.265,0.0792 43.26,0.000199999999 L53.697,0.000199999999 Z" id="Fill-1" fill="#030405"></path>
                    <path d="M38.9304,0.000199999999 C38.9364,0.0632 38.9484,0.1272 38.9484,0.1912 C38.9494,1.5412 38.9454,2.8902 38.9524,4.2392 C38.9534,4.4202 38.9054,4.4632 38.7264,4.4622 C37.4364,4.4542 36.1454,4.4582 34.8544,4.4582 C34.8394,4.4752 34.8244,4.4932 34.8084,4.5102 C34.8744,4.5602 34.9464,4.6022 35.0044,4.6592 C36.2724,5.9012 37.5374,7.1462 38.8064,8.3862 C38.9074,8.4842 38.9524,8.5802 38.9514,8.7232 C38.9464,9.9502 38.9454,11.1762 38.9524,12.4032 C38.9534,12.5582 38.9244,12.6062 38.7564,12.6062 C35.4154,12.6002 32.0754,12.6002 28.7344,12.6052 C28.5754,12.6052 28.5324,12.5722 28.5334,12.4082 C28.5414,11.1812 28.5404,9.9552 28.5334,8.7282 C28.5324,8.5702 28.5654,8.5252 28.7314,8.5262 C29.9574,8.5352 31.1844,8.5312 32.4104,8.5312 L32.6534,8.5312 C32.0844,7.9592 31.5454,7.4132 30.9994,6.8722 C30.2244,6.1062 29.4474,5.3432 28.6664,4.5832 C28.5704,4.4892 28.5344,4.3972 28.5344,4.2642 C28.5394,2.8432 28.5374,1.4212 28.5374,0.000199999999 L38.9304,0.000199999999 Z" id="Fill-3" fill="#030405"></path>
                    <path d="M24.1198,0.000199999999 C24.1158,0.0792 24.1058,0.1572 24.1058,0.2362 C24.1048,1.5572 24.0988,2.8772 24.1118,4.1982 C24.1148,4.4282 24.0438,4.4632 23.8358,4.4622 C22.0168,4.4542 20.1988,4.4612 18.3798,4.4532 C18.1868,4.4522 18.1448,4.5002 18.1468,4.6892 C18.1558,5.9012 18.1558,7.1142 18.1468,8.3262 C18.1458,8.5022 18.1998,8.5352 18.3628,8.5352 C20.2028,8.5292 22.0428,8.5342 23.8838,8.5272 C24.0588,8.5262 24.1118,8.5622 24.1108,8.7472 C24.1008,9.9672 24.1018,11.1872 24.1098,12.4062 C24.1108,12.5732 24.0638,12.6052 23.9058,12.6052 C20.5638,12.6002 17.2228,12.5992 13.8818,12.6062 C13.6898,12.6072 13.6828,12.5312 13.6828,12.3842 C13.6858,8.2562 13.6838,4.1282 13.6838,0.000199999999 L24.1198,0.000199999999 Z" id="Fill-5" fill="#030405"></path>
                    <path d="M12.3083,32.527 C12.3803,32.433 12.4823,32.48 12.5683,32.48 C19.5033,32.477 26.4393,32.478 33.3743,32.477 C33.7293,32.476 33.6893,32.518 33.6893,32.17 C33.6903,29.579 33.6923,26.988 33.6863,24.397 C33.6853,24.19 33.7213,24.116 33.9533,24.117 C42.8883,24.124 51.8223,24.123 60.7573,24.123 C61.0273,24.123 61.0383,24.149 61.0083,24.423 C60.9453,25.001 60.8963,25.58 60.8433,26.159 C60.7873,26.767 60.7303,27.375 60.6783,27.983 C60.6303,28.541 60.5873,29.1 60.5383,29.658 C60.4863,30.252 60.4293,30.845 60.3763,31.439 C60.3283,31.983 60.2843,32.527 60.2363,33.071 C60.1833,33.686 60.1243,34.301 60.0713,34.917 C60.0233,35.467 59.9803,36.019 59.9333,36.57 C59.8803,37.171 59.8213,37.772 59.7693,38.373 C59.7213,38.931 59.6783,39.49 59.6293,40.048 C59.5773,40.642 59.5193,41.235 59.4673,41.829 C59.4333,42.215 59.4033,42.602 59.3703,42.988 C59.3153,43.604 59.2583,44.218 59.2043,44.834 C59.1563,45.392 59.1143,45.951 59.0653,46.509 C59.0143,47.103 58.9553,47.696 58.9023,48.29 C58.8543,48.827 58.8103,49.364 58.7643,49.901 C58.7093,50.523 58.6513,51.145 58.5983,51.767 C58.5643,52.14 58.5373,52.512 58.5043,52.884 C58.4503,53.492 58.3913,54.1 58.3393,54.708 C58.2903,55.266 58.2493,55.825 58.2003,56.383 C58.1483,56.977 58.0903,57.57 58.0373,58.164 C58.0033,58.544 57.9753,58.923 57.9403,59.303 C57.8723,60.082 57.7993,60.862 57.7313,61.642 C57.6833,62.214 57.6423,62.788 57.5933,63.36 C57.5423,63.94 57.4813,64.518 57.4303,65.098 C57.3803,65.663 57.3403,66.229 57.2903,66.795 C57.2393,67.381 57.1813,67.967 57.1283,68.554 C57.0943,68.933 57.0653,69.313 57.0313,69.692 C56.9633,70.472 56.8913,71.252 56.8233,72.031 C56.7743,72.59 56.7333,73.149 56.6843,73.707 C56.6323,74.3 56.5743,74.894 56.5203,75.487 C56.4873,75.86 56.4593,76.232 56.4263,76.604 C56.3563,77.391 56.2833,78.178 56.2163,78.965 C56.1673,79.537 56.1263,80.111 56.0773,80.684 C56.0293,81.249 55.9693,81.813 55.9273,82.379 C55.9143,82.548 55.8343,82.61 55.6833,82.65 C54.7933,82.882 53.9043,83.121 53.0163,83.36 C50.9063,83.929 48.7963,84.5 46.6853,85.068 C45.0403,85.511 43.3943,85.95 41.7493,86.393 C39.6393,86.962 37.5303,87.532 35.4193,88.102 C34.9333,88.233 34.4473,88.361 33.9603,88.488 C33.7093,88.554 33.6903,88.539 33.6903,88.277 C33.6893,85.542 33.6883,82.807 33.6873,80.072 C33.6923,80.061 33.6983,80.05 33.7023,80.039 C33.7653,80.025 33.8293,80.015 33.8913,79.997 C36.0743,79.36 38.2563,78.723 40.4383,78.085 C41.1213,77.884 41.8023,77.677 42.4833,77.473 C42.5253,77.465 42.5693,77.462 42.6103,77.449 C44.5303,76.885 46.4503,76.319 48.3713,75.756 C49.1503,75.528 49.9323,75.308 50.7133,75.083 C50.8013,75.058 50.8813,75.042 50.8893,74.91 C50.9223,74.414 50.9723,73.919 51.0153,73.424 C51.0903,72.548 51.1643,71.672 51.2413,70.797 C51.3373,69.698 51.4363,68.601 51.5323,67.503 C51.6093,66.612 51.6833,65.722 51.7603,64.832 C51.8573,63.713 51.9563,62.593 52.0543,61.473 C52.1303,60.598 52.2043,59.722 52.2813,58.846 C52.3763,57.756 52.4753,56.665 52.5713,55.574 C52.6493,54.677 52.7213,53.779 52.8003,52.882 C52.8943,51.805 52.9883,50.729 53.0923,49.653 C53.1123,49.447 53.0453,49.406 52.8503,49.406 C49.6103,49.412 46.3713,49.411 43.1303,49.411 C42.8853,49.411 42.6403,49.415 42.3953,49.418 C42.3083,49.415 42.2223,49.41 42.1363,49.41 C40.0293,49.41 37.9223,49.411 35.8153,49.41 C35.0933,49.41 34.3723,49.406 33.6503,49.404 C33.6503,49.404 33.6533,49.407 33.6533,49.407 C33.6533,49.396 33.6523,49.386 33.6513,49.376 C33.6993,49.361 33.7483,49.351 33.7943,49.331 C36.3123,48.256 38.8323,47.184 41.3473,46.1 C42.7563,45.493 44.1773,44.916 45.5723,44.277 C46.2183,43.98 46.8793,43.717 47.5333,43.439 C48.4893,43.034 49.4453,42.63 50.3993,42.223 C51.0803,41.934 51.7603,41.641 52.4403,41.349 C52.8393,41.194 53.2353,41.033 53.6183,40.841 C53.9093,40.81 53.8463,40.572 53.8653,40.397 C53.9363,39.746 53.9943,39.094 54.0593,38.443 C54.1243,37.792 54.1923,37.141 54.2593,36.49 C54.3253,35.846 54.3913,35.202 54.4573,34.559 C54.5203,33.937 54.5843,33.314 54.6463,32.692 C54.6583,32.579 54.6673,32.504 54.4913,32.504 C50.7183,32.512 46.9463,32.511 43.1733,32.511 C43.0863,32.512 43.0003,32.516 42.9133,32.518 C42.8633,32.515 42.8133,32.51 42.7633,32.51 C39.7893,32.51 36.8163,32.511 33.8433,32.512 C33.7783,32.512 33.7133,32.519 33.6483,32.523 C33.5773,32.52 33.5043,32.516 33.4333,32.516 C26.4703,32.516 19.5083,32.517 12.5463,32.518 C12.4673,32.518 12.3883,32.524 12.3083,32.527" id="Fill-7" fill="#B9B9B8"></path>
                    <path d="M33.7024,80.0392 C33.6984,80.0502 33.6924,80.0612 33.6874,80.0722 C32.5304,79.7262 31.3734,79.3782 30.2154,79.0352 C26.3654,77.8932 22.5144,76.7522 18.6634,75.6122 C17.9734,75.4072 17.2834,75.2002 16.5914,75.0022 C16.4594,74.9642 16.4164,74.9042 16.4044,74.7662 C16.2564,73.0062 16.0984,71.2472 15.9464,69.4872 C15.8234,68.0582 15.7054,66.6282 15.5844,65.1992 C15.5004,64.2152 15.4164,63.2312 15.3254,62.2472 C15.3094,62.0802 15.3484,62.0242 15.5274,62.0252 C18.2334,62.0302 20.9394,62.0292 23.6454,62.0252 C23.7934,62.0252 23.8554,62.0512 23.8694,62.2212 C24.0154,64.0462 24.1744,65.8702 24.3274,67.6952 C24.3504,67.9682 24.3734,68.2412 24.3844,68.5152 C24.3904,68.6662 24.4474,68.7372 24.6034,68.7752 C26.0854,69.1422 27.5644,69.5192 29.0444,69.8922 C30.5014,70.2592 31.9584,70.6242 33.4154,70.9892 C33.4924,71.0092 33.5714,71.0192 33.6484,71.0332 C33.6484,73.9622 33.6474,76.8902 33.6474,79.8192 C33.6474,79.8952 33.6254,79.9802 33.7024,80.0392" id="Fill-9" fill="#E2E2E0"></path>
                    <path d="M12.3083,32.527 C12.3883,32.524 12.4673,32.518 12.5463,32.518 C19.5083,32.517 26.4703,32.516 33.4333,32.516 C33.5043,32.516 33.5773,32.52 33.6483,32.523 L33.6483,40.748 C33.5623,40.751 33.4753,40.756 33.3903,40.756 C30.8293,40.756 28.2703,40.755 25.7103,40.755 C21.5863,40.756 17.4623,40.756 13.3383,40.756 C13.2663,40.214 13.1903,39.673 13.1223,39.131 C12.9663,37.887 12.8133,36.644 12.6603,35.4 C12.5423,34.443 12.4263,33.485 12.3083,32.527" id="Fill-11" fill="#E2E2E0"></path>
                    <path d="M33.6877,71.0119 C33.6887,67.2839 33.6897,63.5569 33.6897,59.8289 C33.6907,59.0719 33.6887,58.3149 33.6887,57.5579 C33.7177,57.5559 33.7467,57.5519 33.7747,57.5519 C37.0877,57.5639 40.4017,57.5769 43.7147,57.5899 C43.7507,57.5899 43.7867,57.5949 43.8227,57.5989 C43.7927,58.1099 43.7637,58.6199 43.7337,59.1319 C43.6877,59.9079 43.6427,60.6859 43.5957,61.4629 C43.5137,62.8079 43.4277,64.1529 43.3467,65.4989 C43.2977,66.3039 43.2587,67.1109 43.2037,67.9159 C43.1727,68.3579 43.1617,68.3569 42.7287,68.4799 C42.6307,68.5079 42.5357,68.5389 42.4387,68.5689 C40.8457,69.0139 39.2517,69.4579 37.6577,69.9029 C36.3347,70.2729 35.0107,70.6419 33.6877,71.0119" id="Fill-13" fill="#B9B9B8"></path>
                    <path d="M33.4598,41.3244 C29.5918,42.9364 25.7238,44.5484 21.8568,46.1614 C21.1078,46.4744 20.3618,46.7944 19.6148,47.1114 C19.5808,47.1214 19.5448,47.1284 19.5118,47.1414 C17.7288,47.8854 15.9458,48.6304 14.1628,49.3754 C13.9928,49.4454 14.0798,49.5884 14.0868,49.6924 C14.1768,50.8414 14.2778,51.9894 14.3708,53.1394 C14.4788,54.4964 14.5858,55.8544 14.6858,57.2134 C14.7008,57.4244 14.7658,57.4984 14.9938,57.4984 C21.1328,57.5104 27.2718,57.5314 33.4108,57.5514 C33.4898,57.5514 33.5688,57.5464 33.6478,57.5434 C33.6488,54.8314 33.6498,52.1184 33.6508,49.4064 C33.6528,49.3997333 33.6514667,48.6504 33.6468,47.1584 C33.6588,46.7774 33.6728,46.3964 33.6788,46.0164 C33.7018,44.4314 33.6868,42.8454 33.6858,41.2594 C33.6098,41.2804 33.5318,41.2954 33.4598,41.3244 Z" id="Fill-15" fill="#E2E2E0"></path>
                    <g id="Group-19" transform="translate(0.000000, 18.382000)" fill="#848484">
                        <path d="M61.008,6.0405 C60.946,6.6185 60.897,7.1985 60.843,7.7775 C60.787,8.3855 60.731,8.9925 60.678,9.6015 C60.63,10.1595 60.587,10.7185 60.538,11.2765 C60.487,11.8705 60.429,12.4635 60.376,13.0575 C60.328,13.6015 60.284,14.1445 60.237,14.6885 C60.183,15.3045 60.124,15.9195 60.071,16.5345 C60.024,17.0855 59.981,17.6375 59.933,18.1885 C59.88,18.7895 59.821,19.3895 59.77,19.9905 C59.721,20.5485 59.678,21.1075 59.629,21.6655 C59.577,22.2595 59.52,22.8525 59.467,23.4465 C59.433,23.8325 59.404,24.2205 59.37,24.6065 C59.316,25.2215 59.258,25.8365 59.204,26.4515 C59.156,27.0105 59.114,27.5695 59.066,28.1275 C59.014,28.7215 58.955,29.3145 58.903,29.9085 C58.855,30.4445 58.811,30.9815 58.764,31.5185 C58.709,32.1415 58.652,32.7635 58.598,33.3855 C58.565,33.7575 58.537,34.1305 58.504,34.5025 C58.45,35.1105 58.392,35.7175 58.339,36.3265 C58.29,36.8845 58.249,37.4435 58.2,38.0015 C58.149,38.5955 58.09,39.1885 58.037,39.7825 C58.003,40.1615 57.975,40.5415 57.941,40.9205 C57.872,41.7005 57.799,42.4795 57.732,43.2595 C57.683,43.8325 57.643,44.4055 57.593,44.9785 C57.542,45.5585 57.482,46.1365 57.43,46.7155 C57.38,47.2815 57.34,47.8475 57.29,48.4135 C57.239,48.9995 57.181,49.5855 57.128,50.1715 C57.094,50.5515 57.066,50.9305 57.031,51.3105 C56.963,52.0895 56.891,52.8695 56.823,53.6485 C56.775,54.2075 56.734,54.7665 56.685,55.3245 C56.632,55.9185 56.574,56.5115 56.521,57.1055 C56.487,57.4775 56.459,57.8505 56.426,58.2225 C56.357,59.0085 56.283,59.7955 56.216,60.5825 C56.167,61.1555 56.126,61.7285 56.077,62.3015 C56.029,62.8665 55.969,63.4315 55.927,63.9965 C55.914,64.1655 55.834,64.2285 55.683,64.2675 C54.793,64.5005 53.904,64.7395 53.016,64.9785 C50.906,65.5465 48.796,66.1175 46.686,66.6855 C45.041,67.1285 43.395,67.5675 41.75,68.0105 C39.639,68.5795 37.53,69.1505 35.42,69.7195 C34.934,69.8505 34.447,69.9785 33.961,70.1065 C33.709,70.1725 33.691,70.1565 33.691,69.8945 C33.689,67.1605 33.688,64.4255 33.687,61.6895 C32.53,61.3445 31.374,60.9965 30.216,60.6525 C26.365,59.5105 22.514,58.3705 18.664,57.2295 C17.973,57.0255 17.283,56.8185 16.591,56.6205 C16.459,56.5825 16.416,56.5225 16.404,56.3845 C16.257,54.6245 16.098,52.8655 15.946,51.1055 C15.823,49.6765 15.706,48.2465 15.584,46.8165 C15.5,45.8325 15.416,44.8485 15.325,43.8655 C15.309,43.6975 15.348,43.6425 15.527,43.6435 C18.233,43.6475 20.94,43.6465 23.646,43.6435 C23.793,43.6435 23.855,43.6695 23.869,43.8385 C24.016,45.6645 24.174,47.4885 24.328,49.3125 C24.351,49.5855 24.373,49.8595 24.384,50.1325 C24.391,50.2845 24.447,50.3545 24.603,50.3935 C26.085,50.7605 27.565,51.1375 29.045,51.5095 C30.502,51.8765 31.959,52.2425 33.416,52.6075 C33.492,52.6265 33.571,52.6375 33.649,52.6515 C33.662,52.6445 33.675,52.6375 33.688,52.6295 C33.689,48.9025 33.69,45.1745 33.69,41.4465 C33.691,40.6895 33.689,39.9325 33.689,39.1755 C33.675,39.1705 33.662,39.1655 33.648,39.1615 C33.569,39.1645 33.49,39.1685 33.411,39.1685 C27.272,39.1495 21.133,39.1285 14.994,39.1165 C14.766,39.1165 14.7,39.0415 14.685,38.8315 C14.586,37.4725 14.479,36.1145 14.37,34.7575 C14.278,33.6075 14.176,32.4595 14.087,31.3105 C14.079,31.2065 13.993,31.0635 14.163,30.9935 C15.945,30.2485 17.729,29.5035 19.512,28.7595 C19.545,28.7465 19.58,28.7395 19.614,28.7295 C20.362,28.4125 21.108,28.0925 21.857,27.7795 C25.724,26.1655 29.591,24.5545 33.46,22.9425 C33.531,22.9135 33.61,22.8985 33.686,22.8775 C33.687,22.8665 33.689,22.8565 33.693,22.8465 C33.728,22.8395 33.762,22.8325 33.798,22.8265 C34.108,22.6875 34.418,22.5495 34.728,22.4115 L34.727,22.3665 L33.649,22.3665 C33.562,22.3685 33.476,22.3735 33.39,22.3735 C30.83,22.3735 28.27,22.3735 25.711,22.3735 C21.587,22.3735 17.463,22.3735 13.339,22.3745 C13.266,21.8325 13.191,21.2905 13.123,20.7485 C12.966,19.5055 12.814,18.2615 12.66,17.0185 C12.543,16.0605 12.426,15.1035 12.308,14.1445 C12.381,14.0515 12.482,14.0985 12.568,14.0985 C19.504,14.0955 26.439,14.0955 33.374,14.0945 C33.73,14.0945 33.69,14.1365 33.69,13.7885 C33.691,11.1975 33.693,8.6055 33.686,6.0155 C33.686,5.8075 33.721,5.7345 33.953,5.7345 C42.888,5.7415 51.822,5.7405 60.757,5.7405 C61.028,5.7405 61.038,5.7665 61.008,6.0405 M67.103,0.2025 L33.696,0.2025 C22.546,0.2025 11.395,0.2025 0.245,0.2025 C-0.018,0.2025 -0.014,0.2025 0.011,0.4625 C0.152,1.9485 0.292,3.4345 0.429,4.9205 C0.551,6.2485 0.669,7.5775 0.791,8.9055 C0.929,10.3925 1.071,11.8775 1.208,13.3645 C1.331,14.6925 1.448,16.0215 1.571,17.3505 C1.708,18.8365 1.85,20.3225 1.987,21.8085 C2.111,23.1365 2.228,24.4655 2.35,25.7945 C2.487,27.2805 2.63,28.7665 2.767,30.2525 C2.891,31.5885 3.008,32.9245 3.132,34.2605 C3.269,35.7395 3.41,37.2185 3.547,38.6975 C3.684,40.1845 3.815,41.6705 3.952,43.1575 C4.09,44.6435 4.232,46.1295 4.369,47.6155 C4.507,49.1025 4.637,50.5885 4.775,52.0755 C4.941,53.8635 5.112,55.6505 5.277,57.4375 C5.429,59.0825 5.574,60.7275 5.725,62.3715 C5.91,64.3895 6.099,66.4065 6.282,68.4245 C6.296,68.5795 6.339,68.6615 6.504,68.7055 C15.502,71.1245 24.499,73.5485 33.496,75.9745 C33.633,76.0115 33.76,76.0075 33.895,75.9705 C36.342,75.3085 38.789,74.6475 41.237,73.9885 C47.78,72.2265 54.323,70.4645 60.867,68.7075 C61.013,68.6675 61.085,68.6105 61.095,68.4545 C61.118,68.0865 61.156,67.7215 61.19,67.3545 C61.295,66.1985 61.401,65.0425 61.507,63.8865 C61.631,62.5505 61.757,61.2155 61.88,59.8795 C61.987,58.7165 62.092,57.5535 62.199,56.3905 C62.309,55.1985 62.421,54.0065 62.531,52.8145 C62.624,51.8095 62.716,50.8045 62.809,49.7985 C62.917,48.6215 63.028,47.4435 63.137,46.2665 C63.23,45.2535 63.321,44.2415 63.414,43.2285 C63.523,42.0585 63.634,40.8885 63.742,39.7185 C63.836,38.7065 63.926,37.6935 64.019,36.6815 C64.143,35.3385 64.269,33.9965 64.393,32.6535 C64.5,31.4905 64.605,30.3265 64.712,29.1635 C64.822,27.9715 64.934,26.7795 65.044,25.5875 C65.137,24.5905 65.228,23.5915 65.32,22.5935 C65.429,21.4165 65.54,20.2395 65.649,19.0615 C65.756,17.8985 65.86,16.7345 65.967,15.5715 C66.091,14.2365 66.218,12.9005 66.341,11.5655 C66.448,10.4025 66.552,9.2385 66.659,8.0755 C66.783,6.7255 66.909,5.3755 67.035,4.0265 C67.145,2.8485 67.253,1.6705 67.366,0.4935 C67.395,0.2015 67.403,0.2025 67.103,0.2025" id="Fill-17"></path>
                    </g>
                    <path d="M52.8508,49.4059 C49.6108,49.4119 46.3708,49.4109 43.1308,49.4109 C42.8858,49.4109 42.6408,49.4149 42.3948,49.4179 C42.3088,49.4149 42.2228,49.4099 42.1358,49.4099 C40.0288,49.4099 37.9218,49.4109 35.8148,49.4099 C35.0938,49.4099 34.3718,49.4059 33.6508,49.4049 C33.6498,52.1169 33.6488,54.8299 33.6478,57.5439 C33.6618,57.5479 33.6748,57.5529 33.6888,57.5579 C33.7178,57.5549 33.7458,57.5519 33.7748,57.5519 C37.0878,57.5639 40.4018,57.5769 43.7158,57.5899 C43.7508,57.5899 43.7868,57.5949 43.8228,57.5989 C43.7928,58.1099 43.7638,58.6199 43.7328,59.1319 C43.6878,59.9079 43.6428,60.6859 43.5958,61.4629 C43.5138,62.8079 43.4278,64.1529 43.3468,65.4989 C43.2978,66.3039 43.2588,67.1109 43.2038,67.9159 C43.1728,68.3579 43.1618,68.3569 42.7278,68.4799 C42.6308,68.5079 42.5358,68.5389 42.4388,68.5689 C40.8458,69.0139 39.2518,69.4579 37.6578,69.9029 C36.3348,70.2729 35.0108,70.6419 33.6878,71.0119 C33.6748,71.0189 33.6618,71.0269 33.6488,71.0329 C33.6478,73.9619 33.6478,76.8899 33.6478,79.8189 C33.6478,79.8959 33.6248,79.9809 33.7028,80.0389 C33.7658,80.0249 33.8298,80.0149 33.8918,79.9969 C36.0738,79.3599 38.2568,78.7239 40.4388,78.0849 C41.1218,77.8849 41.8018,77.6769 42.4838,77.4729 C42.5258,77.4659 42.5688,77.4619 42.6098,77.4489 C44.5308,76.8849 46.4508,76.3189 48.3718,75.7559 C49.1508,75.5279 49.9328,75.3079 50.7128,75.0829 C50.8008,75.0579 50.8808,75.0419 50.8898,74.9099 C50.9218,74.4139 50.9718,73.9189 51.0148,73.4239 C51.0908,72.5479 51.1648,71.6719 51.2418,70.7969 C51.3378,69.6979 51.4368,68.6009 51.5328,67.5029 C51.6098,66.6129 51.6828,65.7219 51.7598,64.8319 C51.8568,63.7129 51.9568,62.5929 52.0548,61.4729 C52.1308,60.5979 52.2048,59.7219 52.2808,58.8459 C52.3768,57.7559 52.4758,56.6649 52.5708,55.5739 C52.6488,54.6769 52.7218,53.7789 52.7998,52.8819 C52.8938,51.8049 52.9878,50.7289 53.0918,49.6539 C53.1118,49.4479 53.0458,49.4059 52.8508,49.4059" id="Fill-20" fill="#FDFDFD"></path>
                    <path d="M54.4914,32.5041 C50.7194,32.5121 46.9464,32.5111 43.1734,32.5111 C43.0864,32.5111 43.0004,32.5161 42.9134,32.5181 C42.8634,32.5151 42.8134,32.5101 42.7624,32.5101 C39.7894,32.5101 36.8164,32.5111 33.8434,32.5121 C33.7784,32.5121 33.7134,32.5191 33.6484,32.5231 L33.6484,40.7481 L34.7264,40.7481 L34.7284,40.7941 C34.4174,40.9321 34.1074,41.0701 33.7974,41.2091 C33.7624,41.2151 33.7274,41.2221 33.6934,41.2291 C33.6894,41.2381 33.6864,41.2491 33.6854,41.2591 C33.6864,42.8451 33.7014,44.4311 33.6784,46.0171 C33.6734,46.3961 33.6584,46.7771 33.6464,47.1581 L33.6514,49.3761 C33.6994,49.3611 33.7484,49.3511 33.7944,49.3311 C36.3124,48.2551 38.8324,47.1841 41.3474,46.1001 C42.7564,45.4931 44.1774,44.9161 45.5724,44.2761 C46.2184,43.9801 46.8794,43.7171 47.5334,43.4391 C48.4894,43.0341 49.4454,42.6301 50.3994,42.2231 C51.0804,41.9341 51.7604,41.6411 52.4404,41.3491 C52.8394,41.1941 53.2354,41.0331 53.6174,40.8411 C53.9094,40.8101 53.8464,40.5721 53.8654,40.3971 C53.9364,39.7461 53.9934,39.0941 54.0594,38.4431 C54.1244,37.7921 54.1924,37.1411 54.2594,36.4901 C54.3254,35.8461 54.3904,35.2021 54.4574,34.5591 C54.5204,33.9361 54.5844,33.3141 54.6474,32.6921 C54.6584,32.5791 54.6674,32.5041 54.4914,32.5041" id="Fill-22" fill="#FDFDFD"></path>
                </g>
            </g>
        </g>
    </g>
</svg>