<?xml version="1.0" encoding="UTF-8"?>
<svg width="210px" height="210px" viewBox="0 0 210 210" version="1.1" xmlns="http://www.w3.org/2000/svg" xmlns:xlink="http://www.w3.org/1999/xlink">
    <!-- Generator: Sketch 46.2 (44496) - http://www.bohemiancoding.com/sketch -->
    <title>Group 30</title>
    <desc>Created with Sketch.</desc>
    <defs>
        <polygon id="path-1" points="30.3539505 0.814494681 0.680249881 0.814494681 0.680249881 41.3600803 30.3539505 41.3600803 30.3539505 0.814494681"></polygon>
        <polygon id="path-3" points="0 50.3822207 174.108245 50.3822207 174.108245 0.930757979 0 0.930757979"></polygon>
    </defs>
    <g id="Page-1" stroke="none" stroke-width="1" fill="none" fill-rule="evenodd">
        <g id="Web-Design-Service" transform="translate(-739.000000, -3553.000000)">
            <g id="Group-30" transform="translate(739.000000, 3553.000000)">
                <rect id="Rectangle-18-Copy-8" fill="#F3F3F3" x="0" y="0" width="210" height="210"></rect>
                <g id="Page-1" transform="translate(18.000000, 79.000000)">
                    <g id="Group-3" transform="translate(0.000000, 1.977965)" fill="#4A4A4A">
                        <path d="M2.5837893e-17,24.4456383 L2.5837893e-17,22.8594681 C0.0549202128,22.7291489 0.0614361702,22.5895213 0.0698138298,22.4517553 C0.0940159574,22.016117 0.13962766,21.5832713 0.19268617,21.1494947 C0.34162234,19.9077394 0.596675532,18.6873936 0.955984043,17.4903191 C2.10930851,13.6570745 4.14414894,10.3562766 7.00093085,7.56279255 C9.12885638,5.48140957 11.5732713,3.86265957 14.299734,2.66930851 C16.0906915,1.88739362 17.9505319,1.32981383 19.8708777,0.97143617 C20.1287234,0.923031915 20.3884309,0.885797872 20.6518617,0.842978723 C20.6490691,0.919308511 20.5941489,0.941648936 20.5578457,0.975159574 C19.1606383,2.28486702 18.0277926,3.7956383 17.1509309,5.49723404 C16.456516,6.84231383 15.9231383,8.24417553 15.7230053,9.75587766 C15.7099734,9.85361702 15.6643617,9.90481383 15.5889628,9.95507979 C15.031383,10.3218351 14.4738032,10.6885904 13.9413564,11.0897872 C12.5757979,12.1183777 11.3601064,13.2959043 10.3398936,14.6717021 C8.65691489,16.9401862 7.69534574,19.4963032 7.34534574,22.2888564 C7.19454787,23.4859309 7.16755319,24.6867287 7.25132979,25.8903191 C7.32952128,27.0082713 7.52779255,28.103883 7.83776596,29.179016 C9.23869681,34.0455053 12.837367,38.0546809 17.550266,39.9992287 C19.2658245,40.7076064 21.0511968,41.1190426 22.9054521,41.2363298 C24.0457447,41.3080053 25.1785904,41.2605319 26.3067819,41.097633 C27.4396277,40.9338032 28.5454787,40.6517553 29.6159574,40.2496277 C33.0210106,38.9706383 35.7660904,36.8408511 37.8102394,33.8295479 C39.5509309,31.2631915 40.4743351,28.4185106 40.6046543,25.3225 C40.6660904,23.8573404 40.5134309,22.4052128 40.1662234,20.9782181 C39.4569149,18.0637234 38.0448138,15.5271543 35.9988032,13.3433777 C33.9416223,11.1493617 31.4841755,9.56039894 28.6413564,8.57648936 C28.3090426,8.46106383 28.0800532,8.28047872 27.9255319,7.98074468 C27.8948138,7.92117021 27.8594415,7.86531915 27.8277926,7.80760638 C27.5140957,7.22861702 27.3018617,6.61239362 27.1529255,5.97289894 C26.9081117,4.92103723 26.8150266,3.86079787 27.0151596,2.7893883 C27.1333777,2.15734043 27.3651596,1.57462766 27.7700798,1.06545213 C27.8519947,0.96212766 27.9283245,0.93606383 28.0549202,0.966781915 C28.7595745,1.14178191 29.4642287,1.31305851 30.1586436,1.52156915 C32.5611702,2.24111702 34.8398936,3.23340426 36.9529255,4.59244681 C39.4168883,6.17675532 41.5010638,8.15853723 43.2138298,10.535 C44.9535904,12.9496277 46.2288564,15.5839362 46.9847074,18.4667819 C47.2956117,19.6508245 47.505984,20.8525532 47.6335106,22.0691755 C47.706117,22.766383 47.7191489,23.466383 47.7284574,24.1673138 C47.7452128,25.4258245 47.6781915,26.6759574 47.4882979,27.9214362 C47.2974734,29.1697074 47.0219415,30.3993617 46.6412234,31.6029521 C45.5353723,35.103883 43.7444149,38.210133 41.2329787,40.8900532 C38.2179521,44.1089362 34.5699468,46.2982979 30.3261968,47.4953723 C28.4738032,48.0166489 26.5832447,48.2875266 24.6638298,48.3740957 C24.6005319,48.3778191 24.5316489,48.3564096 24.4739362,48.403883 L23.3234043,48.403883 C23.2759309,48.353617 23.212633,48.3750266 23.1549202,48.3703723 C22.6680851,48.3377926 22.1784574,48.3219681 21.6925532,48.2744947 C20.7719415,48.1842021 19.8587766,48.0482979 18.9549202,47.8528191 C16.8009309,47.3873936 14.750266,46.6455053 12.8038564,45.6131915 C10.1527926,44.2085372 7.84521277,42.3701064 5.88763298,40.0978989 C4.27074468,38.2231649 2.98058511,36.1427128 2.01808511,33.8611968 C1.3543883,32.2871277 0.861968085,30.6609309 0.550132979,28.9807447 C0.35,27.9028191 0.171276596,26.8211702 0.0986702128,25.7255585 C0.0707446809,25.2982979 -0.00186170213,24.8747606 2.5837893e-17,24.4456383" id="Fill-1"></path>
                    </g>
                    <g id="Group-6" transform="translate(8.377660, 0.116263)">
                        <mask id="mask-2" fill="white">
                            <use xlink:href="#path-1"></use>
                        </mask>
                        <g id="Clip-5"></g>
                        <path d="M18.3056516,0.814401596 C18.3605718,0.901901596 18.2795878,0.948444149 18.2432846,1.00243351 C17.9100399,1.51253989 17.6177527,2.04405585 17.3794548,2.60442819 C16.8553856,3.8387367 16.6068484,5.12796543 16.6626995,6.46746011 C16.7194814,7.82557181 17.0564495,9.11386968 17.6801197,10.3239761 C18.3736037,11.6690559 19.1536569,12.9648005 19.9309176,14.2614761 C20.4624335,15.1504388 21.0069814,16.0338165 21.465891,16.9655984 C22.0672207,18.1840824 22.5447473,19.4463165 22.8230718,20.7783644 C23.0920878,22.0694548 23.1553856,23.3698537 23.0120346,24.6814229 C23.0017952,24.7717154 22.9813165,24.8638697 23.0036569,24.9578856 C23.0855718,24.9765027 23.1460771,24.9271676 23.2075133,24.8955186 C24.0750665,24.443125 24.7499335,23.7999069 25.1930186,22.9165293 C25.7571144,21.7939229 26.0103059,20.6070878 25.9637633,19.3550931 C25.9274601,18.3925931 25.7375665,17.4552261 25.4387633,16.5411303 C25.2684176,16.0207846 25.0915559,15.5023005 24.9174867,14.9838165 C24.9286569,14.9735771 24.940758,14.9624069 24.952859,14.9521676 C25.2498005,15.1411303 25.5048537,15.3812899 25.7589761,15.6205186 C26.8741356,16.6677261 27.7519282,17.8945878 28.4668218,19.2405984 C29.2785239,20.7690559 29.8286569,22.3896676 30.1265293,24.0940559 C30.3620346,25.4354122 30.4132314,26.7860771 30.2866356,28.1423271 C30.0008644,31.2029654 28.7740027,33.8503059 26.7577793,36.1457846 C25.272141,37.837141 23.5053856,39.1589495 21.4603059,40.1009707 C20.1319814,40.711609 18.7431516,41.1174601 17.284508,41.2710505 C16.2950133,41.374375 15.3055186,41.3874069 14.3150931,41.312008 C12.8024601,41.1956516 11.3419548,40.8549601 9.93543883,40.2899335 C8.1174867,39.5601463 6.50525266,38.5092154 5.09966755,37.1427261 C3.47253989,35.5602793 2.26429521,33.7023005 1.49168883,31.5669282 C1.07932181,30.430359 0.837300532,29.2565559 0.738630319,28.0520346 C0.475199468,24.8378059 1.10259309,21.8078856 2.63477394,18.9697207 C3.25658245,17.8163963 4.03942819,16.7794282 4.99634309,15.8792952 C5.04288564,15.8346144 5.08291223,15.7787633 5.14900266,15.7573537 L5.14621011,15.7517686 C5.18716755,15.824375 5.12666223,15.874641 5.10152926,15.9276995 C4.67706117,16.8343484 4.34288564,17.7717154 4.13902926,18.7528324 C3.89235372,19.9489761 3.83557181,21.1469814 4.07480053,22.3533644 C4.29261968,23.4471144 4.83158245,24.330492 5.74567819,24.974641 C6.25857713,25.3376729 6.82825798,25.5545612 7.459375,25.5759707 C8.17706117,25.6001729 8.83051862,25.3832846 9.41230053,24.9737101 C10.3952793,24.2830186 10.9016622,23.3279654 10.8951463,22.1253059 C10.8876995,21.0408644 10.7285239,19.9769016 10.3254654,18.9641356 C10.1225399,18.4549601 9.89820479,17.9550931 9.7306516,17.4338165 C9.32573138,16.1715824 9.10605053,14.880492 9.121875,13.5549601 C9.14421543,11.7398005 9.58543883,10.0270346 10.4008644,8.40921543 C11.1036569,7.01573138 12.027992,5.78328457 13.128258,4.68208777 C14.6101729,3.20017287 16.2978059,1.99099734 18.1083112,0.946582447 C18.1762633,0.907486702 18.2535239,0.880492021 18.3056516,0.817194149 L18.3056516,0.814401596 Z" id="Fill-4" fill="#888887" mask="url(#mask-2)"></path>
                    </g>
                    <path d="M26.6833112,0.933364362 C26.6944814,0.938949468 26.7056516,0.944534574 26.7168218,0.951050532 C26.6870346,0.977114362 26.690758,0.944534574 26.6833112,0.93150266 L26.6833112,0.933364362 Z" id="Fill-7" fill="#E73A3F"></path>
                    <path d="M33.2947739,15.0997074 C33.2845346,15.083883 33.2742952,15.0643351 33.2901197,15.0503723 C33.3087367,15.0354787 33.3208378,15.052234 33.3301463,15.0689894 C33.3180452,15.0792287 33.306875,15.0894681 33.2947739,15.0997074" id="Fill-9" fill="#E73A3F"></path>
                    <path d="M13.526383,15.8733378 C13.5328989,15.865891 13.5403457,15.8584441 13.5477926,15.852859 C13.5477926,15.8603059 13.5505851,15.8705452 13.5468617,15.8761303 C13.5403457,15.8863697 13.5301064,15.8826463 13.5235904,15.8677527 L13.526383,15.8733378 Z" id="Fill-11" fill="#E73A3F"></path>
                    <mask id="mask-4" fill="white">
                        <use xlink:href="#path-3"></use>
                    </mask>
                    <g id="Clip-14"></g>
                    <polygon id="Fill-13" fill="#1D1D1B" mask="url(#mask-4)" points="62.9097074 37.3791622 65.737633 37.3791622 65.737633 13.0606782 62.9097074 13.0606782"></polygon>
                    <path d="M84.4674734,37.3792553 L84.4674734,25.5863032 C84.4674734,24.099734 84.1295745,22.9910904 83.4528457,22.2594415 C82.776117,21.5277926 81.7168085,21.1610372 80.2758511,21.1610372 C78.3676064,21.1610372 76.9703989,21.6767287 76.0842287,22.7081117 C75.1971277,23.7394947 74.7531117,25.4429521 74.7531117,27.8156915 L74.7531117,37.3792553 L71.9922074,37.3792553 L71.9922074,19.1485372 L74.2374202,19.1485372 L74.6870213,21.6441489 L74.820133,21.6441489 C75.3851596,20.7458777 76.1782447,20.0496011 77.1984574,19.55625 C78.2186702,19.0628989 79.3552394,18.8162234 80.6081649,18.8162234 C82.8040426,18.8162234 84.4563032,19.3458777 85.5649468,20.4051862 C86.6745213,21.4635638 87.2283777,23.1577128 87.2283777,25.4867021 L87.2283777,37.3792553 L84.4674734,37.3792553 Z" id="Fill-15" fill="#1D1D1B" mask="url(#mask-4)"></path>
                    <path d="M101.118258,21.2948005 L96.4770346,21.2948005 L96.4770346,37.3789761 L93.7161303,37.3789761 L93.7161303,21.2948005 L90.455359,21.2948005 L90.455359,20.0465293 L93.7161303,19.0486569 L93.7161303,18.0340293 C93.7161303,13.5547739 95.6727793,11.3132846 99.5879388,11.3132846 C100.553231,11.3132846 101.683285,11.5078324 102.980891,11.8959973 L102.265997,14.1086303 C101.201104,13.7651463 100.291662,13.5929388 99.5376729,13.5929388 C98.4951197,13.5929388 97.724375,13.9401463 97.2254388,14.6326995 C96.7265027,15.3261835 96.4770346,16.4366888 96.4770346,17.9679388 L96.4770346,19.148258 L101.118258,19.148258 L101.118258,21.2948005 Z" id="Fill-16" fill="#1D1D1B" mask="url(#mask-4)"></path>
                    <path d="M111.397646,21.1284574 C109.934348,21.1284574 108.767061,21.6050532 107.896715,22.5582447 C107.02637,23.5132979 106.51254,24.8323138 106.358019,26.5171543 L115.889003,26.5171543 C115.889003,24.7773936 115.500838,23.4425532 114.724508,22.5172872 C113.949109,21.5910904 112.838604,21.1284574 111.397646,21.1284574 M112.146051,37.7115691 C109.452168,37.7115691 107.325173,36.8924202 105.767859,35.2503989 C104.208684,33.6093085 103.430492,31.3305851 103.430492,28.4132979 C103.430492,25.4755319 104.153763,23.1409574 105.601237,21.4114362 C107.04871,19.680984 108.991396,18.8162234 111.431157,18.8162234 C113.716396,18.8162234 115.523178,19.5674202 116.853364,21.0707447 C118.184481,22.5731383 118.85004,24.5549202 118.85004,27.0160904 L118.85004,28.7632979 L106.291928,28.7632979 C106.346848,30.9033245 106.887673,32.5285904 107.913471,33.637234 C108.939269,34.7458777 110.383019,35.3006649 112.246582,35.3006649 C114.208816,35.3006649 116.14871,34.8901596 118.068125,34.0691489 L118.068125,36.53125 C117.092593,36.9529255 116.168258,37.2545213 115.298843,37.4378989 C114.428497,37.6212766 113.376636,37.7115691 112.146051,37.7115691" id="Fill-17" fill="#1D1D1B" mask="url(#mask-4)"></path>
                    <path d="M131.874508,18.8158511 C132.683418,18.8158511 133.409481,18.8819415 134.05363,19.015984 L133.671051,21.5776862 C132.91613,21.4110638 132.250572,21.3272872 131.675306,21.3272872 C130.199907,21.3272872 128.938604,21.9267553 127.890465,23.1238298 C126.842327,24.3218351 126.318258,25.8139894 126.318258,27.5993617 L126.318258,37.378883 L123.557354,37.378883 L123.557354,19.1481649 L125.836077,19.1481649 L126.152566,22.5252926 L126.285678,22.5252926 C126.961476,21.3393883 127.775971,20.4243617 128.731024,19.7802128 C129.683285,19.1379255 130.731423,18.8158511 131.874508,18.8158511" id="Fill-18" fill="#1D1D1B" mask="url(#mask-4)"></path>
                    <path d="M149.939255,37.3792553 L149.939255,25.5863032 C149.939255,24.099734 149.600426,22.9910904 148.923697,22.2594415 C148.247899,21.5277926 147.18859,21.1610372 145.746702,21.1610372 C143.839388,21.1610372 142.442181,21.6767287 141.55508,22.7081117 C140.667979,23.7394947 140.224894,25.4429521 140.224894,27.8156915 L140.224894,37.3792553 L137.463059,37.3792553 L137.463059,19.1485372 L139.709202,19.1485372 L140.157872,21.6441489 L140.290984,21.6441489 C140.856941,20.7458777 141.649096,20.0496011 142.669309,19.55625 C143.689521,19.0628989 144.82609,18.8162234 146.079947,18.8162234 C148.275824,18.8162234 149.927154,19.3458777 151.036729,20.4051862 C152.145372,21.4635638 152.70016,23.1577128 152.70016,25.4867021 L152.70016,37.3792553 L149.939255,37.3792553 Z" id="Fill-19" fill="#1D1D1B" mask="url(#mask-4)"></path>
                    <path d="M160.218644,28.247141 C160.218644,30.5761303 160.685,32.3503324 161.615851,33.5706782 C162.547633,34.7900931 163.916915,35.4007314 165.724628,35.4007314 C167.53141,35.4007314 168.904415,34.7928856 169.841782,33.5790559 C170.779149,32.3642952 171.247367,30.5882314 171.247367,28.247141 C171.247367,25.9302527 170.779149,24.1700133 169.841782,22.9664229 C168.904415,21.7628324 167.52117,21.1615027 165.692048,21.1615027 C163.884335,21.1615027 162.519707,21.7544548 161.599096,22.9412899 C160.678484,24.128125 160.218644,25.896742 160.218644,28.247141 M174.108803,28.247141 C174.108803,31.2193484 173.359468,33.540891 171.86266,35.2089761 C170.36492,36.877992 168.2975,37.7120346 165.658537,37.7120346 C164.028617,37.7120346 162.581144,37.3294548 161.317048,36.5652261 C160.052021,35.7991356 159.075559,34.7016622 158.38859,33.2709441 C157.701622,31.8402261 157.358138,30.1665559 157.358138,28.247141 C157.358138,25.2767952 158.100957,22.9608378 159.586596,21.302992 C161.072234,19.6460771 163.135,18.815758 165.774894,18.815758 C168.325426,18.815758 170.351888,19.6637633 171.854282,21.3616356 C173.356676,23.0576463 174.108803,25.353125 174.108803,28.247141" id="Fill-20" fill="#1D1D1B" mask="url(#mask-4)"></path>
                </g>
            </g>
        </g>
    </g>
</svg>