<?xml version="1.0" encoding="UTF-8"?>
<svg width="210px" height="210px" viewBox="0 0 210 210" version="1.1" xmlns="http://www.w3.org/2000/svg" xmlns:xlink="http://www.w3.org/1999/xlink">
    <!-- Generator: Sketch 46.2 (44496) - http://www.bohemiancoding.com/sketch -->
    <title>Group 17</title>
    <desc>Created with Sketch.</desc>
    <defs>
        <polygon id="path-1" points="74.1353 0.869 0.0463 0.869 0.0463 74.9574 74.1353 74.9574 74.1353 0.869"></polygon>
    </defs>
    <g id="Page-1" stroke="none" stroke-width="1" fill="none" fill-rule="evenodd">
        <g id="Web-Design-Service" transform="translate(-1200.000000, -3323.000000)">
            <g id="Group-17" transform="translate(1200.000000, 3323.000000)">
                <rect id="Rectangle-18-Copy-4" fill="#F3F3F3" x="0" y="0" width="210" height="210"></rect>
                <g id="Page-1" transform="translate(68.000000, 68.000000)">
                    <g id="Group-3" transform="translate(0.000000, 0.131100)">
                        <mask id="mask-2" fill="white">
                            <use xlink:href="#path-1"></use>
                        </mask>
                        <g id="Clip-2"></g>
                        <path d="M25.2203,59.3574 C25.1523,59.3984 25.0883,59.4344 25.0263,59.4714 C24.1363,60.0094 23.2453,60.5484 22.3553,61.0874 C21.4703,61.6234 20.5853,62.1584 19.7003,62.6944 C19.5203,62.8034 19.5523,62.7804 19.6303,62.9444 C19.8233,63.3444 20.0383,63.7314 20.2753,64.1064 C21.2743,65.6864 22.5743,66.9474 24.2313,67.8264 C25.6673,68.5884 27.2093,68.9764 28.8223,69.1004 C29.8393,69.1794 30.8563,69.1564 31.8703,69.0334 C32.6853,68.9354 33.4853,68.7714 34.2633,68.5084 C35.5783,68.0644 36.7503,67.3844 37.7293,66.3884 C38.8733,65.2234 39.5743,63.8174 39.9773,62.2514 C40.2913,61.0314 40.3943,59.7884 40.3943,58.5314 C40.3903,50.7234 40.3923,42.9144 40.3923,35.1054 C40.3923,35.0624 40.3893,35.0184 40.3923,34.9754 C40.3973,34.9024 40.3643,34.8754 40.2943,34.8804 C40.2513,34.8844 40.2073,34.8814 40.1643,34.8814 C37.9973,34.8814 35.8303,34.8804 33.6643,34.8814 C33.3923,34.8814 33.4273,34.8494 33.4273,35.1164 C33.4263,42.8514 33.4273,50.5864 33.4263,58.3214 C33.4263,58.5434 33.4313,58.7664 33.4223,58.9874 C33.3973,59.6174 33.3243,60.2404 33.1263,60.8424 C32.8073,61.8194 32.1793,62.4834 31.1753,62.7614 C30.7013,62.8924 30.2173,62.9244 29.7283,62.9304 C28.5673,62.9444 27.5873,62.5384 26.7943,61.6864 C26.4053,61.2684 26.0823,60.8034 25.7873,60.3174 C25.5963,60.0034 25.4123,59.6834 25.2203,59.3574 L25.2203,59.3574 Z M60.9183,43.5384 C60.9463,43.5244 60.9683,43.5154 60.9883,43.5034 C62.7353,42.3814 64.4803,41.2584 66.2293,40.1404 C66.3333,40.0744 66.3213,40.0254 66.2693,39.9374 C65.9703,39.4334 65.6513,38.9434 65.2953,38.4774 C64.1413,36.9664 62.7023,35.8364 60.9063,35.1864 C59.8863,34.8164 58.8303,34.6174 57.7503,34.5404 C56.6153,34.4594 55.4833,34.4694 54.3553,34.6484 C53.1543,34.8374 52.0013,35.1774 50.9353,35.7654 C47.9213,37.4294 46.3843,40.0084 46.2443,43.4334 C46.2103,44.2484 46.2813,45.0594 46.4263,45.8634 C46.6323,47.0074 47.0253,48.0804 47.6443,49.0674 C48.3853,50.2474 49.3703,51.1854 50.5003,51.9824 C51.6483,52.7914 52.8903,53.4264 54.1723,53.9894 C55.4943,54.5714 56.8333,55.1144 58.1383,55.7344 C58.8343,56.0654 59.5153,56.4224 60.1223,56.9064 C60.9533,57.5684 61.4023,58.4154 61.4063,59.4904 C61.4083,60.1944 61.2123,60.8274 60.7753,61.3794 C60.2683,62.0204 59.5943,62.4124 58.8283,62.6594 C57.7203,63.0154 56.5883,63.0414 55.4453,62.8874 C53.9003,62.6794 52.5873,62.0074 51.4843,60.9154 C50.8893,60.3254 50.3923,59.6594 49.9463,58.9534 C49.9163,58.9064 49.8873,58.8594 49.8573,58.8134 C49.8303,58.7684 49.7993,58.7554 49.7513,58.7864 C49.6893,58.8254 49.6233,58.8594 49.5593,58.8974 C48.4363,59.5494 47.3123,60.2014 46.1893,60.8544 C45.5513,61.2254 44.9133,61.5994 44.2723,61.9664 C44.1743,62.0234 44.1573,62.0654 44.2173,62.1624 C44.3293,62.3464 44.4243,62.5414 44.5333,62.7264 C45.7983,64.8794 47.5483,66.5144 49.7833,67.6274 C51.6933,68.5784 53.7313,69.0274 55.8493,69.1334 C57.2833,69.2044 58.7093,69.1314 60.1213,68.8494 C61.4523,68.5834 62.7213,68.1514 63.8983,67.4704 C65.4193,66.5904 66.6163,65.3954 67.4113,63.8174 C68.0733,62.5054 68.3573,61.1034 68.3833,59.6444 C68.3973,58.8044 68.3313,57.9694 68.1753,57.1414 C67.9613,56.0034 67.5553,54.9424 66.9233,53.9704 C66.2133,52.8784 65.2853,52.0024 64.2353,51.2464 C63.0213,50.3724 61.7013,49.6874 60.3473,49.0594 C59.0423,48.4544 57.7003,47.9334 56.3973,47.3244 C55.7043,47.0014 55.0253,46.6564 54.4113,46.1944 C53.2983,45.3554 52.9193,44.2264 53.1813,42.8934 C53.3943,41.8104 54.1043,41.1284 55.1333,40.7664 C55.7083,40.5634 56.3043,40.5434 56.9053,40.5824 C57.7673,40.6384 58.5553,40.9024 59.2413,41.4434 C59.7513,41.8454 60.1573,42.3394 60.5093,42.8794 C60.6503,43.0954 60.7823,43.3174 60.9183,43.5384 L60.9183,43.5384 Z M0.0463,0.8684 L74.1353,0.8684 L74.1353,74.9574 L0.3093,74.9574 C0.0463,74.9574 0.0463,74.9574 0.0463,74.6954 L0.0463,0.8684 Z" id="Fill-1" fill="#E1E1E1" mask="url(#mask-2)"></path>
                    </g>
                    <g id="Group-6" transform="translate(0.000000, 0.131100)" fill="#FEFEFE">
                        <path d="M0.0464,0.8687 L0.0464,74.6957 C0.0464,74.9577 0.0464,74.9577 0.3094,74.9577 L74.1354,74.9577 C74.1274,74.9697 74.1534,74.9957 74.1164,74.9947 C74.0674,74.9937 74.0184,74.9947 73.9684,74.9947 L0.1854,74.9947 C0.1604,74.9947 0.1354,74.9907 0.1114,74.9957 C0.0244,75.0137 -0.0086,74.9807 0.0084,74.8927 C0.0134,74.8687 0.0094,74.8437 0.0094,74.8187 C0.0094,50.2237 0.0094,25.6297 0.0114,1.0357 C0.0114,0.9817 -0.0306,0.9107 0.0464,0.8687" id="Fill-4"></path>
                    </g>
                    <path d="M60.9185,43.6692 C60.7815,43.4482 60.6495,43.2272 60.5095,43.0112 C60.1565,42.4712 59.7515,41.9772 59.2415,41.5742 C58.5555,41.0332 57.7675,40.7692 56.9045,40.7132 C56.3045,40.6742 55.7085,40.6942 55.1325,40.8972 C54.1045,41.2592 53.3945,41.9412 53.1815,43.0242 C52.9195,44.3572 53.2975,45.4862 54.4115,46.3252 C55.0245,46.7872 55.7045,47.1322 56.3975,47.4562 C57.7005,48.0652 59.0425,48.5862 60.3475,49.1902 C61.7015,49.8182 63.0215,50.5032 64.2355,51.3772 C65.2855,52.1332 66.2125,53.0102 66.9235,54.1022 C67.5555,55.0742 67.9605,56.1342 68.1755,57.2722 C68.3315,58.1002 68.3975,58.9352 68.3825,59.7752 C68.3565,61.2342 68.0735,62.6372 67.4115,63.9482 C66.6155,65.5262 65.4185,66.7212 63.8985,67.6022 C62.7215,68.2832 61.4525,68.7142 60.1215,68.9802 C58.7095,69.2622 57.2825,69.3362 55.8495,69.2642 C53.7315,69.1592 51.6935,68.7102 49.7835,67.7582 C47.5475,66.6452 45.7975,65.0112 44.5335,62.8572 C44.4235,62.6722 44.3295,62.4782 44.2175,62.2942 C44.1575,62.1962 44.1735,62.1542 44.2725,62.0972 C44.9135,61.7312 45.5505,61.3562 46.1895,60.9852 C47.3125,60.3322 48.4365,59.6802 49.5595,59.0282 C49.6235,58.9912 49.6895,58.9572 49.7515,58.9172 C49.7985,58.8872 49.8305,58.8992 49.8575,58.9442 C49.8865,58.9912 49.9165,59.0382 49.9465,59.0852 C50.3925,59.7912 50.8895,60.4572 51.4835,61.0462 C52.5875,62.1382 53.9005,62.8112 55.4445,63.0192 C56.5875,63.1722 57.7195,63.1472 58.8285,62.7902 C59.5935,62.5442 60.2685,62.1512 60.7745,61.5102 C61.2115,60.9582 61.4085,60.3262 61.4055,59.6222 C61.4015,58.5462 60.9535,57.6992 60.1225,57.0372 C59.5155,56.5542 58.8345,56.1972 58.1385,55.8662 C56.8335,55.2452 55.4945,54.7022 54.1715,54.1212 C52.8905,53.5582 51.6475,52.9222 50.5005,52.1132 C49.3705,51.3162 48.3845,50.3782 47.6445,49.1992 C47.0245,48.2112 46.6325,47.1392 46.4255,45.9952 C46.2805,45.1902 46.2105,44.3792 46.2445,43.5642 C46.3845,40.1402 47.9205,37.5612 50.9355,35.8972 C52.0015,35.3092 53.1545,34.9682 54.3555,34.7792 C55.4835,34.6012 56.6145,34.5902 57.7505,34.6712 C58.8305,34.7482 59.8865,34.9482 60.9055,35.3172 C62.7025,35.9672 64.1415,37.0982 65.2945,38.6082 C65.6505,39.0742 65.9705,39.5642 66.2695,40.0682 C66.3215,40.1572 66.3335,40.2052 66.2295,40.2722 C64.4805,41.3892 62.7345,42.5122 60.9875,43.6342 C60.9685,43.6472 60.9465,43.6552 60.9185,43.6692" id="Fill-7" fill="#030403"></path>
                    <path d="M25.2203,59.4885 C25.4123,59.8145 25.5963,60.1345 25.7873,60.4485 C26.0823,60.9345 26.4053,61.3995 26.7943,61.8175 C27.5873,62.6695 28.5673,63.0755 29.7283,63.0615 C30.2173,63.0555 30.7013,63.0235 31.1753,62.8925 C32.1793,62.6145 32.8073,61.9505 33.1263,60.9735 C33.3243,60.3715 33.3973,59.7485 33.4223,59.1185 C33.4313,58.8975 33.4263,58.6745 33.4263,58.4525 C33.4273,50.7175 33.4263,42.9825 33.4273,35.2475 C33.4273,34.9805 33.3923,35.0125 33.6643,35.0125 C35.8303,35.0115 37.9973,35.0125 40.1643,35.0125 C40.2073,35.0125 40.2513,35.0155 40.2943,35.0115 C40.3643,35.0065 40.3973,35.0335 40.3923,35.1065 C40.3893,35.1495 40.3923,35.1935 40.3923,35.2365 C40.3923,43.0455 40.3903,50.8545 40.3943,58.6625 C40.3943,59.9195 40.2913,61.1625 39.9773,62.3825 C39.5743,63.9485 38.8733,65.3545 37.7293,66.5195 C36.7503,67.5155 35.5783,68.1955 34.2633,68.6395 C33.4853,68.9025 32.6853,69.0665 31.8703,69.1645 C30.8563,69.2875 29.8393,69.3105 28.8223,69.2315 C27.2093,69.1075 25.6673,68.7195 24.2313,67.9575 C22.5743,67.0785 21.2743,65.8175 20.2753,64.2375 C20.0383,63.8625 19.8233,63.4755 19.6303,63.0755 C19.5523,62.9115 19.5203,62.9345 19.7003,62.8255 C20.5853,62.2895 21.4703,61.7545 22.3553,61.2185 C23.2453,60.6795 24.1363,60.1405 25.0263,59.6025 C25.0883,59.5655 25.1523,59.5295 25.2203,59.4885" id="Fill-9" fill="#030403"></path>
                </g>
            </g>
        </g>
    </g>
</svg>