<?xml version="1.0" encoding="UTF-8"?>
<svg width="210px" height="210px" viewBox="0 0 210 210" version="1.1" xmlns="http://www.w3.org/2000/svg" xmlns:xlink="http://www.w3.org/1999/xlink">
    <!-- Generator: Sketch 46.2 (44496) - http://www.bohemiancoding.com/sketch -->
    <title>Group 41</title>
    <desc>Created with Sketch.</desc>
    <defs>
        <polygon id="path-1" points="0.596418898 0.5176 4.19774173 0.5176 4.19774173 10.26304 0.596418898 10.26304 0.596418898 0.5176"></polygon>
        <polygon id="path-3" points="10.3582205 0.51104 10.3582205 4.09824 0.565015748 4.09824 0.565015748 0.51104 10.3582205 0.51104"></polygon>
        <polygon id="path-5" points="0.438359055 20.8 16.5278551 20.8 16.5278551 0.01456 0.438359055 0.01456 0.438359055 20.8"></polygon>
    </defs>
    <g id="Page-1" stroke="none" stroke-width="1" fill="none" fill-rule="evenodd">
        <g id="Web-Design-Service" transform="translate(-970.000000, -3783.000000)">
            <g id="Group-41" transform="translate(970.000000, 3783.000000)">
                <rect id="Rectangle-18-Copy-15" fill="#F3F3F3" x="0" y="0" width="210" height="210"></rect>
                <g id="Page-1" transform="translate(54.000000, 65.000000)">
                    <path d="M89.0180504,27.17328 L83.0988378,27.17328 L83.0988378,24.14608 C83.0988378,21.72768 81.1238929,19.76048 78.6959717,19.76048 C76.2688535,19.76048 74.2939087,21.72768 74.2939087,24.14608 L74.2939087,27.17328 L68.3738929,27.17328 L68.3738929,24.14608 C68.3738929,18.47648 73.0048535,13.86368 78.6959717,13.86368 C84.3870898,13.86368 89.0180504,18.47648 89.0180504,24.14608 L89.0180504,27.17328 Z" id="Fill-1" fill="#D2D2D2"></path>
                    <path d="M79.9841433,39.47096 L79.9841433,42.00856 C79.9841433,42.71736 79.4074819,43.29096 78.6958913,43.29096 C77.9859071,43.29096 77.4084425,42.71736 77.4084425,42.00856 L77.4084425,39.47096 C76.616537,39.02296 76.0808362,38.17736 76.0808362,37.20536 C76.0808362,35.76616 77.2518283,34.59976 78.6958913,34.59976 C80.1407575,34.59976 81.3117496,35.76616 81.3117496,37.20536 C81.3117496,38.17736 80.7760488,39.02296 79.9841433,39.47096 M91.406537,27.17336 L65.9860488,27.17336 C64.9009937,27.17336 64.0127102,28.05736 64.0127102,29.13816 L64.0127102,47.86856 C64.0127102,48.95016 64.9009937,49.83416 65.9860488,49.83416 L91.406537,49.83416 C92.490789,49.83416 93.3790724,48.95016 93.3790724,47.86856 L93.3790724,29.13816 C93.3790724,28.05736 92.490789,27.17336 91.406537,27.17336" id="Fill-3" fill="#1D1D1B"></path>
                    <path d="M63.4097858,24.38032 L57.2753291,24.38032 C56.2810299,24.38032 55.4746677,23.57712 55.4746677,22.58672 C55.4746677,21.59632 56.2810299,20.79312 57.2753291,20.79312 L63.4097858,20.79312 C64.404085,20.79312 65.2104472,21.59632 65.2104472,22.58672 C65.2104472,23.57712 64.404085,24.38032 63.4097858,24.38032" id="Fill-5" fill="#D2D2D2"></path>
                    <path d="M67.7306504,14.76936 C67.3282724,14.76936 66.9226819,14.63576 66.5877685,14.36136 L61.7359417,10.38696 C60.9673276,9.75816 60.8564929,8.62776 61.4893748,7.86216 C62.1206504,7.09736 63.2546976,6.98696 64.0233118,7.61656 L68.8759417,11.59016 C69.6437528,12.21896 69.7545874,13.35016 69.1217055,14.11576 C68.7667134,14.54696 68.2502882,14.76936 67.7306504,14.76936" id="Fill-7" fill="#D2D2D2"></path>
                    <g id="Group-11" transform="translate(76.299213, 0.282080)">
                        <mask id="mask-2" fill="white">
                            <use xlink:href="#path-1"></use>
                        </mask>
                        <g id="Clip-10"></g>
                        <path d="M2.39708031,10.26304 C1.4027811,10.26304 0.596418898,9.45984 0.596418898,8.46944 L0.596418898,2.31184 C0.596418898,1.32064 1.4027811,0.51744 2.39708031,0.51744 C3.39137953,0.51744 4.19774173,1.32064 4.19774173,2.31184 L4.19774173,8.46944 C4.19774173,9.45984 3.39137953,10.26304 2.39708031,10.26304" id="Fill-9" fill="#D2D2D2" mask="url(#mask-2)"></path>
                    </g>
                    <path d="M89.6619354,14.76936 C89.1422976,14.76936 88.6258724,14.54696 88.2700772,14.11576 C87.6379984,13.35016 87.7488331,12.21896 88.5166441,11.59016 L93.3684709,7.61656 C94.1378882,6.98616 95.2719354,7.09736 95.903211,7.86216 C96.5360929,8.62776 96.4244551,9.75816 95.6566441,10.38696 L90.8048173,14.36136 C90.4699039,14.63576 90.0643134,14.76936 89.6619354,14.76936" id="Fill-12" fill="#D2D2D2"></path>
                    <g id="Group-16" transform="translate(91.559055, 20.282080)">
                        <mask id="mask-4" fill="white">
                            <use xlink:href="#path-3"></use>
                        </mask>
                        <g id="Clip-15"></g>
                        <path d="M8.55796063,4.09824 L2.36567717,4.09824 C1.37137795,4.09824 0.565015748,3.29504 0.565015748,2.30464 C0.565015748,1.31424 1.37137795,0.51104 2.36567717,0.51104 L8.55796063,0.51104 C9.55225984,0.51104 10.358622,1.31424 10.358622,2.30464 C10.358622,3.29504 9.55225984,4.09824 8.55796063,4.09824" id="Fill-14" fill="#D2D2D2" mask="url(#mask-4)"></path>
                    </g>
                    <polygon id="Fill-17" fill="#1D1D1B" points="0.000160629921 49.62016 0.000160629921 29.68016 4.86403465 29.68016 4.86403465 45.42416 12.6104126 45.42416 12.6104126 49.62016"></polygon>
                    <path d="M24.3527008,41.00216 C24.3527008,40.27016 24.1213937,39.64136 23.6603858,39.11496 C23.1985748,38.58936 22.5046535,38.32616 21.5818346,38.32616 C21.1288583,38.32616 20.7152362,38.39656 20.3377559,38.53736 C19.9602756,38.67896 19.6309843,38.87096 19.3482756,39.11496 C19.0655669,39.35896 18.8390787,39.64616 18.6696142,39.97416 C18.5001496,40.30296 18.405378,40.64616 18.3861024,41.00216 L24.3527008,41.00216 Z M28.6222441,42.77656 L28.6222441,43.33976 C28.6222441,43.52696 28.6126063,43.70536 28.5941339,43.87496 L18.3861024,43.87496 C18.4238504,44.26936 18.5427165,44.62536 18.7402913,44.94536 C18.9378661,45.26456 19.1924646,45.54136 19.5040866,45.77576 C19.8149055,46.01096 20.1626693,46.19336 20.5505906,46.32456 C20.9361024,46.45576 21.336874,46.52216 21.7512992,46.52216 C22.4869843,46.52216 23.108622,46.38616 23.6178189,46.11416 C24.1270157,45.84216 24.5406378,45.48936 24.8618976,45.05736 L28.084937,47.08536 C27.424748,48.04296 26.5533307,48.78056 25.4698819,49.29576 C24.3856299,49.81256 23.1270945,50.07096 21.6942756,50.07096 C20.638937,50.07096 19.640622,49.90616 18.6977244,49.57816 C17.7548268,49.25016 16.9307953,48.77096 16.2240236,48.14136 C15.517252,47.51336 14.9606693,46.73816 14.5558819,45.81816 C14.1502913,44.89816 13.9478976,43.84696 13.9478976,42.66376 C13.9478976,41.51896 14.1454724,40.48136 14.5414252,39.55176 C14.937378,38.62136 15.4738819,37.83336 16.1533465,37.18536 C16.8320079,36.53816 17.632748,36.03576 18.5563701,35.67896 C19.4799921,35.32216 20.4791102,35.14376 21.5537244,35.14376 C22.5905906,35.14376 23.5415197,35.31816 24.4089213,35.66456 C25.2755197,36.01256 26.0208425,36.51496 26.6432835,37.17176 C27.2649213,37.82856 27.7500236,38.62696 28.0993937,39.56536 C28.4479606,40.50456 28.6222441,41.57496 28.6222441,42.77656 L28.6222441,42.77656 Z" id="Fill-19" fill="#1D1D1B"></path>
                    <path d="M36.0305764,39.03032 L36.0305764,44.40232 C36.0305764,45.06232 36.157474,45.55672 36.4120724,45.88632 C36.6666709,46.21672 37.1228598,46.38072 37.783852,46.38072 C38.009537,46.38072 38.2504819,46.36312 38.5042772,46.32472 C38.7580724,46.28712 38.9709071,46.23112 39.1403717,46.15592 L39.1965921,49.53592 C38.8761354,49.64792 38.471348,49.74712 37.9814268,49.83112 C37.4907024,49.91512 37.0007811,49.95752 36.5108598,49.95752 C35.5679622,49.95752 34.7760567,49.83992 34.1359465,49.60552 C33.4950331,49.37032 32.9810173,49.03112 32.5955055,48.58872 C32.2083874,48.14712 31.9304976,47.61912 31.7610331,47.00792 C31.5915685,46.39592 31.5064346,45.71352 31.5064346,44.96072 L31.5064346,39.03032 L29.2447654,39.03032 L29.2447654,35.59432 L31.4775213,35.59432 L31.4775213,31.90552 L36.0305764,31.90552 L36.0305764,35.59432 L39.3379465,35.59432 L39.3379465,39.03032 L36.0305764,39.03032 Z" id="Fill-21" fill="#1D1D1B"></path>
                    <path d="M54.3524268,39.73424 C53.9749465,39.37824 53.532411,39.07744 53.0232142,38.83344 C52.5140173,38.58944 51.9767102,38.46704 51.4112929,38.46704 C50.9775921,38.46704 50.5776236,38.55184 50.2097811,38.72064 C49.8427417,38.88944 49.6580173,39.18144 49.6580173,39.59344 C49.6580173,39.98784 49.860411,40.27024 50.2660016,40.43904 C50.6715921,40.60784 51.3261591,40.79584 52.2313087,41.00224 C52.758978,41.11504 53.2922693,41.27424 53.8287732,41.48144 C54.3660803,41.68704 54.8511827,41.95904 55.2848835,42.29744 C55.7185843,42.63584 56.0671512,43.04944 56.3313874,43.53664 C56.5948205,44.02544 56.7273402,44.60704 56.7273402,45.28304 C56.7273402,46.16544 56.5474346,46.91184 56.1900331,47.52144 C55.8318283,48.13264 55.3651984,48.62464 54.7901433,49.00064 C54.2150882,49.37664 53.5693559,49.64864 52.8537496,49.81744 C52.136537,49.98624 51.4209307,50.07104 50.7045213,50.07104 C49.554411,50.07104 48.4283953,49.88704 47.3256709,49.52144 C46.2229465,49.15504 45.3041433,48.61664 44.5684583,47.90224 L47.170663,45.17024 C47.584285,45.62064 48.0934819,45.99664 48.6974504,46.29664 C49.2998126,46.59744 49.9415291,46.74784 50.6201906,46.74784 C50.9960646,46.74784 51.368726,46.65824 51.7365685,46.48064 C52.1036079,46.30144 52.2883323,45.98704 52.2883323,45.53664 C52.2883323,45.10464 52.0610409,44.78544 51.6088677,44.57904 C51.1566945,44.37264 50.450726,44.15584 49.4885528,43.93104 C48.9986315,43.81824 48.5087102,43.66864 48.0179858,43.48064 C47.5280646,43.29264 47.0895449,43.03984 46.7040331,42.71984 C46.316915,42.40064 46.0012772,42.00704 45.7563165,41.53744 C45.5113559,41.06784 45.3892772,40.50464 45.3892772,39.84784 C45.3892772,39.00224 45.5675764,38.28464 45.9265843,37.69264 C46.2839858,37.10144 46.7457969,36.61744 47.3112142,36.24224 C47.8766315,35.86704 48.5038913,35.59024 49.1913874,35.41184 C49.8804898,35.23344 50.5631669,35.14384 51.2418283,35.14384 C52.2971669,35.14384 53.3292142,35.30864 54.3371669,35.63664 C55.3459228,35.96544 56.1996709,36.45824 56.8968047,37.11584 L54.3524268,39.73424 Z" id="Fill-23" fill="#1D1D1B"></path>
                    <polygon id="Fill-25" fill="#1D1D1B" points="0.000160629921 72.72248 0.000160629921 52.78248 13.4593417 52.78248 13.4593417 56.83848 4.66565669 56.83848 4.66565669 60.61208 12.9782551 60.61208 12.9782551 64.47128 4.66565669 64.47128 4.66565669 68.61048 13.9677354 68.61048 13.9677354 72.72248"></polygon>
                    <path d="M26.1911906,72.72248 L26.1911906,65.06248 C26.1911906,64.66808 26.1574583,64.29208 26.0924031,63.93608 C26.0257417,63.57848 25.9173165,63.26488 25.7671276,62.99208 C25.6153323,62.72008 25.4041039,62.50408 25.1310331,62.34408 C24.8571591,62.18488 24.5126079,62.10568 24.0989858,62.10568 C23.6837575,62.10568 23.321537,62.18488 23.009915,62.34408 C22.6990961,62.50408 22.4396787,62.72488 22.2324661,63.00568 C22.0252535,63.28728 21.8694425,63.61128 21.7658362,63.97768 C21.6622299,64.34328 21.6108283,64.72408 21.6108283,65.11848 L21.6108283,72.72248 L16.9445291,72.72248 L16.9445291,58.69688 L21.4405606,58.69688 L21.4405606,60.64008 L21.4967811,60.64008 C21.6670488,60.34008 21.8887181,60.04408 22.161789,59.75288 C22.4340567,59.46248 22.7553165,59.21368 23.1231591,59.00648 C23.4910016,58.80088 23.8909701,58.63128 24.3246709,58.50008 C24.7583717,58.36888 25.2201827,58.30328 25.7101039,58.30328 C26.6521984,58.30328 27.4529386,58.47208 28.1139307,58.80968 C28.7733165,59.14728 29.3058047,59.58408 29.7113953,60.11928 C30.1161827,60.65448 30.4085291,61.27048 30.5876315,61.96408 C30.7659307,62.65928 30.8566866,63.35368 30.8566866,64.04808 L30.8566866,72.72248 L26.1911906,72.72248 Z" id="Fill-27" fill="#1D1D1B"></path>
                    <path d="M42.7882772,63.23192 C42.5240409,62.89352 42.1666394,62.62152 41.713663,62.41512 C41.2614898,62.20872 40.7988756,62.10552 40.3282299,62.10552 C39.8383087,62.10552 39.3949701,62.20392 38.9990173,62.40072 C38.6030646,62.59752 38.2641354,62.86072 37.9814268,63.18952 C37.6987181,63.51752 37.4770488,63.89832 37.317222,64.32952 C37.1565921,64.76232 37.0770803,65.22152 37.0770803,65.71032 C37.0770803,66.19832 37.1517732,66.65832 37.3027654,67.08952 C37.4537575,67.52232 37.6754268,67.90232 37.9677732,68.23032 C38.2593165,68.55912 38.6078835,68.81752 39.013474,69.00472 C39.4190646,69.19272 39.8760567,69.28632 40.3852535,69.28632 C40.8558992,69.28632 41.3225291,69.19832 41.7843402,69.01912 C42.2461512,68.84072 42.6188126,68.58232 42.9015213,68.24552 L45.4748126,71.37112 C44.8893165,71.93432 44.1359622,72.37512 43.2123402,72.69432 C42.2887181,73.01352 41.3080724,73.17352 40.2720094,73.17352 C39.1588441,73.17352 38.1203717,73.00472 37.1573953,72.66632 C36.1928126,72.32792 35.3551276,71.83512 34.6443402,71.18792 C33.9335528,70.54072 33.3737575,69.75672 32.9665606,68.83592 C32.5585606,67.91592 32.3553638,66.87432 32.3553638,65.71032 C32.3553638,64.56472 32.5585606,63.53192 32.9665606,62.61192 C33.3737575,61.69192 33.9335528,60.90792 34.6443402,60.25992 C35.3551276,59.61272 36.1928126,59.11512 37.1573953,58.76792 C38.1203717,58.41992 39.1500094,58.24632 40.2430961,58.24632 C40.7522929,58.24632 41.2566709,58.29352 41.7562299,58.38712 C42.255789,58.48152 42.7368756,58.60872 43.1986866,58.76792 C43.6596945,58.92712 44.0837575,59.12392 44.4708756,59.35912 C44.8563874,59.59352 45.1913008,59.85192 45.4748126,60.13352 L42.7882772,63.23192 Z" id="Fill-29" fill="#1D1D1B"></path>
                    <path d="M56.3626299,62.49904 C56.1546142,62.44304 55.9522205,62.40544 55.7546457,62.38624 C55.5570709,62.36784 55.3635118,62.35824 55.1747717,62.35824 C54.5531339,62.35824 54.0302835,62.47104 53.6054173,62.69504 C53.1813543,62.91984 52.8424252,63.19184 52.5886299,63.51024 C52.3332283,63.82864 52.1501102,64.17504 52.0368661,64.54944 C51.923622,64.92384 51.8665984,65.25104 51.8665984,65.53184 L51.8665984,72.72224 L47.2300157,72.72224 L47.2300157,58.71424 L51.6971339,58.71424 L51.6971339,60.74144 L51.7541575,60.74144 C52.1115591,60.02304 52.6207559,59.43744 53.2809449,58.98304 C53.9403307,58.52944 54.704126,58.30304 55.5715276,58.30304 C55.7594646,58.30304 55.9433858,58.31264 56.1224882,58.33104 C56.3015906,58.34944 56.4469606,58.37824 56.5610079,58.41584 L56.3626299,62.49904 Z" id="Fill-31" fill="#1D1D1B"></path>
                    <g id="Group-35" transform="translate(57.023622, 58.682080)">
                        <mask id="mask-6" fill="white">
                            <use xlink:href="#path-5"></use>
                        </mask>
                        <g id="Clip-34"></g>
                        <path d="M10.2215244,16.15296 C9.93881575,16.88496 9.62317795,17.53696 9.27461102,18.10976 C8.92604409,18.68256 8.51081575,19.17056 8.03053228,19.57456 C7.55024882,19.97856 6.9848315,20.28336 6.33428031,20.48976 C5.68453228,20.69696 4.91591811,20.80016 4.02924094,20.80016 C3.59634331,20.80016 3.14818583,20.77136 2.6863748,20.71536 C2.22456378,20.65936 1.82459528,20.58416 1.48486299,20.48976 L1.99405984,16.60336 C2.21974488,16.67856 2.47032756,16.73936 2.74259528,16.78656 C3.01566614,16.83376 3.26624882,16.85696 3.49273701,16.85696 C4.20914646,16.85696 4.7263748,16.69296 5.04763465,16.36496 C5.36809134,16.03616 5.64196535,15.56976 5.86765039,14.96976 L6.32062677,13.81536 L0.438359055,0.01456 L5.58494173,0.01456 L8.72365039,9.02816 L8.8079811,9.02816 L11.6077606,0.01456 L16.5278551,0.01456 L10.2215244,16.15296 Z" id="Fill-33" fill="#1D1D1B" mask="url(#mask-6)"></path>
                    </g>
                    <path d="M85.9348394,65.65376 C85.9348394,65.20336 85.8641622,64.76256 85.7228079,64.32976 C85.5822567,63.89856 85.3742409,63.51776 85.1003669,63.18976 C84.8272961,62.86096 84.4827449,62.59376 84.0691228,62.38656 C83.6538945,62.18016 83.173611,62.07616 82.6266661,62.07616 C82.0989969,62.07616 81.627548,62.18016 81.2131228,62.38656 C80.7978945,62.59376 80.4445087,62.86576 80.1529654,63.20336 C79.8606189,63.54096 79.6341307,63.92656 79.4743039,64.35856 C79.313674,64.78976 79.2333591,65.23136 79.2333591,65.68176 C79.2333591,66.13216 79.313674,66.57376 79.4743039,67.00496 C79.6341307,67.43696 79.8606189,67.82176 80.1529654,68.16016 C80.4445087,68.49856 80.7978945,68.77056 81.2131228,68.97696 C81.627548,69.18336 82.0989969,69.28656 82.6266661,69.28656 C83.173611,69.28656 83.6538945,69.18336 84.0691228,68.97696 C84.4827449,68.77056 84.8272961,68.49856 85.1003669,68.16016 C85.3742409,67.82176 85.5822567,67.43296 85.7228079,66.99136 C85.8641622,66.55056 85.9348394,66.10416 85.9348394,65.65376 M90.4308709,65.65376 C90.4308709,66.62976 90.2798787,67.56896 89.9778945,68.47056 C89.6759102,69.37056 89.2381937,70.16496 88.6631386,70.84976 C88.0880835,71.53616 87.3869339,72.08416 86.5564772,72.49776 C85.7268236,72.90976 84.7847291,73.11696 83.7293906,73.11696 C82.8627921,73.11696 82.0419732,72.94256 81.2693433,72.59616 C80.4967134,72.24816 79.893548,71.77456 79.4598472,71.17296 L79.4028236,71.17296 L79.4028236,79.48176 L74.7662409,79.48176 L74.7662409,58.69696 L79.1771386,58.69696 L79.1771386,60.41456 L79.2614693,60.41456 C79.6951701,59.85216 80.2943197,59.35936 81.058115,58.93696 C81.8211071,58.51376 82.7206346,58.30336 83.7575008,58.30336 C84.7758945,58.30336 85.6987134,58.50016 86.5283669,58.89456 C87.3572173,59.28816 88.0599732,59.82336 88.6350283,60.49936 C89.2100835,61.17536 89.653422,61.95936 89.9642409,62.85136 C90.2750598,63.74256 90.4308709,64.67696 90.4308709,65.65376" id="Fill-36" fill="#1D1D1B"></path>
                    <path d="M97.8385606,62.13264 L97.8385606,67.50464 C97.8385606,68.16464 97.9654583,68.65904 98.2208598,68.98864 C98.4746551,69.31904 98.9316472,69.48384 99.5918362,69.48384 C99.8183244,69.48384 100.058466,69.46544 100.312261,69.42784 C100.56686,69.39024 100.778891,69.33344 100.949159,69.25824 L101.00538,72.63824 C100.684923,72.75104 100.279332,72.84944 99.7902142,72.93424 C99.2986866,73.01824 98.8095685,73.06064 98.3196472,73.06064 C97.3767496,73.06064 96.5840409,72.94304 95.9447339,72.70784 C95.3038205,72.47344 94.7890016,72.13424 94.4034898,71.69104 C94.0163717,71.24944 93.739285,70.72144 93.5690173,70.11024 C93.3995528,69.49824 93.3144189,68.81584 93.3144189,68.06224 L93.3144189,62.13264 L91.0527496,62.13264 L91.0527496,58.69664 L93.2863087,58.69664 L93.2863087,55.00784 L97.8385606,55.00784 L97.8385606,58.69664 L101.146734,58.69664 L101.146734,62.13264 L97.8385606,62.13264 Z" id="Fill-38" fill="#1D1D1B"></path>
                    <path d="M43.5914268,29.29752 C42.2003717,29.29752 41.1104976,30.29592 41.1104976,31.57192 C41.1104976,32.91432 42.0284976,33.81672 43.393852,33.81672 C43.5095055,33.81672 43.6203402,33.80712 43.7239465,33.78552 C43.5062929,34.77992 42.5441197,35.49352 41.6341512,35.63672 L41.4502299,35.66552 L41.4502299,37.81032 L41.6903717,37.78712 C42.7922929,37.68232 43.8821669,37.18312 44.6796945,36.41752 C45.7205764,35.41912 46.2707339,33.97752 46.2707339,32.24792 C46.2707339,30.53832 45.1447181,29.29752 43.5914268,29.29752" id="Fill-40" fill="#1D1D1B"></path>
                </g>
            </g>
        </g>
    </g>
</svg>