<?xml version="1.0" encoding="UTF-8"?>
<svg width="210px" height="210px" viewBox="0 0 210 210" version="1.1" xmlns="http://www.w3.org/2000/svg" xmlns:xlink="http://www.w3.org/1999/xlink">
    <!-- Generator: Sketch 46.2 (44496) - http://www.bohemiancoding.com/sketch -->
    <title>Group 33</title>
    <desc>Created with Sketch.</desc>
    <defs>
        <path d="M4.81967213,3.06475 C6.88295082,1.6928 8.65819672,0.99935 10.3221311,0.99935 C12.2683607,0.99935 14.0608197,1.94695 15.9852459,3.86975 C16.4167213,3.5144 16.8459016,3.1372 17.2980328,2.7968 C19.7216393,0.9752 22.3839344,0.69805 25.2034426,1.4513 L25.2057377,1.4513 C26.5621311,2.0332 27.6878689,2.93825 28.5932787,4.14805 L28.5886885,4.1423 C28.8159016,4.5632 29.0419672,4.9841 29.2691803,5.405 L29.2668852,5.3958 C29.9496721,7.40715 30.1780328,9.47945 30.1332787,11.6127 C30.0804918,14.10935 30.1229508,16.6083 30.114918,19.10725 C30.114918,19.4304 30.0540984,19.75355 30.0219672,20.07785 L29.9829508,20.13075 C29.0936066,20.5252 28.1801639,20.4746 27.2644262,20.4263 C26.7560656,20.3987 26.2465574,20.3711 25.7427869,20.4194 C25.4421311,20.44815 25.2057377,20.2837 24.962459,20.1411 L24.9509836,20.125 C24.7042623,19.343 24.9245902,18.5242 24.7822951,17.7353 C24.7822951,15.9482 24.7822951,14.1611 24.7834426,12.3763 C24.8201639,11.15845 24.9785246,9.93485 24.5872131,8.74345 L24.6101639,8.75265 C24.5677049,8.3628 24.4816393,7.99365 24.2096721,7.7027 C24.1763934,7.45775 24.037541,7.2933 23.8436066,7.1737 C23.3765574,6.5941 22.8131148,6.22725 22.0603279,6.2767 C21.7734426,6.10765 21.4716393,6.09845 21.1606557,6.19045 C20.8519672,6.2261 20.5398361,6.2376 20.2357377,6.30315 C18.5729508,6.65965 17.724918,7.75215 17.7283607,9.49555 C17.7329508,12.7121 17.7352459,15.9298 17.7318033,19.14635 C17.7295082,20.1388 17.4586885,20.4217 16.5245902,20.4355 C15.7339344,20.447 14.9432787,20.4355 14.1503279,20.4309 C12.8168852,20.42285 12.6481967,20.24 12.6481967,18.8163 C12.6481967,15.80905 12.6608197,12.80065 12.6367213,9.79225 C12.6298361,8.62385 12.3567213,7.51525 11.3881967,6.8057 C10.2165574,5.9478 8.90032787,5.9478 7.67819672,6.57685 C6.42622951,7.22315 5.60803279,8.29035 5.61721311,9.89115 C5.63327869,12.8984 5.61377049,15.90795 5.62409836,18.9152 C5.6252459,19.4695 5.57704918,19.9847 5.14901639,20.3734 C4.01639344,20.39065 2.88606557,20.41365 1.7557377,20.4217 C0.47852459,20.42975 0.267377049,20.21355 0.267377049,18.88185 C0.263934426,13.72525 0.267377049,8.56865 0.26852459,3.4086 C0.26852459,3.08315 0.262786885,2.7531 0.288032787,2.4265 C0.323606557,1.955 0.572622951,1.61345 1.02016393,1.58125 C1.83032787,1.52605 2.65770492,1.3662 3.44491803,1.74915 L3.46672131,1.79975 C3.69508197,2.40465 3.78688525,3.07165 4.21147541,3.6547 C4.34459016,3.54775 4.44786885,3.46495 4.55114754,3.381 L4.59704918,3.35455 C4.67163934,3.25795 4.74622951,3.1625 4.81967213,3.06475 Z M4.81852459,3.06475 L4.82081967,3.0636 C4.81967213,3.0636 4.81967213,3.0636 4.81967213,3.06475 C4.81967213,3.06475 4.81852459,3.06475 4.81852459,3.06475 Z M24.2096721,7.705 L24.1993443,7.6912 C24.2027869,7.69465 24.2062295,7.6981 24.2096721,7.7027 C24.2096721,7.7027 24.2096721,7.70385 24.2096721,7.705 Z" id="path-1"></path>
        <path d="M4.82081967,3.0636 L4.81967213,3.06475 L4.81852459,3.06475 C4.74508197,3.16365 4.67163934,3.2591 4.59704918,3.35455 L4.55114754,3.381 C4.44786885,3.46495 4.34459016,3.54775 4.21147541,3.6547 C3.78688525,3.07165 3.69508197,2.40465 3.46672131,1.79975 L3.44491803,1.74915 C2.65770492,1.3662 1.83032787,1.52605 1.02016393,1.58125 C0.572622951,1.61345 0.323606557,1.955 0.288032787,2.4265 C0.262786885,2.7531 0.26852459,3.08315 0.26852459,3.4086 C0.267377049,8.56865 0.263934426,13.72525 0.267377049,18.88185 C0.267377049,20.21355 0.47852459,20.42975 1.7557377,20.4217 C2.88606557,20.41365 4.01639344,20.39065 5.14901639,20.3734 C5.57704918,19.9847 5.6252459,19.4695 5.62409836,18.9152 C5.61377049,15.90795 5.63327869,12.8984 5.61721311,9.89115 C5.60803279,8.29035 6.42622951,7.22315 7.67819672,6.57685 C8.90032787,5.9478 10.2165574,5.9478 11.3881967,6.8057 C12.3567213,7.51525 12.6298361,8.62385 12.6367213,9.79225 C12.6608197,12.80065 12.6481967,15.80905 12.6481967,18.8163 C12.6481967,20.24 12.8168852,20.42285 14.1503279,20.4309 C14.9432787,20.4355 15.7339344,20.447 16.5245902,20.4355 C17.4586885,20.4217 17.7295082,20.1388 17.7318033,19.14635 C17.7352459,15.9298 17.7329508,12.7121 17.7283607,9.49555 C17.724918,7.75215 18.5729508,6.65965 20.2357377,6.30315 C20.5398361,6.2376 20.8519672,6.2261 21.1606557,6.19045 C21.4716393,6.09845 21.7734426,6.10765 22.0603279,6.2767 C22.8131148,6.22725 23.3765574,6.5941 23.8436066,7.1737 C24.037541,7.29445 24.1763934,7.45775 24.2096721,7.70155 C24.2062295,7.69925 24.2027869,7.69465 24.1993443,7.6912 L24.2096721,7.705 C24.2096721,7.70385 24.2096721,7.7027 24.2096721,7.70155 C24.4816393,7.99365 24.5677049,8.3628 24.6101639,8.75265 L24.5872131,8.74345 C24.9785246,9.93485 24.8201639,11.15845 24.7834426,12.3763 C24.7822951,14.1611 24.7822951,15.9482 24.7822951,17.7353 C24.9245902,18.5242 24.7042623,19.343 24.9509836,20.125 L24.962459,20.1411 C25.2057377,20.2837 25.4421311,20.44815 25.7427869,20.4194 C26.2465574,20.3711 26.7560656,20.3987 27.2644262,20.4263 C28.1801639,20.4746 29.0936066,20.5252 29.9829508,20.13075 L30.0219672,20.07785 C30.0540984,19.75355 30.114918,19.4304 30.114918,19.10725 C30.1229508,16.6083 30.0804918,14.10935 30.1332787,11.6127 C30.1780328,9.47945 29.9496721,7.40715 29.2668852,5.3958 L29.2691803,5.405 C29.0419672,4.9841 28.8159016,4.5632 28.5886885,4.1423 L28.5932787,4.14805 C27.6878689,2.93825 26.5621311,2.0332 25.2057377,1.4513 L25.2034426,1.4513 C22.3839344,0.69805 19.7216393,0.9752 17.2980328,2.7968 C16.8459016,3.1372 16.4167213,3.5144 15.9852459,3.86975 C14.0608197,1.94695 12.2683607,0.99935 10.3221311,0.99935 C8.65819672,0.99935 6.88409836,1.6928 4.82081967,3.0636 Z" id="path-3"></path>
        <path d="M4.14147541,3.63975 C6.01196721,1.92395 7.96852459,0.99935 10.0340984,0.99935 C11.3847541,0.99935 12.782459,1.39495 14.2329508,2.22525 C14.4808197,2.51045 14.7585246,2.75425 15.092459,2.9233 C15.3059016,3.3051 15.5939344,3.60525 15.9542623,3.86285 C16.1137705,3.7122 16.2388525,3.5972 16.3639344,3.47875 C20.02,-0.0253 26.0985246,0.115 28.7309836,4.45855 L28.7355738,4.47235 C29.0063934,5.083 29.2760656,5.6925 29.5457377,6.30315 L29.5354098,6.2882 C29.6180328,6.6424 29.6995082,6.9966 29.7809836,7.3508 C29.8154098,7.47155 29.8498361,7.59 29.8831148,7.7096 C30.2296721,11.45745 30.0081967,15.21565 30.0598361,18.96925 C30.0781967,20.1848 29.8418033,20.4102 28.6678689,20.4194 C27.7636066,20.42515 26.8593443,20.4309 25.955082,20.4194 C24.9922951,20.4079 24.7513115,20.1618 24.7432787,19.13945 C24.7295082,17.35005 24.7478689,15.56065 24.7363934,13.77125 C24.7272131,12.28085 24.7570492,10.78585 24.6618033,9.30235 C24.5527869,7.61415 23.6278689,6.52395 22.2668852,6.279 C21.5118033,6.003 20.7509836,6.11685 20.0119672,6.30775 C18.3790164,6.7321 17.6572131,7.77515 17.6629508,9.5381 C17.6732787,12.6937 17.6618033,15.8493 17.667541,19.00605 C17.6686885,19.4327 17.6044262,19.83405 17.4265574,20.2147 L17.3531148,20.2308 L17.3381967,20.30555 C15.8785246,20.5275 14.4154098,20.45965 12.9545902,20.3527 C12.852459,20.24805 12.7537705,20.14455 12.6539344,20.0399 C12.4645902,17.1948 12.6195082,14.3451 12.572459,11.4977 C12.5563934,10.5202 12.6332787,9.5381 12.3785246,8.57785 C12.3486885,8.50885 12.3211475,8.43755 12.292459,8.36855 L12.3062295,8.3858 C12.3027869,8.24205 12.2729508,8.1098 12.1616393,8.0178 C12.1363934,7.7786 12.0377049,7.58425 11.8495082,7.4428 L11.8460656,7.43245 C11.7118033,7.07825 11.4662295,6.85055 11.1368852,6.7137 C10.9555738,6.45265 10.6870492,6.3687 10.4013115,6.32615 C9.65770492,6.1157 8.91180328,6.11915 8.16704918,6.3227 C6.44344262,6.91955 5.49672131,8.28115 5.49672131,10.1729 C5.49557377,13.087 5.49213115,16.00225 5.49557377,18.9198 C5.49672131,19.366 5.48868852,19.8053 5.26377049,20.2032 C3.7042623,20.6172 2.13327869,20.4332 0.563442623,20.3067 C0.518688525,20.27565 0.475081967,20.2446 0.429180328,20.2124 C0.364918033,20.12845 0.300655738,20.04335 0.236393443,19.95825 L0.208852459,19.8904 C0.21,19.8007 0.212295082,19.711 0.212295082,19.6236 C0.21,14.07485 0.208852459,8.52725 0.208852459,2.97965 C0.21,1.6997 0.417704918,1.4881 1.65131148,1.4927 C1.76147541,1.49385 1.87163934,1.49155 1.98295082,1.48925 C2.40868852,1.48005 2.83327869,1.47085 3.24983607,1.6169 L3.25557377,1.62035 C3.64459016,2.23445 3.6904918,3.0245 4.14147541,3.63975 Z M14.2329508,2.22525 C14.2306557,2.2218 14.2283607,2.2195 14.224918,2.21605 L14.2455738,2.23215 C14.2409836,2.22985 14.2363934,2.22755 14.2329508,2.22525 Z M15.092459,2.9233 C15.0913115,2.92215 15.0901639,2.921 15.0901639,2.9187 L15.0959016,2.9256 C15.0947541,2.92445 15.0936066,2.92445 15.092459,2.9233 Z M11.1368852,6.71485 L11.1254098,6.7091 C11.13,6.7114 11.1334426,6.71255 11.1368852,6.7137 C11.1368852,6.71485 11.1368852,6.71485 11.1368852,6.71485 Z M12.1616393,8.02355 L12.1386885,8.00055 C12.1467213,8.0063 12.1536066,8.01205 12.1616393,8.0178 C12.1616393,8.0201 12.1616393,8.02125 12.1616393,8.02355 Z M5.26377049,20.2032 C5.26606557,20.2032 5.26836066,20.20205 5.2695082,20.20205 L5.25918033,20.21355 C5.26032787,20.2101 5.26262295,20.20665 5.26377049,20.2032 Z" id="path-5"></path>
        <path d="M4.14147541,3.63975 C6.01196721,1.9251 7.96852459,0.99935 10.0329508,0.99935 C11.3847541,0.99935 12.782459,1.3961 14.2329508,2.22525 C14.4819672,2.51045 14.7585246,2.75425 15.0913115,2.9233 C15.3059016,3.3051 15.5939344,3.60525 15.9542623,3.86285 C16.1137705,3.7122 16.2388525,3.5972 16.3639344,3.47875 C20.02,-0.0253 26.0985246,0.115 28.7309836,4.45855 L28.7355738,4.47235 C29.0063934,5.083 29.2760656,5.6925 29.5457377,6.30315 L29.5354098,6.2882 C29.6180328,6.6424 29.6995082,6.9966 29.7809836,7.3508 C29.8154098,7.47155 29.8498361,7.59 29.8831148,7.7096 C30.2296721,11.45745 30.0081967,15.21565 30.0598361,18.96925 C30.0781967,20.1848 29.8418033,20.4102 28.6678689,20.4194 C27.7636066,20.42515 26.8593443,20.4309 25.955082,20.4194 C24.9922951,20.4079 24.7513115,20.1618 24.7432787,19.13945 C24.7295082,17.35005 24.7478689,15.56065 24.7363934,13.77125 C24.7272131,12.28085 24.7570492,10.78585 24.6618033,9.30235 C24.5527869,7.61415 23.6278689,6.52395 22.2668852,6.279 C21.5118033,6.003 20.7509836,6.11685 20.0119672,6.30775 C18.3790164,6.7321 17.6572131,7.77515 17.6629508,9.5381 C17.6732787,12.6937 17.6618033,15.8493 17.667541,19.00605 C17.6686885,19.4327 17.6044262,19.83405 17.4265574,20.2147 L17.3531148,20.2308 L17.3381967,20.30555 C15.8785246,20.5275 14.4154098,20.45965 12.9545902,20.3527 C12.852459,20.24805 12.7537705,20.14455 12.6539344,20.0399 C12.4645902,17.1948 12.6195082,14.3451 12.572459,11.4977 C12.5563934,10.5202 12.6332787,9.5381 12.3785246,8.57785 C12.3486885,8.50885 12.3211475,8.43755 12.292459,8.36855 L12.3062295,8.3858 C12.3027869,8.2409 12.2729508,8.1098 12.1604918,8.0178 C12.1616393,8.0201 12.1616393,8.02125 12.1616393,8.02355 L12.1386885,8.00055 C12.1467213,8.0063 12.1536066,8.01205 12.1604918,8.0178 C12.1363934,7.7786 12.0365574,7.58425 11.8495082,7.4428 L11.8460656,7.43245 C11.7118033,7.0794 11.4662295,6.85055 11.1368852,6.7137 C11.1368852,6.71485 11.1368852,6.71485 11.1368852,6.71485 L11.1254098,6.7091 C11.13,6.71025 11.1334426,6.71255 11.1368852,6.7137 C10.9555738,6.45265 10.6870492,6.3687 10.4013115,6.32615 C9.65770492,6.1157 8.91180328,6.11915 8.16704918,6.3227 C6.44344262,6.91955 5.49672131,8.28115 5.49672131,10.1729 C5.49557377,13.087 5.49213115,16.00225 5.49557377,18.9198 C5.49672131,19.366 5.48868852,19.8053 5.26377049,20.2032 C5.26606557,20.2032 5.26836066,20.2032 5.2695082,20.20205 L5.25918033,20.21355 C5.26032787,20.2101 5.26262295,20.20665 5.26377049,20.2032 C3.7042623,20.6172 2.13327869,20.4332 0.563442623,20.3067 C0.518688525,20.27565 0.475081967,20.2446 0.429180328,20.2124 C0.364918033,20.12845 0.300655738,20.04335 0.236393443,19.95825 L0.208852459,19.8904 C0.21,19.8007 0.212295082,19.711 0.212295082,19.6236 C0.21,14.07485 0.208852459,8.52725 0.208852459,2.97965 C0.21,1.6997 0.417704918,1.4881 1.65131148,1.4927 C1.76147541,1.49385 1.87163934,1.49155 1.98295082,1.48925 C2.40868852,1.48005 2.83327869,1.47085 3.24983607,1.6169 L3.25557377,1.62035 C3.64459016,2.23445 3.6904918,3.0245 4.14147541,3.63975 Z M14.2329508,2.22525 C14.2306557,2.22295 14.2272131,2.2195 14.224918,2.21605 L14.2455738,2.23215 C14.2409836,2.22985 14.2363934,2.22755 14.2329508,2.22525 Z M15.0913115,2.9233 C15.0913115,2.92215 15.0913115,2.91985 15.0901639,2.9187 L15.0959016,2.9256 C15.0947541,2.92445 15.0936066,2.92445 15.0913115,2.9233 Z" id="path-7"></path>
        <path d="M1.72704918,1.2328 C2.69213115,0.70035 3.7295082,0.5612 4.82770492,0.5612 C4.85295082,0.5612 4.87704918,0.5612 4.90114754,0.56235 C10.2590164,0.5865 15.6168852,0.5819 20.9736066,0.56465 C21.9501639,0.56005 22.875082,0.6785 23.7403279,1.13275 L23.7609836,1.1316 C24.1144262,1.4559 24.4655738,1.7825 24.8190164,2.10795 L24.8304918,2.12405 C24.9888525,2.3989 25.1483607,2.67605 25.3067213,2.9509 C25.3365574,3.2131 25.3572131,3.47875 25.5454098,3.69495 C25.5454098,4.13885 25.5454098,4.58275 25.5442623,5.0278 C25.3595082,5.4464 25.1747541,5.865 24.9888525,6.28475 C24.9440984,6.35145 24.8993443,6.41815 24.8545902,6.4837 C24.7088525,6.54005 24.6491803,6.6539 24.64,6.79995 C24.64,6.79995 24.6732787,6.7804 24.6778689,6.77695 C24.6136066,6.8379 24.5504918,6.8977 24.4862295,6.95865 C24.3244262,6.9989 24.1947541,7.07825 24.1408197,7.24385 C23.9044262,7.31515 23.7081967,7.4451 23.5555738,7.636 L23.5004918,7.63255 L23.464918,7.6751 C23.3914754,7.7165 23.3168852,7.7602 23.2434426,7.8016 L23.24,7.76825 C22.5468852,8.004 21.8285246,8.03505 21.1032787,8.0339 C15.5985246,8.03045 10.094918,8.0247 4.59016393,8.0454 C3.57918033,8.05 2.63360656,7.90855 1.76147541,7.40025 C1.7052459,7.3692 1.65016393,7.337 1.59622951,7.30365 C1.24508197,6.9 0.891639344,6.49405 0.540491803,6.08925 C0.510655738,5.92135 0.519836066,5.73965 0.345409836,5.62925 C0.354590164,5.48435 0.345409836,5.34405 0.207704918,5.2509 L0.218032787,5.22905 C-0.0137704918,3.795 0.375245902,2.54955 1.41147541,1.4973 C1.51590164,1.4099 1.62147541,1.3202 1.72704918,1.2328 Z M25.3044262,2.9348 C25.3044262,2.9348 25.3044262,2.9348 25.3044262,2.93365 C25.3044262,2.93365 25.3044262,2.9348 25.3044262,2.9348 Z M25.3067213,2.9509 C25.3055738,2.94515 25.3055738,2.94055 25.3044262,2.9348 C25.3055738,2.94055 25.3204918,2.9762 25.3204918,2.9762 C25.3159016,2.96815 25.3113115,2.95895 25.3067213,2.9509 Z M24.6778689,6.77695 C24.6778689,6.7758 24.6790164,6.7758 24.6790164,6.7758 C24.6778689,6.7758 24.6778689,6.7758 24.6778689,6.77695 Z" id="path-9"></path>
        <path d="M4.82770492,0.56235 C4.85180328,0.56235 4.87704918,0.56235 4.90114754,0.56235 C10.2590164,0.5865 15.6168852,0.5819 20.9736066,0.56465 C21.9501639,0.56005 22.875082,0.6785 23.7403279,1.13275 L23.7609836,1.1316 C24.1144262,1.4559 24.4655738,1.7825 24.8190164,2.10795 L24.8304918,2.12405 C24.9888525,2.3989 25.1483607,2.67605 25.3067213,2.95205 C25.3365574,3.2131 25.3572131,3.4799 25.5454098,3.69495 C25.5454098,4.13885 25.5454098,4.58275 25.5442623,5.0278 C25.3595082,5.4464 25.1747541,5.865 24.9888525,6.28475 C24.9440984,6.35145 24.8993443,6.41815 24.8545902,6.4837 C24.7088525,6.54005 24.6491803,6.6539 24.64,6.79995 C24.64,6.79995 24.6732787,6.7804 24.6778689,6.77695 C24.6147541,6.83675 24.5504918,6.8977 24.4862295,6.95865 C24.3244262,6.9989 24.1947541,7.07825 24.1408197,7.24385 C23.9044262,7.31515 23.7081967,7.4451 23.5555738,7.636 L23.5004918,7.63255 L23.464918,7.6751 C23.3914754,7.7165 23.3168852,7.7602 23.2434426,7.8016 L23.24,7.76825 C22.5468852,8.004 21.8285246,8.03505 21.1032787,8.0339 C15.5985246,8.03045 10.094918,8.0247 4.59016393,8.0454 C3.57918033,8.05 2.63360656,7.90855 1.76147541,7.40025 C1.7052459,7.3692 1.65016393,7.337 1.59622951,7.30365 C1.24508197,6.9 0.891639344,6.49405 0.540491803,6.08925 C0.510655738,5.92135 0.519836066,5.73965 0.345409836,5.62925 C0.354590164,5.48435 0.345409836,5.34405 0.207704918,5.2509 L0.218032787,5.22905 C-0.0137704918,3.795 0.375245902,2.54955 1.41147541,1.4973 C1.51590164,1.4099 1.62147541,1.3202 1.72704918,1.2328 C2.69098361,0.70035 3.7295082,0.56235 4.82770492,0.56235 Z M25.3044262,2.9348 L25.3044262,2.93365 C25.3044262,2.93365 25.3044262,2.93365 25.3044262,2.9348 Z M25.3067213,2.95205 C25.3055738,2.94515 25.3055738,2.94055 25.3044262,2.9348 C25.3055738,2.94055 25.3204918,2.9762 25.3204918,2.9762 C25.3159016,2.96815 25.3113115,2.9601 25.3067213,2.95205 Z M24.6778689,6.77695 C24.6790164,6.7758 24.6790164,6.7758 24.6790164,6.7758 C24.6790164,6.7758 24.6790164,6.7758 24.6778689,6.77695 Z" id="path-11"></path>
        <path d="M21.5737705,0.0874 C21.5909836,0.08625 21.6081967,0.08625 21.6254098,0.08625 C22.8486885,0.08625 23.9342623,0.34155 24.8867213,1.09595 L24.877541,1.0902 C25.1357377,1.4007 25.3927869,1.7112 25.6498361,2.0194 C25.7106557,2.15165 25.7680328,2.2839 25.8277049,2.415 C26.3440984,4.3723 25.8345902,5.9708 24.0960656,7.14265 C23.9859016,7.1967 23.8757377,7.25075 23.7655738,7.3048 C23.0345902,7.498 22.2932787,7.5716 21.5336066,7.57045 C15.9657377,7.5624 10.3978689,7.5624 4.83,7.5693 C3.81786885,7.57045 2.87344262,7.39795 2.06327869,6.75625 C0.263934426,5.3337 0.134262295,2.7094 1.79016393,1.13735 C1.95540984,0.9798 2.12065574,0.82225 2.28590164,0.66585 C3.20852459,0.1978 4.19196721,0.0851 5.22590164,0.0897 C10.6755738,0.11155 16.1252459,0.12075 21.5737705,0.0874 Z M25.6498361,2.0194 C25.6486885,2.0171 25.647541,2.0148 25.6463934,2.0125 L25.6567213,2.0286 C25.6544262,2.02515 25.6521311,2.02285 25.6498361,2.0194 Z" id="path-13"></path>
        <path d="M21.5737705,0.0874 C21.5909836,0.0874 21.6081967,0.0874 21.6254098,0.0874 C22.8498361,0.0874 23.9342623,0.34155 24.8867213,1.09595 L24.877541,1.0902 C25.1357377,1.4007 25.3916393,1.71235 25.6498361,2.02055 C25.7106557,2.15165 25.7680328,2.2839 25.8277049,2.415 C26.3440984,4.3723 25.8345902,5.9708 24.0960656,7.14265 C23.9859016,7.1967 23.8757377,7.25075 23.7655738,7.3048 C23.0345902,7.498 22.2932787,7.5716 21.5336066,7.57045 C15.9657377,7.5624 10.3978689,7.5624 4.83,7.5693 C3.81786885,7.57045 2.87344262,7.39795 2.06327869,6.75625 C0.263934426,5.3337 0.134262295,2.7094 1.79016393,1.13735 C1.95540984,0.9798 2.12065574,0.82225 2.28590164,0.66585 C3.20852459,0.1978 4.19196721,0.0851 5.22590164,0.0897 C10.6755738,0.11155 16.1252459,0.12075 21.5737705,0.0874 Z M25.6498361,2.02055 C25.6486885,2.0171 25.647541,2.0148 25.6463934,2.0125 L25.6567213,2.0286 C25.6544262,2.02515 25.6509836,2.02285 25.6498361,2.02055 Z" id="path-15"></path>
        <path d="M14.3488525,0.76245 C16.6416393,0.7636 18.9332787,0.7636 21.2260656,0.7613 C21.8663934,0.7613 22.4929508,0.83605 23.1137705,0.97405 C24.4667213,1.6675 25.27,2.74965 25.5431148,4.2113 C25.5431148,4.37345 25.5454098,4.5333 25.5454098,4.6943 C25.4031148,5.4855 25.0829508,6.20885 24.6640984,6.89655 C23.5934426,7.9373 22.2944262,8.25815 20.7957377,8.2455 C15.5457377,8.2018 10.2957377,8.21905 5.0457377,8.23515 C4.08295082,8.23745 3.13852459,8.18685 2.22163934,7.8821 L2.24114754,7.89475 C2.12754098,7.8338 2.01278689,7.7717 1.89803279,7.7096 C1.57098361,7.4129 1.24393443,7.1162 0.918032787,6.8195 C0.918032787,6.8195 0.912295082,6.8103 0.912295082,6.80915 C0.763114754,6.60675 0.615081967,6.4032 0.46704918,6.1985 C0.480819672,6.14445 0.468196721,6.09385 0.429180328,6.0513 C0.378688525,5.93745 0.329344262,5.8236 0.28,5.7086 C-0.329344262,2.71285 1.29442623,0.7751 4.46163934,0.7682 C7.75737705,0.7613 11.0531148,0.7613 14.3488525,0.76245 Z M24.6640984,6.89655 C24.6663934,6.8954 24.667541,6.89425 24.6686885,6.89195 L24.6640984,6.8977 C24.6640984,6.8977 24.6640984,6.89655 24.6640984,6.89655 Z M1.90262295,7.71305 L1.87508197,7.69695 C1.88311475,7.7004 1.89114754,7.705 1.89803279,7.7096 C1.90032787,7.71075 1.90147541,7.7119 1.90262295,7.71305 Z" id="path-17"></path>
        <path d="M14.3488525,0.76245 C16.6416393,0.7636 18.9332787,0.7636 21.2260656,0.7613 C21.8663934,0.7613 22.4929508,0.83605 23.1137705,0.97405 C24.4667213,1.6675 25.27,2.74965 25.5431148,4.2113 C25.5431148,4.37345 25.5454098,4.5333 25.5454098,4.6943 C25.4019672,5.4855 25.0818033,6.20885 24.6640984,6.8977 C23.5934426,7.9373 22.2944262,8.25815 20.7957377,8.2455 C15.5457377,8.2018 10.2957377,8.21905 5.0457377,8.23515 C4.08295082,8.23745 3.13852459,8.18685 2.22163934,7.8821 L2.24114754,7.89475 C2.12754098,7.83265 2.01278689,7.77055 1.89803279,7.7096 C1.89918033,7.71075 1.90147541,7.7119 1.90262295,7.71305 L1.87508197,7.69695 C1.88311475,7.7004 1.89,7.705 1.89803279,7.7096 C1.57098361,7.4129 1.24508197,7.1162 0.918032787,6.8195 C0.918032787,6.8195 0.912295082,6.8103 0.912295082,6.80915 C0.763114754,6.60675 0.615081967,6.4032 0.46704918,6.1985 C0.480819672,6.14445 0.468196721,6.09385 0.429180328,6.0513 C0.378688525,5.93745 0.329344262,5.8236 0.28,5.7086 C-0.329344262,2.71285 1.29442623,0.7751 4.46163934,0.7682 C7.75737705,0.7613 11.0531148,0.7613 14.3488525,0.76245 Z M24.6640984,6.8977 C24.6663934,6.8954 24.667541,6.89425 24.6686885,6.89195 L24.6640984,6.8977 Z" id="path-19"></path>
        <path d="M0.301803279,0.89125 C0.570327869,0.6371 0.866393443,0.5244 1.2095082,0.5244 C1.22327869,0.5244 1.23704918,0.5244 1.25081967,0.5244 C2.25836066,0.55085 3.26819672,0.5428 4.27688525,0.5497 C4.39622951,0.7199 4.51672131,0.8901 4.63721311,1.0603 C4.64983607,1.3432 4.67393443,1.62495 4.67393443,1.9067 C4.67508197,11.44825 4.67508197,20.98865 4.6704918,30.52675 C4.6704918,30.8913 4.60163934,31.25355 4.56606557,31.61695 L4.56606557,31.6181 C4.28262295,31.8941 3.96245902,31.97115 3.60098361,31.95735 C2.91245902,31.93205 2.22393443,31.95275 1.5342623,31.95275 C0.348852459,31.95505 0.243278689,31.8297 0.243278689,30.34735 C0.239836066,21.08065 0.238688525,11.81395 0.234098361,2.54725 C0.234098361,2.20915 0.207704918,1.8722 0.192786885,1.5341 C0.213442623,1.3708 0.236393443,1.2075 0.25704918,1.0442 C0.271967213,0.9936 0.286885246,0.943 0.301803279,0.89125 Z M0.293770492,0.8993 L0.305245902,0.87975 C0.304098361,0.8832 0.30295082,0.8878 0.301803279,0.89125 C0.298360656,0.8947 0.296065574,0.897 0.293770492,0.8993 Z" id="path-21"></path>
        <path d="M1.2095082,0.5244 C1.22327869,0.5244 1.23704918,0.5244 1.25081967,0.5244 C2.25836066,0.55085 3.26819672,0.5428 4.27688525,0.5497 C4.39622951,0.7199 4.51672131,0.8901 4.63721311,1.0603 C4.64983607,1.3432 4.67393443,1.62495 4.67393443,1.9067 C4.67508197,11.44825 4.67508197,20.98865 4.6704918,30.52675 C4.6704918,30.8913 4.60163934,31.25355 4.56606557,31.61695 L4.56606557,31.6181 C4.28262295,31.8941 3.96245902,31.97115 3.60098361,31.95735 C2.91245902,31.93205 2.22393443,31.95275 1.5342623,31.95275 C0.348852459,31.95505 0.243278689,31.8297 0.243278689,30.34735 C0.239836066,21.08065 0.238688525,11.81395 0.234098361,2.54725 C0.234098361,2.20915 0.207704918,1.8722 0.192786885,1.5341 C0.213442623,1.3708 0.236393443,1.2075 0.25704918,1.0442 C0.271967213,0.9936 0.286885246,0.943 0.301803279,0.8924 C0.570327869,0.6371 0.866393443,0.5244 1.2095082,0.5244 Z M0.293770492,0.8993 L0.305245902,0.87975 C0.304098361,0.8832 0.30295082,0.8878 0.301803279,0.8924 C0.298360656,0.89355 0.296065574,0.897 0.293770492,0.8993 Z" id="path-23"></path>
        <path d="M3.21540984,0.98325 C3.75016393,0.8441 4.27,0.7613 4.77147541,0.7613 C5.80655738,0.7613 6.75672131,1.1132 7.56688525,2.0378 C8.56639344,3.17515 8.60196721,4.49765 8.28065574,5.8834 C7.93639344,6.49175 7.51295082,7.04145 7.02065574,7.53825 L7.03327869,7.5302 C5.54606557,8.47665 4.03934426,8.46285 2.51770492,7.6199 C2.41901639,7.53365 2.31918033,7.4497 2.21934426,7.3646 L2.25721311,7.40715 C2.18721311,7.33815 2.11606557,7.26915 2.04606557,7.199 L2.07819672,7.2105 C0.809016393,5.7201 0.669016393,4.11125 1.57213115,2.39315 C1.57213115,2.39315 1.54459016,2.415 1.54114754,2.41845 L1.7052459,2.185 L1.69147541,2.2103 C2.05180328,1.88945 2.41327869,1.5663 2.7747541,1.242 C2.92163934,1.15575 3.06852459,1.0695 3.21540984,0.98325 Z M2.75983607,1.25005 C2.76786885,1.24545 2.77704918,1.23855 2.77704918,1.23855 C2.77590164,1.2397 2.77590164,1.24085 2.7747541,1.242 C2.76901639,1.24545 2.76442623,1.24775 2.75983607,1.25005 Z M2.74721311,1.2581 C2.74721311,1.2581 2.75295082,1.25465 2.75983607,1.25005 C2.7552459,1.25235 2.75180328,1.2558 2.74721311,1.2581 Z M2.52114754,7.62335 L2.5142623,7.6176 C2.51540984,7.61875 2.51655738,7.61875 2.51770492,7.6199 C2.51885246,7.62105 2.52,7.6222 2.52114754,7.62335 Z" id="path-25"></path>
        <path d="M3.21540984,0.98325 C3.74901639,0.8441 4.27,0.7613 4.77032787,0.7613 C5.80540984,0.7613 6.75557377,1.1132 7.56688525,2.0378 C8.56639344,3.17515 8.60196721,4.49765 8.28065574,5.8834 C7.93639344,6.49175 7.51295082,7.04145 7.02065574,7.53825 L7.03327869,7.5302 C5.54491803,8.47665 4.03934426,8.46285 2.51770492,7.6199 C2.51885246,7.62105 2.52,7.6222 2.52114754,7.62335 L2.51540984,7.61875 C2.51655738,7.61875 2.51655738,7.61875 2.51770492,7.6199 C2.41786885,7.53365 2.31918033,7.4497 2.21934426,7.3646 L2.25721311,7.40715 C2.18721311,7.33815 2.11606557,7.26915 2.04606557,7.199 L2.07819672,7.2105 C0.809016393,5.7201 0.669016393,4.11125 1.57213115,2.39315 C1.57213115,2.39315 1.54459016,2.41615 1.54114754,2.41845 L1.7052459,2.185 L1.69147541,2.2103 C2.05180328,1.88945 2.41327869,1.5663 2.7747541,1.242 C2.92278689,1.15575 3.06852459,1.0695 3.21540984,0.98325 Z M2.76442623,1.24775 C2.77131148,1.24315 2.77704918,1.23855 2.77704918,1.23855 C2.77704918,1.2397 2.77590164,1.24085 2.7747541,1.242 C2.77131148,1.2443 2.76786885,1.24545 2.76442623,1.24775 Z M2.75983607,1.25005 C2.76098361,1.25005 2.76327869,1.2489 2.76442623,1.24775 C2.76327869,1.2489 2.76098361,1.2489 2.75983607,1.25005 Z M2.74721311,1.2581 C2.74721311,1.2581 2.75409836,1.25465 2.75983607,1.25005 C2.75639344,1.25235 2.75180328,1.2558 2.74721311,1.2581 Z M2.51540984,7.61875 L2.5142623,7.6176 C2.5142623,7.6176 2.51540984,7.61875 2.51540984,7.61875 Z" id="path-27"></path>
        <path d="M2.22803279,0.2834 C2.55967213,0.1799 2.87409836,0.127 3.1747541,0.127 C4.17655738,0.127 5.03032787,0.7112 5.90934426,1.94055 C5.97131148,2.1901 6.03327869,2.4408 6.0952459,2.6915 C6.12393443,3.65405 5.87606557,4.5246 5.25409836,5.2721 L5.25754098,5.2721 C5.20245902,5.32155 5.14508197,5.36985 5.09114754,5.41815 C4.70442623,5.6332 4.32,5.84595 3.93557377,6.05985 L3.91606557,6.0495 C1.72196721,6.43475 0.389672131,5.03865 0.153278689,3.53445 C0.0201639344,2.67885 0.34147541,1.95205 0.728196721,1.2333 C0.893442623,1.0723 1.05754098,0.9113 1.22393443,0.7503 C1.55672131,0.59275 1.87803279,0.3938 2.22803279,0.2834 Z M1.21934426,0.75145 L1.22393443,0.74915 C1.22393443,0.7503 1.22393443,0.7503 1.22393443,0.7503 C1.22278689,0.7503 1.22163934,0.75145 1.21934426,0.75145 Z" id="path-29"></path>
        <path d="M2.22803279,0.2834 C2.56081967,0.1799 2.87409836,0.127 3.1747541,0.127 C4.17655738,0.127 5.03032787,0.7112 5.90934426,1.94055 C5.97131148,2.1901 6.03327869,2.4408 6.0952459,2.6915 C6.12393443,3.65405 5.87606557,4.5246 5.25409836,5.2721 L5.25754098,5.2721 C5.20245902,5.32155 5.14508197,5.36985 5.09114754,5.41815 C4.70442623,5.6332 4.32,5.84595 3.93557377,6.05985 L3.91606557,6.0495 C1.72196721,6.43475 0.389672131,5.03865 0.153278689,3.53445 C0.0201639344,2.67885 0.34147541,1.95205 0.728196721,1.2333 C0.893442623,1.07115 1.05754098,0.9113 1.22393443,0.74915 C1.55672131,0.5939 1.87803279,0.3938 2.22803279,0.2834 Z M1.21934426,0.75145 C1.2204918,0.75145 1.22163934,0.7503 1.22393443,0.74915 L1.21934426,0.75145 Z" id="path-31"></path>
        <path d="M11.4214754,1.02005 C11.6968852,1.0097 11.9722951,0.99935 12.2465574,0.99935 C12.7836066,0.99935 13.3183607,1.03845 13.847377,1.1914 C14.1319672,1.57205 14.1457377,2.01595 14.1457377,2.4633 C14.1388525,9.53235 14.1365574,16.6014 14.1239344,23.67045 C14.1227869,24.30755 14.0585246,24.9458 14.0240984,25.58405 C13.6442623,27.21475 13.1221311,28.77415 11.9539344,30.0311 C11.4834426,30.5394 10.9188525,30.92695 10.402459,31.37545 L10.3990164,31.38235 C8.37131148,32.44495 6.22540984,32.62435 4.00721311,32.26325 C3.93377049,32.2391 3.85918033,32.21495 3.78459016,32.1908 C3.03983607,31.85385 2.24344262,31.63995 1.5457377,31.1857 C0.620819672,30.5854 0.532459016,30.33355 0.915737705,29.28015 C1.14295082,28.98345 1.3242623,28.6626 1.40114754,28.2877 L1.40114754,28.28425 C1.60196721,28.10945 1.70295082,27.8829 1.74540984,27.62185 C1.74540984,27.62185 1.74081967,27.6253 1.73967213,27.62415 C1.80622951,27.50685 1.87508197,27.3884 1.94163934,27.26995 C2.05295082,27.0664 2.16540984,26.864 2.27672131,26.6616 L2.23655738,26.68115 C2.35131148,26.6156 2.4695082,26.5512 2.58540984,26.48795 L2.60262295,26.5098 C3.11213115,26.4891 3.49311475,26.8709 3.96590164,26.95715 C4.36754098,27.2573 4.81622951,27.41945 5.31655738,27.4206 C5.86278689,27.6322 6.38491803,27.5517 6.89098361,27.2826 L6.93344262,27.28835 L6.95868852,27.2527 C7.19163934,27.2504 7.36721311,27.1515 7.48311475,26.94565 C7.76885246,26.90195 7.93180328,26.72945 7.9857377,26.4454 C8.11770492,26.3925 8.19229508,26.2913 8.21754098,26.14985 C8.21754098,26.14985 8.19114754,26.16595 8.19229508,26.16595 C8.23245902,26.08315 8.27491803,26.0015 8.31622951,25.9187 L8.30590164,25.94515 C8.44131148,25.8635 8.46885246,25.73125 8.47114754,25.5852 C8.58704918,25.5047 8.59278689,25.38855 8.57786885,25.2632 C8.91409836,24.4674 8.83377049,23.61985 8.83606557,22.79185 C8.84754098,16.0287 8.84295082,9.2644 8.84868852,2.50125 C8.85098361,1.18335 9.02311475,0.99935 10.3359016,1.03615 C10.6962295,1.0465 11.0588525,1.03385 11.4214754,1.02005 Z M7.97655738,26.44885 L7.98688525,26.4385 C7.98688525,26.4408 7.9857377,26.4431 7.9857377,26.4454 C7.98229508,26.44655 7.98,26.4477 7.97655738,26.44885 Z M7.47737705,26.9468 L7.48540984,26.94105 C7.48540984,26.94335 7.4842623,26.9445 7.48311475,26.94565 C7.48196721,26.94565 7.47967213,26.9468 7.47737705,26.9468 Z" id="path-33"></path>
        <path d="M11.4214754,1.02005 C11.6968852,1.0097 11.9722951,0.99935 12.2465574,0.99935 C12.782459,0.99935 13.3183607,1.03845 13.847377,1.1914 C14.1319672,1.57205 14.1457377,2.01595 14.1457377,2.4633 C14.1388525,9.53235 14.1365574,16.6014 14.1239344,23.67045 C14.1227869,24.30755 14.0585246,24.9458 14.0240984,25.58405 C13.6442623,27.21475 13.1221311,28.77415 11.9539344,30.0311 C11.4834426,30.5394 10.9188525,30.92695 10.402459,31.37545 L10.3990164,31.38235 C8.37131148,32.44495 6.22540984,32.62435 4.00721311,32.26325 C3.93377049,32.2391 3.85918033,32.21495 3.78459016,32.1908 C3.03983607,31.85385 2.24344262,31.63995 1.5457377,31.1857 C0.620819672,30.5854 0.532459016,30.33355 0.915737705,29.28015 C1.14295082,28.98345 1.3242623,28.6626 1.40114754,28.2877 L1.40114754,28.28425 C1.60196721,28.10945 1.70295082,27.8829 1.74540984,27.62185 C1.74540984,27.62185 1.74081967,27.6253 1.73967213,27.62415 C1.80622951,27.50685 1.87508197,27.3884 1.94163934,27.26995 C2.05295082,27.0664 2.16540984,26.864 2.27672131,26.6616 L2.23655738,26.68115 C2.35131148,26.6156 2.4695082,26.5512 2.58540984,26.48795 L2.60262295,26.5098 C3.11213115,26.4891 3.49311475,26.8709 3.96590164,26.95715 C4.36754098,27.2573 4.81622951,27.41945 5.31655738,27.4206 C5.86278689,27.6322 6.38491803,27.5517 6.89098361,27.2826 L6.93344262,27.28835 L6.95868852,27.2527 C7.19163934,27.2504 7.36836066,27.15035 7.4842623,26.94565 C7.76885246,26.90195 7.93180328,26.72945 7.9857377,26.4454 C8.11770492,26.39365 8.19229508,26.2913 8.21754098,26.14985 C8.21754098,26.14985 8.19114754,26.16595 8.19229508,26.16595 C8.23245902,26.08315 8.27491803,26.0015 8.31622951,25.9187 L8.30590164,25.94515 C8.44131148,25.8635 8.46885246,25.73125 8.47114754,25.5852 C8.58704918,25.5047 8.59278689,25.38855 8.57786885,25.2632 C8.91409836,24.4674 8.83377049,23.61985 8.83606557,22.79185 C8.84754098,16.0287 8.84295082,9.2644 8.84868852,2.50125 C8.85098361,1.18335 9.02311475,0.99935 10.3359016,1.03615 C10.6962295,1.0465 11.0588525,1.03385 11.4214754,1.02005 Z M7.97655738,26.44885 L7.98688525,26.4385 C7.98688525,26.4408 7.9857377,26.4431 7.9857377,26.4454 C7.98229508,26.44655 7.98,26.4477 7.97655738,26.44885 Z M7.47737705,26.9468 L7.48540984,26.94105 C7.4842623,26.9422 7.4842623,26.9445 7.4842623,26.94565 C7.48196721,26.94565 7.47967213,26.9468 7.47737705,26.9468 Z" id="path-35"></path>
        <path d="M2.44770492,1.28455 C2.35590164,1.36505 2.26409836,1.4421 2.17344262,1.5226 C2.03918033,1.6675 1.90377049,1.81125 1.7695082,1.955 C0.383278689,4.35965 0.841147541,6.1801 3.22,7.73375 L3.21081967,7.7395 C3.77311475,7.84185 4.33311475,7.9442 4.89311475,8.0454 C5.01245902,8.027 5.13180328,8.0109 5.25344262,7.9902 C5.92131148,7.86945 6.50770492,7.54745 7.09983607,7.2381 L7.11590164,7.1944 L7.16409836,7.2036 C7.53245902,6.7091 7.89967213,6.21805 8.26803279,5.727 L8.27147541,5.7155 C8.67540984,4.1837 8.45737705,2.7784 7.38672131,1.5548 C7.33163934,1.5571 7.29606557,1.5341 7.27311475,1.48465 C6.43655738,0.87515 5.58737705,0.5612 4.72557377,0.5612 C3.97622951,0.5612 3.21655738,0.7981 2.44770492,1.28455 Z" id="path-37"></path>
        <path d="M2.44770492,1.28455 C2.35590164,1.36505 2.26409836,1.4421 2.17344262,1.5226 C2.03918033,1.6675 1.90377049,1.81125 1.7695082,1.955 C0.383278689,4.35965 0.841147541,6.1801 3.22,7.73375 L3.21081967,7.7395 C3.77311475,7.84185 4.33311475,7.9442 4.89311475,8.0454 C5.01245902,8.027 5.13180328,8.0109 5.25344262,7.9902 C5.92131148,7.86945 6.50770492,7.54745 7.09983607,7.2381 L7.11590164,7.1944 L7.16409836,7.2036 C7.53245902,6.7091 7.89967213,6.21805 8.26803279,5.727 L8.27147541,5.7155 C8.67540984,4.1837 8.45737705,2.7784 7.38672131,1.5548 C7.33163934,1.5571 7.29606557,1.5341 7.27311475,1.48465 C6.43655738,0.87515 5.58737705,0.56235 4.72557377,0.56235 C3.97622951,0.56235 3.21655738,0.79925 2.44770492,1.28455 Z" id="path-39"></path>
    </defs>
    <g id="Page-1" stroke="none" stroke-width="1" fill="none" fill-rule="evenodd">
        <g id="Web-Design-Service" transform="translate(-1200.000000, -3553.000000)">
            <g id="Group-33" transform="translate(1200.000000, 3553.000000)">
                <rect id="Rectangle-18-Copy-10" fill="#F3F3F3" x="0" y="0" width="210" height="210"></rect>
                <g id="Page-1" transform="translate(35.000000, 82.000000)">
                    <path d="M92.9527705,13.777115 L92.9745738,13.828865 C93.2029344,14.433765 93.2947377,15.099615 93.7193279,15.683815 C93.8524426,15.575715 93.9557213,15.492915 94.059,15.410115 L94.1060492,15.383665 C94.1806393,15.285915 94.2552295,15.190465 94.3286721,15.092715 L94.326377,15.095015 C98.8029344,12.118815 101.924246,12.331565 105.493098,15.898865 C105.924574,15.543515 106.353754,15.166315 106.807033,14.825915 C109.229492,13.004315 111.891787,12.727165 114.711295,13.480415 L114.71359,13.480415 C116.069984,14.062315 117.194574,14.966215 118.101131,16.177165 L118.097689,16.171415 C118.323754,16.591165 118.550967,17.012065 118.777033,17.434115 L118.774738,17.424915 C119.457525,19.436265 119.687033,21.508565 119.641131,23.640665 C119.588344,26.138465 119.631951,28.637415 119.62277,31.136365 C119.62277,31.459515 119.561951,31.782665 119.52982,32.105815 L119.491951,32.159865 C118.110311,32.772815 116.663262,32.311665 115.251787,32.447365 C114.949984,32.477265 114.71359,32.311665 114.470311,32.169065 L114.458836,32.152965 C114.212115,31.372115 114.432443,30.553315 114.290148,29.763265 C114.290148,27.977315 114.290148,26.190215 114.291295,24.404265 C114.329164,23.187565 114.486377,21.962815 114.095066,20.772565 L114.119164,20.781765 C114.075557,20.387315 113.988344,20.013565 113.708344,19.720315 L113.717525,19.734115 C113.685393,19.488015 113.546541,19.322415 113.351459,19.202815 C112.885557,18.622065 112.320967,18.256365 111.569328,18.305815 C111.281295,18.136765 110.979492,18.127565 110.669656,18.218415 C110.360967,18.255215 110.047689,18.265565 109.74359,18.331115 C108.081951,18.688765 107.233918,19.781265 107.236213,21.524665 C107.240803,24.741215 107.244246,27.957765 107.239656,31.175465 C107.237361,32.166765 106.966541,32.449665 106.03359,32.464615 C105.241787,32.476115 104.451131,32.464615 103.659328,32.460015 C102.324738,32.451965 102.157197,32.269115 102.157197,30.845415 C102.156049,27.838165 102.168672,24.828615 102.144574,21.821365 C102.137689,20.652965 101.864574,19.545515 100.896049,18.833665 C99.7244098,17.975765 98.4081803,17.975765 97.1860492,18.605965 C95.9352295,19.252265 95.1170328,20.318315 95.1250656,21.920265 C95.1411311,24.927515 95.121623,27.937065 95.1319508,30.944315 C95.1330984,31.498615 95.0849016,32.012665 94.6568689,32.402515 C93.5253934,32.419765 92.3950656,32.442765 91.2635902,32.449665 C89.9875246,32.457715 89.7752295,32.242665 89.774082,30.910965 C89.7717869,25.753215 89.7752295,20.597765 89.7775246,15.437715 C89.7775246,15.111115 89.7717869,14.781065 89.7958852,14.455615 C89.831459,13.984115 90.081623,13.642565 90.5280164,13.609215 C91.3393279,13.555165 92.1655574,13.395315 92.9527705,13.777115" id="Fill-1" fill="#1D1D1B"></path>
                    <g id="Group-5" transform="translate(89.508197, 12.029000)">
                        <mask id="mask-2" fill="white">
                            <use xlink:href="#path-1"></use>
                        </mask>
                        <g id="Clip-4"></g>
                        <polygon id="Fill-3" fill="#1D1D1B" mask="url(#mask-2)" points="-852.622951 2324.15 2015.2323 2324.15 2015.2323 -1305.77325 -852.622951 -1305.77325"></polygon>
                    </g>
                    <g id="Group-8" transform="translate(89.508197, 12.029000)">
                        <mask id="mask-4" fill="white">
                            <use xlink:href="#path-3"></use>
                        </mask>
                        <g id="Clip-7"></g>
                        <polygon id="Fill-6" fill="#1D1D1B" mask="url(#mask-4)" points="-7.20311475 27.9427 37.6072131 27.9427 37.6072131 -6.48485 -7.20311475 -6.48485"></polygon>
                    </g>
                    <path d="M45.3181148,32.33547 C45.2722131,32.30442 45.2286066,32.27222 45.1838525,32.24117 C45.1184426,32.15722 45.0541803,32.07212 44.989918,31.98702 L44.9635246,31.91917 C44.9646721,31.83062 44.9669672,31.73977 44.9669672,31.65122 C44.9646721,26.10362 44.962377,20.55602 44.9635246,15.00842 C44.9646721,13.72847 45.172377,13.51687 46.4059836,13.52262 C46.9407377,13.52492 47.4812295,13.46167 48.0045082,13.64567 L48.0090984,13.64912 C48.3992623,14.26322 48.4440164,15.05442 48.895,15.66852 C51.9933607,12.82687 55.3281148,12.15412 58.9990984,14.26092 C58.9990984,14.26092 58.9795902,14.24597 58.9795902,14.24597 C59.2309016,14.53462 59.5120492,14.78302 59.8505738,14.95437 L59.8436885,14.94862 C60.0571311,15.33272 60.347459,15.63402 60.7077869,15.89162 C60.8684426,15.74097 60.9935246,15.62597 61.1186066,15.50637 C64.7746721,12.00347 70.8520492,12.14377 73.4856557,16.48732 L73.4902459,16.50112 C73.7610656,17.11177 74.0307377,17.72127 74.2992623,18.33077 L74.290082,18.31812 C74.3715574,18.67117 74.4541803,19.02652 74.5345082,19.37957 C74.5689344,19.50032 74.6033607,19.61877 74.6377869,19.73837 C74.9843443,23.48622 74.7628689,27.24442 74.8145082,30.99802 C74.8317213,32.21472 74.5964754,32.43897 73.4213934,32.44817 C72.5182787,32.45507 71.6140164,32.45852 70.7086066,32.44817 C69.7458197,32.43667 69.5059836,32.19057 69.4979508,31.16822 C69.4841803,29.37997 69.5013934,27.58942 69.489918,25.80002 C69.4818852,24.30962 69.5117213,22.81577 69.4153279,21.33112 C69.3063115,19.64292 68.3813934,18.55387 67.0204098,18.30777 C66.2653279,18.03177 65.5045082,18.14562 64.7666393,18.33652 C63.132541,18.76087 62.4118852,19.80507 62.4164754,21.56687 C62.4279508,24.72247 62.4153279,27.87807 62.4222131,31.03482 C62.4222131,31.46147 62.3590984,31.86282 62.1812295,32.24347 L62.1066393,32.25957 C62.1066393,32.25957 62.0928689,32.33432 62.0917213,32.33432 C60.6331967,32.55627 59.170082,32.48842 57.7081148,32.38147 C57.6071311,32.27682 57.5072951,32.17332 57.4086066,32.06982 C57.2192623,29.22357 57.3730328,26.37272 57.3259836,23.52647 C57.3110656,22.54897 57.3879508,21.56687 57.1320492,20.60662 C57.1033607,20.53647 57.0746721,20.46747 57.0459836,20.39732 L57.0597541,20.41572 C57.0563115,20.26047 57.0241803,20.12132 56.8922131,20.02932 L56.9163115,20.05232 C56.8922131,19.80967 56.7935246,19.61302 56.6030328,19.47042 L56.6007377,19.46122 C56.4653279,19.10357 56.2151639,18.87357 55.880082,18.73902 L55.8915574,18.74362 C55.7102459,18.48142 55.4417213,18.39747 55.1548361,18.35607 C54.4112295,18.14447 53.6664754,18.14792 52.9217213,18.35147 C51.1969672,18.94832 50.2513934,20.31107 50.2502459,22.20052 C50.2490984,25.11692 50.2468033,28.03217 50.2490984,30.94857 C50.2502459,31.39937 50.2433607,31.84097 50.0127049,32.24232 L50.0241803,32.23082 C48.462377,32.64712 46.8890984,32.46197 45.3181148,32.33547" id="Fill-9" fill="#1D1D1B"></path>
                    <g id="Group-13" transform="translate(44.754098, 12.029000)">
                        <mask id="mask-6" fill="white">
                            <use xlink:href="#path-5"></use>
                        </mask>
                        <g id="Clip-12"></g>
                        <polygon id="Fill-11" fill="#1D1D1B" mask="url(#mask-6)" points="-807.868852 2324.15 2059.98639 2324.15 2059.98639 -1305.77325 -807.868852 -1305.77325"></polygon>
                    </g>
                    <g id="Group-16" transform="translate(44.754098, 12.029000)">
                        <mask id="mask-8" fill="white">
                            <use xlink:href="#path-7"></use>
                        </mask>
                        <g id="Clip-15"></g>
                        <polygon id="Fill-14" fill="#1D1D1B" mask="url(#mask-8)" points="-7.25934426 27.9427 37.5509836 27.9427 37.5509836 -6.48485 -7.25934426 -6.48485"></polygon>
                    </g>
                    <path d="M0.539918033,36.518825 C0.511229508,36.350925 0.519262295,36.168075 0.344836066,36.058825 C0.354016393,35.913925 0.345983607,35.773625 0.207131148,35.679325 L0.217459016,35.658625 C-0.0131967213,34.224575 0.374672131,32.977975 1.41204918,31.926875 C1.51647541,31.838325 1.62090164,31.749775 1.72647541,31.661225 C2.71336066,31.117275 3.77598361,30.985025 4.90172131,30.990775 C10.2584426,31.016075 15.6163115,31.011475 20.9741803,30.993075 C21.9495902,30.988475 22.8756557,31.108075 23.7409016,31.561175 L23.7615574,31.560025 C24.1138525,31.885475 24.4661475,32.210925 24.8184426,32.536375 L24.829918,32.552475 C24.9940164,32.836525 25.1581148,33.121725 25.3210656,33.405775 C25.3210656,33.405775 25.3038525,33.363225 25.305,33.363225 C25.3359836,33.631175 25.3531967,33.903725 25.5459836,34.123375 C25.5448361,34.568425 25.5448361,35.011175 25.5448361,35.456225 C25.3589344,35.874825 25.1741803,36.294575 24.9882787,36.713175 C24.9435246,36.781025 24.899918,36.846575 24.8540164,36.913275 C24.7082787,36.969625 24.6497541,37.082325 24.6405738,37.228375 C24.6405738,37.228375 24.6784426,37.206525 24.6784426,37.205375 C24.6141803,37.265175 24.5510656,37.327275 24.4868033,37.388225 C24.3238525,37.427325 24.1953279,37.506675 24.1402459,37.672275 C23.9038525,37.743575 23.707623,37.873525 23.5561475,38.065575 L23.499918,38.062125 L23.4654918,38.104675 C23.3920492,38.146075 23.317459,38.188625 23.2428689,38.230025 L23.2405738,38.197825 C22.5463115,38.433575 21.8290984,38.463475 21.1027049,38.462325 C15.5990984,38.458875 10.0943443,38.453125 4.58959016,38.474975 C3.57860656,38.478425 2.63303279,38.336975 1.76090164,37.829825 C1.70581967,37.797625 1.6507377,37.765425 1.59565574,37.733225 C1.2445082,37.328425 0.892213115,36.923625 0.539918033,36.518825" id="Fill-17" fill="#1D1D1B"></path>
                    <g id="Group-21" transform="translate(0.000000, 30.429000)">
                        <mask id="mask-10" fill="white">
                            <use xlink:href="#path-9"></use>
                        </mask>
                        <g id="Clip-20"></g>
                        <polygon id="Fill-19" fill="#1D1D1B" mask="url(#mask-10)" points="-763.114754 2305.75 2104.74049 2305.75 2104.74049 -1324.17325 -763.114754 -1324.17325"></polygon>
                    </g>
                    <g id="Group-24" transform="translate(0.000000, 30.429000)">
                        <mask id="mask-12" fill="white">
                            <use xlink:href="#path-11"></use>
                        </mask>
                        <g id="Clip-23"></g>
                        <polygon id="Fill-22" fill="#1D1D1B" mask="url(#mask-12)" points="-7.31557377 15.53075 33.0136066 15.53075 33.0136066 -6.92185 -7.31557377 -6.92185"></polygon>
                    </g>
                    <path d="M37.3032295,21.34423 C37.819623,23.30038 37.3101148,24.90003 35.5715902,26.07073 C35.4625738,26.12478 35.3512623,26.17998 35.2410984,26.23403 C34.5101148,26.42723 33.7688033,26.50083 33.0091311,26.49968 C27.4412623,26.49163 21.8733934,26.49163 16.3055246,26.49738 C15.2933934,26.49853 14.3489672,26.32718 13.5388033,25.68433 C11.7406066,24.26178 11.6097869,21.63863 13.2656885,20.06658 C13.4297869,19.90903 13.5961803,19.75148 13.7602787,19.59508 C14.6840492,19.12588 15.6674918,19.01433 16.7014262,19.01893 C22.1510984,19.04078 27.599623,19.04998 33.0492951,19.01663 C34.294377,19.00858 35.3960164,19.26043 36.3633934,20.02518 L36.3530656,20.02058 C36.6135574,20.33223 36.8729016,20.64618 37.1322459,20.95783 L37.121918,20.94173 C37.1838852,21.07628 37.2424098,21.21083 37.3032295,21.34423" id="Fill-25" fill="#1D1D1B"></path>
                    <g id="Group-29" transform="translate(11.475410, 18.929000)">
                        <mask id="mask-14" fill="white">
                            <use xlink:href="#path-13"></use>
                        </mask>
                        <g id="Clip-28"></g>
                        <polygon id="Fill-27" fill="#1D1D1B" mask="url(#mask-14)" points="-774.590164 2317.25 2093.26508 2317.25 2093.26508 -1312.67325 -774.590164 -1312.67325"></polygon>
                    </g>
                    <g id="Group-32" transform="translate(11.475410, 18.929000)">
                        <mask id="mask-16" fill="white">
                            <use xlink:href="#path-15"></use>
                        </mask>
                        <g id="Clip-31"></g>
                        <polygon id="Fill-30" fill="#1D1D1B" mask="url(#mask-16)" points="-6.84163934 15.05465 33.487541 15.05465 33.487541 -7.39795 -6.84163934 -7.39795"></polygon>
                    </g>
                    <path d="M0.279885246,11.988175 C-0.329459016,8.992425 1.29431148,7.054675 4.46267213,7.046625 C10.0511967,7.033975 15.6385738,7.045475 21.2259508,7.040875 C21.8662787,7.040875 22.4928361,7.115625 23.1136557,7.253625 C24.4666066,7.945925 25.2698852,9.029225 25.543,10.489725 C25.543,10.651875 25.5452951,10.812875 25.5452951,10.972725 C25.403,11.765075 25.0816885,12.488425 24.6651311,13.176125 L24.6697213,13.170375 C23.5967705,14.215725 22.2966066,14.537725 20.7944754,14.525075 C15.545623,14.480225 10.295623,14.498625 5.04677049,14.513575 C4.08283607,14.515875 3.13955738,14.465275 2.22152459,14.161675 L2.24103279,14.173175 C2.11939344,14.107625 1.99660656,14.040925 1.87496721,13.975375 L1.9025082,13.991475 C1.57431148,13.693625 1.24611475,13.396925 0.917918033,13.099075 C0.917918033,13.099075 0.912180328,13.089875 0.912180328,13.088725 C0.763,12.885175 0.614967213,12.681625 0.466934426,12.478075 C0.479557377,12.422875 0.468081967,12.373425 0.427918033,12.330875 C0.37857377,12.217025 0.329229508,12.103175 0.279885246,11.988175" id="Fill-33" fill="#1D1D1B"></path>
                    <g id="Group-37" transform="translate(0.000000, 6.279000)">
                        <mask id="mask-18" fill="white">
                            <use xlink:href="#path-17"></use>
                        </mask>
                        <g id="Clip-36"></g>
                        <polygon id="Fill-35" fill="#1D1D1B" mask="url(#mask-18)" points="-763.114754 2329.9 2104.74049 2329.9 2104.74049 -1300.02325 -763.114754 -1300.02325"></polygon>
                    </g>
                    <g id="Group-40" transform="translate(0.000000, 6.279000)">
                        <mask id="mask-20" fill="white">
                            <use xlink:href="#path-19"></use>
                        </mask>
                        <g id="Clip-39"></g>
                        <polygon id="Fill-38" fill="#1D1D1B" mask="url(#mask-20)" points="-7.31557377 15.7297 33.0136066 15.7297 33.0136066 -6.7229 -7.31557377 -6.7229"></polygon>
                    </g>
                    <path d="M124.128016,2.06379 C124.148672,1.90049 124.170475,1.73604 124.192279,1.57274 C124.207197,1.51754 124.223262,1.46349 124.239328,1.40829 L124.227852,1.42784 C124.510148,1.15759 124.821131,1.04374 125.184902,1.05409 C126.192443,1.08054 127.202279,1.07249 128.212115,1.07824 C128.331459,1.24844 128.450803,1.41864 128.571295,1.58999 C128.583918,1.87174 128.608016,2.15349 128.608016,2.43639 C128.609164,11.97679 128.610311,21.51719 128.604574,31.05644 C128.604574,31.41984 128.536869,31.78324 128.500148,32.14549 L128.500148,32.14664 C128.216705,32.42264 127.896541,32.49969 127.536213,32.48589 C126.847689,32.46174 126.158016,32.48129 125.468344,32.48244 C124.282934,32.48359 124.177361,32.35939 124.177361,30.87589 C124.173918,21.60919 124.173918,12.34249 124.169328,3.07579 C124.169328,2.73769 124.141787,2.40074 124.128016,2.06379" id="Fill-41" fill="#1D1D1B"></path>
                    <g id="Group-45" transform="translate(123.934426, 0.529000)">
                        <mask id="mask-22" fill="white">
                            <use xlink:href="#path-21"></use>
                        </mask>
                        <g id="Clip-44"></g>
                        <polygon id="Fill-43" fill="#1D1D1B" mask="url(#mask-22)" points="-887.04918 2335.65 1980.80607 2335.65 1980.80607 -1294.27325 -887.04918 -1294.27325"></polygon>
                    </g>
                    <g id="Group-48" transform="translate(123.934426, 0.529000)">
                        <mask id="mask-24" fill="white">
                            <use xlink:href="#path-23"></use>
                        </mask>
                        <g id="Clip-47"></g>
                        <polygon id="Fill-46" fill="#1D1D1B" mask="url(#mask-24)" points="-7.27540984 39.4427 12.1421311 39.4427 12.1421311 -6.96095 -7.27540984 -6.96095"></polygon>
                    </g>
                    <path d="M30.7569672,7.262365 C32.3945082,6.834565 33.9058197,6.944965 35.1084426,8.316915 C36.1068033,9.454265 36.142377,10.776765 35.8210656,12.162515 C35.4779508,12.770865 35.0533607,13.320565 34.5610656,13.816215 L34.5748361,13.809315 C33.0853279,14.756915 31.5786066,14.740815 30.0558197,13.896715 L30.0627049,13.901315 C29.9617213,13.815065 29.8607377,13.729965 29.7597541,13.643715 C29.7597541,13.643715 29.7987705,13.686265 29.797623,13.686265 C29.727623,13.617265 29.657623,13.548265 29.5864754,13.478115 L29.6186066,13.488465 C28.3494262,11.999215 28.2094262,10.390365 29.112541,8.672265 C29.112541,8.672265 29.0815574,8.697565 29.0827049,8.697565 L29.2468033,8.464115 L29.2318852,8.489415 C29.5933607,8.166265 29.9559836,7.843115 30.3186066,7.518815 C30.3186066,7.518815 30.2887705,7.537215 30.2887705,7.536065 C30.4459836,7.444065 30.6009016,7.353215 30.7569672,7.262365" id="Fill-49" fill="#1D1D1B"></path>
                    <g id="Group-53" transform="translate(27.540984, 6.279000)">
                        <mask id="mask-26" fill="white">
                            <use xlink:href="#path-25"></use>
                        </mask>
                        <g id="Clip-52"></g>
                        <polygon id="Fill-51" fill="#1D1D1B" mask="url(#mask-26)" points="-790.655738 2329.9 2077.19951 2329.9 2077.19951 -1300.02325 -790.655738 -1300.02325"></polygon>
                    </g>
                    <g id="Group-56" transform="translate(27.540984, 6.279000)">
                        <mask id="mask-28" fill="white">
                            <use xlink:href="#path-27"></use>
                        </mask>
                        <g id="Clip-55"></g>
                        <polygon id="Fill-54" fill="#1D1D1B" mask="url(#mask-28)" points="-6.47672131 15.7297 15.9278689 15.7297 15.9278689 -6.7229 -6.47672131 -6.7229"></polygon>
                    </g>
                    <path d="M138.876787,25.318745 C138.938754,25.569445 139.000721,25.820145 139.062689,26.069695 C139.091377,27.032245 138.843508,27.902795 138.221541,28.651445 L138.224984,28.650295 C138.168754,28.699745 138.112525,28.748045 138.057443,28.797495 C137.671869,29.011395 137.287443,29.224145 136.903016,29.439195 L136.883508,29.428845 C134.68941,29.814095 133.355967,28.416845 133.120721,26.912645 C132.987607,26.058195 133.308918,25.331395 133.694492,24.612645 C133.860885,24.450495 134.024984,24.289495 134.191377,24.128495 L134.186787,24.130795 C134.521869,23.973245 134.844328,23.771995 135.195475,23.663895 C136.631049,23.213095 137.732689,23.720245 138.876787,25.318745" id="Fill-57" fill="#1D1D1B"></path>
                    <g id="Group-61" transform="translate(132.967213, 23.379000)">
                        <mask id="mask-30" fill="white">
                            <use xlink:href="#path-29"></use>
                        </mask>
                        <g id="Clip-60"></g>
                        <polygon id="Fill-59" fill="#1D1D1B" mask="url(#mask-30)" points="-896.081967 2312.8 1971.77328 2312.8 1971.77328 -1317.12325 -896.081967 -1317.12325"></polygon>
                    </g>
                    <g id="Group-64" transform="translate(132.967213, 23.379000)">
                        <mask id="mask-32" fill="white">
                            <use xlink:href="#path-31"></use>
                        </mask>
                        <g id="Clip-63"></g>
                        <polygon id="Fill-62" fill="#1D1D1B" mask="url(#mask-32)" points="-7.34590164 13.59925 13.5657377 13.59925 13.5657377 -7.3572 -7.34590164 -7.3572"></polygon>
                    </g>
                    <path d="M84.9950328,13.221205 C85.279623,13.600705 85.2922459,14.044605 85.2922459,14.491955 C85.2865082,21.561005 85.2842131,28.628905 85.2715902,35.699105 C85.2704426,36.337355 85.2061803,36.974455 85.1717541,37.612705 C84.791918,39.243405 84.2686393,40.801655 83.1015902,42.059755 C82.6310984,42.569205 82.0665082,42.955605 81.5501148,43.404105 L81.5466721,43.412155 C79.5189672,44.473605 77.3730656,44.654155 75.1548689,44.293055 C75.0814262,44.267755 75.0068361,44.244755 74.9322459,44.219455 C74.1874918,43.882505 73.3910984,43.668605 72.694541,43.215505 C71.7684754,42.615205 71.6789672,42.362205 72.0622459,41.308805 C72.2906066,41.012105 72.471918,40.692405 72.5488033,40.317505 L72.5488033,40.312905 C72.749623,40.138105 72.8506066,39.911555 72.8930656,39.650505 C72.8930656,39.650505 72.8873279,39.653955 72.8861803,39.652805 C72.9538852,39.535505 73.0215902,39.417055 73.0892951,39.298605 C73.2017541,39.095055 73.3130656,38.892655 73.424377,38.689105 C73.424377,38.689105 73.3830656,38.709805 73.3842131,38.709805 C73.4989672,38.644255 73.6171639,38.581005 73.7330656,38.516605 L73.7502787,38.539605 C74.2597869,38.517755 74.6407705,38.899555 75.1135574,38.985805 C75.5151967,39.285955 75.9627377,39.449255 76.4642131,39.450405 C77.0104426,39.660855 77.5325738,39.581505 78.0386393,39.311255 L78.0810984,39.317005 L78.1063443,39.281355 C78.3404426,39.279055 78.5171639,39.177855 78.6342131,38.970855 L78.6250328,38.976605 C78.9165082,38.932905 79.0817541,38.756955 79.134541,38.467155 L79.1242131,38.477505 C79.261918,38.425755 79.3399508,38.323405 79.3663443,38.178505 C79.3663443,38.178505 79.3388033,38.195755 79.3399508,38.194605 C79.3801148,38.112955 79.4225738,38.030155 79.4638852,37.948505 L79.4535574,37.973805 C79.5889672,37.892155 79.6165082,37.759905 79.6188033,37.613855 C79.7347049,37.534505 79.7404426,37.417205 79.7255246,37.291855 C80.0617541,36.496055 79.9814262,35.649655 79.9825738,34.820505 C79.9951967,28.057355 79.9906066,21.293055 79.9974918,14.529905 C79.9986393,13.212005 80.1707705,13.028005 81.4835574,13.064805 C82.6551967,13.098155 83.8371639,12.884255 84.9950328,13.221205" id="Fill-65" fill="#1D1D1B"></path>
                    <g id="Group-69" transform="translate(71.147541, 12.029000)">
                        <mask id="mask-34" fill="white">
                            <use xlink:href="#path-33"></use>
                        </mask>
                        <g id="Clip-68"></g>
                        <polygon id="Fill-67" fill="#1D1D1B" mask="url(#mask-34)" points="-834.262295 2324.15 2033.59295 2324.15 2033.59295 -1305.77325 -834.262295 -1305.77325"></polygon>
                    </g>
                    <g id="Group-72" transform="translate(71.147541, 12.029000)">
                        <mask id="mask-36" fill="white">
                            <use xlink:href="#path-35"></use>
                        </mask>
                        <g id="Clip-71"></g>
                        <polygon id="Fill-70" fill="#1D1D1B" mask="url(#mask-36)" points="-6.76590164 39.9188 21.6139344 39.9188 21.6139344 -6.48485 -6.76590164 -6.48485"></polygon>
                    </g>
                    <path d="M29.7141967,31.951485 C29.8048525,31.872135 29.8966557,31.793935 29.988459,31.713435 C31.6432131,30.669235 33.250918,30.775035 34.8150164,31.914685 C34.8368197,31.962985 34.873541,31.985985 34.9274754,31.982535 C35.9981311,33.208435 36.2161639,34.611435 35.811082,36.144385 L35.8099344,36.155885 C35.4415738,36.646935 35.0732131,37.139135 34.7048525,37.631335 L34.6578033,37.623285 L34.6405902,37.668135 C34.048459,37.975185 33.4632131,38.298335 32.7941967,38.419085 C32.6737049,38.439785 32.5543607,38.455885 32.4338689,38.475435 C31.8738689,38.373085 31.3138689,38.270735 30.7527213,38.168385 L30.7607541,38.161485 C28.3819016,36.608985 27.9240328,34.788535 29.3102623,32.383885 C29.4445246,32.240135 29.5799344,32.096385 29.7141967,31.951485" id="Fill-73" fill="#1D1D1B"></path>
                    <g id="Group-77" transform="translate(27.540984, 30.429000)">
                        <mask id="mask-38" fill="white">
                            <use xlink:href="#path-37"></use>
                        </mask>
                        <g id="Clip-76"></g>
                        <polygon id="Fill-75" fill="#1D1D1B" mask="url(#mask-38)" points="-790.655738 2305.75 2077.19951 2305.75 2077.19951 -1324.17325 -790.655738 -1324.17325"></polygon>
                    </g>
                    <g id="Group-80" transform="translate(27.540984, 30.429000)">
                        <mask id="mask-40" fill="white">
                            <use xlink:href="#path-39"></use>
                        </mask>
                        <g id="Clip-79"></g>
                        <polygon id="Fill-78" fill="#1D1D1B" mask="url(#mask-40)" points="-6.47672131 15.53075 15.9278689 15.53075 15.9278689 -6.92185 -6.47672131 -6.92185"></polygon>
                    </g>
                </g>
            </g>
        </g>
    </g>
</svg>