<?xml version="1.0" encoding="UTF-8"?>
<svg width="210px" height="210px" viewBox="0 0 210 210" version="1.1" xmlns="http://www.w3.org/2000/svg" xmlns:xlink="http://www.w3.org/1999/xlink">
    <!-- Generator: Sketch 46.2 (44496) - http://www.bohemiancoding.com/sketch -->
    <title>Group 43</title>
    <desc>Created with Sketch.</desc>
    <defs>
        <polygon id="path-1" points="5.67313241e-16 40.3609651 5.67313241e-16 0.319728814 10.8578622 0.319728814 10.8578622 40.3609651"></polygon>
    </defs>
    <g id="Page-1" stroke="none" stroke-width="1" fill="none" fill-rule="evenodd">
        <g id="Web-Design-Service" transform="translate(-509.000000, -3783.000000)">
            <g id="Group-43" transform="translate(509.000000, 3783.000000)">
                <rect id="Rectangle-18-Copy-13" fill="#F3F3F3" x="0" y="0" width="210" height="210"></rect>
                <g id="Page-1" transform="translate(18.000000, 81.000000)">
                    <path d="M174.165669,36.698278 C174.164847,35.3672949 173.156749,34.3511593 171.833979,34.346278 C170.498885,34.3422102 169.468603,35.381939 169.473533,36.7283797 C169.477641,38.0040407 170.566256,39.0820068 171.836444,39.0665492 C173.143603,39.0519051 174.166491,38.0113627 174.165669,36.698278 L174.165669,36.698278 Z M174.451585,37.2970576 C174.148415,38.1431593 173.664495,38.8143458 172.777171,39.1641763 C171.464261,39.6832271 169.856397,39.002278 169.346185,37.6778034 C168.80804,36.2801085 169.533509,34.682278 170.912148,34.2323797 C172.341725,33.7645831 173.699824,34.3649898 174.297946,35.7236339 C174.342312,35.8245153 174.329167,35.957939 174.451585,36.0189559 L174.451585,37.2970576 Z" id="Fill-1" fill="#C1BFBE"></path>
                    <g id="Group-5" transform="translate(0.000000, 0.494156)">
                        <mask id="mask-2" fill="white">
                            <use xlink:href="#path-1"></use>
                        </mask>
                        <g id="Clip-4"></g>
                        <path d="M9.45164319,40.3601085 C7.62769953,38.9298712 5.98286385,37.3263458 4.57957746,35.4828203 C2.20434272,32.3636339 0.64084507,28.9027525 0.158568075,25.0082441 C-0.211150235,22.0167864 0.0911971831,19.0578712 0.778051643,16.1347525 C1.88802817,11.4161085 4.09483568,7.28648136 7.55786385,3.84024407 C7.92922535,3.47007458 8.32194836,3.11373559 8.73521127,2.78993898 C9.53462441,2.16512542 10.1196009,1.4296678 10.15,0.319159322 C10.3389671,0.512786441 10.3948357,0.707227119 10.4474178,0.903294915 C10.2995305,1.03509153 10.3430751,1.2116339 10.3611502,1.36539661 C10.5131455,2.6475661 10.5624413,3.93298983 10.5550469,5.22248136 C10.5492958,6.21014237 10.581338,7.19617627 10.636385,8.18383729 C10.7086854,9.47088814 10.6996479,10.7636339 10.725939,12.0523119 C10.764554,13.9625492 10.7694836,15.8752271 10.6865023,17.7895322 C10.6355634,18.9366508 10.7349765,20.104922 10.7530516,21.2634305 C10.75223,22.5041085 10.7678404,23.7423458 10.8343897,24.9830237 C10.8992958,26.2033627 10.8138498,27.4285831 10.7678404,28.6521763 C10.7111502,30.1344814 10.6971831,31.6167864 10.5616197,33.0950237 C10.5016432,33.7409898 10.5115023,34.394278 10.4901408,35.0443119 C10.5073944,35.5503458 10.3003521,36.0287186 10.2839202,36.5266169 C10.2444836,37.7022102 10.0292254,38.8501424 9.74906103,39.9874983 C9.7129108,40.1347525 9.72605634,40.3771932 9.45164319,40.3601085" id="Fill-3" fill="#BFBFBF" mask="url(#mask-2)"></path>
                    </g>
                    <path d="M130.950775,28.8876203 C130.906408,30.7197559 130.969671,33.0912814 131.041972,35.4628068 C131.069906,36.3357559 131.456056,36.9971797 132.32777,37.3104 C133.559343,37.7521627 134.81885,37.8408407 136.121901,37.7131119 C138.599014,37.4698576 140.348192,36.165722 141.454883,34.0545356 C142.799014,31.4893831 142.90993,28.746061 142.171315,25.9929763 C141.398192,23.1056542 139.467441,21.2751458 136.585282,20.4176542 C135.679061,20.1475525 134.740798,20.0735186 133.806643,20.0019254 C133.132934,19.9498576 132.453474,19.9531119 131.78223,20.0775864 C131.346784,20.1589424 131.045258,20.346061 131.036221,20.8366373 C131.011573,22.1122983 130.968028,23.3863322 130.954061,24.6611797 C130.939272,25.8888407 130.950775,27.1181288 130.950775,28.8876203 L130.950775,28.8876203 Z M130.348545,39.3499932 C128.776831,39.3499932 127.203474,39.3589424 125.631761,39.3426712 C125.34338,39.3394169 124.908756,39.4809763 124.884108,38.9635525 C124.856995,38.4103322 125.233286,37.9303322 125.683521,37.8920949 C125.798545,37.8831458 125.916033,37.8896542 126.030235,37.8725695 C127.141033,37.6984678 127.523897,37.2607729 127.565798,36.1331797 C127.73669,31.5975864 127.630704,27.0595525 127.653709,22.5231458 C127.655352,22.1000949 127.61838,21.6729763 127.553474,21.2548068 C127.467207,20.6991458 127.103239,20.3558237 126.570023,20.1955525 C126.016268,20.0304 125.446901,19.9409085 124.872606,19.8831458 C124.23669,19.818061 124.178357,19.7367051 124.46838,19.1623322 C124.666385,18.7726373 124.78716,18.4423322 125.453474,18.4634847 C128.214038,18.5480949 130.981995,18.570061 133.741737,18.4765017 C135.873779,18.4032814 137.967207,18.4618576 139.985047,19.1899932 C143.212277,20.3558237 145.174249,22.6671458 145.920258,25.9490441 C146.483873,28.4328407 146.289155,30.9011797 145.202183,33.2295864 C143.845728,36.1356203 141.439272,37.8449085 138.415798,38.7634169 C136.876127,39.2312136 135.287981,39.4053153 133.674366,39.3744 C132.566854,39.3524339 131.456878,39.3703322 130.348545,39.3703322 L130.348545,39.3499932 Z" id="Fill-6" fill="#C1BFBE"></path>
                    <path d="M154.883052,23.8346034 L154.869906,23.8346034 C154.869906,24.8336542 154.869906,25.8327051 154.869085,26.8317559 C154.869085,27.0481627 154.849366,27.2491119 155.174718,27.2767729 C156.444085,27.3882305 157.713451,27.4215864 158.976244,27.2499254 C160.062394,27.1026712 160.825657,26.5047051 161.224953,25.4853153 C161.519085,24.7319593 161.513333,23.9411797 161.394202,23.1626034 C161.198662,21.8958915 160.460047,21.031078 159.27284,20.5331797 C158.13,20.0548068 156.926362,20.0539932 155.719437,20.0808407 C155.044906,20.0962983 154.88716,20.2508746 154.884695,20.9367051 C154.879765,21.9032136 154.883052,22.8689085 154.883052,23.8346034 M154.869906,32.4990102 L154.883052,32.4990102 C154.883052,33.5485017 154.868263,34.5971797 154.887981,35.6474847 C154.905235,36.658739 155.567441,37.3909424 156.557465,37.6211797 C156.950188,37.7122983 157.345376,37.7106712 157.736455,37.749722 C158.835751,37.8603661 159.926831,37.7594847 160.906174,37.2013831 C162.148427,36.4935864 162.718615,35.3920271 162.867324,33.9837559 C163.089977,31.8579254 162.061338,30.1388746 160.170845,29.4139932 C158.571197,28.8005695 156.905822,28.8209085 155.236338,28.8436881 C154.917559,28.8485695 154.865798,29.0397559 154.86662,29.3033492 C154.873192,30.3682983 154.869906,31.434061 154.869906,32.4990102 M161.685869,27.5729085 C162.543615,27.7901288 163.283052,28.0651119 163.96169,28.4661966 C165.857934,29.5889085 166.610516,31.2266034 166.474953,33.1327729 C166.312277,35.4196881 164.988685,36.9475525 163.042324,38.0198237 C161.499366,38.8683661 159.828239,39.2360949 158.074953,39.3784678 C155.592911,39.5802305 153.120728,39.2743322 150.642793,39.3312814 C150.022488,39.3451119 149.390681,39.2694508 148.764624,39.2743322 C148.455704,39.2767729 148.403944,39.1506712 148.474601,38.8756881 C148.670141,38.1141966 148.85993,37.962061 149.614977,37.8782644 C150.004413,37.8351458 150.388099,37.7188068 150.766033,37.6081627 C151.206408,37.4788068 151.355117,37.1289763 151.412629,36.7108068 C151.608169,35.2919593 151.465211,33.8649763 151.52108,32.4428746 C151.652535,29.0869424 151.57284,25.7285695 151.602418,22.3718237 C151.606526,21.9113492 151.55723,21.4581966 151.503005,21.0042305 C151.446315,20.538061 151.077418,20.1874169 150.530235,20.0897898 C150.04385,20.0035525 149.553357,19.9433492 149.062864,19.8823322 C148.48939,19.8115525 148.387512,19.6382644 148.628239,19.1061966 C148.817207,18.6904678 149.024249,18.4659254 149.605939,18.4773153 C152.749366,18.5358915 155.894437,18.5009085 159.039507,18.5131119 C160.260399,18.5179932 161.428709,18.7767051 162.522254,19.3339932 C165.386338,20.7927051 165.718263,24.7319593 163.145023,26.6674169 C162.714507,26.9912136 162.233052,27.2312136 161.685869,27.5729085" id="Fill-8" fill="#C1BFBE"></path>
                    <path d="M32.1731338,32.6487051 C32.1731338,34.0081627 32.1657394,35.3676203 32.1755986,36.727078 C32.1813498,37.6415186 32.4220775,37.9116203 33.3258333,38.0759593 C33.489331,38.1052475 33.6536502,38.1524339 33.8155047,38.1483661 C34.2501291,38.1377898 34.3240728,38.3647729 34.2969601,38.7390102 C34.2517723,39.3573153 34.24027,39.3914847 33.6175,39.3638237 C31.6169131,39.2743322 29.6179695,39.2629424 27.6190258,39.3825356 C27.3733685,39.3979932 27.1047066,39.4134508 27.1523592,39.0693153 C27.1959038,38.7512136 26.8845188,38.2720271 27.527007,38.1792814 C27.9008333,38.1239593 28.26973,38.0255186 28.6369836,37.9319593 C29.0469601,37.8270102 29.2696127,37.5552814 29.3484859,37.1419932 C29.4782981,36.4602305 29.4273592,35.7703322 29.4503638,35.0845017 C29.5169131,33.0717559 29.5128052,31.0573831 29.4618662,29.0430102 C29.4511854,28.6329763 29.2761854,28.3661288 28.9253638,28.1798237 C28.4291197,27.9146034 27.9106925,27.7104 27.3717254,27.5476881 C27.150716,27.4809763 26.9050587,27.3963661 26.9297066,27.1010441 C26.9527113,26.8285017 27.1753638,26.7146034 27.4095188,26.674739 C28.9409742,26.4160271 30.4551761,26.0906034 31.9118662,25.5398237 C32.2125704,25.4259254 32.2166784,25.6699932 32.2183216,25.8327051 C32.221608,26.2085695 32.1879225,26.5844339 32.1723122,26.9602983 C32.1632746,27.162061 32.0301761,27.4158915 32.2774765,27.5362983 C32.5124531,27.6493831 32.6644484,27.4118237 32.8304108,27.2922305 C33.7432042,26.6332475 34.7118662,26.0727051 35.7881573,25.7245017 C37.6170305,25.1338576 39.2084624,25.6472136 40.3258333,27.1954169 C40.7678521,27.8088407 40.7054108,27.7828068 41.3347535,27.3377898 C42.3748944,26.6031458 43.4659742,25.954739 44.7098709,25.6219932 C47.0226643,25.002061 49.1916784,26.3118915 49.8662089,28.7265356 C50.110223,29.5994847 50.1759507,30.4952136 50.1636268,31.3998915 C50.1389789,33.2336542 50.1282981,35.0682305 50.1118662,36.9019932 C50.1077582,37.3868746 50.3435563,37.7204339 50.8077582,37.8579254 C51.249777,37.9889085 51.7000117,38.1044339 52.1551761,38.1719593 C52.4287676,38.2126373 52.470669,38.3322305 52.4599883,38.5608407 C52.4230164,39.3093153 52.3531808,39.3963661 51.607993,39.3597559 C49.6912089,39.2670102 47.7744249,39.2621288 45.8584624,39.3687051 C45.5413263,39.3857898 45.3416784,39.3320949 45.3712559,38.9757559 C45.3975469,38.6739254 45.1625704,38.2923661 45.7196127,38.1678915 C47.3003638,37.8172475 47.2962559,37.7838915 47.3406221,36.1331797 C47.3890962,34.3653153 47.4170305,32.5982644 47.3192606,30.8320271 C47.1812324,28.3457898 45.3802934,27.1116203 42.9754812,27.8544 C42.4052934,28.0309424 41.8802934,28.3034847 41.3848709,28.6346034 C41.1909742,28.7647729 41.06527,28.9250441 41.091561,29.1593492 C41.3101056,31.0712136 41.1901526,32.9863322 41.1745423,34.9014508 C41.1687911,35.6043661 41.2065845,36.3080949 41.2098709,37.0110102 C41.2115141,37.4893831 41.4423826,37.7838915 41.8959038,37.9083661 C42.2606925,38.0076203 42.627946,38.1247729 43.0017723,38.1695186 C43.5809977,38.2394847 43.31973,38.6389424 43.323838,38.9171797 C43.3287676,39.1889085 43.2761854,39.3890441 42.8711385,39.3776542 C40.8048239,39.3198915 38.7360446,39.3044339 36.6689085,39.3931119 C36.382993,39.4053153 36.2063498,39.3304678 36.2252465,39.0359593 C36.2441432,38.7259932 36.0477817,38.3118915 36.549777,38.1906712 C36.9022418,38.1068746 37.2637441,38.0613153 37.6186737,37.9840271 C38.0689085,37.8847729 38.3260681,37.6154847 38.3926174,37.146061 C38.4903873,36.4618576 38.474777,35.7727729 38.4862793,35.0869424 C38.513392,33.4362305 38.6284155,31.7765695 38.3696127,30.1372475 C38.0459038,28.0878915 36.4700822,27.1303322 34.4473122,27.690061 C33.8549413,27.8544 33.3176174,28.135078 32.7827582,28.4328407 C32.2840493,28.711078 32.1205516,29.1129763 32.127946,29.6491119 C32.1427347,30.6489763 32.132054,31.6488407 32.132054,32.6487051 L32.1731338,32.6487051 Z" id="Fill-10" fill="#1D1D1B"></path>
                    <path d="M10.4898944,35.5383051 C10.5112559,34.8882712 10.5022183,34.2349831 10.5613732,33.5890169 C10.6969366,32.1107797 10.7117254,30.6284746 10.7675939,29.1469831 C10.8144249,27.9233898 10.8990493,26.6973559 10.8341432,25.4770169 C10.7675939,24.236339 10.7519836,22.9981017 10.7528052,21.7582373 C10.8842606,21.7517288 11.0190023,21.7582373 11.147993,21.7370847 C12.9612559,21.4498983 14.776162,21.1749153 16.5844953,20.863322 C17.9089085,20.6355254 19.2481103,20.4939661 20.5577347,20.1831864 C21.4310915,27.6386441 19.224284,34.0104407 13.717946,39.2164068 C13.2274531,39.6809492 12.7008099,40.1031864 12.1437676,40.4863729 C11.5596127,40.3016949 11.3271009,39.8103051 11.1266315,39.3099661 C10.6435329,38.0993898 10.5276878,36.8245424 10.4898944,35.5383051" id="Fill-12" fill="#A9A8A8"></path>
                    <path d="M100.132124,30.7411525 C100.091045,29.6705085 99.9267254,28.6348475 99.1864671,27.7724746 C98.0050117,26.3975593 95.6790728,26.4943729 94.7859977,27.9628475 C93.8510211,29.499661 94.2823592,32.2275254 95.6445657,33.3966102 C97.1636972,34.6999322 99.2751995,34.1255593 99.8922183,32.2429831 C100.050786,31.7564746 100.111585,31.2561356 100.132124,30.7411525 M96.8194484,39.9132203 C96.2689789,39.8375593 95.4219131,40.1418305 94.6668662,40.7959322 C93.1690962,42.0951864 93.2323592,43.8581695 94.8410446,45.0256271 C96.4563028,46.1971525 99.5290728,46.3021017 101.2002,45.223322 C102.241984,44.5496949 102.781772,43.5880678 102.612523,42.3465763 C102.445739,41.1335593 101.548556,40.6177627 100.457477,40.3297627 C99.4115845,40.0531525 98.3377582,40.0189831 96.8194484,39.9132203 M105.254777,25.7751864 C105.551373,27.0085424 105.173439,27.9042712 104.258181,28.2069153 C103.834237,28.3468475 103.401256,28.3118644 102.987171,28.2191186 C102.620739,28.1377627 102.59034,28.2418983 102.665927,28.5502373 C102.941984,29.6932881 102.916514,30.8355254 102.476138,31.9289492 C101.722735,33.8025763 100.149378,34.6974915 98.2999648,35.2197966 C97.823439,35.3540339 97.3296596,35.416678 96.8309507,35.4288814 C96.5976174,35.4353898 96.3725,35.472 96.1646362,35.5907797 C95.8622887,35.7632542 95.6347066,35.9739661 95.6445657,36.3579661 C95.6544249,36.7313898 95.8540728,36.9632542 96.1712089,37.124339 C96.5639319,37.3228475 96.9928052,37.3651525 97.4208568,37.3928136 C98.8726174,37.4871864 100.321913,37.5831864 101.763815,37.783322 C104.439754,38.1559322 105.731303,40.2264407 104.855481,42.7850847 C104.384707,44.16 103.4448,45.1745085 102.267453,45.9880678 C99.8199178,47.6778305 97.1209742,48.0699661 94.2848239,47.3084746 C92.7065376,46.8862373 91.54973,45.8774237 91.0888146,44.2413559 C90.8283685,43.3138983 91.0239085,42.4962712 91.7230869,41.808 C92.4534859,41.0871864 93.2857629,40.4932881 94.1295423,39.9164746 C94.4573592,39.6927458 94.4729695,39.5910508 94.0827113,39.4185763 C93.2906925,39.0671186 92.654777,38.5505085 92.3787207,37.6783729 C92.2636972,37.3147119 92.3499648,37.0828475 92.6638146,36.8932881 C93.2841197,36.5190508 93.9101761,36.1505085 94.5148709,35.752678 C94.9125235,35.4915254 94.8886972,35.3548475 94.4351761,35.1807458 C92.4617019,34.4225085 91.600669,32.9133559 91.54973,30.9054915 C91.4987911,28.9220339 92.4017254,27.4405424 94.1648709,26.5082034 C96.3544249,25.3488814 98.6162793,25.144678 100.941397,26.1103729 C101.478721,26.3332881 102.03412,26.4667119 102.620739,26.4927458 C103.901608,26.5496949 104.172735,26.4862373 105.254777,25.7751864" id="Fill-14" fill="#1D1D1B"></path>
                    <path d="M20.5576526,20.1831864 C19.2480282,20.4939661 17.9088263,20.6355254 16.5844131,20.863322 C14.7760798,21.1749153 12.9611737,21.4498983 11.1479108,21.7370847 C11.0189202,21.7582373 10.885,21.7517288 10.752723,21.7582373 C10.7346479,20.5989153 10.6360563,19.4306441 10.6861737,18.2835254 C10.7699765,16.3700339 10.7642254,14.4565424 10.7256103,12.5463051 C10.6993192,11.2576271 10.7091784,9.96488136 10.6368779,8.67783051 C10.5810094,7.69016949 10.5489671,6.70413559 10.5547183,5.71647458 C10.5621127,4.42698305 10.5128169,3.14155932 10.3616432,1.85938983 C10.3427465,1.70644068 10.3000235,1.52908475 10.4470892,1.39810169 C11.1585915,3.05613559 12.3375822,4.35945763 13.5732629,5.65383051 C17.2408685,9.49464407 19.3778404,14.1181017 20.4418075,19.2597966 C20.5050704,19.5624407 20.5206808,19.875661 20.5576526,20.1831864" id="Fill-16" fill="#B2B2B2"></path>
                    <path d="M77.0408333,27.6974644 C77.8040962,27.0840407 78.5312089,26.5519729 79.338838,26.1370576 C80.6501056,25.4650576 82.0049178,25.1363797 83.4295657,25.7327186 C85.1491667,26.4527186 85.8836737,27.8740068 86.1400117,29.6117695 C86.3117254,30.7686508 86.2295657,31.9336678 86.2410681,33.0954305 C86.2542136,34.3719051 86.2542136,35.6483797 86.2994014,36.9264814 C86.3174765,37.4536678 86.5236972,37.7587525 87.0281573,37.8775322 C87.3806221,37.9605153 87.7322653,38.0792949 88.088838,38.1061424 C88.7025704,38.1525153 88.5505751,38.573939 88.5374296,38.9213288 C88.5251056,39.2776678 88.4848474,39.5982102 87.9598474,39.5567186 C85.9132512,39.3931932 83.8641901,39.4241085 81.8159507,39.554278 C81.4462324,39.5786847 81.2309742,39.4818712 81.2728756,39.0832271 C81.310669,38.7268881 81.0239319,38.2509559 81.7009272,38.1354305 C83.2989319,37.8628881 83.3005751,37.8474305 83.2948239,36.2243797 C83.2882512,34.4402441 83.290716,32.656922 83.2570305,30.8727864 C83.2282746,29.3156339 82.5455282,28.309261 81.2572653,27.9277017 C79.8465845,27.5103458 78.5854343,27.8878373 77.4458803,28.7485831 C77.1451761,28.9755661 77.0728756,29.3197017 77.0736972,29.6736 C77.0819131,32.0825492 77.0851995,34.4906847 77.1114906,36.8996339 C77.1205282,37.6773966 77.297993,37.8523119 78.0694718,38.0280407 C78.2288615,38.0646508 78.4013967,38.0589559 78.5558568,38.1110237 C78.7932981,38.1891254 79.167946,38.0451254 79.2566784,38.3184814 C79.3651291,38.6504136 79.3240493,39.0327864 79.1835563,39.3777356 C79.0685329,39.6600407 78.8113732,39.5559051 78.6215845,39.5420746 C77.2174765,39.4363119 75.8125469,39.4395661 74.4076174,39.4647864 C73.7462324,39.4769898 73.0864906,39.5103458 72.4267488,39.5534644 C72.0956455,39.5762441 71.9206455,39.4769898 71.9378991,39.1271593 C71.946115,38.965261 71.9469366,38.8001085 71.9354343,38.6373966 C71.9140728,38.3192949 72.0463498,38.1704136 72.3766315,38.1224136 C73.9672418,37.8905492 73.9976408,37.8246508 74.0666549,36.1381424 C74.1594953,33.8780746 74.0937676,31.6180068 74.1274531,29.357939 C74.135669,28.8641085 73.9680634,28.5264814 73.4948239,28.3043797 C73.0601995,28.1009898 72.6181808,27.9236339 72.1646596,27.7747525 C71.8680634,27.6771254 71.5484624,27.5664814 71.5706455,27.2174644 C71.5928286,26.8399729 71.9132512,26.6976 72.2690023,26.6414644 C73.5917723,26.4340068 74.8915376,26.1354305 76.1600822,25.7074983 C77.0482277,25.4072949 77.1509272,25.490278 77.076162,26.437261 C77.0457629,26.8253288 76.9636033,27.2117695 77.0408333,27.6974644" id="Fill-18" fill="#1D1D1B"></path>
                    <path d="M65.8040258,33.6919322 C65.7982746,32.8368814 65.7851291,32.2641356 65.6832512,31.6978983 C65.4449883,30.3685424 64.9996831,29.1303051 64.0022653,28.1621695 C62.9185798,27.1102373 61.6081338,26.6798644 60.1382981,27.079322 C58.7235094,27.4641356 58.0760915,28.5697627 57.7951056,29.9194576 C57.4968662,31.3586441 57.5880634,32.7888814 57.9676408,34.1971525 C58.3020305,35.4378305 58.895223,36.5361356 59.9337207,37.3562034 C61.5884155,38.660339 64.806608,38.7807458 65.5764437,35.5525424 C65.7440493,34.8488136 65.8204577,34.1336949 65.8040258,33.6919322 M61.8086033,39.6870508 C57.3530869,39.6374237 54.7100117,36.9477966 54.6221009,32.9019661 C54.5760915,30.836339 55.096162,29.0253559 56.6555516,27.5739661 C58.8352465,25.5457627 63.1995657,24.5589153 66.1540258,26.6546441 C67.7454577,27.7830508 68.5884155,29.3507797 68.7954577,31.2439322 C69.0665845,33.723661 68.5473357,35.9837288 66.6141197,37.735322 C65.1360681,39.0736271 63.3277347,39.6227797 61.8086033,39.6870508" id="Fill-20" fill="#1D1D1B"></path>
                    <path d="M118.758451,33.458278 C118.758451,33.2361763 118.76338,33.0881085 118.757629,32.9400407 C118.687793,31.1437017 118.280282,29.4571932 116.947653,28.1424814 C115.875469,27.0848542 114.546127,26.6788881 113.078756,27.0840407 C111.730516,27.4566508 111.058451,28.5134644 110.786502,29.8013288 C110.378991,31.7270237 110.561385,33.6161085 111.387911,35.413261 C111.948239,36.6319729 112.812559,37.573261 114.143545,38.0060746 C116.159742,38.6618034 117.878521,37.7717695 118.478286,35.7630915 C118.709977,34.9861424 118.774061,34.1888542 118.758451,33.458278 M121.830399,32.4079729 C121.795892,34.7884475 120.977582,36.9020746 118.844718,38.3070915 C116.726643,39.7031593 114.395775,40.0790237 111.940023,39.3093966 C110.353521,38.8123119 109.162207,37.805939 108.43838,36.317939 C107.460681,34.3060068 107.238028,32.1891254 107.979108,30.0771254 C108.939554,27.3394983 111.161972,26.0849898 113.883099,25.6090576 C116.209038,25.2030915 118.330399,25.6993627 120.023709,27.4322441 C121.346479,28.7876339 121.828756,30.4741424 121.830399,32.4079729" id="Fill-22" fill="#1D1D1B"></path>
                    <path d="M10.4898944,35.5383051 C10.5276878,36.8245424 10.6435329,38.0993898 11.1266315,39.3099661 C11.3271009,39.8103051 11.5596127,40.3016949 12.1437676,40.4863729 C11.3936502,41.3682712 11.4182981,42.4608814 11.3632512,43.5087458 C11.3197066,44.3515932 11.2556221,45.2050169 11.4166549,46.0503051 C11.4758099,46.3586441 11.3747535,46.44 11.0362559,46.3553898 C10.1546831,46.1341017 10.1563263,46.1552542 10.1546831,45.2733559 C10.1522183,43.7642034 9.95092723,42.2859661 9.45139671,40.8541017 C9.72580986,40.8711864 9.71348592,40.6287458 9.74963615,40.4814915 C10.0289789,39.3441356 10.2442371,38.1970169 10.2836737,37.0206102 C10.3009272,36.5227119 10.5071479,36.044339 10.4898944,35.5383051" id="Fill-24" fill="#C1BFBE"></path>
                    <path d="M171.70088,35.4294508 C171.299941,35.3358915 171.244073,35.5848407 171.270364,35.9306034 C171.291725,36.2259254 171.172594,36.5651797 171.707453,36.5269424 C172.237383,36.4878915 172.47811,36.3609763 172.458392,35.9720949 C172.435387,35.527078 172.132218,35.4123661 171.70088,35.4294508 M170.790552,36.706739 C170.78973,36.2641627 170.798768,35.8215864 170.786444,35.3790102 C170.779049,35.1308746 170.863674,35.0177898 171.128228,35.0324339 C171.424824,35.0478915 171.723885,35.0242983 172.021303,35.0438237 C172.386092,35.0698576 172.727876,35.191078 172.820716,35.5832136 C172.920129,36.0030102 172.966138,36.466739 172.533979,36.7392814 C172.26696,36.9068746 172.312148,37.0362305 172.425528,37.2469424 C172.548768,37.4779932 172.652289,37.7196203 172.748415,37.9628746 C172.796068,38.0849085 172.96696,38.242739 172.765669,38.3428068 C172.569308,38.4412475 172.42635,38.3167729 172.341725,38.1247729 C172.216843,37.8392136 172.077171,37.5601627 171.953932,37.2754169 C171.856162,37.0541288 171.755927,36.8458576 171.454401,36.9117559 C171.148768,36.9784678 171.297477,37.2274169 171.27858,37.3966373 C171.254754,37.6236203 171.270364,37.8546712 171.272829,38.0840949 C171.276115,38.2525017 171.238322,38.3720949 171.032101,38.3712814 C170.827523,38.3704678 170.788087,38.2508746 170.78973,38.0832814 C170.792195,37.6244339 170.790552,37.1655864 170.790552,36.706739" id="Fill-26" fill="#C1BFBE"></path>
                </g>
            </g>
        </g>
    </g>
</svg>