<?xml version="1.0" encoding="UTF-8"?>
<svg width="210px" height="210px" viewBox="0 0 210 210" version="1.1" xmlns="http://www.w3.org/2000/svg" xmlns:xlink="http://www.w3.org/1999/xlink">
    <!-- Generator: Sketch 46.2 (44496) - http://www.bohemiancoding.com/sketch -->
    <title>Group 23</title>
    <desc>Created with Sketch.</desc>
    <defs>
        <polygon id="path-1" points="32.0790518 0.190340909 0.000762951334 0.190340909 0.000762951334 39.9997443 32.0790518 39.9997443 32.0790518 0.190340909"></polygon>
        <polygon id="path-3" points="28.6149457 39.844929 28.6149457 0.190340909 0.602864907 0.190340909 0.602864907 39.844929 28.6149457 39.844929"></polygon>
    </defs>
    <g id="Page-1" stroke="none" stroke-width="1" fill="none" fill-rule="evenodd">
        <g id="Web-Design-Service" transform="translate(-509.000000, -3323.000000)">
            <g id="Group-23" transform="translate(509.000000, 3323.000000)">
                <rect id="Rectangle-18-Copy" fill="#F3F3F3" x="0" y="0" width="210" height="210"></rect>
                <g id="Page-1" transform="translate(55.000000, 85.000000)">
                    <g id="Group-3">
                        <mask id="mask-2" fill="white">
                            <use xlink:href="#path-1"></use>
                        </mask>
                        <g id="Clip-2"></g>
                        <path d="M17.7393815,7.33383523 C16.6572622,7.33383523 15.6463516,7.61892045 14.700292,8.1878125 C13.7567755,8.75798295 12.9582198,9.55954545 12.307168,10.5950568 L12.307168,18.1530114 C12.8552214,19.0338352 13.6029137,19.7497443 14.5464301,20.302017 C15.4899466,20.8542898 16.5542637,21.1304261 17.7393815,21.1304261 C18.6142323,21.1304261 19.4471209,20.9616761 20.2367755,20.6254545 C21.0264301,20.289233 21.7130863,19.8149432 22.2967441,19.2013068 C22.8804019,18.5889489 23.343259,17.8640909 23.6865871,17.0280114 C24.0299152,16.1906534 24.2015793,15.2804261 24.2015793,14.2960511 C24.2015793,13.2094034 24.03373,12.2339773 23.699303,11.3723295 C23.364876,10.5094034 22.904562,9.78071023 22.3221758,9.18497159 C21.7385181,8.58923295 21.0505903,8.13284091 20.2622072,7.81323864 C19.4725526,7.49363636 18.6320345,7.33383523 17.7393815,7.33383523 L17.7393815,7.33383523 Z M1.4936044,0.992926136 L13.1311554,0.992926136 L13.1311554,1.38028409 C13.9538713,1.01849432 14.7956609,0.728295455 15.6527096,0.513522727 C16.5123014,0.297471591 17.3947818,0.190085227 18.305237,0.190085227 C20.2622072,0.190085227 22.0818462,0.560823864 23.7628823,1.30230114 C25.4464615,2.04505682 26.9049702,3.05372159 28.1409513,4.33085227 C29.3756609,5.60798295 30.3420659,7.10116477 31.0376232,8.80911932 C31.7319089,10.5170739 32.0790518,12.329858 32.0790518,14.2449148 C32.0790518,16.1778693 31.74081,17.9983239 31.0630549,19.7062784 C30.3840283,21.4155114 29.436697,22.9035795 28.2172465,24.1717614 C26.9990675,25.4399432 25.5443736,26.4409375 23.8544364,27.1747443 C22.1632276,27.9072727 20.3130706,28.2741761 18.305237,28.2741761 C17.1735259,28.2741761 16.1181099,28.1667898 15.138989,27.9507386 C14.1611397,27.7346875 13.2163516,27.4291477 12.307168,27.0315625 L12.307168,32.9071307 L17.4036829,32.9071307 L17.4036829,39.9997443 L0.000762951334,39.9997443 L0.000762951334,32.9071307 L4.37628885,32.9071307 L4.37628885,8.08426136 L1.4936044,8.08426136 L1.4936044,0.992926136 Z" id="Fill-1" fill="#1D1D1B" mask="url(#mask-2)"></path>
                    </g>
                    <path d="M52.8526158,0.888888889 L65.5186894,0.888888889 L65.5186894,20.2778013 L68.75,20.2778013 L68.75,27.2501689 L57.4014738,27.2501689 L57.4014738,25.0106665 C56.4899148,25.825031 55.4213226,26.4533987 54.1969738,26.8945128 C52.9739016,27.3343701 51.5593255,27.5555556 49.9570755,27.5555556 C48.4748347,27.5555556 47.0806856,27.3268297 45.7695217,26.8681213 C44.4609111,26.4106697 43.3182707,25.7194653 42.3454304,24.7945081 C41.3713135,23.8708076 40.6040208,22.7120976 40.0448292,21.3208917 C39.4843609,19.9296857 39.204765,18.2934163 39.204765,16.4108268 L39.204765,7.86125642 L35.7142857,7.86125642 L35.7142857,0.888888889 L47.5543388,0.888888889 L47.5543388,16.4108268 C47.5543388,18.1740264 48.0101183,19.4935985 48.9242307,20.3670295 C49.8370663,21.2404606 51.0256677,21.6778045 52.4913116,21.6778045 C53.5241564,21.6778045 54.4650793,21.3636207 55.3089736,20.7365097 C56.1528678,20.1081421 56.7644039,19.2611025 57.1435818,18.1916207 L57.1435818,7.86125642 L52.8526158,7.86125642 L52.8526158,0.888888889 Z" id="Fill-4" fill="#1D1D1B"></path>
                    <g id="Group-8" transform="translate(70.535714, 0.000000)">
                        <mask id="mask-4" fill="white">
                            <use xlink:href="#path-3"></use>
                        </mask>
                        <g id="Clip-7"></g>
                        <path d="M15.1530978,20.7940767 C16.3636957,20.7940767 17.4577174,20.4872585 18.435163,19.8749006 C19.4113276,19.2625426 20.1850854,18.4558665 20.7564363,17.4548722 L20.8076786,10.932429 C20.2196739,9.84450284 19.4151708,8.9815767 18.3954503,8.34365057 C17.3744488,7.70444602 16.2688975,7.3771733 15.0749534,7.35927557 C14.2281755,7.3771733 13.3980512,7.5459233 12.5858618,7.86424716 C11.7723913,8.18384943 11.0690916,8.63640625 10.4721196,9.22319602 C9.87514752,9.8099858 9.40371894,10.5054403 9.05783385,11.3070028 C8.71194876,12.1098437 8.53900621,13.0021733 8.53900621,13.9865483 C8.53900621,15.0220597 8.71194876,15.9616903 9.05783385,16.8079972 C9.40371894,17.6530256 9.87002329,18.3702131 10.458028,18.9557244 C11.0460326,19.5425142 11.742927,19.995071 12.5461491,20.3146733 C13.3506522,20.6342756 14.2192081,20.7940767 15.1530978,20.7940767 L15.1530978,20.7940767 Z M20.7564363,26.4114062 C19.786677,26.9624006 18.8181988,27.3599858 17.8497205,27.6016051 C16.8825233,27.8432244 15.8961102,27.9633949 14.8943245,27.9633949 C12.819014,27.9633949 10.9089596,27.610554 9.16159938,26.9023153 C7.41552019,26.1953551 5.90643634,25.2148153 4.63562888,23.9645312 C3.36482143,22.7129687 2.37456522,21.2338494 1.6661413,19.5258949 C0.956436335,17.8166619 0.602864907,15.9616903 0.602864907,13.9597017 C0.602864907,12.0791619 0.943625776,10.3060085 1.62642857,8.64151989 C2.31051242,6.97575284 3.26489907,5.51708807 4.49343168,4.26680398 C5.72068323,3.01524148 7.19005435,2.02703125 8.90154503,1.3021733 C10.6143168,0.57859375 12.4731289,0.206576705 14.4792624,0.189957386 C15.706514,0.206576705 16.8338432,0.336974432 17.8638121,0.57859375 C18.8925,0.818934659 19.8571351,1.1474858 20.7564363,1.56169034 L20.7564363,0.992798295 L28.6157143,0.992798295 L28.6157143,26.6952131 C28.6157143,28.9554403 28.2262733,30.9101278 27.4486724,32.5579972 C26.6697904,34.2058665 25.6282919,35.569929 24.3216149,36.6476278 C23.0175,37.7266051 21.4994488,38.529446 19.7700233,39.0548722 C18.0405978,39.5815767 16.2253416,39.844929 14.3242547,39.844929 C11.972236,39.844929 9.79700311,39.5253267 7.79983696,38.8874006 C5.80267081,38.248196 4.02584627,37.3865483 2.47064441,36.2986222 L5.71171584,30.5521733 C6.90565994,31.3115483 8.20208851,31.9111222 9.60228261,32.3508949 C11.0037578,32.7906676 12.5602407,33.0118324 14.2717314,33.0118324 C15.2056211,33.0118324 16.0652096,32.9082812 16.851778,32.6999006 C17.6383463,32.4940767 18.3224301,32.1437926 18.9014674,31.6528835 C19.4805047,31.160696 19.9339984,30.5010369 20.2632298,29.6726278 C20.5911801,28.8442187 20.7564363,27.7997585 20.7564363,26.5405256 L20.7564363,26.4114062 Z" id="Fill-6" fill="#1D1D1B" mask="url(#mask-4)"></path>
                    </g>
                </g>
            </g>
        </g>
    </g>
</svg>