<?xml version="1.0" encoding="UTF-8"?>
<svg width="210px" height="210px" viewBox="0 0 210 210" version="1.1" xmlns="http://www.w3.org/2000/svg" xmlns:xlink="http://www.w3.org/1999/xlink">
    <!-- Generator: Sketch 46.2 (44496) - http://www.bohemiancoding.com/sketch -->
    <title>Group 28</title>
    <desc>Created with Sketch.</desc>
    <defs>
        <polygon id="path-1" points="58.0036549 0.699410714 0 0.699410714 0 52.0535714 58.0036549 52.0535714"></polygon>
        <polygon id="path-3" points="13.5139946 26.9752018 13.5139946 0.135433929 0.43673913 0.135433929 0.43673913 26.9752018"></polygon>
    </defs>
    <g id="Page-1" stroke="none" stroke-width="1" fill="none" fill-rule="evenodd">
        <g id="Web-Design-Service" transform="translate(-509.000000, -3553.000000)">
            <g id="Group-28" transform="translate(509.000000, 3553.000000)">
                <rect id="Rectangle-18-Copy-7" fill="#F3F3F3" x="0" y="0" width="210" height="210"></rect>
                <g id="Page-1" transform="translate(18.000000, 78.000000)">
                    <g id="Group-3" transform="translate(0.000000, 0.247018)">
                        <mask id="mask-2" fill="white">
                            <use xlink:href="#path-1"></use>
                        </mask>
                        <g id="Clip-2"></g>
                        <path d="M46.2491712,33.3487357 L46.2482201,33.3487357 C45.9315082,33.4537893 45.6062364,33.5541107 45.2752582,33.6525393 C44.5400679,31.3394679 43.5490353,28.8806464 42.3373505,26.3404321 C43.4948234,23.8598429 44.4459103,21.4322536 45.1592255,19.134325 C45.7536549,19.3056286 46.3290625,19.48545 46.8844973,19.6756821 C52.2524321,21.5145929 55.5260734,24.2327357 55.5260734,26.3281286 C55.5260734,28.5588607 51.9899321,31.4558786 46.2491712,33.3487357 M44.1453668,45.6646107 C43.8001223,47.5177179 43.1048777,48.7528071 42.2460462,49.2477893 C40.4180571,50.3002179 36.5090897,48.9316821 32.2929212,45.3220036 C31.809769,44.9074679 31.3228125,44.4664321 30.8349049,43.99795 C32.4688723,42.2196107 34.1028397,40.1516643 35.6959103,37.8546821 C38.5016168,37.6076643 41.150394,37.2025929 43.5528397,36.6498786 C43.6707745,37.1249857 43.775394,37.5906286 43.8666984,38.0458607 C44.4459103,40.9637 44.529606,43.6023429 44.1453668,45.6646107 M29.0982201,42.2338071 C27.9236277,40.9722179 26.7528397,39.5781286 25.6086821,38.0780393 C26.7186005,38.1206286 27.850394,38.1423964 29.0021603,38.1423964 C30.1843614,38.1423964 31.3532473,38.1168429 32.5031114,38.0657357 C31.3732201,39.5932714 30.2328668,40.9902 29.0982201,42.2338071 M26.2677853,45.0210393 C24.0175136,46.9782536 21.7624864,48.3666643 19.7747147,49.0651286 C17.9885734,49.6935571 16.5666984,49.7115393 15.7069158,49.21845 C13.8770245,48.1679143 13.117106,44.1143607 14.1537908,38.6771286 C14.2774321,38.0345036 14.4181929,37.3947179 14.5770245,36.7606107 C16.9528397,37.2830393 19.5835462,37.6597179 22.3940082,37.8859143 C23.9984918,40.1336821 25.6790625,42.1997357 27.3729484,44.0083607 C27.0124864,44.3547536 26.6453668,44.6916821 26.2677853,45.0210393 M12.8403397,33.7812536 C12.3590897,33.6440214 11.881644,33.4954321 11.4080027,33.3354857 C8.57947011,32.3729679 6.24360054,31.1227357 4.6429212,29.7589321 C3.20392663,28.5333071 2.47824728,27.3152536 2.47824728,26.3281286 C2.47824728,24.2261107 5.6272962,21.5448786 10.8791984,19.7230036 C11.5373505,19.4958607 12.2040625,19.2876464 12.8745788,19.0983607 C13.6012092,21.4473964 14.5532473,23.904325 15.7021603,26.3877536 C14.5380299,28.9090393 13.5726766,31.403825 12.8403397,33.7812536 M15.6679212,3.56178929 C17.6090897,2.44500357 21.8994429,4.03878929 26.4218614,8.03461071 C26.7109918,8.29014643 27.0020245,8.55703929 27.292106,8.83434286 C25.607731,10.63445 23.9423777,12.6844143 22.3512092,14.9189321 C19.6234918,15.1697357 17.0118071,15.5748071 14.6112636,16.1161643 C14.4638451,15.5265393 14.3306929,14.9331286 14.2127582,14.337825 C13.1218614,8.79364643 13.8465897,4.61137857 15.6679212,3.56178929 M29.0297418,10.5956464 C30.1729484,11.8278964 31.317106,13.2040036 32.4422418,14.6965214 C30.1586821,14.589575 27.8713179,14.5886286 25.5868071,14.695575 C26.7147962,13.2163071 27.8694158,11.8420929 29.0297418,10.5956464 M40.9012092,23.4888429 C40.3647962,22.4771107 39.8093614,21.4757893 39.2330027,20.485825 C38.6652038,19.5110036 38.0774321,18.5484857 37.4696875,17.5982714 C39.3195516,17.8310929 41.0923777,18.140575 42.757731,18.5191464 C42.2584103,20.1129321 41.6344973,21.7795929 40.9012092,23.4888429 M39.2434647,32.2556107 C39.826481,31.2486107 40.3876223,30.2293071 40.9249864,29.1977 C41.7001223,30.9561643 42.353519,32.6578429 42.8728125,34.2752893 C41.1912908,34.6567 39.3747147,34.9652357 37.4620788,35.193325 C38.0745788,34.226075 38.6690082,33.2465214 39.2434647,32.2556107 M18.4412908,26.3868071 C19.2040625,24.8062714 20.0277038,23.2531821 20.9074592,21.7341643 L20.9074592,21.7341643 C21.7881658,20.2142 22.7268886,18.7283071 23.7207745,17.279325 C25.4450951,17.1487179 27.2141168,17.0815214 29.0021603,17.0815214 C30.7978125,17.0815214 32.5687364,17.1496643 34.2940082,17.2802714 C35.2774321,18.7273607 36.2094973,20.2085214 37.0883016,21.7209143 C37.9718614,23.2370929 38.8059647,24.7816643 39.5887092,26.3517893 C38.8145245,27.9380036 37.9832745,29.4967714 37.0968614,31.0243071 L37.0959103,31.0243071 C36.217106,32.5423786 35.2897962,34.0330036 34.3130299,35.4923964 C32.5934647,35.6144857 30.813981,35.67695 29.0021603,35.67695 C27.1969973,35.67695 25.4412908,35.6211107 23.7502582,35.5122714 C22.7487636,34.0566643 21.8033832,32.5641464 20.9150679,31.0375571 C20.0324592,29.5194857 19.2059647,27.9673429 18.4412908,26.3868071 M17.1230842,23.48695 C16.4021603,21.784325 15.7849049,20.1100929 15.2798777,18.4926464 C16.9357201,18.1244857 18.6999864,17.822575 20.5393886,17.5944857 C19.9230842,18.5494321 19.3305571,19.5195214 18.7618071,20.5019143 C18.192106,21.4843071 17.6461821,22.47995 17.1230842,23.48695 M17.1268886,29.2866643 C17.6509375,30.2946107 18.1997147,31.2902536 18.7703668,32.2726464 C19.3543342,33.2749143 19.9611277,34.2639321 20.5916984,35.2368607 C18.6923777,35.0258071 16.901481,34.7399857 15.2465897,34.3822357 C15.7582745,32.7363964 16.3888451,31.0262 17.1268886,29.2866643 M32.0998505,7.61534286 C36.3825951,3.90723571 40.384769,2.44216429 42.2080027,3.48891429 C44.1501223,4.60380714 44.9062364,9.09839643 43.6859918,14.9937 C43.6061005,15.37795 43.5186005,15.7603071 43.4244429,16.1407714 C41.0181929,15.5890036 38.404606,15.1773071 35.6692799,14.9217714 C34.0752582,12.6635929 32.4241712,10.6098429 30.7664266,8.83245 C31.2010734,8.41602143 31.645231,8.01000357 32.0998505,7.61534286 M47.691019,17.3446286 L47.691019,17.3436821 C47.0737636,17.133575 46.4508016,16.9386107 45.8240353,16.7587893 C45.9277038,16.3376286 46.0237636,15.9155214 46.1122147,15.4915214 C47.5255299,8.66398571 46.6010734,3.16334286 43.4453668,1.352825 C40.4199592,-0.383871429 35.4714538,1.42664643 30.4725408,5.75561071 C29.9808288,6.18245 29.4995788,6.62253929 29.0287908,7.07398571 C28.713981,6.77396786 28.3944158,6.47868214 28.0681929,6.19096786 C22.829606,1.56293214 17.5786549,-0.387657143 14.4267527,1.42853929 C11.4041984,3.16996786 10.5082745,8.34125357 11.7808288,14.8110393 C11.9073234,15.4517714 12.0499864,16.0896643 12.209769,16.722825 C11.4669701,16.9329321 10.7488995,17.1572357 10.0631658,17.3947893 C3.92199728,19.5252 -0.000285326087,22.8642 -0.000285326087,26.3281286 C-0.000285326087,29.9046821 4.21017663,33.4925929 10.6062364,35.6684321 C11.1255299,35.8444679 11.6486277,36.0072536 12.1745788,36.1558429 C12.0043342,36.8391643 11.8512092,37.5262714 11.7190082,38.2171643 C10.5063723,44.5752714 11.4536549,49.6235214 14.4686005,51.3535929 C17.5824592,53.1413964 22.8086821,51.3043786 27.8988995,46.8769857 C28.3012092,46.5277536 28.7044701,46.1567536 29.1096332,45.7677714 C29.6184647,46.2561286 30.1406114,46.7312357 30.6770245,47.1902536 C35.6074592,51.4122714 40.4751223,53.1167893 43.4881658,51.3819857 C46.5991712,49.58945 47.6101766,44.1664143 46.2976766,37.5679143 C46.1968614,37.0634679 46.0798777,36.5486107 45.9495788,36.0242893 C46.3157473,35.9163964 46.6762092,35.8056643 47.0271603,35.6892536 C53.6781114,33.497325 58.0036549,29.95295 58.0036549,26.3281286 C58.0036549,22.8518964 53.9558288,19.4901821 47.691019,17.3446286" id="Fill-1" fill="#1D1D1B" mask="url(#mask-2)"></path>
                    </g>
                    <path d="M29.0023505,21.4206125 C31.8632201,21.4206125 34.181019,23.7280054 34.181019,26.5748625 C34.181019,29.4217196 31.8632201,31.7291125 29.0023505,31.7291125 C26.141481,31.7291125 23.822731,29.4217196 23.822731,26.5748625 C23.822731,23.7280054 26.141481,21.4206125 29.0023505,21.4206125" id="Fill-4" fill="#1D1D1B"></path>
                    <path d="M79.6820652,25.8324839 C82.6247283,25.8324839 84.4631793,24.3683589 84.4631793,21.5830196 C84.4631793,18.6348946 82.4611413,17.1499482 79.7638587,17.1499482 L75.0845109,17.1499482 L75.0845109,25.8324839 L79.6820652,25.8324839 Z M90.5529891,21.4808054 C90.5529891,26.0558411 87.5485054,28.4758589 85.5055707,29.2888411 L91.1046196,40.3705732 L84.525,40.3705732 L79.6820652,30.1633411 L75.0845109,30.1633411 L75.0845109,40.3705732 L69.2610054,40.3705732 L69.2610054,12.6156089 L80.6217391,12.6156089 C87.3240489,12.6156089 90.5529891,16.4789304 90.5529891,21.4808054 L90.5529891,21.4808054 Z" id="Fill-6" fill="#1D1D1B"></path>
                    <path d="M107.962065,27.2558179 L107.962065,27.2151214 C107.962065,24.5518714 106.327147,22.5388179 103.834348,22.5388179 C101.321576,22.5388179 99.6657337,24.5717464 99.6657337,27.2151214 L99.6657337,27.2558179 L107.962065,27.2558179 Z M94.0267391,30.38755 L94.0267391,28.4965857 C94.0267391,22.0305857 98.072663,18.349925 103.793451,18.349925 C109.760571,18.349925 113.499293,22.3552107 113.499293,28.6177286 L113.499293,30.7528714 L99.6657337,30.7528714 L99.6657337,31.4040143 C99.6657337,34.4941036 101.484212,36.4465857 104.058804,36.4465857 C106.143587,36.4465857 107.634891,35.4301214 108.022935,33.7218179 L113.315734,33.7218179 C112.86587,37.1583 110.045897,40.7575679 104.018859,40.7575679 C98.0317663,40.7575679 94.0267391,37.0967821 94.0267391,30.38755 L94.0267391,30.38755 Z" id="Fill-8" fill="#1D1D1B"></path>
                    <path d="M129.621549,33.2948839 L129.621549,31.0584732 L125.759185,31.0584732 C123.491793,31.0584732 122.347636,32.1355089 122.347636,33.7217232 C122.347636,35.6533839 123.981603,36.5884554 125.698315,36.5884554 C127.86394,36.5884554 129.621549,35.2672411 129.621549,33.2948839 M123.798043,40.6959554 C119.56856,40.6959554 116.64587,38.2153661 116.64587,34.1286875 C116.64587,30.2246696 119.364076,27.7440804 124.390571,27.7440804 L129.621549,27.7440804 L129.621549,25.8322946 C129.621549,23.7993661 128.374674,22.6608125 126.249946,22.6608125 C124.14519,22.6608125 122.919239,23.7993661 122.817473,25.4461518 L117.44288,25.4461518 C117.586495,21.8468839 119.87481,18.4104018 126.351712,18.4104018 C131.39913,18.4104018 135.281467,20.6884554 135.281467,25.8322946 L135.281467,40.3713304 L129.866929,40.3713304 L129.866929,37.7478304 L129.621549,37.7478304 C128.804565,39.3132232 127.00606,40.6959554 123.798043,40.6959554" id="Fill-10" fill="#1D1D1B"></path>
                    <path d="M139.368383,28.5775054 C139.368383,22.5591661 143.026264,18.3494518 149.176943,18.3494518 C154.755068,18.3494518 158.146644,21.8474518 158.269334,26.1574875 L152.997459,26.1574875 C152.732106,24.3886125 151.362541,22.8639161 149.421372,22.8639161 C146.764986,22.8639161 145.150992,25.0804518 145.150992,28.6380768 L145.150992,30.2649875 C145.150992,33.9863446 146.805883,36.2435768 149.442296,36.2435768 C151.792432,36.2435768 152.854796,34.7993268 153.079253,33.1525411 L158.351128,33.1525411 C157.94216,38.1951125 154.326128,40.7570946 149.156019,40.7570946 C143.108057,40.7570946 139.368383,36.7111125 139.368383,30.3056839 L139.368383,28.5775054 Z" id="Fill-12" fill="#1D1D1B"></path>
                    <g id="Group-16" transform="translate(160.733696, 13.497018)">
                        <mask id="mask-4" fill="white">
                            <use xlink:href="#path-3"></use>
                        </mask>
                        <g id="Clip-15"></g>
                        <path d="M3.66567935,0.135433929 L9.24380435,0.135433929 L9.24380435,5.23952321 L13.4333424,5.23952321 L13.4333424,9.65177321 L9.24380435,9.65177321 L9.24380435,19.8997018 C9.24380435,21.9733268 10.1635054,22.6244696 12.3291304,22.6244696 C12.7999185,22.6244696 13.2697554,22.6244696 13.5141848,22.5837732 L13.5141848,26.7925411 C13.0852446,26.8739339 12.0847011,26.9752018 10.9395924,26.9752018 C5.48415761,26.9752018 3.54298913,25.1864518 3.54298913,20.7335054 L3.54298913,9.65177321 L0.43673913,9.65177321 L0.43673913,5.23952321 L3.66567935,5.23952321 L3.66567935,0.135433929 Z" id="Fill-14" fill="#1D1D1B" mask="url(#mask-4)"></path>
                    </g>
                </g>
            </g>
        </g>
    </g>
</svg>