<?xml version="1.0" encoding="UTF-8"?>
<svg width="210px" height="210px" viewBox="0 0 210 210" version="1.1" xmlns="http://www.w3.org/2000/svg" xmlns:xlink="http://www.w3.org/1999/xlink">
    <!-- Generator: Sketch 46.2 (44496) - http://www.bohemiancoding.com/sketch -->
    <title>Group 42</title>
    <desc>Created with Sketch.</desc>
    <defs>
        <polygon id="path-1" points="51.8527645 0.078 0.436456377 0.078 0.436456377 50.757403 51.8527645 50.757403"></polygon>
        <polygon id="path-3" points="7.716 6.87968756 7.716 0.100263689 0.983065866 0.100263689 0.983065866 6.87968756 7.716 6.87968756"></polygon>
    </defs>
    <g id="Page-1" stroke="none" stroke-width="1" fill="none" fill-rule="evenodd">
        <g id="Web-Design-Service" transform="translate(-739.000000, -3783.000000)">
            <g id="Group-42" transform="translate(739.000000, 3783.000000)">
                <rect id="Rectangle-18-Copy-14" fill="#F3F3F3" x="0" y="0" width="210" height="210"></rect>
                <g id="Page-1" transform="translate(36.000000, 69.000000)">
                    <path d="M0.0001,47.6257 C0.1901,47.5317 0.1531,47.3257 0.2021,47.1737 C0.4061,46.5297 0.7881,46.0217 1.3941,45.7477 C2.9211,45.0557 4.5151,44.7257 6.1821,45.1277 C7.5781,45.4647 8.5001,46.3697 9.0611,47.6747 C10.6381,51.3417 12.2221,55.0067 13.8041,58.6717 C14.4361,60.1357 15.0691,61.5987 15.7531,63.1807 C15.9111,62.8377 16.0231,62.6017 16.1301,62.3627 C18.2111,57.6947 20.3791,53.0627 22.3411,48.3447 C23.6461,45.2057 25.9721,44.4957 28.9431,45.2407 C29.3161,45.3337 29.6871,45.4517 30.0431,45.5967 C31.0331,45.9967 31.5531,46.7577 31.6611,47.8077 C31.6891,48.0757 31.6941,48.3477 31.6951,48.6177 C31.6961,54.3967 31.6901,60.1767 31.7071,65.9557 C31.7081,66.4337 31.5961,66.5817 31.1051,66.5647 C29.9661,66.5267 28.8241,66.5257 27.6851,66.5657 C27.2041,66.5827 27.1261,66.4127 27.1271,65.9797 C27.1401,60.3947 27.1361,54.8087 27.1361,49.2227 L27.1361,48.7007 C27.1081,48.6877 27.0801,48.6747 27.0521,48.6617 C26.9631,48.8527 26.8721,49.0417 26.7861,49.2337 C24.5531,54.2157 22.3001,59.1877 20.0991,64.1827 C19.3691,65.8397 18.2201,66.7667 16.3851,66.8187 C15.7631,66.8377 15.1461,66.8187 14.5371,66.7177 C13.1271,66.4807 12.2681,65.5857 11.7081,64.3237 C10.5191,61.6447 9.3141,58.9717 8.1151,56.2957 C6.9881,53.7817 5.8611,51.2687 4.6121,48.7557 L4.6121,49.3307 C4.6121,54.8577 4.6061,60.3867 4.6231,65.9147 C4.6251,66.4037 4.5371,66.5877 4.0001,66.5667 C2.7071,66.5167 1.4121,66.5357 0.1171,66.5267 C0.1171,60.5407 0.1171,54.5537 0.1111,48.5657 C0.1111,48.3677 0.2111,48.1377 0.0001,47.9737 L0.0001,47.6257 Z" id="Fill-1" fill="#1D1D1B"></path>
                    <g id="Group-5" transform="translate(86.000000, 0.921900)">
                        <mask id="mask-2" fill="white">
                            <use xlink:href="#path-1"></use>
                        </mask>
                        <g id="Clip-4"></g>
                        <path d="M3.8869,0.0778 C4.9399,0.3578 6.0039,0.5948 6.9929,1.0818 C8.1389,1.6458 9.2749,2.2188 10.2219,3.0978 C10.5769,3.4278 10.9809,3.5658 11.4789,3.5768 C14.4209,3.6408 17.0909,4.4988 19.5959,6.0938 C24.4099,9.1578 28.3749,13.0208 31.3299,17.9108 C31.7609,18.6228 32.1529,19.3518 32.4469,20.1308 C33.7309,23.5298 35.4059,26.7498 36.9609,30.0248 C37.3529,30.8508 37.8979,31.3958 38.7989,31.7148 C42.1849,32.9098 45.0079,35.0298 47.7479,37.2858 C48.6429,38.0228 49.3239,38.9238 50.0409,39.8068 C50.2799,40.1008 50.2029,40.2658 49.8349,40.3728 C48.7969,40.6788 47.7589,40.9668 46.6699,41.0368 C45.3119,41.1238 44.0399,41.6388 42.6729,41.8768 C42.7439,42.2758 43.0109,42.5498 43.2819,42.8148 C43.8809,43.4008 44.5939,43.8338 45.3149,44.2438 C47.2209,45.3278 48.8389,46.7388 50.2089,48.4478 C50.7709,49.1468 51.5799,49.6598 51.8149,50.6038 C51.8259,50.6518 51.8949,50.6978 51.8139,50.7558 C51.6209,50.7748 51.5109,50.6208 51.3899,50.5108 C49.7609,49.0298 47.9289,47.8778 45.9199,46.9738 C43.9129,46.0708 42.0979,44.8778 40.7069,43.1208 C40.2819,42.5828 40.0079,41.9708 39.7209,41.3598 C39.5109,40.9098 39.8729,40.7648 40.1639,40.6508 C41.9339,39.9588 43.7479,39.4408 45.6659,39.4038 C46.3729,39.3908 47.0809,39.4018 47.8639,39.4018 C47.6619,38.8808 47.3139,38.6078 46.9549,38.3628 C45.3439,37.2648 43.7499,36.1378 42.0979,35.1028 C40.8319,34.3098 39.3799,33.9058 37.9539,33.5078 C36.6359,33.1398 35.7049,32.4228 35.0999,31.1938 C33.6769,28.3038 32.2419,25.4118 31.0439,22.4268 C29.8699,19.4998 28.2839,16.8648 26.2839,14.4648 C23.3869,10.9858 19.9219,8.2298 15.7679,6.3758 C14.5519,5.8328 13.2849,5.5518 11.9529,5.5258 C11.3369,5.5148 10.7209,5.4498 10.1079,5.3898 C9.6819,5.3468 9.3709,5.0638 9.0659,4.8008 C7.5929,3.5258 5.8499,2.7588 4.0349,2.1358 C3.4409,1.9318 2.7829,1.7968 2.3099,2.3508 C1.8349,2.9088 2.1079,3.5168 2.3749,4.0898 C2.6129,4.5998 2.9089,5.0788 3.2809,5.4988 C5.3029,7.7878 6.6309,10.4288 7.3829,13.3818 C7.6439,14.4088 8.0419,15.3978 8.5409,16.3398 C8.9749,17.1618 9.4679,17.9398 10.1599,18.5828 C10.7219,19.1038 10.9469,19.7358 10.7439,20.5218 C10.5459,21.2908 10.2459,22.0218 10.0049,22.7738 C8.8159,26.4798 8.9869,30.1118 10.6399,33.6518 C10.8719,34.1478 11.1959,34.5838 11.7049,34.8388 C12.0209,34.9968 12.2189,34.9988 12.2729,34.5408 C12.4199,33.2758 12.5439,32.0088 12.8079,30.7578 C13.0939,29.4118 13.9299,28.4078 14.7419,27.3758 C14.9109,27.1608 15.0169,27.2828 15.0769,27.4278 C15.1969,27.7108 15.2609,28.0158 15.3779,28.2998 C17.0959,32.4818 19.1999,36.4378 22.2189,39.8508 C22.3979,40.0538 22.6019,40.2318 22.7919,40.4258 C22.9749,40.6128 23.2479,40.7088 23.3909,41.0298 C23.0729,40.9638 22.8539,40.8058 22.6749,40.6228 C21.3799,39.2908 19.8569,38.2118 18.5409,36.9018 C17.2649,35.6318 16.2779,34.1748 15.5579,32.5258 C15.4099,32.1868 15.2819,31.8208 14.9629,31.4928 C14.7189,32.5808 14.5759,33.6218 14.4289,34.6638 C14.2319,36.0658 13.5929,36.7978 12.4759,36.8928 C11.5849,36.9698 10.9239,36.5048 10.3589,35.8868 C9.3339,34.7658 8.6969,33.4308 8.2949,31.9808 C7.4769,29.0258 7.4899,26.0638 8.3309,23.1188 C8.5999,22.1758 8.6609,21.1748 9.1349,20.2868 C9.2589,20.0548 9.0999,19.8268 8.9389,19.6658 C7.4649,18.1838 6.7289,16.2918 6.0139,14.3938 C5.5799,13.2408 5.1639,12.0788 4.8449,10.8838 C4.4849,9.5368 3.5319,8.5378 2.7399,7.4498 C2.1269,6.6078 1.4129,5.8378 0.9409,4.8958 C0.4359,3.8908 0.2179,2.8658 0.7249,1.7838 C1.1299,0.9198 1.7749,0.3698 2.7229,0.1948 C2.8149,0.1788 2.9199,0.1968 2.9589,0.0778 L3.8869,0.0778 Z" id="Fill-3" fill="#1D1D1B" mask="url(#mask-2)"></path>
                    </g>
                    <g id="Group-8" transform="translate(131.000000, 59.921900)">
                        <mask id="mask-4" fill="white">
                            <use xlink:href="#path-3"></use>
                        </mask>
                        <g id="Clip-7"></g>
                        <path d="M5.9772,5.4509 C6.1232,5.5409 6.1812,5.4059 6.2512,5.3329 C7.0382,4.5179 7.1712,3.0549 6.5532,2.0489 C5.9352,1.0429 4.7322,0.5889 3.5832,0.9299 C2.4502,1.2639 1.6762,2.3709 1.7332,3.5739 C1.7932,4.8539 2.6162,5.8679 3.7962,6.1169 C4.6792,6.3029 5.6342,6.0079 5.9872,5.4399 L5.9772,5.4509 Z M7.7162,4.2889 C7.5312,4.3259 7.5792,4.5039 7.5382,4.6139 C6.9332,6.2239 5.3952,7.1189 3.7152,6.8239 C2.1362,6.5479 0.9982,5.1799 0.9832,3.5459 C0.9692,1.8329 2.0522,0.4959 3.7252,0.1629 C5.3052,-0.1531 6.9192,0.7539 7.5012,2.2669 C7.5672,2.4389 7.5352,2.6569 7.7162,2.7809 L7.7162,4.2889 Z" id="Fill-6" fill="#AEAEAD" mask="url(#mask-4)"></path>
                    </g>
                    <path d="M0.0001,47.9733 C0.2111,48.1373 0.1111,48.3683 0.1111,48.5663 C0.1171,54.5533 0.1171,60.5403 0.1171,66.5273 C0.0781,66.5283 0.0391,66.5293 0.0001,66.5313 L0.0001,47.9733 Z" id="Fill-9" fill="#6587A9"></path>
                    <path d="M92.6237,60.1306 C94.4127,60.1306 96.0347,60.1356 97.6567,60.1256 C97.8987,60.1246 98.0487,60.2426 98.2077,60.3886 C98.9937,61.1046 99.7837,61.8156 100.5697,62.5296 C101.3087,63.2026 101.6647,63.1456 102.1657,62.2546 C102.3287,61.9656 102.4287,61.6556 102.4287,61.3176 C102.4277,57.7806 102.4307,54.2436 102.4267,50.7076 C102.4257,50.0416 102.1157,49.5226 101.5857,49.1356 C101.0557,48.7476 100.4487,48.5676 99.7997,48.5336 C97.7337,48.4246 95.6657,48.5066 93.5987,48.4856 C92.8647,48.4786 92.1307,48.4616 91.3987,48.5506 C89.6937,48.7576 88.9367,49.5956 88.9367,51.2926 C88.9357,54.4036 88.9357,57.5156 88.9367,60.6266 C88.9367,62.4286 89.8027,63.3806 91.6057,63.5276 C93.1097,63.6516 94.6187,63.5676 96.1247,63.5736 C96.1677,63.5736 96.2117,63.5256 96.2997,63.4726 C95.0967,62.3796 93.9177,61.3076 92.6237,60.1306 M104.0297,65.6606 C105.4997,66.9966 106.9287,68.2946 108.3547,69.5886 C108.2707,69.7946 108.1127,69.7036 108.0007,69.7046 C106.5517,69.7116 105.1017,69.7006 103.6517,69.7166 C103.3167,69.7206 103.0687,69.6196 102.8257,69.3956 C101.8607,68.5026 100.8717,67.6356 99.9147,66.7356 C99.6507,66.4866 99.3947,66.3916 99.0397,66.4286 C96.3617,66.7116 93.6737,66.6556 90.9877,66.6426 C89.4607,66.6336 88.0007,66.2956 86.6247,65.6276 C84.8937,64.7866 84.0007,63.3956 83.9927,61.4736 C83.9767,57.8016 83.9657,54.1286 83.9937,50.4556 C84.0107,48.1696 85.3537,46.6306 87.8887,45.9036 C88.9877,45.5896 90.1097,45.4136 91.2597,45.4176 C94.0047,45.4286 96.7497,45.4206 99.4947,45.4216 C100.9787,45.4216 102.4197,45.6766 103.7847,46.2626 C105.7157,47.0916 106.7327,48.5266 106.7157,50.6826 C106.6877,54.1036 106.6847,57.5256 106.7157,60.9456 C106.7397,63.5066 106.1007,64.6426 104.0297,65.6606" id="Fill-11" fill="#ABABAA"></path>
                    <path d="M57.2687,60.2497 C57.2687,62.7807 57.2557,65.3117 57.2727,67.8437 C57.2857,69.6017 56.5047,70.8837 54.9957,71.7217 C53.6067,72.4927 52.1017,72.9007 50.5097,72.9047 C45.7367,72.9177 40.9647,72.9017 36.1917,72.9217 C35.7067,72.9237 35.5617,72.8047 35.5957,72.3207 C35.6407,71.6667 35.6407,71.0057 35.5957,70.3517 C35.5627,69.8787 35.7997,69.8837 36.1457,69.8837 C40.4157,69.8917 44.6857,69.8867 48.9557,69.8917 C49.7107,69.8927 50.4607,69.8907 51.1927,69.6617 C52.2887,69.3177 52.6627,68.8187 52.6537,67.6797 C52.6447,66.4107 52.6447,66.4107 51.3517,66.4107 C48.5507,66.4107 45.7487,66.4217 42.9467,66.4067 C41.1517,66.3967 39.4067,66.1157 37.8067,65.2437 C36.2837,64.4137 35.4267,63.2297 35.4797,61.3777 C35.5657,58.3267 35.5177,55.2727 35.5057,52.2207 C35.5047,51.8767 35.6047,51.7977 35.9257,51.8027 C37.1437,51.8167 38.3607,51.8257 39.5777,51.7987 C39.9967,51.7887 40.0887,51.9287 40.0867,52.3227 C40.0717,55.3957 40.0777,58.4677 40.0787,61.5397 C40.0797,62.7477 40.5207,63.2887 41.7237,63.5267 C42.0437,63.5907 42.3737,63.6327 42.6987,63.6337 C45.8297,63.6427 48.9597,63.6307 52.0897,63.6537 C52.5777,63.6577 52.6867,63.5167 52.6837,63.0417 C52.6627,59.4867 52.6807,55.9317 52.6617,52.3757 C52.6587,51.9057 52.7637,51.7427 53.2577,51.7587 C54.4157,51.7947 55.5767,51.7897 56.7357,51.7607 C57.1697,51.7487 57.2887,51.8707 57.2857,52.3087 C57.2647,54.9547 57.2747,57.6027 57.2747,60.2497 L57.2687,60.2497 Z" id="Fill-13" fill="#1D1D1B"></path>
                    <path d="M73.7052,45.3933 C76.0432,45.3933 78.3822,45.4043 80.7202,45.3833 C81.1432,45.3803 81.3052,45.4773 81.2772,45.9263 C81.2382,46.5623 81.2352,47.2033 81.2772,47.8383 C81.3092,48.3133 81.1732,48.4563 80.6822,48.4533 C76.6242,48.4333 72.5662,48.4423 68.5082,48.4413 C67.8492,48.4403 67.1962,48.5033 66.5582,48.6703 C65.8242,48.8633 65.4412,49.3173 65.4142,50.0803 C65.3862,50.8713 65.3832,51.6653 65.4152,52.4553 C65.4552,53.4453 66.0352,54.1093 66.9942,54.3493 C67.5242,54.4833 68.0642,54.4803 68.6062,54.4903 C70.8272,54.5293 73.0512,54.3793 75.2682,54.5853 C76.7282,54.7213 78.1052,55.1423 79.3502,55.9393 C80.5002,56.6773 81.1912,57.6573 81.0872,59.1083 C81.0262,59.9543 81.0502,60.8083 81.0812,61.6583 C81.1372,63.1333 80.4772,64.2163 79.2962,65.0223 C77.9382,65.9473 76.4142,66.4853 74.7902,66.5073 C70.2502,66.5703 65.7082,66.5403 61.1682,66.5563 C60.8692,66.5573 60.7622,66.4733 60.7722,66.1643 C60.7922,65.5083 60.8162,64.8483 60.7672,64.1953 C60.7262,63.6533 60.8612,63.4863 61.4422,63.4903 C65.3262,63.5203 69.2102,63.5043 73.0942,63.5063 C73.7352,63.5063 74.3712,63.4603 74.9832,63.2663 C75.9952,62.9453 76.4552,62.3063 76.4552,61.2593 C76.4552,60.6413 76.4562,60.0233 76.4552,59.4053 C76.4532,58.4733 76.0442,57.9013 75.1462,57.6003 C74.4432,57.3653 73.7092,57.3103 72.9752,57.3013 C71.1012,57.2803 69.2252,57.3103 67.3532,57.2403 C65.8152,57.1833 64.3362,56.8063 62.9802,56.0473 C61.5352,55.2403 60.6842,54.0833 60.8052,52.3383 C60.8662,51.4533 60.7822,50.5633 60.8662,49.6743 C60.9942,48.3203 61.6572,47.3143 62.8002,46.6183 C64.0452,45.8573 65.4112,45.4523 66.8652,45.4333 C69.1452,45.4053 71.4252,45.4253 73.7052,45.4253 L73.7052,45.3933 Z" id="Fill-15" fill="#ABABAA"></path>
                    <path d="M109.5924,53.738 C109.5924,51.129 109.5994,48.519 109.5834,45.91 C109.5804,45.519 109.6614,45.373 110.0854,45.384 C111.2634,45.413 112.4444,45.418 113.6224,45.382 C114.0864,45.367 114.1494,45.539 114.1484,45.944 C114.1354,50.892 114.1394,55.841 114.1404,60.788 C114.1404,62.56 114.7234,63.199 116.5084,63.421 C117.0094,63.483 117.5084,63.507 118.0104,63.507 C121.7604,63.506 125.5104,63.514 129.2604,63.496 C129.7164,63.493 129.8594,63.613 129.8334,64.07 C129.7954,64.764 129.8114,65.462 129.8284,66.157 C129.8364,66.457 129.7404,66.557 129.4344,66.556 C125.2024,66.537 120.9684,66.568 116.7374,66.498 C115.1144,66.47 113.5104,66.15 112.0484,65.363 C110.4454,64.502 109.5994,63.168 109.5944,61.334 C109.5884,58.801 109.5924,56.269 109.5924,53.738" id="Fill-17" fill="#ABABAA"></path>
                    <path d="M97.8288,9.7526 C98.3618,9.7276 99.1698,10.4286 99.4658,11.2176 C99.6378,11.6716 99.3148,12.6416 98.9168,12.9526 C98.7308,13.0986 98.6548,13.0346 98.5848,12.8596 C98.2058,11.9026 97.6678,11.0476 96.9708,10.2886 C96.7518,10.0506 96.7448,9.8486 97.1508,9.8216 C97.3618,9.8086 97.5718,9.7796 97.8288,9.7526" id="Fill-19" fill="#1D1D1B"></path>
                    <path d="M135.1974,63.1394 C135.2874,63.1394 135.3454,63.1434 135.4034,63.1384 C135.7934,63.1064 136.2394,63.0954 136.2254,62.5574 C136.2124,62.0624 135.7834,62.0544 135.4154,62.0234 C135.3574,62.0184 135.2984,62.0274 135.2424,62.0174 C134.7664,61.9314 134.6304,62.1174 134.6324,62.6024 C134.6344,63.0804 134.7844,63.2334 135.1974,63.1394 M136.9874,65.3624 C136.4314,65.4644 136.0814,65.2374 135.8644,64.7204 C135.7454,64.4394 135.5354,64.1974 135.3964,63.9224 C135.2624,63.6594 135.0454,63.6344 134.8104,63.6834 C134.5544,63.7364 134.6644,63.9614 134.6554,64.1154 C134.6394,64.4044 134.6404,64.6954 134.6544,64.9834 C134.6674,65.2414 134.6034,65.3744 134.3064,65.3664 C134.0424,65.3584 133.9834,65.2434 133.9844,65.0094 C133.9904,63.9484 133.9944,62.8854 133.9834,61.8234 C133.9794,61.5214 134.1344,61.4694 134.3804,61.4784 C134.8814,61.4954 135.3844,61.4824 135.8844,61.5234 C136.5424,61.5774 136.8784,61.8954 136.9424,62.4644 C137.0044,63.0144 136.7614,63.3764 136.1764,63.6044 C136.1084,63.6314 136.0364,63.6504 135.9544,63.6774 C136.3014,64.2534 136.6394,64.8134 136.9764,65.3724 C136.9774,65.3724 136.9874,65.3624 136.9874,65.3624" id="Fill-21" fill="#AEAEAD"></path>
                </g>
            </g>
        </g>
    </g>
</svg>