<?xml version="1.0" encoding="UTF-8"?>
<svg width="210px" height="210px" viewBox="0 0 210 210" version="1.1" xmlns="http://www.w3.org/2000/svg" xmlns:xlink="http://www.w3.org/1999/xlink">
    <!-- Generator: Sketch 46.2 (44496) - http://www.bohemiancoding.com/sketch -->
    <title>Group 20</title>
    <desc>Created with Sketch.</desc>
    <defs></defs>
    <g id="Page-1" stroke="none" stroke-width="1" fill="none" fill-rule="evenodd">
        <g id="Web-Design-Service" transform="translate(-970.000000, -3323.000000)">
            <g id="Group-20" transform="translate(970.000000, 3323.000000)">
                <rect id="Rectangle-18-Copy-3" fill="#F3F3F3" x="0" y="0" width="210" height="210"></rect>
                <g id="Page-1" transform="translate(43.000000, 67.000000)" fill="#1D1D1B">
                    <path d="M30.9625,76.4708 C30.8405,76.3168 30.6465,76.3458 30.4885,76.2948 C28.6505,75.6978 27.8505,74.3528 28.2025,72.4438 C28.5665,70.4728 29.5975,68.8528 30.8785,67.3738 C33.1165,64.7868 35.8825,62.9338 39.0245,61.6238 C39.7595,61.3178 40.4575,60.9428 41.1525,60.5598 C41.2805,60.4898 41.4765,60.4088 41.4155,60.2288 C41.3605,60.0678 41.1735,60.1618 41.0475,60.1688 C39.2445,60.2648 37.5255,60.8028 35.7825,61.2018 C30.4135,62.4308 25.1465,63.9938 20.0315,66.0568 C15.3795,67.9328 10.9185,70.1828 6.6095,72.7448 C6.1775,73.0018 5.7505,73.2568 5.2205,73.2608 C4.8335,73.2638 4.6485,73.1188 4.6635,72.7068 C4.6895,72.0298 5.0735,71.5908 5.5835,71.2248 C7.4415,69.8948 9.4205,68.7638 11.4555,67.7298 C17.7615,64.5238 24.3615,62.0468 31.0725,59.8508 C35.3875,58.4398 39.7385,57.1588 44.1945,56.2638 C44.7535,56.1518 45.3155,56.0608 45.8795,55.9748 C46.2255,55.9228 46.5675,55.9628 46.8965,56.0958 C47.5845,56.3748 47.8455,56.9538 47.5875,57.6488 C47.3525,58.2828 46.8515,58.6798 46.3175,59.0448 C44.5155,60.2738 42.7655,61.5728 41.1445,63.0348 C39.2475,64.7468 37.4875,66.5778 36.2935,68.8698 C35.8185,69.7798 35.4665,70.7318 35.5205,71.7908 C35.5815,73.0288 36.4605,73.6598 37.6555,73.3088 C38.3185,73.1148 38.8635,72.7218 39.3765,72.2778 C41.1955,70.6998 42.6635,68.8168 44.0285,66.8528 C47.8385,61.3698 50.8335,55.4428 53.4975,49.3408 C54.2625,47.5868 54.9615,45.8038 55.6835,44.0308 C55.7355,43.9008 55.9005,43.7268 55.7275,43.6118 C55.5335,43.4828 55.3685,43.6528 55.2445,43.7928 C55.1425,43.9078 55.0725,44.0508 54.9905,44.1818 C52.8625,47.5708 50.0875,50.2928 46.6115,52.2828 C45.3805,52.9878 44.0255,53.1448 42.6425,52.9648 C41.0665,52.7598 40.0565,51.5118 39.8985,49.7258 C39.6925,47.4198 40.2275,45.2248 40.8875,43.0538 C42.1265,38.9798 43.8985,35.1258 45.7745,31.3158 C45.8735,31.1148 45.9655,30.9098 46.0605,30.7068 C46.1375,30.5428 46.1985,30.3628 46.0105,30.2448 C45.7865,30.1048 45.6515,30.2868 45.5495,30.4428 C45.3795,30.7028 45.2195,30.9708 45.0815,31.2488 C43.1755,35.0808 41.2905,38.9248 39.3665,42.7478 C37.6595,46.1418 35.9335,49.5268 33.8845,52.7338 C33.1045,53.9568 32.2165,55.0718 30.9515,55.8328 C30.0605,56.3688 29.1125,56.7098 28.0545,56.6468 C26.5735,56.5578 25.6345,55.7108 25.0675,54.4208 C24.3885,52.8738 24.3255,51.2328 24.4765,49.5808 C24.8515,45.4598 26.0905,41.5358 27.2835,37.6068 C28.8865,32.3218 30.8065,27.1498 32.9995,22.0798 C32.9945,22.0398 32.9905,21.9998 32.9855,21.9608 C32.9665,21.9798 32.9475,21.9988 32.9285,22.0178 C31.4795,22.2508 30.0675,22.6538 28.6495,23.0148 C24.4525,24.0818 20.2935,25.2718 16.2275,26.7728 C15.2045,27.1508 14.4665,26.6538 14.4625,25.5328 C14.4585,23.9658 15.3085,22.9108 16.6605,22.2318 C17.4955,21.8118 18.3995,21.5658 19.2965,21.3188 C23.2125,20.2418 27.1945,19.4738 31.1965,18.8038 C32.2695,18.6238 33.3425,18.4418 34.4185,18.2818 C34.7365,18.2348 34.8835,18.0568 35.0145,17.7898 C36.0165,15.7418 37.1025,13.7388 38.3755,11.8428 C39.8445,9.6548 41.8435,8.2478 44.4775,7.8548 C45.8645,7.6488 47.2305,7.7508 48.5145,8.5158 C45.4845,10.7408 43.8425,13.9288 42.1085,17.1808 C43.2715,17.0468 44.3325,16.9138 45.3945,16.8018 C47.9395,16.5318 50.4835,16.2518 53.0315,16.0118 C56.2705,15.7058 59.5155,15.4728 62.7665,15.3268 C65.6205,15.1998 68.4755,15.1188 71.3325,15.2138 C71.6415,15.2238 71.9585,15.2598 72.2525,15.3458 C72.7365,15.4888 72.8055,15.7948 72.4505,16.1428 C72.0905,16.4958 71.6505,16.6708 71.1415,16.6768 C69.0815,16.7018 67.0245,16.7828 64.9675,16.9228 C62.5685,17.0858 60.1755,17.3158 57.7875,17.5928 C54.9035,17.9278 52.0295,18.3348 49.1625,18.7938 C46.3995,19.2368 43.6495,19.7448 40.8995,20.2548 C40.5545,20.3188 40.5305,20.5908 40.4355,20.8098 C38.4935,25.2938 36.8815,29.8988 35.4355,34.5628 C34.2335,38.4338 33.1045,42.3268 32.1615,46.2718 C31.9955,46.9668 31.9445,47.6728 31.9955,48.3848 C32.0095,48.5718 32.0435,48.7628 32.1005,48.9418 C32.3315,49.6608 32.8235,49.7678 33.3095,49.1818 C33.7855,48.6088 34.1175,47.9358 34.4925,47.2958 C37.2145,42.6438 39.5705,37.7998 41.9845,32.9858 C43.1255,30.7108 44.3005,28.4618 46.1165,26.6228 C48.0545,24.6608 50.2735,23.1968 53.0395,22.7148 C54.0165,22.5438 55.0055,22.5048 55.9495,22.9068 C56.5875,23.1788 56.5995,23.2988 56.2155,23.8588 C54.5085,26.3478 53.2285,29.0658 52.0245,31.8208 C50.3865,35.5698 48.8995,39.3738 47.9615,43.3708 C47.7375,44.3188 47.6145,45.2748 47.6795,46.2508 C47.7015,46.5658 47.7695,46.8678 47.9055,47.1488 C48.1145,47.5778 48.4475,47.7478 48.9285,47.6118 C49.4625,47.4618 49.8805,47.1318 50.2835,46.7778 C51.8135,45.4338 52.9165,43.7588 53.9215,42.0168 C56.1975,38.0768 57.9245,33.8808 59.6395,29.6788 C60.2315,28.2268 60.7255,26.7278 61.7775,25.5078 C63.4735,23.5408 65.5245,22.1428 68.0815,21.5678 C69.0965,21.3398 70.1085,21.3248 71.0245,21.9478 C70.0925,23.1228 69.5535,24.4908 68.9865,25.8368 C66.2985,32.2128 64.0265,38.7438 61.8305,45.3018 C60.1055,50.4488 58.1555,55.4918 55.4105,60.1968 C52.6015,65.0128 49.1675,69.2838 44.6385,72.6108 C42.0555,74.5078 39.2785,75.9468 36.0575,76.3828 C36.0185,76.3878 35.9855,76.4408 35.9495,76.4708 L30.9625,76.4708 Z" id="Fill-1"></path>
                    <path d="M93.7291,5.2159 C93.7261,4.9369 93.7111,4.6649 93.6411,4.3919 C93.3441,3.2439 92.4361,2.9429 91.5321,3.7049 C91.4011,3.8149 91.2841,3.9459 91.1811,4.0839 C90.7781,4.6249 90.3681,5.1609 89.9891,5.7179 C85.7271,12.0039 82.6241,18.9089 79.3071,25.6999 C79.2461,25.8259 79.0991,26.0139 79.2591,26.1209 C79.4551,26.2519 79.5501,26.0139 79.6551,25.8989 C80.5271,24.9389 81.3701,23.9499 82.2651,23.0109 C84.4161,20.7529 86.4421,18.3879 88.2811,15.8689 C89.9001,13.6509 91.5291,11.4339 92.7031,8.9299 C93.2551,7.7509 93.6821,6.5349 93.7291,5.2159 L93.7291,5.2159 Z M93.4071,-0.0001 C93.4461,0.0299 93.4801,0.0759 93.5241,0.0879 C95.6321,0.6619 96.5561,2.1459 96.1671,4.3209 C95.7611,6.5909 94.7131,8.5909 93.5491,10.5369 C91.2501,14.3799 88.4631,17.8639 85.5751,21.2719 C83.9861,23.1479 82.3341,24.9649 80.6001,26.7109 C77.9771,29.3519 76.4041,32.5899 75.4341,36.1489 C74.9381,37.9669 74.4151,39.7789 74.4871,41.6929 C74.5071,42.2249 74.4781,42.8459 75.0471,43.1009 C75.6231,43.3579 76.0631,42.9079 76.4661,42.5639 C77.3831,41.7809 78.0821,40.8119 78.7281,39.8039 C81.8721,34.9029 84.7421,29.8369 87.6831,24.8139 C88.8811,22.7679 90.2871,20.9399 92.3591,19.7099 C93.9771,18.7499 95.6971,18.1309 97.6091,18.1889 C98.1331,18.2039 98.6441,18.2959 99.0831,18.6059 C99.1781,18.6729 99.4071,18.7399 99.1981,18.9469 C98.2751,19.8619 97.6811,21.0039 97.0731,22.1249 C94.8901,26.1519 92.9591,30.2909 91.6991,34.7129 C91.3761,35.8449 91.1201,36.9929 91.2081,38.1849 C91.2981,39.4169 92.1251,39.8599 93.1821,39.2129 C94.3031,38.5279 95.0431,37.4669 95.7711,36.4129 C97.6871,33.6339 99.2411,30.6449 100.7941,27.6569 C101.5981,26.1109 102.3611,24.5429 103.1881,23.0089 C104.4501,20.6679 106.3061,19.0179 108.9251,18.3459 C110.1251,18.0379 111.3191,18.0899 112.4811,18.5849 C112.8311,18.7339 112.8851,18.8219 112.6771,19.1959 C109.5121,24.8729 106.7001,30.7099 104.8891,36.9779 C104.5641,38.1009 104.2881,39.2559 104.5011,40.4519 C104.5861,40.9299 104.7901,41.3179 105.2931,41.4319 C105.5471,41.4899 105.4921,41.6239 105.4371,41.7639 C105.2371,42.2719 104.9391,42.7219 104.4981,43.0459 C102.8281,44.2709 100.9561,44.5929 98.9901,44.0529 C97.3531,43.6039 96.7371,42.3139 97.2181,40.6489 C97.5611,39.4619 98.1991,38.4079 98.7571,37.3199 C99.0491,36.7519 99.3791,36.2029 99.5891,35.5959 C99.6561,35.4039 99.7651,35.1429 99.5581,35.0379 C99.3211,34.9189 99.2131,35.1999 99.1071,35.3639 C97.7021,37.5549 96.1631,39.6409 94.2871,41.4559 C92.8091,42.8849 91.2091,44.1389 89.1821,44.7069 C88.0981,45.0109 87.0011,45.0719 85.9011,44.7959 C84.4781,44.4379 83.6641,43.4619 83.5341,42.0079 C83.3801,40.2799 83.7921,38.6429 84.3321,37.0309 C85.5831,33.2969 87.4481,29.8529 89.3791,26.4419 C89.4891,26.2459 89.5981,26.0499 89.7121,25.8569 C89.7991,25.7089 89.7631,25.5829 89.6361,25.4949 C89.4991,25.4019 89.3641,25.4489 89.2721,25.5739 C89.1711,25.7139 89.0841,25.8629 88.9991,26.0119 C86.7561,29.9619 84.6801,34.0029 82.3771,37.9189 C80.9401,40.3629 79.4491,42.7719 77.6381,44.9689 C76.3101,46.5799 74.7001,47.6319 72.5981,47.9619 C69.7111,48.4149 67.4791,46.7789 67.1111,43.9019 C66.8251,41.6629 67.3201,39.5299 67.9061,37.4129 C69.2491,32.5599 71.2151,27.9439 73.3561,23.3999 C76.2231,17.3149 79.4451,11.4259 83.2271,5.8569 C84.9351,3.3409 87.1401,1.3909 90.0731,0.3819 C90.4861,0.2389 90.9101,0.1269 91.3291,-0.0001 L93.4071,-0.0001 Z" id="Fill-3"></path>
                    <path d="M0.0001,58.4962 C0.3071,57.2762 0.7111,56.0982 1.3561,55.0052 C2.8791,52.4242 5.0231,50.7212 8.0351,50.2362 C9.0641,50.0702 10.0991,50.0372 11.1391,50.1662 C11.3921,50.1972 11.5011,50.3122 11.5771,50.5222 C11.6561,50.7412 11.5451,50.8912 11.3991,51.0212 C11.3111,51.1002 11.2021,51.1592 11.0981,51.2202 C7.9501,53.0722 6.4831,55.9532 6.0691,59.4672 C6.0291,59.8032 6.0851,60.1622 6.1561,60.4972 C6.3771,61.5412 7.1131,62.0392 8.1791,61.8602 C10.1101,61.5382 11.4651,60.3382 12.6391,58.8782 C14.4571,56.6172 14.6881,54.0512 14.0911,51.3212 C13.6151,49.1412 12.8181,47.0612 12.1001,44.9572 C11.0201,41.7912 10.7631,38.6002 11.9561,35.4162 C13.1251,32.2982 15.2061,30.0952 18.5711,29.3712 C20.9161,28.8662 23.1161,29.4002 25.1311,30.6172 C26.3481,31.3522 26.5701,32.6012 26.3581,33.9082 C26.0261,35.9582 24.3981,37.4572 22.3591,37.6572 C22.1211,37.6812 21.8681,37.6812 21.6371,37.6262 C20.9611,37.4652 20.8491,37.1472 21.2441,36.6062 C21.8261,35.8102 22.2701,34.9552 22.2301,33.9382 C22.1961,33.0432 21.8071,32.3392 20.9571,31.9652 C20.1211,31.5972 19.3471,31.7902 18.6911,32.3652 C17.6511,33.2762 17.2831,34.4702 17.3981,35.8212 C17.5161,37.1982 18.0021,38.4762 18.5351,39.7322 C19.6951,42.4652 20.7931,45.2182 21.4441,48.1272 C21.9851,50.5462 22.2741,52.9752 21.5561,55.4072 C20.7611,58.0992 19.0391,60.1512 16.8971,61.8662 C14.0021,64.1832 10.7051,65.3982 6.9641,65.2352 C5.2801,65.1612 3.6891,64.7322 2.2881,63.7502 C1.1841,62.9762 0.4421,61.9462 0.1181,60.6282 C0.0951,60.5342 0.1281,60.4132 0.0001,60.3662 L0.0001,58.4962 Z" id="Fill-5"></path>
                    <path d="M124.6808,21.5074 C124.4228,22.0304 124.1968,22.5714 123.7578,22.9844 C123.1118,23.5924 122.3568,23.9154 121.4628,23.8994 C121.1838,23.8944 120.9258,23.7764 120.7928,23.5744 C120.6948,23.4264 120.9518,23.2704 121.0458,23.1154 C121.4198,22.5004 121.7258,21.8674 121.5988,21.1174 C121.3888,19.8724 120.0958,19.3194 119.0768,20.0714 C118.1288,20.7724 117.8958,21.7794 118.0738,22.8934 C118.2328,23.8934 118.6708,24.7994 119.1248,25.6924 C120.1338,27.6774 121.0608,29.6924 121.6888,31.8404 C122.9728,36.2314 121.8888,39.3324 118.1318,42.2654 C115.8878,44.0164 113.3008,44.8394 110.4268,44.5664 C109.0858,44.4394 107.8478,44.0124 106.8988,43.0144 C105.7658,41.8224 105.6758,40.4014 106.1348,38.9014 C107.1968,35.4294 110.0878,33.3864 113.7238,33.5274 C114.2568,33.5484 114.3998,33.7244 114.2728,34.2374 C114.1898,34.5694 113.9808,34.8064 113.6958,35.0044 C111.5718,36.4814 110.8198,38.5944 110.9758,41.0804 C111.0398,42.0904 111.5928,42.3874 112.5548,42.0504 C113.1888,41.8284 113.7218,41.4474 114.1528,40.9364 C115.8018,38.9814 116.1778,36.8134 115.2848,34.4034 C114.6858,32.7854 113.8978,31.2464 113.2948,29.6314 C111.8978,25.8874 112.9898,21.7224 115.9948,19.4294 C118.2818,17.6854 120.7808,17.4494 123.4298,18.5124 C124.0228,18.7504 124.3438,19.2504 124.6808,19.7414 L124.6808,21.5074 Z" id="Fill-7"></path>
                    <path d="M107.7443,48.1973 C111.3633,48.1723 114.9803,48.2063 118.5923,48.4373 C120.0763,48.5313 121.5553,48.6933 123.0343,48.8523 C123.8503,48.9393 124.1233,49.4223 123.8653,50.2073 C123.7403,50.5903 123.5423,50.9343 123.3093,51.2553 C122.4863,52.3863 121.4563,53.2953 120.3173,54.1043 C119.3193,54.8143 118.2843,54.7593 117.1573,54.5423 C114.5753,54.0453 111.9573,53.8053 109.3373,53.5913 C103.4123,53.1073 97.4773,53.0803 91.5413,53.2223 C86.5083,53.3423 81.4813,53.6383 76.4663,54.1053 C72.1283,54.5093 67.8013,54.9843 63.5163,55.7873 C63.0763,55.8703 62.6413,55.9883 62.2003,56.0673 C61.4433,56.2033 60.6633,55.8873 60.4923,55.3943 C60.3213,54.9033 60.6443,54.3453 61.3783,53.9103 C62.5433,53.2193 63.8663,52.9983 65.1553,52.6993 C69.0943,51.7863 73.0813,51.1443 77.0853,50.5853 C80.8693,50.0563 84.6653,49.6273 88.4703,49.2823 C92.8463,48.8863 97.2293,48.5693 101.6223,48.4133 C103.6623,48.3423 105.7033,48.2693 107.7443,48.1973" id="Fill-9"></path>
                </g>
            </g>
        </g>
    </g>
</svg>