<?xml version="1.0" encoding="UTF-8"?>
<svg width="48px" height="48px" viewBox="0 0 48 48" version="1.1" xmlns="http://www.w3.org/2000/svg" xmlns:xlink="http://www.w3.org/1999/xlink">
    <!-- Generator: Sketch 48.2 (47327) - http://www.bohemiancoding.com/sketch -->
    <title>Group 6</title>
    <desc>Created with Sketch.</desc>
    <defs></defs>
    <g id="Websites-From-£795" stroke="none" stroke-width="1" fill="none" fill-rule="evenodd" transform="translate(-305.000000, -664.000000)">
        <g id="Group-6" transform="translate(305.000000, 664.000000)">
            <circle id="Oval-4" fill="#E0E0E0" cx="24" cy="24" r="24"></circle>
            <path d="M31.6411252,28.6269537 L29.1703334,26.1551019 C28.6778003,25.6650421 27.8633894,25.680235 27.3542502,26.1897276 L26.1091379,27.4344866 C26.0307,27.3917344 25.9490823,27.3461557 25.863578,27.2981037 C25.0767264,26.8617491 24.0015627,26.2656922 22.868454,25.1325835 C21.732872,23.9966482 21.1350485,22.9186579 20.6990472,22.1318063 C20.6520552,22.0491286 20.6078897,21.9692775 20.5651376,21.8918996 L21.4000412,21.0580559 L21.8113099,20.6467873 C22.3208025,20.1362347 22.3359954,19.3218239 21.8445223,18.8307041 L19.3726705,16.3588523 C18.8826107,15.8673792 18.0671399,15.8825722 17.556234,16.3931247 L16.8608932,17.0930587 L16.8785594,17.1121382 C16.6453658,17.4103433 16.4506845,17.7541272 16.3058218,18.1240569 C16.1719122,18.4773805 16.0878212,18.8140979 16.0507222,19.1508153 C15.7235446,21.8558606 16.9601771,24.3277123 20.3139245,27.6828731 C24.9512965,32.3188317 28.6887533,31.969748 28.8502222,31.9517285 C29.2007192,31.9103897 29.5374366,31.8262987 29.8798071,31.6938023 C30.2469103,31.550353 30.5906942,31.3556717 30.887486,31.1224781 L30.9026789,31.1362577 L31.609326,30.4448035 C32.117052,29.9338976 32.1322449,29.1198401 31.6411252,28.6269537 Z" id="Fill-1" fill="#212121"></path>
        </g>
    </g>
</svg>