<?xml version="1.0" encoding="UTF-8"?>
<svg width="30px" height="29px" viewBox="0 0 30 29" version="1.1" xmlns="http://www.w3.org/2000/svg" xmlns:xlink="http://www.w3.org/1999/xlink">
    <!-- Generator: Sketch 46.2 (44496) - http://www.bohemiancoding.com/sketch -->
    <title>Page 1</title>
    <desc>Created with Sketch.</desc>
    <defs>
        <polygon id="path-1" points="29.8345147 28.8461538 0 28.8461538 0 0.159078054 29.8345147 0.159078054"></polygon>
    </defs>
    <g id="Page-1" stroke="none" stroke-width="1" fill="none" fill-rule="evenodd">
        <g id="Home" transform="translate(-280.000000, -3058.000000)">
            <g id="Page-1" transform="translate(280.000000, 3058.000000)">
                <g id="Group-3" transform="translate(0.000000, 0.053026)">
                    <mask id="mask-2" fill="white">
                        <use xlink:href="#path-1"></use>
                    </mask>
                    <g id="Clip-2"></g>
                    <path d="M27.1874559,20.9293269 C27.1874559,23.8913603 24.6817941,26.3008626 21.6012794,26.3008626 L8.23319118,26.3008626 C5.15267647,26.3008626 2.64701471,23.8913603 2.64701471,20.9293269 L2.64701471,8.07560803 C2.64701471,5.11357466 5.15267647,2.7042845 8.23319118,2.7042845 L21.6012794,2.7042845 C24.6817941,2.7042845 27.1874559,5.11357466 27.1874559,8.07560803 L27.1874559,20.9293269 Z M21.6012794,0.159035633 L8.23319118,0.159035633 C3.69304412,0.159035633 -4.41176471e-05,3.71008201 -4.41176471e-05,8.07560803 L-4.41176471e-05,20.9293269 C-4.41176471e-05,25.295065 3.69304412,28.8463235 8.23319118,28.8463235 L21.6012794,28.8463235 C26.1414265,28.8463235 29.8345147,25.2944287 29.8345147,20.9293269 L29.8345147,8.07560803 C29.8345147,3.71008201 26.1414265,0.159035633 21.6012794,0.159035633 L21.6012794,0.159035633 Z" id="Fill-1" fill="#212121" mask="url(#mask-2)"></path>
                </g>
                <path d="M14.9172353,19.4016049 C12.1382647,19.4016049 9.87635294,17.2283866 9.87635294,14.5556632 C9.87635294,11.8835761 12.1373824,9.70866092 14.9172353,9.70866092 C17.6970882,9.70866092 19.9581176,11.8835761 19.9581176,14.5556632 C19.9581176,17.2283866 17.6962059,19.4016049 14.9172353,19.4016049 M14.9172353,7.16426046 C10.67775,7.16426046 7.22929412,10.4800834 7.22929412,14.5556632 C7.22929412,18.6318792 10.67775,21.9477022 14.9172353,21.9477022 C19.1558382,21.9477022 22.6051765,18.6318792 22.6051765,14.5556632 C22.6051765,10.4800834 19.1558382,7.16426046 14.9172353,7.16426046" id="Fill-4" fill="#212121"></path>
                <path d="M22.9274559,5.00586821 C22.4172353,5.00586821 21.9165,5.20397342 21.5565,5.5518241 C21.1936324,5.89819005 20.9860588,6.38051471 20.9860588,6.87259615 C20.9860588,7.36298077 21.1945147,7.84445701 21.5565,8.1925198 C21.9158382,8.53867364 22.4172353,8.73847568 22.9274559,8.73847568 C23.4392206,8.73847568 23.9381912,8.53867364 24.2999559,8.1925198 C24.6619412,7.84445701 24.8686324,7.36234446 24.8686324,6.87259615 C24.8686324,6.38051471 24.6619412,5.89819005 24.2999559,5.5518241 C23.9397353,5.20397342 23.4392206,5.00586821 22.9274559,5.00586821" id="Fill-6" fill="#212121"></path>
            </g>
        </g>
    </g>
</svg>