<?xml version="1.0" encoding="UTF-8"?>
<svg width="48px" height="48px" viewBox="0 0 48 48" version="1.1" xmlns="http://www.w3.org/2000/svg" xmlns:xlink="http://www.w3.org/1999/xlink">
    <!-- Generator: Sketch 48.2 (47327) - http://www.bohemiancoding.com/sketch -->
    <title>Group 14</title>
    <desc>Created with Sketch.</desc>
    <defs></defs>
    <g id="Websites-From-£795" stroke="none" stroke-width="1" fill="none" fill-rule="evenodd" transform="translate(-1173.000000, -992.000000)">
        <g id="Group-14" transform="translate(1173.000000, 992.000000)" fill="#FFFFFF">
            <circle id="Oval-4" fill-opacity="0.375622736" cx="24" cy="24" r="24"></circle>
            <path d="M32.7109301,18.8084134 L29.7467301,21.7728358 L27.1536018,20.8463796 L26.2271457,18.2534738 L29.1915681,15.2890514 C27.2468702,14.6383227 25.0151014,15.0860555 23.4662382,16.6348446 C21.9461413,18.1550156 21.4867685,20.3328845 22.0853766,22.2521523 C22.0048603,22.3155422 21.9267166,22.3838994 21.8522798,22.4580397 L15.7644042,28.5462118 C14.7451986,29.5651208 14.7451986,31.2167424 15.7644042,32.2358739 C16.783239,33.2547087 18.4348606,33.2547087 19.4539921,32.2358739 L25.5419418,26.1477017 C25.6163044,26.0732649 25.6846617,25.995047 25.7481257,25.9145307 C27.667097,26.513213 29.8449658,26.0538402 31.3650627,24.5336692 C32.9136294,22.98488 33.3616587,20.7534078 32.7109301,18.8084134 Z" id="Fill-1"></path>
        </g>
    </g>
</svg>