<?xml version="1.0" encoding="UTF-8"?>
<svg width="75px" height="21px" viewBox="0 0 75 21" version="1.1" xmlns="http://www.w3.org/2000/svg" xmlns:xlink="http://www.w3.org/1999/xlink">
    <!-- Generator: Sketch 46.2 (44496) - http://www.bohemiancoding.com/sketch -->
    <title>AMP Logo</title>
    <desc>Created with Sketch.</desc>
    <defs></defs>
    <g id="Page-1" stroke="none" stroke-width="1" fill="none" fill-rule="evenodd">
        <g id="Home" transform="translate(-279.000000, -15.000000)" stroke-width="0.2" stroke="#FFFFFF" fill="#FFFFFF">
            <g id="sticky-nav">
                <g id="logo-copy-2" transform="translate(280.000000, 16.000000)">
                    <path d="M65.8213962,10.8700863 C69.3839957,10.8700863 71.7955253,8.97961081 71.7955253,6.0882779 L71.7955253,6.03324997 C71.7955253,2.94665668 69.4385447,1.33487098 65.9856264,1.33487098 L60.5601954,1.33487098 L60.5601954,10.8700863 L65.8213962,10.8700863 Z M59.1355057,0.000295849065 L66.0953077,0.000295849065 C70.3154115,0.000295849065 73.2196316,2.19608761 73.2196316,5.94952469 L73.2196316,6.00514431 C73.2196316,10.0911157 69.7398765,12.2043656 65.7397187,12.2043656 L60.5601954,12.2043656 L60.5601954,19.5946752 L59.1355057,19.5946752 L59.1355057,0.000295849065 Z" id="Fill-1"></path>
                    <path d="M10.6118676,0.672524094 C10.6034081,0.65151881 10.5940736,0.631401074 10.5841556,0.610987488 L10.5742376,0.589390506 L10.5736542,0.589390506 C10.3965889,0.24028861 10.0383746,5.91698129e-05 9.62415272,5.91698129e-05 C9.19797095,5.91698129e-05 8.83100541,0.254489365 8.65948256,0.621342205 L8.64868946,0.621342205 L-8.75116561e-05,19.5950303 L1.4800263,19.5950303 L9.46604832,1.8579913 C9.51447144,1.74941469 9.66615831,1.74941469 9.71545654,1.8579913 L14.6327365,12.8396127 L17.67435,19.5950303 L19.2361413,19.5950303 L10.6118676,0.672524094 Z" id="Fill-4"></path>
                    <path d="M46.5853716,0.000207094345 C46.310585,0.000207094345 46.0699279,0.138368607 45.9205747,0.348125594 L38.4412452,11.5279659 C38.4041986,11.5835855 38.3239795,11.5835855 38.2860578,11.5279659 L30.8067283,0.348125594 C30.6579585,0.138368607 30.416718,0.000207094345 30.1428065,0.000207094345 C29.6889127,0.000207094345 29.3213638,0.345167104 29.3213638,0.805212399 L29.3213638,19.5945865 L30.6915046,19.5945865 L30.6915046,2.69272943 L37.6058005,12.9001139 C37.9581808,13.4199207 38.7139898,13.4205124 39.0669535,12.9001139 L45.9818329,2.69272943 L45.9818329,19.5945865 L47.4065226,19.5945865 L47.4065226,0.805212399 C47.4065226,0.345167104 47.038682,0.000207094345 46.5853716,0.000207094345" id="Fill-7"></path>
                </g>
            </g>
        </g>
    </g>
</svg>