<?xml version="1.0" encoding="UTF-8"?>
<svg width="341px" height="127px" viewBox="0 0 341 127" version="1.1" xmlns="http://www.w3.org/2000/svg" xmlns:xlink="http://www.w3.org/1999/xlink">
    <!-- Generator: Sketch 46.2 (44496) - http://www.bohemiancoding.com/sketch -->
    <title>Group 10</title>
    <desc>Created with Sketch.</desc>
    <defs></defs>
    <g id="Page-1" stroke="none" stroke-width="1" fill="none" fill-rule="evenodd">
        <g id="Blog" transform="translate(-388.000000, -1126.000000)">
            <g id="Group-8" transform="translate(337.000000, 1056.000000)">
                <g id="Group-10" transform="translate(51.000000, 70.000000)">
                    <path d="M0.243,1.6 L2.355,1.6 L2.355,17 L0.243,17 L0.243,1.6 Z M16.237,6.495 C17.0143372,7.29433733 17.403,8.39799296 17.403,9.806 L17.403,17 L15.357,17 L15.357,10.356 C15.357,9.37332842 15.0820028,8.60700275 14.532,8.057 C13.9819973,7.50699725 13.2230048,7.232 12.255,7.232 C11.2136615,7.24666674 10.3666699,7.58033007 9.714,8.233 C9.06133007,8.88566993 8.69100044,9.73266146 8.603,10.774 L8.603,17 L6.557,17 L6.557,5.362 L8.603,5.362 L8.603,7.826 C9.38033722,6.16865838 10.8543225,5.32533348 13.025,5.296 C14.3890068,5.296 15.4596628,5.69566267 16.237,6.495 Z M27.303,16.23 C26.4083289,16.8020029 25.4990046,17.088 24.575,17.088 C23.6509954,17.088 22.9030029,16.8130028 22.331,16.263 C21.7589971,15.7129973 21.473,14.8806722 21.473,13.766 L21.473,7.32 L19.823,7.32 L19.823,5.758 L21.473,5.758 L21.473,2.634 L23.541,2.634 L23.541,5.758 L27.105,5.758 L27.105,7.32 L23.541,7.32 L23.541,13.392 C23.541,14.0373366 23.6583322,14.4993319 23.893,14.778 C24.1276678,15.0566681 24.4796643,15.196 24.949,15.196 C25.5063361,15.196 26.1076634,15.0126685 26.753,14.646 L27.303,16.23 Z M33.463,5.967 C34.1670035,5.53433117 35.0029952,5.31066674 35.971,5.296 L35.971,7.276 C34.7829941,7.23199978 33.822337,7.5399967 33.089,8.2 C32.355663,8.8600033 31.9376672,9.74732776 31.835,10.862 L31.835,17 L29.789,17 L29.789,5.362 L31.835,5.362 L31.835,7.87 C32.2163352,7.03399582 32.7589965,6.39966883 33.463,5.967 Z M46.124,6.044 C47.0260045,6.54266916 47.7299975,7.23566223 48.236,8.123 C48.7420025,9.01033777 48.995,10.0259943 48.995,11.17 C48.995,12.3140057 48.7420025,13.3333289 48.236,14.228 C47.7299975,15.1226711 47.0260045,15.8193308 46.124,16.318 C45.2219955,16.8166692 44.1916725,17.066 43.033,17.066 C41.8596608,17.066 40.8220045,16.8166692 39.92,16.318 C39.0179955,15.8193308 38.3140025,15.1263378 37.808,14.239 C37.3019975,13.3516622 37.049,12.3286725 37.049,11.17 C37.049,10.0259943 37.3019975,9.01033777 37.808,8.123 C38.3140025,7.23566223 39.0179955,6.54266916 39.92,6.044 C40.8220045,5.54533084 41.8596608,5.296 43.033,5.296 C44.1916725,5.296 45.2219955,5.54533084 46.124,6.044 Z M40.998,7.606 C40.403997,7.95800176 39.9420017,8.44566355 39.612,9.069 C39.2819984,9.69233645 39.117,10.399996 39.117,11.192 C39.117,11.9986707 39.2819984,12.7173302 39.612,13.348 C39.9420017,13.9786698 40.403997,14.4663316 40.998,14.811 C41.592003,15.1556684 42.2703295,15.328 43.033,15.328 C43.7810037,15.328 44.451997,15.1556684 45.046,14.811 C45.640003,14.4663316 46.1019984,13.9786698 46.432,13.348 C46.7620017,12.7173302 46.927,11.9986707 46.927,11.192 C46.927,10.399996 46.7620017,9.69233645 46.432,9.069 C46.1019984,8.44566355 45.640003,7.95800176 45.046,7.606 C44.451997,7.25399824 43.7810037,7.078 43.033,7.078 C42.2703295,7.078 41.592003,7.25399824 40.998,7.606 Z M62.701,0.676 L62.701,17 L60.655,17 L60.655,14.69 C60.2149978,15.4673372 59.6246704,16.0649979 58.884,16.483 C58.1433296,16.9010021 57.2816716,17.11 56.299,17.11 C55.1989945,17.11 54.2273376,16.8570025 53.384,16.351 C52.5406625,15.8449975 51.8843357,15.1410045 51.415,14.239 C50.9456643,13.3369955 50.711,12.3066725 50.711,11.148 C50.711,10.0039943 50.9456643,8.98833777 51.415,8.101 C51.8843357,7.21366223 52.5406625,6.52066916 53.384,6.022 C54.2273376,5.52333084 55.1916612,5.274 56.277,5.274 C57.2743383,5.274 58.1469963,5.47933128 58.895,5.89 C59.6430037,6.30066872 60.2296645,6.89466278 60.655,7.672 L60.655,0.676 L62.701,0.676 Z M58.752,14.822 C59.346003,14.4699982 59.811665,13.9786698 60.149,13.348 C60.486335,12.7173302 60.655,12.006004 60.655,11.214 C60.655,10.4073293 60.486335,9.68866982 60.149,9.058 C59.811665,8.42733018 59.346003,7.93600176 58.752,7.584 C58.157997,7.23199824 57.4796705,7.056 56.717,7.056 C55.9543295,7.056 55.276003,7.23566487 54.682,7.595 C54.087997,7.95433513 53.622335,8.44933018 53.285,9.08 C52.947665,9.71066982 52.779,10.421996 52.779,11.214 C52.779,12.006004 52.947665,12.7173302 53.285,13.348 C53.622335,13.9786698 54.087997,14.4699982 54.682,14.822 C55.276003,15.1740018 55.9543295,15.35 56.717,15.35 C57.4796705,15.35 58.157997,15.1740018 58.752,14.822 Z M77.111,5.362 L77.111,17 L75.043,17 L75.043,14.536 C74.2803295,16.1933416 72.8430106,17.0366665 70.731,17.066 C69.3816599,17.066 68.3256705,16.6663373 67.563,15.867 C66.8003295,15.0676627 66.419,13.964007 66.419,12.556 L66.419,5.362 L68.487,5.362 L68.487,12.006 C68.487,12.9886716 68.754664,13.7549973 69.29,14.305 C69.825336,14.8550028 70.5623286,15.13 71.501,15.13 C72.5863388,15.1153333 73.4479968,14.7303371 74.086,13.975 C74.7240032,13.2196629 75.043,12.2553392 75.043,11.082 L75.043,5.362 L77.111,5.362 Z M85.933,7.122 C85.1703295,7.122 84.492003,7.29066498 83.898,7.628 C83.303997,7.96533502 82.838335,8.44199692 82.501,9.058 C82.163665,9.67400308 81.995,10.3853293 81.995,11.192 C81.995,11.9986707 82.1599984,12.7099969 82.49,13.326 C82.8200017,13.9420031 83.2746638,14.4223316 83.854,14.767 C84.4333362,15.1116684 85.0969963,15.284 85.845,15.284 C86.5930037,15.284 87.2676637,15.1593346 87.869,14.91 C88.4703363,14.6606654 88.968998,14.3013357 89.365,13.832 L90.531,15.02 C90.0029974,15.6800033 89.3320041,16.1859982 88.518,16.538 C87.7039959,16.8900018 86.7836718,17.066 85.757,17.066 C84.627661,17.066 83.6230044,16.8166692 82.743,16.318 C81.8629956,15.8193308 81.1773358,15.1263378 80.686,14.239 C80.1946642,13.3516622 79.949,12.3360057 79.949,11.192 C79.949,10.0479943 80.1946642,9.02867114 80.686,8.134 C81.1773358,7.23932886 81.8629956,6.54266916 82.743,6.044 C83.6230044,5.54533084 84.627661,5.296 85.757,5.296 C86.7396716,5.296 87.6233294,5.44633183 88.408,5.747 C89.1926706,6.04766817 89.8489974,6.48399714 90.377,7.056 L89.255,8.464 C88.3309954,7.56932886 87.2236731,7.122 85.933,7.122 Z M93.457,5.362 L95.503,5.362 L95.503,17 L93.457,17 L93.457,5.362 Z M95.382,1.094 C95.6240012,1.34333458 95.745,1.65866476 95.745,2.04 C95.745,2.42133524 95.6240012,2.73666542 95.382,2.986 C95.1399988,3.23533458 94.8356685,3.36 94.469,3.36 C94.1023315,3.36 93.7980012,3.23533458 93.556,2.986 C93.3139988,2.73666542 93.193,2.42133524 93.193,2.04 C93.193,1.65866476 93.3139988,1.34333458 93.556,1.094 C93.7980012,0.84466542 94.1023315,0.72 94.469,0.72 C94.8356685,0.72 95.1399988,0.84466542 95.382,1.094 Z M109.165,6.495 C109.942337,7.29433733 110.331,8.39799296 110.331,9.806 L110.331,17 L108.285,17 L108.285,10.356 C108.285,9.37332842 108.010003,8.60700275 107.46,8.057 C106.909997,7.50699725 106.151005,7.232 105.183,7.232 C104.141661,7.24666674 103.29467,7.58033007 102.642,8.233 C101.98933,8.88566993 101.619,9.73266146 101.531,10.774 L101.531,17 L99.485,17 L99.485,5.362 L101.531,5.362 L101.531,7.826 C102.308337,6.16865838 103.782322,5.32533348 105.953,5.296 C107.317007,5.296 108.387663,5.69566267 109.165,6.495 Z M124.279,5.362 L124.279,15.812 C124.279,16.9266722 124.033336,17.9019958 123.542,18.738 C123.050664,19.5740042 122.357671,20.2156644 121.463,20.663 C120.568329,21.1103356 119.527006,21.334 118.339,21.334 C116.622991,21.334 115.024341,20.7913388 113.543,19.706 L114.445,18.21 C115.017003,18.6793357 115.610997,19.0276655 116.227,19.255 C116.843003,19.4823345 117.517663,19.596 118.251,19.596 C119.453673,19.596 120.41433,19.25867 121.133,18.584 C121.85167,17.90933 122.211,17.007339 122.211,15.878 L122.211,14.25 C121.800331,14.9540035 121.243004,15.5003314 120.539,15.889 C119.834996,16.2776686 119.028338,16.472 118.119,16.472 C117.077661,16.472 116.157337,16.2336691 115.358,15.757 C114.558663,15.280331 113.939002,14.6166709 113.499,13.766 C113.058998,12.9153291 112.839,11.9400055 112.839,10.84 C112.839,9.75466124 113.058998,8.79400418 113.499,7.958 C113.939002,7.12199582 114.558663,6.46933568 115.358,6 C116.157337,5.53066432 117.077661,5.296 118.119,5.296 C119.043005,5.296 119.85333,5.48666476 120.55,5.868 C121.24667,6.24933524 121.800331,6.79199648 122.211,7.496 L122.211,5.362 L124.279,5.362 Z M120.429,14.316 C120.986336,13.978665 121.422665,13.513003 121.738,12.919 C122.053335,12.324997 122.211,11.6540037 122.211,10.906 C122.211,10.1433295 122.053335,9.46500297 121.738,8.871 C121.422665,8.27699703 120.986336,7.81133502 120.429,7.474 C119.871664,7.13666498 119.23367,6.968 118.515,6.968 C117.79633,6.968 117.154669,7.13666498 116.59,7.474 C116.025331,7.81133502 115.581668,8.27699703 115.259,8.871 C114.936332,9.46500297 114.775,10.1433295 114.775,10.906 C114.789667,12.0500057 115.141663,12.988663 115.831,13.722 C116.520337,14.455337 117.414995,14.822 118.515,14.822 C119.23367,14.822 119.871664,14.653335 120.429,14.316 Z M133.981,1.6 L136.093,1.6 L136.093,17 L133.981,17 L133.981,1.6 Z M150.778,2.623 C151.680005,3.30500341 152.131,4.24732732 152.131,5.45 C152.131,6.3300044 151.881669,7.07433029 151.383,7.683 C150.884331,8.29166971 150.202338,8.69866564 149.337,8.904 C150.407672,9.06533414 151.24733,9.49432985 151.856,10.191 C152.46467,10.8876702 152.769,11.7566615 152.769,12.798 C152.769,14.1180066 152.274005,15.1483296 151.284,15.889 C150.293995,16.6296704 148.926342,17 147.181,17 L140.493,17 L140.493,1.6 L147.071,1.6 C148.640341,1.6 149.875995,1.94099659 150.778,2.623 Z M149.172,7.529 C149.692669,7.12566465 149.953,6.55000374 149.953,5.802 C149.953,5.068663 149.692669,4.50400198 149.172,4.108 C148.651331,3.71199802 147.914338,3.52133326 146.961,3.536 L142.605,3.536 L142.605,8.134 L146.961,8.134 C147.914338,8.134 148.651331,7.93233535 149.172,7.529 Z M149.645,14.415 C150.290337,13.9676644 150.613,13.3406707 150.613,12.534 C150.613,11.7566628 150.290337,11.1480022 149.645,10.708 C148.999663,10.2679978 148.105006,10.048 146.961,10.048 L142.605,10.048 L142.605,15.064 L146.961,15.064 C148.105006,15.0786667 148.999663,14.8623356 149.645,14.415 Z M156.157,1.6 L158.665,1.6 L164.297,12.424 L169.885,1.6 L172.415,1.6 L172.415,17 L170.435,17 L170.413,4.702 L164.935,15.372 L163.637,15.372 L158.115,4.702 L158.115,17 L156.157,17 L156.157,1.6 Z M177.728,1.006 C177.955334,1.2260011 178.069,1.5193315 178.069,1.886 C178.069,2.04733414 178.036,2.21599912 177.97,2.392 C177.904,2.56800088 177.834334,2.73666586 177.761,2.898 L176.573,5.406 L175.451,5.406 L176.331,2.92 C176.125666,2.81733282 175.971667,2.67433425 175.869,2.491 C175.766333,2.30766575 175.715,2.1060011 175.715,1.886 C175.715,1.53399824 175.828666,1.24433447 176.056,1.017 C176.283334,0.78966553 176.565665,0.676 176.903,0.676 C177.225668,0.676 177.500666,0.7859989 177.728,1.006 Z M185.868,7.232 C185.288664,7.05599912 184.735003,6.968 184.207,6.968 C183.590997,6.968 183.096002,7.08166553 182.722,7.309 C182.347998,7.53633447 182.161,7.88466432 182.161,8.354 C182.161,8.82333568 182.369998,9.17899879 182.788,9.421 C183.206002,9.66300121 183.840329,9.90866542 184.691,10.158 C185.497671,10.3926678 186.157664,10.6273322 186.671,10.862 C187.184336,11.0966678 187.620665,11.4413311 187.98,11.896 C188.339335,12.3506689 188.519,12.9519963 188.519,13.7 C188.519,14.8000055 188.104671,15.6359971 187.276,16.208 C186.447329,16.7800029 185.417006,17.066 184.185,17.066 C183.319662,17.066 182.480004,16.9266681 181.666,16.648 C180.851996,16.3693319 180.166336,15.9733359 179.609,15.46 L180.379,13.964 C180.863002,14.4040022 181.460663,14.7559987 182.172,15.02 C182.883337,15.2840013 183.57633,15.416 184.251,15.416 C184.92567,15.416 185.468331,15.2913346 185.879,15.042 C186.289669,14.7926654 186.495,14.4113359 186.495,13.898 C186.495,13.3699974 186.278669,12.9740013 185.846,12.71 C185.413331,12.4459987 184.757004,12.1820013 183.877,11.918 C183.099663,11.6979989 182.465336,11.4743345 181.974,11.247 C181.482664,11.0196655 181.064668,10.6860022 180.72,10.246 C180.375332,9.8059978 180.203,9.23400352 180.203,8.53 C180.203,7.44466124 180.598996,6.63066938 181.391,6.088 C182.183004,5.54533062 183.172994,5.274 184.361,5.274 C185.065004,5.274 185.757997,5.37299901 186.44,5.571 C187.122003,5.76900099 187.712331,6.03666498 188.211,6.374 L187.463,7.936 C186.978998,7.6426652 186.447336,7.40800088 185.868,7.232 Z M206.669,6.495 C207.446337,7.29433733 207.835,8.39799296 207.835,9.806 L207.835,17 L205.789,17 L205.789,10.356 C205.789,9.37332842 205.514003,8.60700275 204.964,8.057 C204.413997,7.50699725 203.655005,7.232 202.687,7.232 C201.645661,7.24666674 200.79867,7.58033007 200.146,8.233 C199.49333,8.88566993 199.123,9.73266146 199.035,10.774 L199.035,17 L196.989,17 L196.989,5.362 L199.035,5.362 L199.035,7.826 C199.812337,6.16865838 201.286322,5.32533348 203.457,5.296 C204.821007,5.296 205.891663,5.69566267 206.669,6.495 Z M220.243,6.891 C221.167005,7.95433865 221.629,9.43199054 221.629,11.324 C221.629,11.6173348 221.621667,11.8373326 221.607,11.984 L212.411,11.984 C212.572334,13.0253385 213.008663,13.8539969 213.72,14.47 C214.431337,15.0860031 215.307661,15.394 216.349,15.394 C217.038337,15.394 217.679997,15.2693346 218.274,15.02 C218.868003,14.7706654 219.384998,14.4186689 219.825,13.964 L220.947,15.13 C220.374997,15.7460031 219.685671,16.222665 218.879,16.56 C218.072329,16.897335 217.177672,17.066 216.195,17.066 C215.050994,17.066 214.035338,16.8203358 213.148,16.329 C212.260662,15.8376642 211.571336,15.1446711 211.08,14.25 C210.588664,13.3553289 210.343,12.3360057 210.343,11.192 C210.343,10.0479943 210.588664,9.03233777 211.08,8.145 C211.571336,7.25766223 212.256996,6.56100253 213.137,6.055 C214.017004,5.54899747 215.021661,5.296 216.151,5.296 C217.955009,5.296 219.318995,5.82766135 220.243,6.891 Z M219.781,10.4 C219.722333,9.34399472 219.370337,8.51166971 218.725,7.903 C218.079663,7.29433029 217.229005,6.99 216.173,6.99 C215.146328,6.99 214.292003,7.29799692 213.61,7.914 C212.927997,8.53000308 212.521001,9.35866146 212.389,10.4 L219.781,10.4 Z M222.487,5.362 L224.621,5.362 L227.877,14.976 L231.089,5.362 L233.223,5.362 L236.457,14.976 L239.669,5.362 L241.781,5.362 L237.491,17 L235.357,17 L232.145,7.848 L228.933,17 L226.799,17 L222.487,5.362 Z M255.707,16.23 C254.812329,16.8020029 253.903005,17.088 252.979,17.088 C252.054995,17.088 251.307003,16.8130028 250.735,16.263 C250.162997,15.7129973 249.877,14.8806722 249.877,13.766 L249.877,7.32 L248.227,7.32 L248.227,5.758 L249.877,5.758 L249.877,2.634 L251.945,2.634 L251.945,5.758 L255.509,5.758 L255.509,7.32 L251.945,7.32 L251.945,13.392 C251.945,14.0373366 252.062332,14.4993319 252.297,14.778 C252.531668,15.0566681 252.883664,15.196 253.353,15.196 C253.910336,15.196 254.511663,15.0126685 255.157,14.646 L255.707,16.23 Z M260.8,20.674 C260.19133,21.1286689 259.476337,21.356 258.655,21.356 C258.156331,21.356 257.701669,21.2826674 257.291,21.136 C256.880331,20.9893326 256.484335,20.7620015 256.103,20.454 L256.983,18.848 C257.496336,19.2146685 258.016997,19.398 258.545,19.398 C259.425004,19.398 260.084998,18.8993383 260.525,17.902 L260.965,16.868 L256.147,5.362 L258.303,5.362 L261.999,14.69 L265.497,5.362 L267.587,5.362 L262.263,18.65 C261.896332,19.5446711 261.40867,20.2193311 260.8,20.674 Z M278.873,6.044 C279.723671,6.54266916 280.383664,7.23932886 280.853,8.134 C281.322336,9.02867114 281.557,10.0553275 281.557,11.214 C281.557,12.3580057 281.326002,13.3736622 280.864,14.261 C280.401998,15.1483378 279.749338,15.8376642 278.906,16.329 C278.062662,16.8203358 277.098339,17.066 276.013,17.066 C275.030328,17.066 274.165004,16.8606687 273.417,16.45 C272.668996,16.0393313 272.082335,15.4526705 271.657,14.69 L271.657,21.268 L269.611,21.268 L269.611,5.362 L271.657,5.362 L271.657,7.672 C272.082335,6.90932952 272.66533,6.32266872 273.406,5.912 C274.14667,5.50133128 275.000995,5.296 275.969,5.296 C277.054339,5.296 278.022329,5.54533084 278.873,6.044 Z M277.586,14.756 C278.180003,14.4039982 278.641998,13.9126698 278.972,13.282 C279.302002,12.6513302 279.467,11.940004 279.467,11.148 C279.467,10.3706628 279.298335,9.66666982 278.961,9.036 C278.623665,8.40533018 278.16167,7.91400176 277.575,7.562 C276.98833,7.20999824 276.321004,7.034 275.573,7.034 C274.824996,7.034 274.154003,7.20999824 273.56,7.562 C272.965997,7.91400176 272.500335,8.40533018 272.163,9.036 C271.825665,9.66666982 271.657,10.3706628 271.657,11.148 C271.657,11.9546707 271.825665,12.6696636 272.163,13.293 C272.500335,13.9163365 272.965997,14.4039982 273.56,14.756 C274.154003,15.1080018 274.824996,15.284 275.573,15.284 C276.321004,15.284 276.991997,15.1080018 277.586,14.756 Z M293.173,6.891 C294.097005,7.95433865 294.559,9.43199054 294.559,11.324 C294.559,11.6173348 294.551667,11.8373326 294.537,11.984 L285.341,11.984 C285.502334,13.0253385 285.938663,13.8539969 286.65,14.47 C287.361337,15.0860031 288.237661,15.394 289.279,15.394 C289.968337,15.394 290.609997,15.2693346 291.204,15.02 C291.798003,14.7706654 292.314998,14.4186689 292.755,13.964 L293.877,15.13 C293.304997,15.7460031 292.615671,16.222665 291.809,16.56 C291.002329,16.897335 290.107672,17.066 289.125,17.066 C287.980994,17.066 286.965338,16.8203358 286.078,16.329 C285.190662,15.8376642 284.501336,15.1446711 284.01,14.25 C283.518664,13.3553289 283.273,12.3360057 283.273,11.192 C283.273,10.0479943 283.518664,9.03233777 284.01,8.145 C284.501336,7.25766223 285.186996,6.56100253 286.067,6.055 C286.947004,5.54899747 287.951661,5.296 289.081,5.296 C290.885009,5.296 292.248995,5.82766135 293.173,6.891 Z M292.711,10.4 C292.652333,9.34399472 292.300337,8.51166971 291.655,7.903 C291.009663,7.29433029 290.159005,6.99 289.103,6.99 C288.076328,6.99 287.222003,7.29799692 286.54,7.914 C285.857997,8.53000308 285.451001,9.35866146 285.319,10.4 L292.711,10.4 Z M300.323,2.854 C299.970998,3.17666828 299.795,3.63866366 299.795,4.24 L299.795,5.758 L303.007,5.758 L303.007,7.32 L299.795,7.32 L299.795,17 L297.749,17 L297.749,7.32 L296.231,7.32 L296.231,5.758 L297.749,5.758 L297.749,4.504 C297.749,3.65332908 297.928665,2.93100297 298.288,2.337 C298.647335,1.74299703 299.12033,1.29566817 299.707,0.995 C300.29367,0.69433183 300.92433,0.544 301.599,0.544 C302.244337,0.544 302.918996,0.71999824 303.623,1.072 L303.139,2.744 C302.610997,2.49466542 302.112336,2.37 301.643,2.37 C301.114997,2.37 300.675002,2.53133172 300.323,2.854 Z M311.983,17 L311.983,15.372 C311.117662,16.5160057 309.761009,17.088 307.913,17.088 C307.106329,17.088 306.39867,16.9340015 305.79,16.626 C305.18133,16.3179985 304.712002,15.8926694 304.382,15.35 C304.051998,14.8073306 303.887,14.19867 303.887,13.524 C303.887,12.4826615 304.271996,11.6576697 305.042,11.049 C305.812004,10.4403303 306.886326,10.1286667 308.265,10.114 L311.961,10.114 L311.961,9.564 C311.961,8.74266256 311.708003,8.10833557 311.202,7.661 C310.695997,7.21366443 309.959005,6.99 308.991,6.99 C307.817661,6.99 306.622339,7.40799582 305.405,8.244 L304.547,6.836 C305.383004,6.29333062 306.156663,5.90100121 306.868,5.659 C307.579337,5.41699879 308.426328,5.296 309.409,5.296 C310.861007,5.296 311.982996,5.65166311 312.775,6.363 C313.567004,7.07433689 313.970333,8.06799362 313.985,9.344 L314.007,17 L311.983,17 Z M310.762,14.701 C311.429337,14.2389977 311.828999,13.6266705 311.961,12.864 L311.961,11.698 L308.551,11.698 C307.626995,11.698 306.941336,11.8373319 306.494,12.116 C306.046664,12.3946681 305.823,12.8346637 305.823,13.436 C305.823,14.0373363 306.050331,14.5139982 306.505,14.866 C306.959669,15.2180018 307.56833,15.394 308.331,15.394 C309.284338,15.394 310.094663,15.1630023 310.762,14.701 Z M322.499,7.122 C321.73633,7.122 321.058003,7.29066498 320.464,7.628 C319.869997,7.96533502 319.404335,8.44199692 319.067,9.058 C318.729665,9.67400308 318.561,10.3853293 318.561,11.192 C318.561,11.9986707 318.725998,12.7099969 319.056,13.326 C319.386002,13.9420031 319.840664,14.4223316 320.42,14.767 C320.999336,15.1116684 321.662996,15.284 322.411,15.284 C323.159004,15.284 323.833664,15.1593346 324.435,14.91 C325.036336,14.6606654 325.534998,14.3013357 325.931,13.832 L327.097,15.02 C326.568997,15.6800033 325.898004,16.1859982 325.084,16.538 C324.269996,16.8900018 323.349672,17.066 322.323,17.066 C321.193661,17.066 320.189004,16.8166692 319.309,16.318 C318.428996,15.8193308 317.743336,15.1263378 317.252,14.239 C316.760664,13.3516622 316.515,12.3360057 316.515,11.192 C316.515,10.0479943 316.760664,9.02867114 317.252,8.134 C317.743336,7.23932886 318.428996,6.54266916 319.309,6.044 C320.189004,5.54533084 321.193661,5.296 322.323,5.296 C323.305672,5.296 324.189329,5.44633183 324.974,5.747 C325.758671,6.04766817 326.414997,6.48399714 326.943,7.056 L325.821,8.464 C324.896995,7.56932886 323.789673,7.122 322.499,7.122 Z M338.779,6.891 C339.703005,7.95433865 340.165,9.43199054 340.165,11.324 C340.165,11.6173348 340.157667,11.8373326 340.143,11.984 L330.947,11.984 C331.108334,13.0253385 331.544663,13.8539969 332.256,14.47 C332.967337,15.0860031 333.843661,15.394 334.885,15.394 C335.574337,15.394 336.215997,15.2693346 336.81,15.02 C337.404003,14.7706654 337.920998,14.4186689 338.361,13.964 L339.483,15.13 C338.910997,15.7460031 338.221671,16.222665 337.415,16.56 C336.608329,16.897335 335.713672,17.066 334.731,17.066 C333.586994,17.066 332.571338,16.8203358 331.684,16.329 C330.796662,15.8376642 330.107336,15.1446711 329.616,14.25 C329.124664,13.3553289 328.879,12.3360057 328.879,11.192 C328.879,10.0479943 329.124664,9.03233777 329.616,8.145 C330.107336,7.25766223 330.792996,6.56100253 331.673,6.055 C332.553004,5.54899747 333.557661,5.296 334.687,5.296 C336.491009,5.296 337.854995,5.82766135 338.779,6.891 Z M338.317,10.4 C338.258333,9.34399472 337.906337,8.51166971 337.261,7.903 C336.615663,7.29433029 335.765005,6.99 334.709,6.99 C333.682328,6.99 332.828003,7.29799692 332.146,7.914 C331.463997,8.53000308 331.057001,9.35866146 330.925,10.4 L338.317,10.4 Z" id="Introducing-IBM’s-ne" fill="#FFFFFF"></path>
                    <path d="M37.91,77 L56.63,77 L56.63,72.92 L52.43,72.92 L52.43,39.2 L56.63,39.2 L56.63,35.12 L37.91,35.12 L37.91,39.2 L42.11,39.2 L42.11,72.92 L37.91,72.92 L37.91,77 Z M61.55,77 L61.55,72.92 L65.75,72.92 L65.75,39.2 L61.55,39.2 L61.55,35.12 L83.69,35.12 C93.95,35.12 98.27,39.32 98.27,44.96 C98.27,50.78 93.77,53.66 88.91,54.68 L88.91,55.04 C93.95,55.64 100.01,58.76 100.01,65.36 C100.01,72.74 94.97,77 84.89,77 L61.55,77 Z M76.07,57.62 L76.07,72.62 L82.49,72.62 C86.93,72.62 89.39,70.4 89.39,66.56 L89.39,63.68 C89.39,59.84 86.93,57.62 82.49,57.62 L76.07,57.62 Z M76.07,39.5 L76.07,53.36 L81.41,53.36 C85.61,53.36 87.65,51.44 87.65,47.78 L87.65,45.08 C87.65,41.42 85.61,39.5 81.41,39.5 L76.07,39.5 Z M104.93,77 L118.25,77 L118.25,72.92 L114.05,72.92 L114.05,42.62 L114.41,42.62 L118.07,51.5 L127.19,70.58 L136.31,51.68 L140.03,42.62 L140.39,42.62 L140.39,72.92 L136.19,72.92 L136.19,77 L154.91,77 L154.91,72.92 L150.71,72.92 L150.71,39.2 L154.91,39.2 L154.91,35.12 L138.77,35.12 L130.25,54.68 L130.01,54.68 L120.71,35.12 L104.93,35.12 L104.93,39.2 L109.13,39.2 L109.13,72.92 L104.93,72.92 L104.93,77 Z M173.75,77 L173.75,72.92 L177.95,72.92 L177.95,39.2 L173.75,39.2 L173.75,35.12 L197.57,35.12 C206.63,35.12 211.13,39.14 211.13,46.58 C211.13,54.2 206.03,58.82 196.97,58.82 L188.27,58.82 L188.27,72.92 L194.09,72.92 L194.09,77 L173.75,77 Z M188.27,39.62 L188.27,54.32 L193.97,54.32 C198.17,54.32 200.57,52.46 200.57,48.5 L200.57,45.44 C200.57,41.48 198.17,39.62 193.97,39.62 L188.27,39.62 Z M214.91,77 L231.83,77 L231.83,72.92 L228.23,72.92 L228.23,30.8 L214.91,33.44 L214.91,37.04 L218.51,37.82 L218.51,72.92 L214.91,72.92 L214.91,77 Z M251.57,77.72 C241.43,77.72 235.73,70.76 235.73,61.22 C235.73,50.96 241.79,44.78 251.03,44.78 C260.21,44.78 265.97,50.36 265.97,59.3 L265.97,61.4 L245.99,61.4 L245.99,63.92 C245.99,69.08 249.05,71.72 253.67,71.72 C257.99,71.72 260.69,69.44 261.77,66.74 L265.25,68.78 C263.87,72.68 259.79,77.72 251.57,77.72 Z M245.99,56.66 L245.99,57.5 L256.01,57.5 L256.01,56.66 C256.01,50.96 254.09,49.04 251.09,49.04 C248.09,49.04 245.99,50.9 245.99,56.66 Z M269.09,77 L281.21,77 L281.21,72.92 L278.03,72.92 L283.37,65.3 L283.73,65.3 L289.37,72.92 L285.65,72.92 L285.65,77 L303.59,77 L303.59,72.92 L301.01,72.92 L291.77,60.44 L299.99,49.58 L303.35,49.58 L303.35,45.5 L291.35,45.5 L291.35,49.58 L294.53,49.58 L289.19,57.2 L288.83,57.2 L283.19,49.58 L286.91,49.58 L286.91,45.5 L268.97,45.5 L268.97,49.58 L271.55,49.58 L280.73,62 L272.45,72.92 L269.09,72.92 L269.09,77 Z" id="IBM-Plex" fill="#FFFFFF"></path>
                    <g id="Page-1" transform="translate(140.000000, 104.000000)" fill="#FEFEFE">
                        <polygon id="Fill-1" points="0 1.5763299 11.2830714 1.5763299 11.2830714 0 0 0"></polygon>
                        <polygon id="Fill-2" points="12.9007137 -7.90378007e-06 12.9007137 1.57632199 29.0655049 1.57632199 28.8131093 1.33731168 28.4861423 1.1039921 28.1477027 0.870672509 27.7748456 0.677187973 27.4077247 0.500775601 27.0406038 0.352816838 26.6390654 0.221851203 26.2375269 0.136569416 25.8417247 0.0625900344 25.4459225 -7.90378007e-06"></polygon>
                        <polygon id="Fill-3" points="32.2433951 -7.90378007e-06 32.2433951 1.57632199 41.9778346 1.57632199 41.4156808 -7.90378007e-06"></polygon>
                        <polygon id="Fill-4" points="48.8728236 -7.90378007e-06 48.3106698 1.57632199 57.9590654 1.57632199 57.9590654 -7.90378007e-06"></polygon>
                        <polygon id="Fill-5" points="0 4.62086598 11.2830714 4.62086598 11.2830714 3.06729897 0 3.06729897"></polygon>
                        <polygon id="Fill-6" points="3.22362088 7.69385567 8.04781868 7.69385567 8.04781868 6.10614433 3.22362088 6.10614433"></polygon>
                        <polygon id="Fill-7" points="3.22362088 10.7440825 8.04781868 10.7440825 8.04781868 9.15637113 3.22362088 9.15637113"></polygon>
                        <polygon id="Fill-8" points="30.2070135 3.06729897 30.2930574 3.21525773 30.4708816 3.58515464 30.6200245 3.9948866 30.8093212 4.62086598 12.9007058 4.62086598 12.9007058 3.06729897"></polygon>
                        <polygon id="Fill-9" points="16.124478 7.69385567 20.9429396 7.69385567 20.9429396 6.10614433 16.124478 6.10614433"></polygon>
                        <polygon id="Fill-10" points="30.958472 6.10616014 30.9469995 6.35655189 30.9011093 6.76628385 30.8380104 7.16463436 30.740494 7.55729416 30.6946038 7.69387148 25.7958346 7.69387148 25.7958346 6.10616014"></polygon>
                        <polygon id="Fill-11" points="30.0119646 9.15637113 29.8628217 9.37830928 29.6104261 9.70268041 29.346558 10.0099794 29.065481 10.3002062 28.7557228 10.5676701 28.4861184 10.7440825 16.1244701 10.7440825 16.1244701 9.15637113"></polygon>
                        <polygon id="Fill-12" points="32.2433951 3.06729897 42.4940984 3.06729897 43.0563319 4.62086598 32.2433951 4.62086598"></polygon>
                        <polygon id="Fill-13" points="47.7886698 3.06729107 47.2437247 4.62085808 57.9590654 4.62085808 57.9590654 3.06729107"></polygon>
                        <polygon id="Fill-14" points="35.4728797 6.10616014 43.5610115 6.10616014 44.1231654 7.69387148 35.4728797 7.69387148"></polygon>
                        <polygon id="Fill-15" points="54.8155769 6.10616014 54.8155769 7.69387148 46.1596346 7.69387148 46.7102363 6.10616014"></polygon>
                        <polygon id="Fill-16" points="40.8133571 10.7440746 49.4924038 10.7440746 49.9799066 9.3327756 49.9799066 10.7440746 54.8155769 10.7440746 54.8155769 9.15636323 45.6490275 9.15636323 45.1442363 10.5676622 44.6394451 9.15636323 35.4728956 9.15636323 35.4728956 10.7440746 40.3085659 10.7440746 40.3085659 9.32139416"></polygon>
                        <polygon id="Fill-17" points="0 22.9847457 11.2830714 22.9847457 11.2830714 21.385732 0 21.385732"></polygon>
                        <polygon id="Fill-18" points="0 19.9118351 11.2830714 19.9118351 11.2830714 18.3127423 0 18.3127423"></polygon>
                        <polygon id="Fill-19" points="3.22362088 13.7943093 8.04781868 13.7943093 8.04781868 12.2236701 3.22362088 12.2236701"></polygon>
                        <polygon id="Fill-20" points="3.22362088 16.8616082 8.04781868 16.8616082 8.04781868 15.2738969 3.22362088 15.2738969"></polygon>
                        <polygon id="Fill-21" points="28.4861264 12.223678 28.7557308 12.4171625 29.065489 12.6789357 29.3465659 12.9748533 29.6104341 13.2821522 29.8628297 13.6065234 30.0119725 13.7943172 16.124478 13.7943172 16.124478 12.223678"></polygon>
                        <polygon id="Fill-22" points="16.124478 16.8616082 20.9429396 16.8616082 20.9429396 15.2738969 16.124478 15.2738969"></polygon>
                        <polygon id="Fill-23" points="30.6946038 15.273889 30.740494 15.4275385 30.8380104 15.8201983 30.9011093 16.2128581 30.9469995 16.62259 30.958472 16.8616003 25.7958346 16.8616003 25.7958346 15.273889"></polygon>
                        <polygon id="Fill-24" points="30.8093291 18.3127581 30.740494 18.6371292 30.6200324 19.0184076 30.4708896 19.3996859 30.2930654 19.7695828 30.2070214 19.9118509 12.9007137 19.9118509 12.9007137 18.3127581"></polygon>
                        <polygon id="Fill-25" points="12.9007137 21.3857241 12.9007137 22.9847378 24.9698126 22.9847378 25.3828236 22.9677447 25.7958346 22.9222189 26.180244 22.8482395 26.5817027 22.7628787 26.9832412 22.6263014 27.3503621 22.4840333 27.7232192 22.307621 28.0904198 22.1140574 28.4287797 21.8921983 28.7557467 21.6418065 29.0655049 21.3857241"></polygon>
                        <polygon id="Fill-26" points="35.4728956 13.7943093 40.3085659 13.7943093 40.3085659 12.2236701 35.4728956 12.2236701"></polygon>
                        <polygon id="Fill-27" points="48.4138986 13.7943251 41.8574288 13.7943251 41.3124041 12.2236859 48.9703162 12.2236859"></polygon>
                        <polygon id="Fill-28" points="49.9799066 13.7943093 54.8155769 13.7943093 54.8155769 12.2236701 49.9799066 12.2236701"></polygon>
                        <polygon id="Fill-29" points="35.4728956 16.8616082 40.3085659 16.8616082 40.3085659 15.2738969 35.4728956 15.2738969"></polygon>
                        <polygon id="Fill-30" points="47.9263082 15.273889 47.3756269 16.8616003 42.9128137 16.8616003 42.3621324 15.273889"></polygon>
                        <polygon id="Fill-31" points="49.9799066 16.8616082 54.8155769 16.8616082 54.8155769 15.2738969 49.9799066 15.2738969"></polygon>
                        <polygon id="Fill-32" points="32.2433791 19.9118351 40.3085659 19.9118351 40.3085659 18.3127423 32.2433791 18.3127423"></polygon>
                        <polygon id="Fill-33" points="46.8709473 18.3127581 46.3259225 19.9118509 43.9625819 19.9118509 43.4119005 18.3127581"></polygon>
                        <polygon id="Fill-34" points="49.9799066 19.9118351 57.9590495 19.9118351 57.9590495 18.3127423 49.9799066 18.3127423"></polygon>
                        <polygon id="Fill-35" points="32.2433791 22.9847457 40.3085659 22.9847457 40.3085659 21.385732 32.2433791 21.385732"></polygon>
                        <polygon id="Fill-36" points="49.9799066 22.9847457 57.9590495 22.9847457 57.9590495 21.385732 49.9799066 21.385732"></polygon>
                        <polygon id="Fill-37" points="44.4789173 21.3857241 45.0237827 22.9847378 45.2589695 22.9847378 45.8096508 21.3857241"></polygon>
                    </g>
                </g>
            </g>
        </g>
    </g>
</svg>