<?xml version="1.0" encoding="UTF-8"?>
<svg width="333px" height="128px" viewBox="0 0 333 128" version="1.1" xmlns="http://www.w3.org/2000/svg" xmlns:xlink="http://www.w3.org/1999/xlink">
    <!-- Generator: Sketch 46.2 (44496) - http://www.bohemiancoding.com/sketch -->
    <title>Group 7</title>
    <desc>Created with Sketch.</desc>
    <defs></defs>
    <g id="Page-1" stroke="none" stroke-width="1" fill="none" fill-rule="evenodd">
        <g id="Blog" transform="translate(-391.000000, -766.000000)" fill="#FFFFFF">
            <g id="Group-7" transform="translate(391.000000, 766.000000)">
                <path d="M51.649,2.623 C52.5510045,3.30500341 53.002,4.24732732 53.002,5.45 C53.002,6.3300044 52.7526692,7.07433029 52.254,7.683 C51.7553308,8.29166971 51.0733377,8.69866564 50.208,8.904 C51.278672,9.06533414 52.1183303,9.49432985 52.727,10.191 C53.3356697,10.8876701 53.64,11.7566615 53.64,12.798 C53.64,14.1180066 53.1450049,15.1483296 52.155,15.889 C51.164995,16.6296704 49.7973421,17 48.052,17 L41.364,17 L41.364,1.6 L47.942,1.6 C49.5113412,1.6 50.7469955,1.94099659 51.649,2.623 Z M50.043,7.529 C50.5636693,7.12566465 50.824,6.55000374 50.824,5.802 C50.824,5.068663 50.5636693,4.50400198 50.043,4.108 C49.5223307,3.71199802 48.7853381,3.52133326 47.832,3.536 L43.476,3.536 L43.476,8.134 L47.832,8.134 C48.7853381,8.134 49.5223307,7.93233535 50.043,7.529 Z M50.516,14.415 C51.1613366,13.9676644 51.484,13.3406707 51.484,12.534 C51.484,11.7566628 51.1613366,11.1480022 50.516,10.708 C49.8706634,10.2679978 48.9760057,10.048 47.832,10.048 L43.476,10.048 L43.476,15.064 L47.832,15.064 C48.9760057,15.0786667 49.8706634,14.8623356 50.516,14.415 Z M67.126,5.362 L67.126,17 L65.058,17 L65.058,14.536 C64.2953295,16.1933416 62.8580106,17.0366665 60.746,17.066 C59.3966599,17.066 58.3406705,16.6663373 57.578,15.867 C56.8153295,15.0676627 56.434,13.964007 56.434,12.556 L56.434,5.362 L58.502,5.362 L58.502,12.006 C58.502,12.9886716 58.769664,13.7549972 59.305,14.305 C59.840336,14.8550027 60.5773286,15.13 61.516,15.13 C62.6013388,15.1153333 63.4629968,14.7303371 64.101,13.975 C64.7390032,13.2196629 65.058,12.2553392 65.058,11.082 L65.058,5.362 L67.126,5.362 Z M71.108,5.362 L73.154,5.362 L73.154,17 L71.108,17 L71.108,5.362 Z M73.033,1.094 C73.2750012,1.34333458 73.396,1.65866476 73.396,2.04 C73.396,2.42133524 73.2750012,2.73666542 73.033,2.986 C72.7909988,3.23533458 72.4866685,3.36 72.12,3.36 C71.7533315,3.36 71.4490012,3.23533458 71.207,2.986 C70.9649988,2.73666542 70.844,2.42133524 70.844,2.04 C70.844,1.65866476 70.9649988,1.34333458 71.207,1.094 C71.4490012,0.84466542 71.7533315,0.72 72.12,0.72 C72.4866685,0.72 72.7909988,0.84466542 73.033,1.094 Z M77.246,0.676 L79.292,0.676 L79.292,17 L77.246,17 L77.246,0.676 Z M94.252,0.676 L94.252,17 L92.206,17 L92.206,14.69 C91.7659978,15.4673372 91.1756704,16.0649979 90.435,16.483 C89.6943296,16.9010021 88.8326716,17.11 87.85,17.11 C86.7499945,17.11 85.7783375,16.8570025 84.935,16.351 C84.0916624,15.8449975 83.4353357,15.1410045 82.966,14.239 C82.4966643,13.3369955 82.262,12.3066725 82.262,11.148 C82.262,10.0039943 82.4966643,8.98833777 82.966,8.101 C83.4353357,7.21366223 84.0916624,6.52066916 84.935,6.022 C85.7783375,5.52333084 86.7426612,5.274 87.828,5.274 C88.8253383,5.274 89.6979963,5.47933128 90.446,5.89 C91.1940037,6.30066872 91.7806645,6.89466278 92.206,7.672 L92.206,0.676 L94.252,0.676 Z M90.303,14.822 C90.897003,14.4699982 91.362665,13.9786698 91.7,13.348 C92.037335,12.7173302 92.206,12.006004 92.206,11.214 C92.206,10.4073293 92.037335,9.68866982 91.7,9.058 C91.362665,8.42733018 90.897003,7.93600176 90.303,7.584 C89.708997,7.23199824 89.0306705,7.056 88.268,7.056 C87.5053295,7.056 86.827003,7.23566487 86.233,7.595 C85.638997,7.95433513 85.173335,8.44933018 84.836,9.08 C84.498665,9.71066982 84.33,10.421996 84.33,11.214 C84.33,12.006004 84.498665,12.7173302 84.836,13.348 C85.173335,13.9786698 85.638997,14.4699982 86.233,14.822 C86.827003,15.1740018 87.5053295,15.35 88.268,15.35 C89.0306705,15.35 89.708997,15.1740018 90.303,14.822 Z M107.804,5.967 C108.508004,5.53433117 109.343995,5.31066674 110.312,5.296 L110.312,7.276 C109.123994,7.23199978 108.163337,7.5399967 107.43,8.2 C106.696663,8.8600033 106.278667,9.74732776 106.176,10.862 L106.176,17 L104.13,17 L104.13,5.362 L106.176,5.362 L106.176,7.87 C106.557335,7.03399582 107.099996,6.39966883 107.804,5.967 Z M121.29,6.891 C122.214005,7.95433865 122.676,9.43199054 122.676,11.324 C122.676,11.6173348 122.668667,11.8373326 122.654,11.984 L113.458,11.984 C113.619334,13.0253385 114.055663,13.8539969 114.767,14.47 C115.478337,15.0860031 116.354661,15.394 117.396,15.394 C118.085337,15.394 118.726997,15.2693346 119.321,15.02 C119.915003,14.7706654 120.431998,14.4186689 120.872,13.964 L121.994,15.13 C121.421997,15.7460031 120.732671,16.222665 119.926,16.56 C119.119329,16.897335 118.224672,17.066 117.242,17.066 C116.097994,17.066 115.082338,16.8203358 114.195,16.329 C113.307662,15.8376642 112.618336,15.1446711 112.127,14.25 C111.635664,13.3553289 111.39,12.3360057 111.39,11.192 C111.39,10.0479943 111.635664,9.03233777 112.127,8.145 C112.618336,7.25766223 113.303996,6.56100253 114.184,6.055 C115.064004,5.54899747 116.068661,5.296 117.198,5.296 C119.002009,5.296 120.365995,5.82766135 121.29,6.891 Z M120.828,10.4 C120.769333,9.34399472 120.417337,8.51166971 119.772,7.903 C119.126663,7.29433029 118.276005,6.99 117.22,6.99 C116.193328,6.99 115.339003,7.29799692 114.657,7.914 C113.974997,8.53000308 113.568001,9.35866146 113.436,10.4 L120.828,10.4 Z M130.233,7.232 C129.653664,7.05599912 129.100003,6.968 128.572,6.968 C127.955997,6.968 127.461002,7.08166553 127.087,7.309 C126.712998,7.53633447 126.526,7.88466432 126.526,8.354 C126.526,8.82333568 126.734998,9.17899879 127.153,9.421 C127.571002,9.66300121 128.205329,9.90866542 129.056,10.158 C129.862671,10.3926678 130.522664,10.6273322 131.036,10.862 C131.549336,11.0966678 131.985665,11.4413311 132.345,11.896 C132.704335,12.3506689 132.884,12.9519963 132.884,13.7 C132.884,14.8000055 132.469671,15.6359971 131.641,16.208 C130.812329,16.7800029 129.782006,17.066 128.55,17.066 C127.684662,17.066 126.845004,16.9266681 126.031,16.648 C125.216996,16.3693319 124.531336,15.9733359 123.974,15.46 L124.744,13.964 C125.228002,14.4040022 125.825663,14.7559987 126.537,15.02 C127.248337,15.2840013 127.94133,15.416 128.616,15.416 C129.29067,15.416 129.833331,15.2913346 130.244,15.042 C130.654669,14.7926654 130.86,14.4113359 130.86,13.898 C130.86,13.3699974 130.643669,12.9740013 130.211,12.71 C129.778331,12.4459987 129.122004,12.1820013 128.242,11.918 C127.464663,11.6979989 126.830336,11.4743345 126.339,11.247 C125.847664,11.0196655 125.429668,10.6860022 125.085,10.246 C124.740332,9.8059978 124.568,9.23400352 124.568,8.53 C124.568,7.44466124 124.963996,6.63066938 125.756,6.088 C126.548004,5.54533062 127.537994,5.274 128.726,5.274 C129.430004,5.274 130.122997,5.37299901 130.805,5.571 C131.487003,5.76900099 132.077331,6.03666498 132.576,6.374 L131.828,7.936 C131.343998,7.6426652 130.812336,7.40800088 130.233,7.232 Z M144.962,6.044 C145.812671,6.54266916 146.472664,7.23932886 146.942,8.134 C147.411336,9.02867114 147.646,10.0553275 147.646,11.214 C147.646,12.3580057 147.415002,13.3736622 146.953,14.261 C146.490998,15.1483378 145.838338,15.8376642 144.995,16.329 C144.151662,16.8203358 143.187339,17.066 142.102,17.066 C141.119328,17.066 140.254004,16.8606687 139.506,16.45 C138.757996,16.0393313 138.171335,15.4526705 137.746,14.69 L137.746,21.268 L135.7,21.268 L135.7,5.362 L137.746,5.362 L137.746,7.672 C138.171335,6.90932952 138.75433,6.32266872 139.495,5.912 C140.23567,5.50133128 141.089995,5.296 142.058,5.296 C143.143339,5.296 144.111329,5.54533084 144.962,6.044 Z M143.675,14.756 C144.269003,14.4039982 144.730998,13.9126698 145.061,13.282 C145.391002,12.6513302 145.556,11.940004 145.556,11.148 C145.556,10.3706628 145.387335,9.66666982 145.05,9.036 C144.712665,8.40533018 144.25067,7.91400176 143.664,7.562 C143.07733,7.20999824 142.410004,7.034 141.662,7.034 C140.913996,7.034 140.243003,7.20999824 139.649,7.562 C139.054997,7.91400176 138.589335,8.40533018 138.252,9.036 C137.914665,9.66666982 137.746,10.3706628 137.746,11.148 C137.746,11.9546707 137.914665,12.6696635 138.252,13.293 C138.589335,13.9163364 139.054997,14.4039982 139.649,14.756 C140.243003,15.1080018 140.913996,15.284 141.662,15.284 C142.410004,15.284 143.080997,15.1080018 143.675,14.756 Z M158.437,6.044 C159.339005,6.54266916 160.042997,7.23566223 160.549,8.123 C161.055003,9.01033777 161.308,10.0259943 161.308,11.17 C161.308,12.3140057 161.055003,13.3333289 160.549,14.228 C160.042997,15.1226711 159.339005,15.8193308 158.437,16.318 C157.534995,16.8166692 156.504672,17.066 155.346,17.066 C154.172661,17.066 153.135005,16.8166692 152.233,16.318 C151.330995,15.8193308 150.627003,15.1263378 150.121,14.239 C149.614997,13.3516622 149.362,12.3286725 149.362,11.17 C149.362,10.0259943 149.614997,9.01033777 150.121,8.123 C150.627003,7.23566223 151.330995,6.54266916 152.233,6.044 C153.135005,5.54533084 154.172661,5.296 155.346,5.296 C156.504672,5.296 157.534995,5.54533084 158.437,6.044 Z M153.311,7.606 C152.716997,7.95800176 152.255002,8.44566355 151.925,9.069 C151.594998,9.69233645 151.43,10.399996 151.43,11.192 C151.43,11.9986707 151.594998,12.7173302 151.925,13.348 C152.255002,13.9786698 152.716997,14.4663316 153.311,14.811 C153.905003,15.1556684 154.58333,15.328 155.346,15.328 C156.094004,15.328 156.764997,15.1556684 157.359,14.811 C157.953003,14.4663316 158.414998,13.9786698 158.745,13.348 C159.075002,12.7173302 159.24,11.9986707 159.24,11.192 C159.24,10.399996 159.075002,9.69233645 158.745,9.069 C158.414998,8.44566355 157.953003,7.95800176 157.359,7.606 C156.764997,7.25399824 156.094004,7.078 155.346,7.078 C154.58333,7.078 153.905003,7.25399824 153.311,7.606 Z M173.848,6.495 C174.625337,7.29433733 175.014,8.39799296 175.014,9.806 L175.014,17 L172.968,17 L172.968,10.356 C172.968,9.37332842 172.693003,8.60700275 172.143,8.057 C171.592997,7.50699725 170.834005,7.232 169.866,7.232 C168.824661,7.24666674 167.97767,7.58033007 167.325,8.233 C166.67233,8.88566993 166.302,9.73266146 166.214,10.774 L166.214,17 L164.168,17 L164.168,5.362 L166.214,5.362 L166.214,7.826 C166.991337,6.16865838 168.465322,5.32533348 170.636,5.296 C172.000007,5.296 173.070663,5.69566267 173.848,6.495 Z M183.429,7.232 C182.849664,7.05599912 182.296003,6.968 181.768,6.968 C181.151997,6.968 180.657002,7.08166553 180.283,7.309 C179.908998,7.53633447 179.722,7.88466432 179.722,8.354 C179.722,8.82333568 179.930998,9.17899879 180.349,9.421 C180.767002,9.66300121 181.401329,9.90866542 182.252,10.158 C183.058671,10.3926678 183.718664,10.6273322 184.232,10.862 C184.745336,11.0966678 185.181665,11.4413311 185.541,11.896 C185.900335,12.3506689 186.08,12.9519963 186.08,13.7 C186.08,14.8000055 185.665671,15.6359971 184.837,16.208 C184.008329,16.7800029 182.978006,17.066 181.746,17.066 C180.880662,17.066 180.041004,16.9266681 179.227,16.648 C178.412996,16.3693319 177.727336,15.9733359 177.17,15.46 L177.94,13.964 C178.424002,14.4040022 179.021663,14.7559987 179.733,15.02 C180.444337,15.2840013 181.13733,15.416 181.812,15.416 C182.48667,15.416 183.029331,15.2913346 183.44,15.042 C183.850669,14.7926654 184.056,14.4113359 184.056,13.898 C184.056,13.3699974 183.839669,12.9740013 183.407,12.71 C182.974331,12.4459987 182.318004,12.1820013 181.438,11.918 C180.660663,11.6979989 180.026336,11.4743345 179.535,11.247 C179.043664,11.0196655 178.625668,10.6860022 178.281,10.246 C177.936332,9.8059978 177.764,9.23400352 177.764,8.53 C177.764,7.44466124 178.159996,6.63066938 178.952,6.088 C179.744004,5.54533062 180.733994,5.274 181.922,5.274 C182.626004,5.274 183.318997,5.37299901 184.001,5.571 C184.683003,5.76900099 185.273331,6.03666498 185.772,6.374 L185.024,7.936 C184.539998,7.6426652 184.008336,7.40800088 183.429,7.232 Z M188.786,5.362 L190.832,5.362 L190.832,17 L188.786,17 L188.786,5.362 Z M190.711,1.094 C190.953001,1.34333458 191.074,1.65866476 191.074,2.04 C191.074,2.42133524 190.953001,2.73666542 190.711,2.986 C190.468999,3.23533458 190.164668,3.36 189.798,3.36 C189.431331,3.36 189.127001,3.23533458 188.885,2.986 C188.642999,2.73666542 188.522,2.42133524 188.522,2.04 C188.522,1.65866476 188.642999,1.34333458 188.885,1.094 C189.127001,0.84466542 189.431331,0.72 189.798,0.72 C190.164668,0.72 190.468999,0.84466542 190.711,1.094 Z M192.878,5.362 L195.056,5.362 L198.554,14.976 L202.03,5.362 L204.098,5.362 L199.566,17 L197.432,17 L192.878,5.362 Z M214.79,6.891 C215.714005,7.95433865 216.176,9.43199054 216.176,11.324 C216.176,11.6173348 216.168667,11.8373326 216.154,11.984 L206.958,11.984 C207.119334,13.0253385 207.555663,13.8539969 208.267,14.47 C208.978337,15.0860031 209.854661,15.394 210.896,15.394 C211.585337,15.394 212.226997,15.2693346 212.821,15.02 C213.415003,14.7706654 213.931998,14.4186689 214.372,13.964 L215.494,15.13 C214.921997,15.7460031 214.232671,16.222665 213.426,16.56 C212.619329,16.897335 211.724672,17.066 210.742,17.066 C209.597994,17.066 208.582338,16.8203358 207.695,16.329 C206.807662,15.8376642 206.118336,15.1446711 205.627,14.25 C205.135664,13.3553289 204.89,12.3360057 204.89,11.192 C204.89,10.0479943 205.135664,9.03233777 205.627,8.145 C206.118336,7.25766223 206.803996,6.56100253 207.684,6.055 C208.564004,5.54899747 209.568661,5.296 210.698,5.296 C212.502009,5.296 213.865995,5.82766135 214.79,6.891 Z M214.328,10.4 C214.269333,9.34399472 213.917337,8.51166971 213.272,7.903 C212.626663,7.29433029 211.776005,6.99 210.72,6.99 C209.693328,6.99 208.839003,7.29799692 208.157,7.914 C207.474997,8.53000308 207.068001,9.35866146 206.936,10.4 L214.328,10.4 Z M233.49,6.891 C234.414005,7.95433865 234.876,9.43199054 234.876,11.324 C234.876,11.6173348 234.868667,11.8373326 234.854,11.984 L225.658,11.984 C225.819334,13.0253385 226.255663,13.8539969 226.967,14.47 C227.678337,15.0860031 228.554661,15.394 229.596,15.394 C230.285337,15.394 230.926997,15.2693346 231.521,15.02 C232.115003,14.7706654 232.631998,14.4186689 233.072,13.964 L234.194,15.13 C233.621997,15.7460031 232.932671,16.222665 232.126,16.56 C231.319329,16.897335 230.424672,17.066 229.442,17.066 C228.297994,17.066 227.282338,16.8203358 226.395,16.329 C225.507662,15.8376642 224.818336,15.1446711 224.327,14.25 C223.835664,13.3553289 223.59,12.3360057 223.59,11.192 C223.59,10.0479943 223.835664,9.03233777 224.327,8.145 C224.818336,7.25766223 225.503996,6.56100253 226.384,6.055 C227.264004,5.54899747 228.268661,5.296 229.398,5.296 C231.202009,5.296 232.565995,5.82766135 233.49,6.891 Z M233.028,10.4 C232.969333,9.34399472 232.617337,8.51166971 231.972,7.903 C231.326663,7.29433029 230.476005,6.99 229.42,6.99 C228.393328,6.99 227.539003,7.29799692 226.857,7.914 C226.174997,8.53000308 225.768001,9.35866146 225.636,10.4 L233.028,10.4 Z M255.842,6.506 C256.60467,7.3126707 256.986,8.4126597 256.986,9.806 L256.986,17 L254.918,17 L254.918,10.356 C254.918,9.37332842 254.650336,8.60333612 254.115,8.046 C253.579664,7.48866388 252.842671,7.21 251.904,7.21 C250.803994,7.23933348 249.93867,7.62799626 249.308,8.376 C248.67733,9.12400374 248.362,10.0846608 248.362,11.258 L248.362,17 L246.294,17 L246.294,10.356 C246.294,9.37332842 246.030003,8.60333612 245.502,8.046 C244.973997,7.48866388 244.233338,7.21 243.28,7.21 C242.179994,7.23933348 241.311003,7.62799626 240.673,8.376 C240.034997,9.12400374 239.716,10.0846608 239.716,11.258 L239.716,17 L237.67,17 L237.67,5.362 L239.716,5.362 L239.716,7.804 C240.47867,6.16132512 241.923323,5.32533348 244.05,5.296 C245.120672,5.296 246.011663,5.5526641 246.723,6.066 C247.434337,6.5793359 247.914665,7.29799538 248.164,8.222 C248.88267,6.30065706 250.393322,5.32533348 252.696,5.296 C254.030673,5.296 255.07933,5.6993293 255.842,6.506 Z M267.744,17 L267.744,15.372 C266.878662,16.5160057 265.522009,17.088 263.674,17.088 C262.867329,17.088 262.15967,16.9340015 261.551,16.626 C260.94233,16.3179985 260.473002,15.8926694 260.143,15.35 C259.812998,14.8073306 259.648,14.19867 259.648,13.524 C259.648,12.4826615 260.032996,11.6576697 260.803,11.049 C261.573004,10.4403303 262.647326,10.1286667 264.026,10.114 L267.722,10.114 L267.722,9.564 C267.722,8.74266256 267.469003,8.10833557 266.963,7.661 C266.456997,7.21366443 265.720005,6.99 264.752,6.99 C263.578661,6.99 262.383339,7.40799582 261.166,8.244 L260.308,6.836 C261.144004,6.29333062 261.917663,5.90100121 262.629,5.659 C263.340337,5.41699879 264.187328,5.296 265.17,5.296 C266.622007,5.296 267.743996,5.65166311 268.536,6.363 C269.328004,7.07433689 269.731333,8.06799362 269.746,9.344 L269.768,17 L267.744,17 Z M266.523,14.701 C267.190337,14.2389977 267.589999,13.6266705 267.722,12.864 L267.722,11.698 L264.312,11.698 C263.387995,11.698 262.702336,11.8373319 262.255,12.116 C261.807664,12.3946681 261.584,12.8346637 261.584,13.436 C261.584,14.0373363 261.811331,14.5139982 262.266,14.866 C262.720669,15.2180018 263.32933,15.394 264.092,15.394 C265.045338,15.394 265.855663,15.1630023 266.523,14.701 Z M273.42,5.362 L275.466,5.362 L275.466,17 L273.42,17 L273.42,5.362 Z M275.345,1.094 C275.587001,1.34333458 275.708,1.65866476 275.708,2.04 C275.708,2.42133524 275.587001,2.73666542 275.345,2.986 C275.102999,3.23533458 274.798668,3.36 274.432,3.36 C274.065331,3.36 273.761001,3.23533458 273.519,2.986 C273.276999,2.73666542 273.156,2.42133524 273.156,2.04 C273.156,1.65866476 273.276999,1.34333458 273.519,1.094 C273.761001,0.84466542 274.065331,0.72 274.432,0.72 C274.798668,0.72 275.102999,0.84466542 275.345,1.094 Z M279.558,0.676 L281.604,0.676 L281.604,17 L279.558,17 L279.558,0.676 Z M290.481,7.232 C289.901664,7.05599912 289.348003,6.968 288.82,6.968 C288.203997,6.968 287.709002,7.08166553 287.335,7.309 C286.960998,7.53633447 286.774,7.88466432 286.774,8.354 C286.774,8.82333568 286.982998,9.17899879 287.401,9.421 C287.819002,9.66300121 288.453329,9.90866542 289.304,10.158 C290.110671,10.3926678 290.770664,10.6273322 291.284,10.862 C291.797336,11.0966678 292.233665,11.4413311 292.593,11.896 C292.952335,12.3506689 293.132,12.9519963 293.132,13.7 C293.132,14.8000055 292.717671,15.6359971 291.889,16.208 C291.060329,16.7800029 290.030006,17.066 288.798,17.066 C287.932662,17.066 287.093004,16.9266681 286.279,16.648 C285.464996,16.3693319 284.779336,15.9733359 284.222,15.46 L284.992,13.964 C285.476002,14.4040022 286.073663,14.7559987 286.785,15.02 C287.496337,15.2840013 288.18933,15.416 288.864,15.416 C289.53867,15.416 290.081331,15.2913346 290.492,15.042 C290.902669,14.7926654 291.108,14.4113359 291.108,13.898 C291.108,13.3699974 290.891669,12.9740013 290.459,12.71 C290.026331,12.4459987 289.370004,12.1820013 288.49,11.918 C287.712663,11.6979989 287.078336,11.4743345 286.587,11.247 C286.095664,11.0196655 285.677668,10.6860022 285.333,10.246 C284.988332,9.8059978 284.816,9.23400352 284.816,8.53 C284.816,7.44466124 285.211996,6.63066938 286.004,6.088 C286.796004,5.54533062 287.785994,5.274 288.974,5.274 C289.678004,5.274 290.370997,5.37299901 291.053,5.571 C291.735003,5.76900099 292.325331,6.03666498 292.824,6.374 L292.076,7.936 C291.591998,7.6426652 291.060336,7.40800088 290.481,7.232 Z" id="Build-responsive-ema"></path>
                <path d="M0.8,76 L33.86,76 L33.86,63.46 L26.48,63.46 L26.48,71.5 L15.32,71.5 L15.32,38.2 L19.94,38.2 L19.94,34.12 L0.8,34.12 L0.8,38.2 L5,38.2 L5,71.92 L0.8,71.92 L0.8,76 Z M46.94,40.66 C50.48,40.66 52.64,38.62 52.64,35.38 L52.64,35.08 C52.64,31.84 50.48,29.8 46.94,29.8 C43.46,29.8 41.3,31.84 41.3,35.08 L41.3,35.38 C41.3,38.62 43.46,40.66 46.94,40.66 Z M38.54,76 L55.46,76 L55.46,71.92 L51.86,71.92 L51.86,43.78 L38.54,46.42 L38.54,50.02 L42.14,50.8 L42.14,71.92 L38.54,71.92 L38.54,76 Z M58.64,76 L75.26,76 L75.26,71.92 L71.96,71.92 L71.96,64.84 L75.68,60.94 L81.38,71.92 L78.98,71.92 L78.98,76 L95.12,76 L95.12,71.92 L92.42,71.92 L82.16,55.18 L89,48.58 L93.26,48.58 L93.26,44.5 L79.4,44.5 L79.4,48.58 L83.06,48.58 L75.74,55.96 L72.32,59.98 L71.96,59.98 L71.96,29.8 L58.64,32.44 L58.64,36.04 L62.24,36.82 L62.24,71.92 L58.64,71.92 L58.64,76 Z M113.48,76.72 C103.34,76.72 97.64,69.76 97.64,60.22 C97.64,49.96 103.7,43.78 112.94,43.78 C122.12,43.78 127.88,49.36 127.88,58.3 L127.88,60.4 L107.9,60.4 L107.9,62.92 C107.9,68.08 110.96,70.72 115.58,70.72 C119.9,70.72 122.6,68.44 123.68,65.74 L127.16,67.78 C125.78,71.68 121.7,76.72 113.48,76.72 Z M107.9,55.66 L107.9,56.5 L117.92,56.5 L117.92,55.66 C117.92,49.96 116,48.04 113,48.04 C110,48.04 107.9,49.9 107.9,55.66 Z M156.02,76.72 C149,76.72 146.06,73.36 146.06,67.66 C146.06,61.54 150.98,58.36 160.1,58.36 L164.36,58.36 L164.36,55 C164.36,50.14 162.68,47.68 158.12,47.68 C156.44,47.68 155.36,47.92 154.46,48.28 L154.46,48.64 C155.24,49 156.2,50.02 156.2,51.76 C156.2,54.22 154.58,56.14 151.46,56.14 C148.94,56.14 147.08,54.22 147.08,51.58 C147.08,47.68 151.76,43.78 160.76,43.78 C169.88,43.78 174.08,47.8 174.08,54.58 L174.08,71.92 L177.68,71.92 L177.68,75.46 C176.24,76.24 173.72,76.72 171.32,76.72 C166.76,76.72 165.14,74.32 165.14,71.32 L165.14,71.26 L164.9,71.26 C163.7,73.84 161.66,76.72 156.02,76.72 Z M159.68,71.14 C162.56,71.14 164.36,70 164.36,66.7 L164.36,62.02 L161.12,62.02 C157.52,62.02 155.6,63.7 155.6,66.58 L155.6,67.48 C155.6,70 157.28,71.14 159.68,71.14 Z M195.68,76 L195.68,71.92 L199.88,71.92 L199.88,38.2 L195.68,38.2 L195.68,34.12 L217.82,34.12 C228.08,34.12 232.4,38.32 232.4,43.96 C232.4,49.78 227.9,52.66 223.04,53.68 L223.04,54.04 C228.08,54.64 234.14,57.76 234.14,64.36 C234.14,71.74 229.1,76 219.02,76 L195.68,76 Z M210.2,56.62 L210.2,71.62 L216.62,71.62 C221.06,71.62 223.52,69.4 223.52,65.56 L223.52,62.68 C223.52,58.84 221.06,56.62 216.62,56.62 L210.2,56.62 Z M210.2,38.5 L210.2,52.36 L215.54,52.36 C219.74,52.36 221.78,50.44 221.78,46.78 L221.78,44.08 C221.78,40.42 219.74,38.5 215.54,38.5 L210.2,38.5 Z M254.48,72.28 C257.9,72.28 259.82,70.18 259.82,65.98 L259.82,54.52 C259.82,50.32 257.9,48.22 254.48,48.22 C251.06,48.22 249.14,50.32 249.14,54.52 L249.14,65.98 C249.14,70.18 251.06,72.28 254.48,72.28 Z M254.48,76.72 C245.12,76.72 238.88,70.72 238.88,60.28 C238.88,49.78 245.12,43.78 254.48,43.78 C263.84,43.78 270.08,49.78 270.08,60.22 C270.08,70.72 263.84,76.72 254.48,76.72 Z M288.68,76.72 C296.12,76.72 301.22,73.18 301.22,66.46 C301.22,60.28 297.62,57.88 290.66,56.08 L288.08,55.42 C284.72,54.58 283.76,53.5 283.76,51.46 C283.76,49.48 285.26,48.28 288.2,48.28 C292.46,48.28 294.32,49.84 294.32,52.9 L294.32,53.86 L300.5,53.86 L300.5,44.5 L294.32,44.5 L294.32,47.74 L294.08,47.74 C293.54,45.76 291.26,43.78 286.88,43.78 C279.92,43.78 275.24,47.38 275.24,53.8 C275.24,59.32 278.54,62.5 285.74,64.3 L288.56,65.02 C291.56,65.8 292.76,66.76 292.76,68.68 C292.76,71.02 291.14,72.22 287.24,72.22 C282.86,72.22 281,70.66 281,67.6 L281,66.64 L274.82,66.64 L274.82,76 L281,76 L281,72.76 L281.24,72.76 C281.78,74.74 284.06,76.72 288.68,76.72 Z M320,76.72 C327.44,76.72 332.54,73.18 332.54,66.46 C332.54,60.28 328.94,57.88 321.98,56.08 L319.4,55.42 C316.04,54.58 315.08,53.5 315.08,51.46 C315.08,49.48 316.58,48.28 319.52,48.28 C323.78,48.28 325.64,49.84 325.64,52.9 L325.64,53.86 L331.82,53.86 L331.82,44.5 L325.64,44.5 L325.64,47.74 L325.4,47.74 C324.86,45.76 322.58,43.78 318.2,43.78 C311.24,43.78 306.56,47.38 306.56,53.8 C306.56,59.32 309.86,62.5 317.06,64.3 L319.88,65.02 C322.88,65.8 324.08,66.76 324.08,68.68 C324.08,71.02 322.46,72.22 318.56,72.22 C314.18,72.22 312.32,70.66 312.32,67.6 L312.32,66.64 L306.14,66.64 L306.14,76 L312.32,76 L312.32,72.76 L312.56,72.76 C313.1,74.74 315.38,76.72 320,76.72 Z" id="Like-a-Boss"></path>
                <g id="Page-1" transform="translate(120.000000, 99.000000)">
                    <path d="M62.1283948,8.50020313 L62.1429229,8.53511661 C62.2959865,8.93934931 62.3577308,9.38449625 62.641547,9.77399982 C62.7307909,9.70253628 62.7997992,9.64689291 62.8688076,9.59124954 L62.900458,9.5737928 C62.9502685,9.50887554 63.0000791,9.44395828 63.0493707,9.37904102 L63.048333,9.38067759 C66.0447476,7.39224549 68.1347144,7.53462705 70.5240632,9.91801795 C70.813068,9.68071535 71.1005163,9.42868363 71.4040492,9.20120045 C73.0254857,7.98413817 74.8082875,7.79866028 76.695899,8.3021782 L76.6969367,8.3021782 C77.6049412,8.69113625 78.3583254,9.29503044 78.9648724,10.1034958 L78.9622781,10.0996772 C79.114304,10.3806216 79.265811,10.6615661 79.4178369,10.9430561 L79.4157614,10.9370553 C79.8728768,12.2812245 80.0264593,13.6652169 79.9963654,15.0901235 C79.9605641,16.7583335 79.9896202,18.42818 79.9839128,20.097481 C79.9833939,20.3135082 79.9434417,20.5295354 79.9216496,20.7455626 L79.8962255,20.7815671 C78.9710987,21.190164 78.0023877,20.8824889 77.0570254,20.9735913 C76.8557078,20.9926846 76.6974556,20.8830344 76.5340148,20.7875679 L76.5262319,20.7766574 C76.3617534,20.2545917 76.5091095,19.7079774 76.4136394,19.1804565 C76.4136394,17.9868517 76.4136394,16.7932469 76.4141582,15.6001877 C76.4395823,14.7868126 76.5449109,13.9690733 76.2828867,13.1737005 L76.2989714,13.1797012 C76.2699152,12.916759 76.2112841,12.6663639 76.0239757,12.470521 L76.0302021,12.4797949 C76.0089288,12.3155924 75.9155341,12.2053968 75.7853003,12.1246593 C75.4729468,11.7373378 75.0957358,11.4923979 74.591923,11.5251293 C74.3994261,11.4127515 74.1975897,11.4067508 73.989527,11.4678494 C73.7830208,11.4918524 73.5734015,11.4989442 73.3700085,11.5425861 C72.2570545,11.7815252 71.689422,12.5114353 71.6909786,13.6766729 C71.6940918,15.8254888 71.6961672,17.9743047 71.693054,20.1231206 C71.6920163,20.7859313 71.5109343,20.9752279 70.8857084,20.9845018 C70.3559527,20.9921391 69.8261969,20.9850473 69.2959224,20.9817741 C68.4029649,20.9763189 68.2903723,20.8541217 68.2903723,19.9027292 C68.2898534,17.8935673 68.2981552,15.8838598 68.2825894,13.8746978 C68.2774008,13.0945996 68.0947622,12.3537791 67.4467065,11.8791739 C66.6621906,11.3052835 65.7806481,11.3052835 64.9624064,11.7264274 C64.1249668,12.1579362 63.577051,12.8703896 63.5827585,13.9407061 C63.5936545,15.9498681 63.580683,17.9595756 63.5874282,19.9687375 C63.5879471,20.3396933 63.5562966,20.6833729 63.2693672,20.9435875 C62.5118321,20.954498 61.7548158,20.9708637 60.9977996,20.9752279 C60.1427188,20.9801376 60.0010701,20.8361194 60.0005513,19.9469166 C59.9989947,16.501392 60.0010701,13.056413 60.0026267,9.61034286 C60.0026267,9.39158805 59.9984758,9.17119667 60.0150794,8.95353291 C60.0389469,8.6382205 60.2060197,8.4101918 60.5054018,8.38891639 C61.048129,8.35182082 61.6012334,8.24544379 62.1283948,8.50020313" id="Fill-38"></path>
                    <path d="M30.2373416,20.8984675 C30.2072554,20.8771691 30.1776879,20.8564168 30.1476016,20.8356645 C30.1040284,20.7788688 30.060974,20.7226192 30.0179195,20.6658234 L30.0002828,20.6204961 C30.0008015,20.5609698 30.0023577,20.5008974 30.0023577,20.4413711 C30.0013202,16.7354497 29.9992453,13.0289822 30.0002828,9.32306085 C30.0008015,8.46784822 30.1398207,8.32640501 30.9656363,8.3302278 C31.3235589,8.33186614 31.6856313,8.28926934 32.035773,8.41269083 L32.0388853,8.41487528 C32.2998057,8.82500598 32.329892,9.35309705 32.6323106,9.76377386 C34.7067055,7.86548581 36.9387937,7.4165811 39.3965289,8.82391376 C39.3965289,8.82391376 39.3835606,8.8129915 39.3840794,8.8129915 C39.5516286,9.00686154 39.739927,9.17233372 39.9666114,9.28647129 L39.9624615,9.2826485 C40.1051118,9.53986762 40.2991163,9.74029102 40.5408437,9.91340877 C40.6482205,9.81292402 40.7322545,9.735376 40.8157697,9.65618965 C43.263649,7.31609635 47.3325545,7.40948164 49.0951936,10.3104328 L49.098306,10.3202628 C49.2793422,10.7276629 49.4598597,11.1350631 49.6403772,11.5424632 L49.6336337,11.5337254 C49.6886189,11.7701922 49.7436041,12.0072052 49.7980706,12.243672 C49.8208946,12.3234045 49.8437187,12.403137 49.8665427,12.4828694 C50.0984143,14.9867966 49.950058,17.4972771 49.9848128,20.005027 C49.9962248,20.8176428 49.8390501,20.9672777 49.0526579,20.9738311 C48.4473018,20.9782 47.8419458,20.9809305 47.2365898,20.9738311 C46.5918104,20.9661855 46.4310046,20.8018055 46.4252986,20.1186184 C46.4159615,18.9237237 46.4278922,17.7277366 46.42063,16.5328419 C46.414924,15.5372783 46.4346357,14.538438 46.3703134,13.5466971 C46.2971727,12.4189742 45.6783297,11.691552 44.7669239,11.5271721 C44.2616824,11.343132 43.7522912,11.4190417 43.257943,11.5468321 C42.1644636,11.8302647 41.6815274,12.5271046 41.6846398,13.7039776 C41.691902,15.8125191 41.6841211,17.9210606 41.6882709,20.029602 C41.6887896,20.3146729 41.6462539,20.5828143 41.5269464,20.8373029 L41.4776672,20.847679 C41.4776672,20.847679 41.4678113,20.8979214 41.4672926,20.8979214 C40.490527,21.0459179 39.5111678,21.0005906 38.5323274,20.9295959 C38.4648927,20.8596935 38.3979767,20.7903372 38.3315795,20.7209808 C38.2050097,18.8194161 38.3082367,16.9156669 38.2765943,15.0135561 C38.2662197,14.3604052 38.3180925,13.7039776 38.1469122,13.0628412 C38.1277192,13.0158755 38.1085263,12.9694559 38.0893333,12.9230363 L38.0986704,12.9350508 C38.0965955,12.8318355 38.0742902,12.7389963 37.9861064,12.6772856 L38.0021869,12.6925767 C37.9861064,12.5309274 37.9197091,12.3993142 37.7926207,12.3042906 L37.7905458,12.2971911 C37.700287,12.0585398 37.5327377,11.9050821 37.3086471,11.8149735 L37.316428,11.8182502 C37.1945268,11.6434941 37.0150468,11.5872445 36.8231173,11.5593927 C36.325138,11.4184956 35.8266401,11.4206801 35.3281421,11.556116 C34.1734527,11.9553245 33.5400853,12.8651484 33.5395666,14.1277612 C33.5390478,16.0757455 33.5369729,18.0237298 33.5390478,19.9722602 C33.5395666,20.2726222 33.5343793,20.5686154 33.380317,20.8362106 L33.3880979,20.8285651 C32.3428602,21.1059904 31.2893228,20.983115 30.2373416,20.8984675" id="Fill-39"></path>
                    <path d="M0.259106267,23.6928455 C0.239442985,23.580867 0.245288825,23.4590839 0.128372009,23.3858077 C0.13474929,23.2887941 0.12890345,23.1953927 0.0364328769,23.131921 L0.0433415978,23.1185042 C-0.111838903,22.1602367 0.148566732,21.3273645 0.842627467,20.6255639 C0.912777557,20.5662205 0.982927646,20.506877 1.05360918,20.4480496 C1.71418919,20.0847646 2.425256,19.9960074 3.17883803,20.0001357 C6.76552708,20.0171647 10.3527476,20.0135525 13.9394366,20.0016838 C14.5925765,19.9991036 15.2122356,20.0785722 15.7915053,20.3814818 L15.8058542,20.3804497 C16.0418135,20.5976983 16.2772415,20.8154629 16.5132009,21.0327115 L16.5211725,21.0430321 C16.6306491,21.232931 16.7401258,21.4233461 16.8496025,21.6132451 C16.8496025,21.6132451 16.8379108,21.5848634 16.8384422,21.5848634 C16.8596998,21.7644418 16.8708601,21.9460843 17,22.0931529 C16.9994686,22.38987 16.9994686,22.6865872 16.9989371,22.9833044 C16.8751116,23.2629926 16.751286,23.5431968 16.6269291,23.822885 C16.5971684,23.8677796 16.5674078,23.9121582 16.5371157,23.9565367 C16.4393307,23.9942069 16.4005356,24.0695473 16.3941583,24.1670769 C16.3941583,24.1670769 16.4196674,24.1521121 16.4196674,24.151596 C16.3766208,24.1923624 16.3341056,24.2331287 16.2910589,24.2738951 C16.1821137,24.3002126 16.0960204,24.3533637 16.0593511,24.4637941 C15.9009819,24.5117849 15.7697162,24.5979619 15.6676797,24.7259373 L15.6304789,24.7243892 L15.6070956,24.7527708 C15.5582031,24.7806364 15.5082477,24.8085021 15.4582923,24.8368837 L15.456698,24.8152104 C14.9922194,24.9720835 14.5117976,24.9927247 14.0255299,24.9922087 C10.3405244,24.9896285 6.65551898,24.9849843 2.97051352,24.9999491 C2.29345887,25.0025293 1.66051374,24.9075798 1.0764611,24.5685482 C1.03926029,24.5473909 1.00259093,24.5257177 0.965921564,24.5045605 C0.730493612,24.2341608 0.49453422,23.9632451 0.259106267,23.6928455" id="Fill-40"></path>
                    <path d="M24.8717648,13.5560026 C25.217144,14.8625951 24.8760287,15.9307773 23.7125058,16.7139035 C23.6389528,16.7496651 23.5648668,16.7859449 23.4907808,16.8222247 C23.0014936,16.9512773 22.5052774,17.0005142 21.9968025,16.999996 C18.2690519,16.9937766 14.5418343,16.9942948 10.8140837,16.9989594 C10.1361171,16.9994777 9.50398781,16.8844188 8.9614013,16.4557984 C7.75737091,15.5047483 7.67049311,13.7519138 8.77858482,12.7018716 C8.8889143,12.59666 8.99977677,12.4919668 9.11010625,12.3867552 C9.72837772,12.0742303 10.3866236,11.9990792 11.0789811,12.0021889 C14.7273157,12.0172192 18.3756504,12.0229203 22.0234521,12.0001158 C22.8570526,11.994933 23.5947144,12.1628568 24.2423005,12.6744025 L24.2359046,12.6707746 C24.4096602,12.8796428 24.5834158,13.0890293 24.7566384,13.2973792 L24.7502425,13.2870135 C24.7912829,13.3766766 24.8312573,13.4663396 24.8717648,13.5560026" id="Fill-41"></path>
                    <path d="M0.08478151,7.30544943 C-0.323436116,5.30338297 0.763902358,4.00929512 2.88482444,4.00413117 C6.62637582,3.99586883 10.367395,4.00309837 14.1084141,4 C14.5368564,4 14.9562507,4.05009039 15.3719195,4.14252524 C16.2777688,4.60521586 16.8158497,5.32868636 16.9978711,6.3046744 C16.9984033,6.41208472 16.9994678,6.51949505 17,6.62690537 C16.9047315,7.15569466 16.689712,7.63904111 16.4102932,8.09914976 L16.4134865,8.09501859 C15.6955132,8.7931857 14.8247908,9.00852274 13.8194152,8.99974401 C10.3051245,8.96979306 6.79030155,8.98218655 3.27601082,8.99251447 C2.63095246,8.99406366 1.99919976,8.96049793 1.38501053,8.75703799 L1.39831619,8.76530032 C1.31635333,8.72089029 1.23439047,8.67699664 1.15242761,8.63258661 L1.17105553,8.64343092 C0.95124604,8.44461854 0.73143655,8.24580616 0.512159285,8.04751018 C0.512159285,8.04751018 0.507901474,8.04131343 0.507901474,8.04079703 C0.408375143,7.90446855 0.309381038,7.76814006 0.209854707,7.63232797 C0.218902555,7.59566387 0.210386933,7.56261454 0.184307841,7.53421277 C0.151309806,7.45830259 0.117779545,7.38187601 0.08478151,7.30544943" id="Fill-42"></path>
                    <path d="M83,0.675224044 C83.0139295,0.565939444 83.0282812,0.456654844 83.0426328,0.347370244 C83.0531855,0.310596753 83.0637381,0.273823262 83.0747129,0.237049771 L83.067115,0.249998184 C83.2553747,0.0697562843 83.4634734,-0.00586244357 83.7074512,0.000352794342 C84.3824002,0.0179626351 85.0581933,0.0127832702 85.7339865,0.0164088256 C85.8141868,0.130354854 85.893965,0.244300882 85.9745874,0.358764847 C85.9830296,0.546775794 85.9990696,0.735304677 85.9990696,0.92383356 C86.000336,7.29756003 86.0007581,13.6712865 85.9973812,20.0439771 C85.9973812,20.2868893 85.9513716,20.5292836 85.9268894,20.7716779 L85.9268894,20.7721958 C85.7369412,20.9570991 85.522933,21.0078569 85.2814879,20.999052 C84.8205471,20.982478 84.3591843,20.9959444 83.8973993,20.9964623 C83.1038383,20.9974982 83.0333464,20.9141104 83.0333464,19.9232979 C83.0308138,13.732921 83.0303917,7.54202606 83.0274369,1.35113117 C83.0274369,1.12582879 83.0092864,0.900526418 83,0.675224044" id="Fill-43"></path>
                    <path d="M20.4889392,4.14818001 C21.5855391,3.86230377 22.5969057,3.93611181 23.4019453,4.85247511 C24.0708193,5.61290592 24.0942065,6.49548384 23.8795639,7.42120309 C23.6493299,7.82818691 23.3655652,8.19514805 23.0360655,8.52676449 L23.0449006,8.52208651 C22.0475663,9.15465267 21.0387983,9.14425717 20.0191162,8.57978154 L20.0237937,8.58341996 C19.9567504,8.52624471 19.8891873,8.46854969 19.8216243,8.41085467 C19.8216243,8.41085467 19.8470904,8.43996207 19.8465706,8.43996207 C19.7997962,8.39370209 19.7530218,8.34744212 19.7057277,8.30118214 L19.7270361,8.30741944 C18.877301,7.31257012 18.7832325,6.23767545 19.3881815,5.08949251 C19.3881815,5.08949251 19.3673928,5.10664508 19.3679126,5.10664508 L19.4775726,4.95123236 L19.467698,4.96838494 C19.7098854,4.75215854 19.9525926,4.53593215 20.1952998,4.31918598 C20.1952998,4.31918598 20.1755506,4.33166058 20.1755506,4.3311408 C20.2805332,4.26980736 20.3844763,4.20899368 20.4889392,4.14818001" id="Fill-44"></path>
                    <path d="M92.8740294,16.2105488 C92.9151879,16.3780092 92.9568422,16.5454697 92.9984966,16.7129302 C93.0178361,17.3555226 92.8517146,17.9371753 92.4351711,18.4375749 L92.4376506,18.436584 C92.4004592,18.4697788 92.3627719,18.5024782 92.3255805,18.5351776 C92.0677203,18.6778658 91.8098601,18.820554 91.5524957,18.9632423 L91.5396027,18.9568015 C90.0702953,19.2139375 89.1781981,18.2810142 89.0205067,17.2757559 C88.9312473,16.7045076 89.1469573,16.2189713 89.4048176,15.7388849 C89.5158958,15.6308779 89.6259823,15.5233663 89.7370606,15.4158547 L89.7340852,15.417341 C89.9582253,15.3118112 90.1744312,15.1775455 90.4089848,15.1047151 C91.3710018,14.8044753 92.1083829,15.1428644 92.8740294,16.2105488" id="Fill-45"></path>
                    <path d="M56.8008348,8.12882658 C56.990947,8.3823839 57,8.67879598 57,8.97826912 C56.9959765,13.7004554 56.9944676,18.4226416 56.9859176,23.1453381 C56.9849117,23.5713348 56.9421616,23.9978417 56.9190263,24.4238384 C56.6645374,25.5130635 56.3144895,26.5543321 55.5334199,27.3951016 C55.218075,27.7348786 54.8398623,27.9935377 54.4943409,28.2930109 L54.4923291,28.2986228 C53.1343846,29.0072568 51.697981,29.1281685 50.2127921,28.8863452 C50.1635037,28.8700196 50.1137124,28.8542041 50.0639211,28.8378785 C49.5650022,28.6123808 49.0318833,28.4695316 48.5656556,28.1669975 C47.9460306,27.7654892 47.8861804,27.596621 48.1426811,26.8930887 C48.2955756,26.6951406 48.4167847,26.4808668 48.4685878,26.2308807 L48.4685878,26.2278196 C48.6023704,26.1114996 48.6707706,25.9599774 48.6989354,25.7860075 C48.6989354,25.7860075 48.6949118,25.7880482 48.6944089,25.787538 C48.7396737,25.7084608 48.7849385,25.6298937 48.8302034,25.5503063 C48.9051418,25.4145996 48.9795773,25.2788928 49.0545157,25.1431861 C49.0545157,25.1431861 49.0268538,25.1569608 49.0273568,25.1569608 C49.1048099,25.1135959 49.1832689,25.0707411 49.2607221,25.0278864 L49.2727927,25.0431917 C49.6132847,25.0283966 49.8682765,25.2834844 50.1851302,25.3416444 C50.4542044,25.5416333 50.7539581,25.6508109 51.0894207,25.6513211 C51.4555628,25.7921296 51.8046048,25.7390713 52.143588,25.5584691 L52.1717528,25.5625505 L52.1888528,25.5390824 C52.3457709,25.5370417 52.4644653,25.4696985 52.5419184,25.3309308 L52.536386,25.3350122 C52.7315277,25.3059321 52.8416721,25.1885917 52.8768781,24.9952351 L52.8703398,25.0018674 C52.9628812,24.9671755 53.0146843,24.8988119 53.0322873,24.8018786 C53.0322873,24.8018786 53.0141813,24.8131024 53.0146843,24.8125922 C53.0418432,24.7580034 53.0700079,24.7029045 53.0976698,24.6483157 L53.0906286,24.6656616 C53.1816612,24.6110728 53.20027,24.5223023 53.2012759,24.4248587 C53.278729,24.3712903 53.2832555,24.2932334 53.2726937,24.2095646 C53.4980119,23.6779615 53.4441971,23.1126868 53.445203,22.558636 C53.4532501,18.04052 53.4502324,13.5213837 53.4547589,9.00326773 C53.4557648,8.12270447 53.5709386,7.99975213 54.4500819,8.02475074 C55.2341692,8.04668829 56.0258005,7.9038391 56.8008348,8.12882658" id="Fill-46"></path>
                    <path d="M19.7909842,20.641818 C19.85171,20.588895 19.9129548,20.5364859 19.9741996,20.4830491 C21.0823155,19.784774 22.1587709,19.8556805 23.205642,20.6171549 C23.2201747,20.6495252 23.2450878,20.6649397 23.2814195,20.6628844 C23.9976724,21.4813923 24.1435181,22.4191054 23.8731066,23.4436532 L23.8715496,23.4508467 C23.6250132,23.7786609 23.3784769,24.1075027 23.1319406,24.4363445 L23.1002801,24.4306926 L23.0888616,24.4604939 C22.6928464,24.6665338 22.3004644,24.8813086 21.8525468,24.9630053 C21.7720982,24.9758507 21.6921685,24.9876684 21.6117198,25 C21.2364656,24.9321764 20.8617303,24.8638389 20.4859571,24.7955015 L20.4916664,24.7908771 C18.8987822,23.7529701 18.5925581,22.5367691 19.5205728,20.9310961 C19.6103639,20.8350126 19.700674,20.7384153 19.7909842,20.641818" id="Fill-47"></path>
                </g>
            </g>
        </g>
    </g>
</svg>