<?xml version="1.0" encoding="utf-8"?>
<!-- Generator: Adobe Illustrator 22.0.1, SVG Export Plug-In . SVG Version: 6.00 Build 0)  -->
<svg version="1.1" id="Layer_1" xmlns="http://www.w3.org/2000/svg" xmlns:xlink="http://www.w3.org/1999/xlink" x="0px" y="0px"
	 viewBox="0 0 760 500" style="enable-background:new 0 0 760 500;" xml:space="preserve">
<style type="text/css">
	.st0{fill:url(#SVGID_1_);}
	.st1{opacity:0.3;fill:#FFFFFF;}
	.st2{fill:#FFFFFF;}
	.st3{font-family:'IBMPlexSerif';}
	.st4{font-size:22px;}
	.st5{fill:url(#SVGID_2_);}
	.st6{fill:url(#SVGID_3_);}
	.st7{fill:none;stroke:#FFFFFF;stroke-width:3;stroke-miterlimit:10;}
	.st8{opacity:0.6;fill:#FFFFFF;}
	.st9{opacity:0.8;fill:#FFFFFF;}
</style>
<linearGradient id="SVGID_1_" gradientUnits="userSpaceOnUse" x1="380.1646" y1="500" x2="380.1646" y2="0.368">
	<stop  offset="0" style="stop-color:#E4505D"/>
	<stop  offset="1" style="stop-color:#F46D4C"/>
</linearGradient>
<rect x="0.3" y="0.4" class="st0" width="759.7" height="499.6"/>
<path class="st1" d="M413.4,194.6c0,0-50.4,63.4-25.4,106.4s-34.3,97.7-34.3,97.7h121.6l1.7-196.1c0-4.7-3.8-8.6-8.6-8.5
	L413.4,194.6z"/>
<text transform="matrix(1 0 0 1 308.0705 68.3198)" class="st2 st3 st4">Introducing...</text>
<g>
	<path class="st2" d="M420.5,99.6C420.5,99.6,420.6,99.7,420.5,99.6c0.4,1.1,0.6,2.2,1.3,3.2c0.2-0.2,0.4-0.3,0.6-0.5
		c0,0,0.1,0,0.1,0c0.1-0.2,0.3-0.3,0.4-0.5c0,0,0,0,0,0c7.8-4.9,13.3-4.6,19.5,1.3c0.8-0.6,1.5-1.2,2.3-1.8c4.2-3,8.9-3.5,13.8-2.2
		c0,0,0,0,0,0c2.4,1,4.3,2.5,5.9,4.5c0,0,0,0,0,0c0.4,0.7,0.8,1.4,1.2,2.1c0,0,0,0,0,0c1.2,3.3,1.6,6.8,1.5,10.3
		c-0.1,4.1,0,8.3,0,12.4c0,0.5-0.1,1.1-0.2,1.6c0,0-0.1,0.1-0.1,0.1c-2.4,1-4.9,0.3-7.4,0.5c-0.5,0-0.9-0.2-1.4-0.5c0,0,0,0,0,0
		c-0.4-1.3,0-2.6-0.3-4c0-3,0-5.9,0-8.9c0.1-2,0.3-4-0.3-6l0,0c-0.1-0.7-0.2-1.3-0.7-1.8l0,0c-0.1-0.4-0.3-0.7-0.6-0.9
		c-0.8-1-1.8-1.6-3.1-1.5c-0.5-0.3-1-0.3-1.6-0.1c-0.5,0.1-1.1,0.1-1.6,0.2c-2.9,0.6-4.4,2.4-4.4,5.3c0,5.3,0,10.7,0,16
		c0,1.6-0.5,2.1-2.1,2.1c-1.4,0-2.8,0-4.1,0c-2.3,0-2.6-0.3-2.6-2.7c0-5,0-10,0-14.9c0-1.9-0.5-3.8-2.2-4.9c-2-1.4-4.3-1.4-6.5-0.4
		c-2.2,1.1-3.6,2.8-3.6,5.5c0,5,0,10,0,14.9c0,0.9-0.1,1.8-0.8,2.4c-2,0-3.9,0.1-5.9,0.1c-2.2,0-2.6-0.3-2.6-2.5
		c0-8.5,0-17.1,0-25.6c0-0.5,0-1.1,0-1.6c0.1-0.8,0.5-1.3,1.3-1.4C417.7,99.2,419.2,99,420.5,99.6z"/>
	<path class="st2" d="M335.9,130.3c-0.1-0.1-0.2-0.1-0.2-0.2c-0.1-0.1-0.2-0.3-0.3-0.4l0-0.1c0-0.1,0-0.3,0-0.4c0-9.2,0-18.4,0-27.5
		c0-2.1,0.4-2.5,2.5-2.5c0.9,0,1.9-0.1,2.8,0.2c0,0,0,0,0,0c0.7,1,0.8,2.3,1.5,3.3c5.4-4.7,11.2-5.8,17.6-2.3c0,0,0,0,0,0
		c0.4,0.5,0.9,0.9,1.5,1.2c0,0,0,0,0,0c0.4,0.6,0.9,1.1,1.5,1.6c0.3-0.2,0.5-0.4,0.7-0.6c6.4-5.8,17-5.6,21.6,1.6l0,0
		c0.5,1,0.9,2,1.4,3c0,0,0,0,0,0c0.1,0.6,0.3,1.2,0.4,1.8c0.1,0.2,0.1,0.4,0.2,0.6c0.6,6.2,0.2,12.4,0.3,18.6c0,2-0.4,2.4-2.4,2.4
		c-1.6,0-3.2,0-4.7,0c-1.7,0-2.1-0.4-2.1-2.1c0-3,0-5.9,0-8.9c0-2.5,0-4.9-0.1-7.4c-0.2-2.8-1.8-4.6-4.2-5c-1.3-0.5-2.6-0.3-3.9,0
		c-2.9,0.7-4.1,2.4-4.1,5.3c0,5.2,0,10.4,0,15.7c0,0.7-0.1,1.4-0.4,2l-0.1,0c0,0,0,0.1,0,0.1c-2.5,0.4-5.1,0.3-7.7,0.1
		c-0.2-0.2-0.3-0.3-0.5-0.5c-0.3-4.7-0.1-9.4-0.1-14.1c0-1.6,0.1-3.2-0.3-4.8c-0.1-0.1-0.1-0.2-0.2-0.3c0,0,0,0,0,0
		c0-0.3-0.1-0.5-0.3-0.6l0,0c0-0.4-0.2-0.7-0.5-1l0,0c-0.2-0.6-0.7-1-1.3-1.2l0,0c-0.3-0.4-0.8-0.6-1.3-0.6c-1.3-0.3-2.6-0.3-3.9,0
		c-3,1-4.7,3.2-4.7,6.4c0,4.8,0,9.6,0,14.5c0,0.7,0,1.5-0.4,2.1c0,0,0,0,0,0C341.4,130.9,338.6,130.6,335.9,130.3z"/>
	<path class="st2" d="M257,138.7c-0.1-0.3,0-0.6-0.3-0.8c0-0.3,0-0.5-0.2-0.7c0,0,0,0,0,0c-0.4-2.5,0.3-4.7,2-6.5
		c0.2-0.2,0.4-0.3,0.5-0.5c1.7-1,3.5-1.2,5.4-1.2c9.1,0,18.3,0,27.4,0c1.7,0,3.2,0.2,4.7,1c0,0,0,0,0,0c0.6,0.6,1.2,1.1,1.8,1.7l0,0
		c0.3,0.5,0.6,1,0.8,1.5c0,0,0-0.1,0-0.1c0.1,0.5,0.1,0.9,0.4,1.3c0,0.8,0,1.6,0,2.3c-0.3,0.7-0.6,1.5-0.9,2.2
		c-0.1,0.1-0.2,0.2-0.2,0.3c-0.2,0.1-0.3,0.3-0.4,0.6c0,0,0.1,0,0.1,0c-0.1,0.1-0.2,0.2-0.3,0.3c-0.3,0.1-0.5,0.2-0.6,0.5
		c-0.4,0.1-0.7,0.4-1,0.7l-0.1,0c0,0-0.1,0.1-0.1,0.1c-0.1,0.1-0.3,0.1-0.4,0.2c0,0,0-0.1,0-0.1c-1.2,0.4-2.4,0.5-3.6,0.5
		c-9.4,0-18.8,0-28.1,0c-1.7,0-3.3-0.2-4.8-1.1c-0.1-0.1-0.2-0.1-0.3-0.2C258.2,140.2,257.6,139.5,257,138.7z"/>
	<path class="st2" d="M318.6,112.6c0.9,3.4,0,6.2-2.9,8.2c-0.2,0.1-0.4,0.2-0.6,0.3c-1.2,0.3-2.5,0.5-3.8,0.5c-9.5,0-18.9,0-28.4,0
		c-1.7,0-3.3-0.3-4.7-1.4c-3.1-2.5-3.3-7.1-0.5-9.8c0.3-0.3,0.6-0.5,0.8-0.8c1.6-0.8,3.2-1,5-1c9.3,0,18.5,0.1,27.8,0
		c2.1,0,4,0.4,5.6,1.8c0,0,0,0,0,0c0.4,0.5,0.9,1.1,1.3,1.6c0,0,0,0,0,0C318.4,112.1,318.5,112.3,318.6,112.6z"/>
	<path class="st2" d="M256.7,96.4c-1-5.2,1.7-8.6,7.1-8.6c9.5,0,19,0,28.5,0c1.1,0,2.2,0.1,3.2,0.4c2.3,1.2,3.7,3.1,4.1,5.7
		c0,0.3,0,0.6,0,0.8c-0.2,1.4-0.8,2.7-1.5,3.9c0,0,0,0,0,0c-1.8,1.8-4,2.4-6.6,2.4c-8.9-0.1-17.9,0-26.8,0c-1.6,0-3.2-0.1-4.8-0.6
		c0,0,0,0,0,0c-0.2-0.1-0.4-0.2-0.6-0.3c0,0,0,0,0,0c-0.6-0.5-1.1-1-1.7-1.6c0,0,0,0,0,0c-0.3-0.4-0.5-0.7-0.8-1.1
		c0-0.1,0-0.2-0.1-0.3C256.9,96.8,256.8,96.6,256.7,96.4z"/>
	<path class="st2" d="M475.8,77.5c0-0.3,0.1-0.6,0.1-0.9c0-0.1,0.1-0.2,0.1-0.3c0,0,0,0,0,0c0.6-0.5,1.3-0.7,2.1-0.7
		c2.2,0,4.3,0,6.5,0c0.3,0.3,0.5,0.6,0.8,0.9c0,0.5,0.1,1,0.1,1.5c0,16.6,0,33.3,0,49.9c0,0.6-0.1,1.3-0.2,1.9c0,0,0,0,0,0
		c-0.6,0.5-1.3,0.6-2.1,0.6c-1.5,0-3,0-4.4,0c-2.5,0-2.8-0.2-2.8-2.8c0-16.2,0-32.3,0-48.5C475.9,78.7,475.8,78.1,475.8,77.5z"/>
	<path class="st2" d="M309.8,88.2c2.9-0.7,5.5-0.6,7.6,1.8c1.7,2,1.8,4.3,1.2,6.7c-0.6,1.1-1.3,2-2.2,2.9c0,0,0,0,0,0
		c-2.6,1.6-5.2,1.6-7.9,0.2c0,0,0,0,0,0c-0.2-0.1-0.4-0.3-0.5-0.4c0,0,0.1,0.1,0.1,0.1c-0.1-0.1-0.2-0.2-0.4-0.4c0,0,0.1,0,0.1,0
		c-2.2-2.6-2.5-5.4-0.9-8.4c0,0-0.1,0-0.1,0c0.1-0.1,0.2-0.3,0.3-0.4c0,0,0,0,0,0c0.6-0.6,1.3-1.1,1.9-1.7c0,0-0.1,0-0.1,0
		C309.3,88.5,309.5,88.3,309.8,88.2z"/>
	<path class="st2" d="M503.5,121.2c0.1,0.5,0.2,0.9,0.3,1.4c0.1,1.8-0.4,3.3-1.5,4.7c0,0,0,0,0,0c-0.1,0.1-0.2,0.2-0.3,0.3
		c-0.7,0.4-1.4,0.8-2.1,1.2c0,0,0,0,0,0c-4,0.7-6.4-1.8-6.9-4.6c-0.2-1.6,0.3-2.9,1-4.2c0.3-0.3,0.6-0.6,0.9-0.9c0,0,0,0,0,0
		c0.6-0.3,1.2-0.7,1.8-0.9C499.4,117.3,501.4,118.2,503.5,121.2z"/>
	<path class="st2" d="M405.1,99.5c0.5,0.7,0.5,1.5,0.5,2.3c0,12.5,0,25,0,37.6c0,1.1-0.1,2.3-0.2,3.4c-0.7,2.9-1.6,5.6-3.7,7.9
		c-0.8,0.9-1.9,1.6-2.8,2.4l0,0c-3.7,1.9-7.5,2.2-11.5,1.6c-0.1,0-0.3-0.1-0.4-0.1c-1.3-0.6-2.8-1-4-1.8c-1.7-1.1-1.8-1.5-1.1-3.4
		c0.4-0.5,0.7-1.1,0.9-1.8c0,0,0,0,0,0c0.4-0.3,0.5-0.7,0.6-1.2c0,0,0,0,0,0c0.1-0.2,0.2-0.4,0.4-0.6c0.2-0.4,0.4-0.7,0.6-1.1
		c0,0-0.1,0-0.1,0c0.2-0.1,0.4-0.2,0.6-0.3c0,0,0,0,0,0c0.9,0,1.6,0.6,2.5,0.8c0.7,0.5,1.5,0.8,2.4,0.8c1,0.4,1.9,0.2,2.8-0.2l0.1,0
		c0,0,0-0.1,0-0.1c0.4,0,0.7-0.2,1-0.6c0,0,0,0,0,0c0.5-0.1,0.8-0.4,0.9-0.9c0,0,0,0,0,0c0.2-0.1,0.4-0.3,0.4-0.5c0,0,0,0,0,0
		c0.1-0.1,0.1-0.3,0.2-0.4c0,0,0,0,0,0c0.2-0.1,0.3-0.4,0.3-0.6c0.2-0.1,0.2-0.3,0.2-0.6c0.6-1.4,0.5-2.9,0.5-4.4c0-12,0-24,0-35.9
		c0-2.3,0.3-2.7,2.7-2.6C400.9,99.3,403,98.9,405.1,99.5z"/>
	<path class="st2" d="M308,130.8c0.2-0.1,0.3-0.3,0.5-0.4c2.9-1.8,5.7-1.7,8.4,0.4c0,0.1,0.1,0.1,0.2,0.1c1.9,2.2,2.2,4.6,1.5,7.3
		c0,0,0,0,0,0c-0.6,0.9-1.3,1.7-1.9,2.6c0,0-0.1,0-0.1,0l0,0.1c-1,0.5-2.1,1.1-3.2,1.3c-0.2,0-0.4,0.1-0.6,0.1c-1-0.2-2-0.4-2.9-0.5
		c0,0,0,0,0,0c-4.1-2.7-4.9-5.9-2.5-10.2C307.5,131.3,307.7,131.1,308,130.8z"/>
</g>
<path class="st2" d="M467.5,191.8H223.6c-6.7,0-12.1,5.4-12.1,12.1v185.6c0,6.7,5.4,12.1,12.1,12.1h243.9c6.7,0,12.1-5.4,12.1-12.1
	V203.9C479.6,197.2,474.1,191.8,467.5,191.8z M223.6,194.6h243.9c5.1,0,9.3,4.2,9.3,9.3v6.7H214.3v-6.7
	C214.3,198.7,218.5,194.6,223.6,194.6z M467.5,398.7H223.6c-5.1,0-9.3-4.2-9.3-9.3v-176h262.4v176
	C476.7,394.5,472.6,398.7,467.5,398.7z"/>
<linearGradient id="SVGID_2_" gradientUnits="userSpaceOnUse" x1="445" y1="344" x2="612" y2="344">
	<stop  offset="0" style="stop-color:#E4505D"/>
	<stop  offset="1" style="stop-color:#F46D4C"/>
</linearGradient>
<rect x="445" y="241" class="st5" width="167" height="206"/>
<path class="st1" d="M575.7,240.7c0,0-38.7,41.3-8.7,93.3s-18,110.4-18,110.4l50.2,2.1c7,0.3,13.7-4.5,13.8-11.5V249
	c0-3.9-3.1-9-7-9L575.7,240.7z"/>
<g>
	<circle class="st2" cx="222.6" cy="202.3" r="2.6"/>
</g>
<g>
	<circle class="st2" cx="231.3" cy="202.3" r="2.6"/>
</g>
<g>
	<circle class="st2" cx="239.9" cy="202.3" r="2.6"/>
</g>
<path class="st2" d="M602.9,237.8H454c-6.7,0-12.1,5.4-12.1,12.1v185.2c0,6.7,5.4,12.1,12.1,12.1h148.9c6.7,0,12.1-5.4,12.1-12.1
	V249.9C615,243.3,609.6,237.8,602.9,237.8z M454,240.7h148.9c5.1,0,9.3,4.2,9.3,9.3v6.7H444.8v-6.7
	C444.8,244.8,448.9,240.7,454,240.7z M602.9,444.4H454c-5.1,0-9.3-4.2-9.3-9.3V259.5h167.4v175.7C612.2,440.3,608,444.4,602.9,444.4
	z"/>
<linearGradient id="SVGID_3_" gradientUnits="userSpaceOnUse" x1="175" y1="358" x2="249" y2="358">
	<stop  offset="0" style="stop-color:#E4505D"/>
	<stop  offset="1" style="stop-color:#F46D4C"/>
</linearGradient>
<rect x="175" y="284" class="st6" width="74" height="148"/>
<path class="st1" d="M231.3,284.9c0,0-42.3,29.8-19.3,71.5s-16.7,75.3-16.7,75.3l45.2,0.3c4.1,0,8.5-3.3,8.5-7.5V293.3
	c0-4.6-4.4-9.2-9-9.3L231.3,284.9z"/>
<path class="st2" d="M238.9,282.1h-54.8c-6.7,0-12.1,5.4-12.1,12.1v128.2c0,6.7,5.4,12.1,12.1,12.1h54.8c6.7,0,12.1-5.4,12.1-12.1
	V294.1C251,287.5,245.6,282.1,238.9,282.1z M184.1,284.9h54.8c5.1,0,9.3,4.2,9.3,9.3v3.7h-73.4v-3.7
	C174.8,289,179,284.9,184.1,284.9z M238.9,431.6h-54.8c-5.1,0-9.3-4.2-9.3-9.3V300.7h73.4v121.6C248.2,427.4,244,431.6,238.9,431.6z
	"/>
<line class="st7" x1="445" y1="427.5" x2="612" y2="427.5"/>
<line class="st7" x1="248" y1="416.5" x2="174" y2="416.5"/>
<g>
	<circle class="st2" cx="528.7" cy="436.6" r="4.3"/>
</g>
<g>
	<circle class="st2" cx="211.7" cy="424.6" r="3.3"/>
</g>
<g>
	<rect x="278" y="243" class="st8" width="141" height="51"/>
	<rect x="351" y="303" class="st2" width="68" height="29"/>
	<rect x="278" y="303" class="st2" width="68" height="29"/>
	<g>
		<rect x="355" y="341" class="st9" width="60" height="3"/>
		<rect x="355" y="349" class="st9" width="60" height="3"/>
		<rect x="355" y="357" class="st9" width="60" height="3"/>
		<rect x="355" y="365" class="st9" width="60" height="3"/>
	</g>
	<g>
		<rect x="282" y="341" class="st9" width="60" height="3"/>
		<rect x="282" y="349" class="st9" width="60" height="3"/>
		<rect x="282" y="357" class="st9" width="60" height="3"/>
		<rect x="282" y="365" class="st9" width="60" height="3"/>
	</g>
</g>
<g>
	<rect x="458" y="291" class="st8" width="141" height="29"/>
	<rect x="531" y="329" class="st2" width="68" height="29"/>
	<rect x="458" y="329" class="st2" width="68" height="29"/>
	<g>
		<rect x="535" y="367" class="st9" width="60" height="3"/>
		<rect x="535" y="375" class="st9" width="60" height="3"/>
		<rect x="535" y="383" class="st9" width="60" height="3"/>
		<rect x="535" y="391" class="st9" width="60" height="3"/>
	</g>
	<g>
		<rect x="462" y="367" class="st9" width="60" height="3"/>
		<rect x="462" y="375" class="st9" width="60" height="3"/>
		<rect x="462" y="383" class="st9" width="60" height="3"/>
		<rect x="462" y="391" class="st9" width="60" height="3"/>
	</g>
</g>
<g>
	<rect x="181" y="307" class="st8" width="60" height="29"/>
	<rect x="181" y="343" class="st2" width="60" height="29"/>
	<g>
		<rect x="181" y="379" class="st9" width="60" height="3"/>
		<rect x="181" y="387" class="st9" width="60" height="3"/>
		<rect x="181" y="395" class="st9" width="60" height="3"/>
		<rect x="181" y="403" class="st9" width="60" height="3"/>
	</g>
</g>
</svg>
