<?xml version="1.0" encoding="utf-8"?>
<!-- Generator: Adobe Illustrator 22.0.1, SVG Export Plug-In . SVG Version: 6.00 Build 0)  -->
<svg version="1.1" id="Layer_1" xmlns="http://www.w3.org/2000/svg" xmlns:xlink="http://www.w3.org/1999/xlink" x="0px" y="0px"
	 viewBox="0 0 760 430.9" style="enable-background:new 0 0 760 430.9;" xml:space="preserve">
<style type="text/css">
	.st0{fill:#1A1A1A;}
	.st1{fill:#FFFFFF;}
	.st2{fill:#8CA5F5;}
	.st3{fill:#E5E5E5;}
</style>
<g>
	<rect x="0" y="0" width="760" height="430.9"/>
	<path class="st0" d="M68.1,109h17.6l-15.5,76.8h0.7c9.6-19.7,20.8-28.4,38.2-28.4c21.5,0,35.9,17.2,35.9,45
		c0,34.8-18.5,78.4-57.6,78.4c-14.2,0-27.4-7.1-30.9-22h-0.9l-3.9,19.2H34L68.1,109z M122.3,229.1l3.4-17.1
		c0.7-3.9,1.1-7.8,1.1-11.7c0-15.3-6.9-26.8-22.6-26.8c-10.3,0-17.8,4.8-24.7,11.7c-7.5,7.5-12.6,16.5-14.9,28.4l-4.8,24
		c-3,14.6,4.8,27.4,25.8,27.4C104.9,265,117.7,251.9,122.3,229.1z"/>
	<path class="st0" d="M163.3,231.6c0-39.1,24.7-74.1,61.7-74.1c20.1,0,38,10.3,38,31.6c0,25.8-26.5,38.2-81.4,38.6
		c-0.5,3.2-0.7,7.1-0.7,9.6c0,16.7,9.8,27.9,28.1,27.9c14.9,0,27-7.5,36.1-18.8l11.4,10.3c-14.6,17.8-31.8,24.2-48.7,24.2
		C179.7,281,163.3,263.6,163.3,231.6z M185.2,207.4l-1.4,6.6c50.5-1.8,61.1-8.9,61.1-25.2c0-12.6-10.5-16.2-21.7-16.2
		C204.7,172.6,189.6,186.3,185.2,207.4z"/>
	<path class="st0" d="M434.5,326.7c-31.6,0-47.6-8.9-47.6-26.1c0-12.1,7.8-21.5,23.3-26.1l0.5-1.8c-6.6-3-9.6-7.5-9.6-14.4
		c0-11.2,7.8-19.2,23.8-22.4l0.2-1.6c-10.5-5.5-16-15.8-16-29.7c0-27,20.6-47.1,49.8-47.1c8.7,0,16.2,1.8,22,5l0.5-2.7
		c1.6-9.4,6.6-15.5,16.2-15.5h16.7l-3,15.8H491l-1.8,9.4c4.8,5.9,7.3,13.5,7.3,22.6c0,26.5-21.3,46.6-51,46.6
		c-3.2,0-5.7-0.2-8.9-0.7c-11,2.1-18.8,5.9-18.8,13.7c0,5.9,4.8,8.5,15.5,8.5h26.3c26.3,0,36.4,9.4,36.4,26.5
		C496,307.5,481.8,326.7,434.5,326.7z M458.7,276.9h-40.5c-9.1,3.9-13.7,10.1-13.7,18.5c0,9.6,5.9,16.9,24.7,16.9H440
		c26.3,0,37.7-8.9,37.7-22C477.7,282.1,473.1,276.9,458.7,276.9z M476.3,202.6c1.6-8.2,2.1-10.1,2.1-12.8c0-11-6.9-18.1-21.5-18.1
		c-16.7,0-25.4,8.9-28.1,22.4c-1.6,8.2-2.1,10.1-2.1,12.8c0,11,6.9,17.8,21.5,17.8C464.9,224.7,473.6,216,476.3,202.6z"/>
	<path class="st0" d="M528.3,278.2c-10.7,0-16-5.9-16-14.4c0-1.6,0.2-3.2,0.7-5.5l19.7-98.1h17.6l-20.6,102.4h16.7l-3,15.5H528.3z
		 M538.1,124.6c0-0.9,0-2.1,0.9-6.4c1.1-5.7,4.8-9.1,12.3-9.1c7.1,0,9.6,3.7,9.6,8c0,0.9,0,2.1-0.9,6.4c-1.1,5.7-4.8,9.1-12.3,9.1
		C540.6,132.6,538.1,128.9,538.1,124.6z"/>
	<path class="st0" d="M591.6,160.3h17.6l-28.1,140.4c-3.2,16-10.1,23.3-26.1,23.3h-15.3l3.2-15.5h19L591.6,160.3z M597.1,124.6
		c0-0.9,0-2.1,0.9-6.4c1.1-5.7,4.8-9.1,12.3-9.1c7.1,0,9.6,3.7,9.6,8c0,0.9,0,2.1-0.9,6.4c-1.1,5.7-4.8,9.1-12.3,9.1
		C599.6,132.6,597.1,128.9,597.1,124.6z"/>
	<path class="st0" d="M716.9,160.3h18.8L655.9,305c-7.5,13.7-13.5,19-25.4,19h-18.3l3-15.1h21.3l14.6-27l-18.7-121.7h17.1l8.7,58.3
		l4.8,43h1.1l21.3-43L716.9,160.3z"/>
	<g>
		<g>
			<path class="st1" d="M213.8,63.8v-4.7h-0.2l-3.1,7.6l-3.1-7.6h-0.2v4.7v7.4h-1.6V56.4h2.3l2.6,6.5h0.1l2.6-6.5h2.2v14.8h-1.6
				V63.8z"/>
			<path class="st1" d="M227.1,71.2c-1.3,0-1.8-0.8-1.9-1.8H225c-0.5,1.2-1.5,2-3.3,2c-2.3,0-3.7-1.3-3.7-3.3c0-2,1.4-3.2,4.7-3.2
				h2.3v-1.1c0-1.6-1-2.4-2.6-2.4c-1.5,0-2.3,0.6-2.9,1.6l-1.1-0.8c0.5-1.1,1.9-2.2,4.2-2.2c2.6,0,4.2,1.4,4.2,3.7v6h1.5v1.5H227.1z
				 M225,68v-1.8h-2.3c-2,0-2.9,0.6-2.9,1.7v0.4c0,1.1,0.9,1.7,2.3,1.7C223.8,70,225,69.1,225,68z"/>
			<path class="st1" d="M230.9,71.2V60.2h1.7V62h0.1c0.5-1.1,1.3-2,3.1-2c2.3,0,3.8,1.5,3.8,4.2v7h-1.7v-6.7c0-2-0.9-3-2.6-3
				c-1.4,0-2.7,0.7-2.7,2.1v7.6H230.9z"/>
			<path class="st1" d="M204.2,75.4v-1.3h37v1.3H204.2z"/>
		</g>
	</g>
	<g>
		<g>
			<path class="st1" d="M234.1,83.8h-0.1v12.5h-1.6V81.5h2.5l5,12.4h0.1V81.5h1.6v14.8h-2.5L234.1,83.8z"/>
			<path class="st1" d="M253.4,96.3c-1.3,0-1.8-0.8-1.9-1.8h-0.1c-0.5,1.2-1.5,2-3.3,2c-2.3,0-3.7-1.3-3.7-3.3c0-2,1.4-3.2,4.7-3.2
				h2.3v-1.1c0-1.6-1-2.4-2.6-2.4c-1.5,0-2.3,0.6-2.9,1.6l-1.1-0.8c0.5-1.1,1.9-2.2,4.2-2.2c2.6,0,4.2,1.4,4.2,3.7v6h1.5v1.5H253.4z
				 M251.3,93.1v-1.8H249c-2,0-2.9,0.6-2.9,1.7v0.4c0,1.1,0.9,1.7,2.3,1.7C250.1,95.1,251.3,94.2,251.3,93.1z"/>
			<path class="st1" d="M261.7,96.3c-1.6,0-2.4-1-2.4-2.5v-7h-3.6v-1.4h2.7c0.7,0,1-0.3,1-1v-2.9h1.6v3.9h5v1.4h-5v8h5v1.4H261.7z"
				/>
			<path class="st1" d="M275.7,94.5L275.7,94.5c-0.5,1.1-1.4,2-3.2,2c-2.3,0-3.8-1.5-3.8-4.2v-7h1.7v6.7c0,2,0.9,3,2.6,3
				c1.4,0,2.7-0.7,2.7-2.1v-7.6h1.7v10.9h-1.7V94.5z"/>
			<path class="st1" d="M280.4,94.8h3.2v-8h-3.2v-1.4h4.9v1.9h0.1c0.4-1,1.5-1.9,3.3-1.9h1.9V87h-2.3c-1.9,0-3,0.8-3,1.8v6h4.2v1.4
				h-9.1V94.8z"/>
			<path class="st1" d="M301.7,96.3c-1.3,0-1.8-0.8-1.9-1.8h-0.1c-0.5,1.2-1.5,2-3.3,2c-2.3,0-3.7-1.3-3.7-3.3c0-2,1.4-3.2,4.7-3.2
				h2.3v-1.1c0-1.6-1-2.4-2.6-2.4c-1.5,0-2.3,0.6-2.9,1.6l-1.1-0.8c0.6-1.1,1.9-2.2,4.2-2.2c2.6,0,4.2,1.4,4.2,3.7v6h1.5v1.5H301.7z
				 M299.6,93.1v-1.8h-2.3c-2,0-2.9,0.6-2.9,1.7v0.4c0,1.1,0.9,1.7,2.3,1.7C298.4,95.1,299.6,94.2,299.6,93.1z"/>
			<path class="st1" d="M305.3,94.8h3.8V82.1h-3.8v-1.4h5.5v14.2h3.8v1.4h-9.3V94.8z"/>
			<path class="st1" d="M230.6,100.5v-1.3H316v1.3H230.6z"/>
		</g>
	</g>
	<g>
		<g>
			<path class="st1" d="M185,109.5v13.2h-1.8v-13.2h-4.9v-1.5h11.6v1.5H185z"/>
			<path class="st1" d="M191.3,121.3h3.9v-8h-3.9v-1.4h5.6v9.5h3.7v1.4h-9.3V121.3z M194.8,108.3V108c0-0.6,0.4-1.1,1.3-1.1
				s1.3,0.5,1.3,1.1v0.3c0,0.6-0.4,1.1-1.3,1.1S194.8,108.9,194.8,108.3z"/>
			<path class="st1" d="M202.9,122.7v-10.9h1.6v1.3h0.1c0.3-0.8,0.9-1.5,2.1-1.5c1.2,0,1.9,0.7,2,1.7h0.1c0.4-1,1.1-1.7,2.4-1.7
				c1.8,0,2.2,1.3,2.2,3.6v7.6h-1.6v-7.3c0-1.9-0.3-2.5-1.3-2.5c-0.9,0-1.5,0.6-1.5,1.8v8h-1.6v-7.3c0-1.9-0.3-2.5-1.3-2.5
				c-0.9,0-1.5,0.6-1.5,1.8v8H202.9z"/>
			<path class="st1" d="M215.9,117.3c0-3.5,2.1-5.7,5-5.7c2.9,0,4.8,2.2,4.8,5.3v0.8h-8.1v0.5c0,1.9,1.3,3.3,3.3,3.3
				c1.5,0,2.6-0.7,3.1-1.9l1.2,0.8c-0.7,1.5-2.2,2.5-4.4,2.5C217.8,123,215.9,120.7,215.9,117.3z M217.6,116.3v0.1h6.3v-0.2
				c0-1.9-1.2-3.2-3-3.2C219,112.9,217.6,114.3,217.6,116.3z"/>
			<path class="st1" d="M228,121.3h3.8v-12.8H228V107h5.5v14.2h3.8v1.4H228V121.3z"/>
			<path class="st1" d="M239.4,117.3c0-3.5,2.1-5.7,5-5.7c2.9,0,4.8,2.2,4.8,5.3v0.8h-8.1v0.5c0,1.9,1.3,3.3,3.3,3.3
				c1.5,0,2.6-0.7,3.1-1.9l1.2,0.8c-0.7,1.5-2.2,2.5-4.4,2.5C241.4,123,239.4,120.7,239.4,117.3z M241.2,116.3v0.1h6.3v-0.2
				c0-1.9-1.2-3.2-3-3.2C242.6,112.9,241.2,114.3,241.2,116.3z"/>
			<path class="st1" d="M251.6,120.8l1.1-1c1,1.1,2.2,1.7,4,1.7c1.7,0,2.9-0.6,2.9-1.9c0-1.1-0.9-1.4-1.9-1.6l-1.7-0.3
				c-1.5-0.2-3.7-0.7-3.7-3c0-2.2,1.9-3.3,4.4-3.3c2,0,3.4,0.7,4.4,1.8l-1.1,1c-0.5-0.6-1.5-1.4-3.4-1.4c-1.7,0-2.7,0.6-2.7,1.7
				c0,1.1,1,1.4,1.9,1.6l1.7,0.3c1.6,0.2,3.7,0.7,3.7,3c0,2.2-1.8,3.4-4.6,3.4C254.3,123,252.7,122.1,251.6,120.8z"/>
			<path class="st1" d="M263.8,120.8l1.1-1c1,1.1,2.2,1.7,4,1.7c1.7,0,2.9-0.6,2.9-1.9c0-1.1-0.9-1.4-1.9-1.6l-1.7-0.3
				c-1.5-0.2-3.7-0.7-3.7-3c0-2.2,1.9-3.3,4.4-3.3c2,0,3.4,0.7,4.4,1.8l-1.1,1c-0.5-0.6-1.5-1.4-3.4-1.4c-1.7,0-2.7,0.6-2.7,1.7
				c0,1.1,1,1.4,1.9,1.6l1.7,0.3c1.6,0.2,3.7,0.7,3.7,3c0,2.2-1.8,3.4-4.6,3.4C266.6,123,264.9,122.1,263.8,120.8z"/>
			<path class="st1" d="M177.8,126.9v-1.3h97v1.3H177.8z"/>
		</g>
	</g>
	<g>
		<path class="st2" d="M343.4,320.2v-4.7h-0.2l-3.1,7.6l-3.1-7.6h-0.2v4.7v7.4h-1.6v-14.8h2.3l2.6,6.5h0.1l2.6-6.5h2.2v14.8h-1.6
			V320.2z"/>
		<path class="st2" d="M356.6,327.6c-1.3,0-1.8-0.8-1.9-1.8h-0.1c-0.5,1.2-1.5,2-3.3,2c-2.3,0-3.7-1.3-3.7-3.3c0-2,1.4-3.2,4.7-3.2
			h2.3v-1.1c0-1.6-1-2.4-2.6-2.4c-1.5,0-2.3,0.6-2.9,1.6l-1.1-0.8c0.5-1.1,1.9-2.2,4.2-2.2c2.6,0,4.2,1.4,4.2,3.7v6h1.5v1.5H356.6z
			 M354.6,324.4v-1.8h-2.3c-2,0-2.9,0.6-2.9,1.7v0.4c0,1.1,0.9,1.7,2.3,1.7C353.3,326.4,354.6,325.5,354.6,324.4z"/>
		<path class="st2" d="M359.8,322.1c0-3.5,1.8-5.7,4.9-5.7c2.1,0,3.4,1,4,2.5l-1.4,0.7c-0.4-1.1-1.3-1.8-2.7-1.8
			c-2,0-3.1,1.4-3.1,3.3v1.9c0,1.9,1.1,3.3,3.2,3.3c1.5,0,2.4-0.7,3-1.9l1.2,0.8c-0.6,1.5-2,2.5-4.2,2.5
			C361.7,327.8,359.8,325.6,359.8,322.1z"/>
		<path class="st2" d="M372,311.9h1.7v6.5h0.1c0.5-1.1,1.3-2,3.1-2c2.3,0,3.8,1.5,3.8,4.2v7H379v-6.7c0-2-0.9-3-2.6-3
			c-1.4,0-2.7,0.7-2.7,2.1v7.6H372V311.9z"/>
		<path class="st2" d="M383.8,326.1h3.9v-8h-3.9v-1.4h5.6v9.5h3.7v1.4h-9.3V326.1z M387.3,313.2v-0.3c0-0.6,0.4-1.1,1.3-1.1
			s1.3,0.5,1.3,1.1v0.3c0,0.6-0.4,1.1-1.3,1.1S387.3,313.8,387.3,313.2z"/>
		<path class="st2" d="M395.8,327.6v-10.9h1.7v1.8h0.1c0.5-1.1,1.3-2,3.1-2c2.3,0,3.8,1.5,3.8,4.2v7h-1.7v-6.7c0-2-0.9-3-2.6-3
			c-1.4,0-2.7,0.7-2.7,2.1v7.6H395.8z"/>
		<path class="st2" d="M407.4,322.1c0-3.5,2.1-5.7,5-5.7c2.9,0,4.8,2.2,4.8,5.3v0.8h-8.1v0.5c0,1.9,1.3,3.3,3.3,3.3
			c1.5,0,2.6-0.7,3.1-1.9l1.2,0.8c-0.7,1.5-2.2,2.5-4.4,2.5C409.4,327.8,407.4,325.6,407.4,322.1z M409.2,321.1v0.1h6.3V321
			c0-1.9-1.2-3.2-3-3.2C410.6,317.8,409.2,319.2,409.2,321.1z"/>
		<path class="st2" d="M333.7,331.8v-1.3h84.7v1.3H333.7z"/>
	</g>
	<g>
		<path class="st2" d="M385.9,352.7v-14.8h9.1v1.5h-7.3v5h7.1v1.5h-7.1v5.2h7.3v1.5H385.9z"/>
		<path class="st2" d="M397.8,352.7v-10.9h1.7v1.8h0.1c0.5-1.1,1.3-2,3.1-2c2.3,0,3.8,1.5,3.8,4.2v7h-1.7V346c0-2-0.9-3-2.6-3
			c-1.4,0-2.7,0.7-2.7,2.1v7.6H397.8z"/>
		<path class="st2" d="M414.1,357.2c-3.5,0-5-1-5-2.7c0-1.2,0.7-1.8,1.8-2.1v-0.3c-0.6-0.3-1-0.8-1-1.5c0-1.1,0.8-1.6,2-1.9v-0.1
			c-1.3-0.6-2.1-1.8-2.1-3.3c0-2.2,1.7-3.8,4.2-3.8c0.8,0,1.5,0.1,2.2,0.4v-0.2c0-0.8,0.4-1.5,1.3-1.5h2v1.5H417v0.7
			c0.8,0.7,1.2,1.6,1.2,2.8c0,2.2-1.7,3.8-4.3,3.8c-0.4,0-0.7,0-1-0.1c-0.7,0.1-1.6,0.5-1.6,1.2c0,0.7,0.7,0.8,1.8,0.8h2.4
			c2.8,0,4,1.1,4,2.9C419.6,356.1,417.7,357.2,414.1,357.2z M415.6,352.6h-3.8c-0.7,0.3-1.1,0.8-1.1,1.5c0,1,0.7,1.8,2.5,1.8h1.7
			c2,0,3.1-0.6,3.1-1.8C418,353.2,417.4,352.6,415.6,352.6z M416.5,345.6V345c0-1.3-0.8-2.1-2.5-2.1c-1.7,0-2.5,0.8-2.5,2.1v0.6
			c0,1.3,0.8,2.2,2.5,2.2C415.7,347.7,416.5,346.9,416.5,345.6z"/>
		<path class="st2" d="M422.1,351.2h3.9v-8h-3.9v-1.4h5.6v9.5h3.7v1.4h-9.3V351.2z M425.6,338.3v-0.3c0-0.6,0.4-1.1,1.3-1.1
			s1.3,0.5,1.3,1.1v0.3c0,0.6-0.4,1.1-1.3,1.1S425.6,338.9,425.6,338.3z"/>
		<path class="st2" d="M434.1,352.7v-10.9h1.7v1.8h0.1c0.5-1.1,1.3-2,3.1-2c2.3,0,3.8,1.5,3.8,4.2v7h-1.7V346c0-2-0.9-3-2.6-3
			c-1.4,0-2.7,0.7-2.7,2.1v7.6H434.1z"/>
		<path class="st2" d="M445.7,347.3c0-3.5,2.1-5.7,5-5.7c2.9,0,4.8,2.2,4.8,5.3v0.8h-8.1v0.5c0,1.9,1.3,3.3,3.3,3.3
			c1.5,0,2.6-0.7,3.1-1.9l1.2,0.8c-0.7,1.5-2.2,2.5-4.4,2.5C447.7,352.9,445.7,350.7,445.7,347.3z M447.5,346.2v0.1h6.3v-0.2
			c0-1.9-1.2-3.2-3-3.2C448.9,342.9,447.5,344.3,447.5,346.2z"/>
		<path class="st2" d="M458.1,347.3c0-3.5,2.1-5.7,5-5.7c2.9,0,4.8,2.2,4.8,5.3v0.8h-8.1v0.5c0,1.9,1.3,3.3,3.3,3.3
			c1.5,0,2.6-0.7,3.1-1.9l1.2,0.8c-0.7,1.5-2.2,2.5-4.4,2.5C460.1,352.9,458.1,350.7,458.1,347.3z M459.9,346.2v0.1h6.3v-0.2
			c0-1.9-1.2-3.2-3-3.2C461.2,342.9,459.9,344.3,459.9,346.2z"/>
		<path class="st2" d="M470.2,351.2h3.2v-8h-3.2v-1.4h4.9v1.9h0.1c0.4-1,1.5-1.9,3.3-1.9h1.9v1.7h-2.3c-1.9,0-3,0.8-3,1.8v6h4.2v1.4
			h-9.1V351.2z"/>
		<path class="st2" d="M482.2,347.3c0-3.5,2.1-5.7,5-5.7c2.9,0,4.8,2.2,4.8,5.3v0.8H484v0.5c0,1.9,1.3,3.3,3.3,3.3
			c1.5,0,2.6-0.7,3.1-1.9l1.2,0.8c-0.7,1.5-2.2,2.5-4.4,2.5C484.2,352.9,482.2,350.7,482.2,347.3z M484,346.2v0.1h6.3v-0.2
			c0-1.9-1.2-3.2-3-3.2C485.4,342.9,484,344.3,484,346.2z"/>
		<path class="st2" d="M502.2,350.9L502.2,350.9c-0.8,1.3-1.9,2-3.4,2c-2.7,0-4.3-2.1-4.3-5.7s1.6-5.7,4.3-5.7c1.5,0,2.7,0.7,3.4,2
			h0.1V337h1.7v15.7h-1.7V350.9z M502.2,349.2v-3.9c0-1.5-1.3-2.2-2.8-2.2c-2,0-3.1,1.3-3.1,3.3v1.9c0,2,1.1,3.3,3.1,3.3
			C500.9,351.4,502.2,350.7,502.2,349.2z"/>
		<path class="st2" d="M384,356.9v-1.3h121.7v1.3H384z"/>
	</g>
	<g>
		<path class="st2" d="M360.9,364.4h4.1c3.6,0,5.4,2.5,5.4,7.4c0,4.8-1.8,7.4-5.4,7.4h-4.1V364.4z M364.9,377.6
			c2.3,0,3.6-1.7,3.6-4.7v-2.3c0-3-1.2-4.7-3.6-4.7h-2.3v11.7H364.9z"/>
		<path class="st2" d="M373,377.7h3.9v-8H373v-1.4h5.6v9.5h3.7v1.4H373V377.7z M376.5,364.7v-0.3c0-0.6,0.4-1.1,1.3-1.1
			s1.3,0.5,1.3,1.1v0.3c0,0.6-0.4,1.1-1.3,1.1S376.5,365.3,376.5,364.7z"/>
		<path class="st2" d="M384.6,377.2l1.1-1c1,1.1,2.2,1.7,4,1.7c1.7,0,2.9-0.6,2.9-1.9c0-1.1-0.9-1.4-1.9-1.6l-1.7-0.3
			c-1.5-0.2-3.7-0.7-3.7-3c0-2.2,1.9-3.3,4.4-3.3c2,0,3.4,0.7,4.4,1.8l-1.1,1c-0.5-0.6-1.5-1.4-3.4-1.4c-1.7,0-2.7,0.6-2.7,1.7
			c0,1.1,1,1.4,1.9,1.6l1.7,0.3c1.6,0.2,3.7,0.7,3.7,3c0,2.2-1.8,3.4-4.6,3.4C387.3,379.4,385.7,378.5,384.6,377.2z"/>
		<path class="st2" d="M402.5,379.1c-1.7,0-2.4-1-2.4-2.5v-7h-3.6v-1.4h2.7c0.7,0,1-0.3,1-1v-2.9h1.6v3.9h5v1.4h-5v8h5v1.4H402.5z"
			/>
		<path class="st2" d="M409.7,377.7h3.9v-8h-3.9v-1.4h5.6v9.5h3.7v1.4h-9.3V377.7z M413.2,364.7v-0.3c0-0.6,0.4-1.1,1.3-1.1
			s1.3,0.5,1.3,1.1v0.3c0,0.6-0.4,1.1-1.3,1.1S413.2,365.3,413.2,364.7z"/>
		<path class="st2" d="M421.7,379.1v-10.9h1.7v1.8h0.1c0.5-1.1,1.3-2,3.1-2c2.3,0,3.8,1.5,3.8,4.2v7h-1.7v-6.7c0-2-0.9-3-2.6-3
			c-1.4,0-2.7,0.7-2.7,2.1v7.6H421.7z"/>
		<path class="st2" d="M433.5,373.7c0-3.5,1.8-5.7,4.9-5.7c2.1,0,3.4,1,4,2.5l-1.4,0.7c-0.4-1.1-1.3-1.8-2.7-1.8
			c-2,0-3.1,1.4-3.1,3.3v1.9c0,1.9,1.1,3.3,3.2,3.3c1.5,0,2.4-0.7,3-1.9l1.2,0.8c-0.6,1.5-2,2.5-4.2,2.5
			C435.4,379.4,433.5,377.1,433.5,373.7z"/>
		<path class="st2" d="M450.9,379.1c-1.7,0-2.4-1-2.4-2.5v-7h-3.6v-1.4h2.7c0.7,0,1-0.3,1-1v-2.9h1.6v3.9h5v1.4h-5v8h5v1.4H450.9z"
			/>
		<path class="st2" d="M358.8,383.4v-1.3h97.6v1.3H358.8z"/>
	</g>
	<g>
		<path class="st3" d="M347.2,157.5c-16.9,0-27.9,8.5-36.1,26.1h-1.1l4.8-23.3h-17.6l-23.8,118H291l13.3-65.9
			c1.8-9.4,7.8-21.7,15.5-29.5c6.4-6.4,13.3-9.4,21.7-9.4c5.2,0,9.2,1.2,12.1,3.5l9.2-16.2C358.5,158.6,353.3,157.5,347.2,157.5z"/>
		<path class="st2" d="M376,205.5c1.1-5.7,1.6-11,1.6-15.3c0-13.1-4.2-22.8-12.6-28.1l-9.5,16.8c2.7,3.3,4,8.1,4,14.5
			c0,2.7-0.2,7.5-1.1,12.1l-11,54.7c-0.5,2.3-0.5,3.4-0.5,4.8c0,9.1,5.9,13.3,14.6,13.3h16.7l3-15.5h-16.7L376,205.5z"/>
		<path class="st2" d="M353.6,177l-87.8,155.4l2.3,1.3l87.4-154.8C355,178.2,354.3,177.5,353.6,177z"/>
		<path class="st2" d="M395,109l-2.3-1.3l-29.9,53c0.8,0.4,1.6,0.8,2.3,1.3L395,109z"/>
		<path class="st2" d="M362.8,160.8l-9.2,16.2c0.7,0.6,1.4,1.2,2,1.9l9.5-16.8C364.3,161.6,363.6,161.2,362.8,160.8z"/>
	</g>
</g>
</svg>
